%TF.GenerationSoftware,KiCad,Pcbnew,8.0.4*%
%TF.CreationDate,2024-12-14T22:44:59+01:00*%
%TF.ProjectId,SpicyLightFX3,53706963-794c-4696-9768-744658332e6b,rev?*%
%TF.SameCoordinates,Original*%
%TF.FileFunction,Copper,L1,Top*%
%TF.FilePolarity,Positive*%
%FSLAX46Y46*%
G04 Gerber Fmt 4.6, Leading zero omitted, Abs format (unit mm)*
G04 Created by KiCad (PCBNEW 8.0.4) date 2024-12-14 22:44:59*
%MOMM*%
%LPD*%
G01*
G04 APERTURE LIST*
G04 Aperture macros list*
%AMRoundRect*
0 Rectangle with rounded corners*
0 $1 Rounding radius*
0 $2 $3 $4 $5 $6 $7 $8 $9 X,Y pos of 4 corners*
0 Add a 4 corners polygon primitive as box body*
4,1,4,$2,$3,$4,$5,$6,$7,$8,$9,$2,$3,0*
0 Add four circle primitives for the rounded corners*
1,1,$1+$1,$2,$3*
1,1,$1+$1,$4,$5*
1,1,$1+$1,$6,$7*
1,1,$1+$1,$8,$9*
0 Add four rect primitives between the rounded corners*
20,1,$1+$1,$2,$3,$4,$5,0*
20,1,$1+$1,$4,$5,$6,$7,0*
20,1,$1+$1,$6,$7,$8,$9,0*
20,1,$1+$1,$8,$9,$2,$3,0*%
G04 Aperture macros list end*
%TA.AperFunction,SMDPad,CuDef*%
%ADD10RoundRect,0.250000X-0.450000X-0.425000X0.450000X-0.425000X0.450000X0.425000X-0.450000X0.425000X0*%
%TD*%
%TA.AperFunction,SMDPad,CuDef*%
%ADD11RoundRect,0.155000X-0.155000X0.212500X-0.155000X-0.212500X0.155000X-0.212500X0.155000X0.212500X0*%
%TD*%
%TA.AperFunction,SMDPad,CuDef*%
%ADD12RoundRect,0.150000X-0.150000X0.512500X-0.150000X-0.512500X0.150000X-0.512500X0.150000X0.512500X0*%
%TD*%
%TA.AperFunction,SMDPad,CuDef*%
%ADD13RoundRect,0.250000X-0.425000X0.450000X-0.425000X-0.450000X0.425000X-0.450000X0.425000X0.450000X0*%
%TD*%
%TA.AperFunction,SMDPad,CuDef*%
%ADD14RoundRect,0.135000X-0.135000X-0.185000X0.135000X-0.185000X0.135000X0.185000X-0.135000X0.185000X0*%
%TD*%
%TA.AperFunction,ComponentPad*%
%ADD15R,1.700000X1.700000*%
%TD*%
%TA.AperFunction,ComponentPad*%
%ADD16O,1.700000X1.700000*%
%TD*%
%TA.AperFunction,SMDPad,CuDef*%
%ADD17RoundRect,0.155000X-0.212500X-0.155000X0.212500X-0.155000X0.212500X0.155000X-0.212500X0.155000X0*%
%TD*%
%TA.AperFunction,SMDPad,CuDef*%
%ADD18RoundRect,0.250000X-0.325000X-0.650000X0.325000X-0.650000X0.325000X0.650000X-0.325000X0.650000X0*%
%TD*%
%TA.AperFunction,ComponentPad*%
%ADD19C,1.368000*%
%TD*%
%TA.AperFunction,ComponentPad*%
%ADD20C,3.836000*%
%TD*%
%TA.AperFunction,SMDPad,CuDef*%
%ADD21RoundRect,0.375000X-0.375000X0.625000X-0.375000X-0.625000X0.375000X-0.625000X0.375000X0.625000X0*%
%TD*%
%TA.AperFunction,SMDPad,CuDef*%
%ADD22RoundRect,0.500000X-1.400000X0.500000X-1.400000X-0.500000X1.400000X-0.500000X1.400000X0.500000X0*%
%TD*%
%TA.AperFunction,SMDPad,CuDef*%
%ADD23RoundRect,0.250000X-0.312500X-0.625000X0.312500X-0.625000X0.312500X0.625000X-0.312500X0.625000X0*%
%TD*%
%TA.AperFunction,ViaPad*%
%ADD24C,0.600000*%
%TD*%
%TA.AperFunction,Conductor*%
%ADD25C,1.000000*%
%TD*%
%TA.AperFunction,Conductor*%
%ADD26C,0.250000*%
%TD*%
%TA.AperFunction,Conductor*%
%ADD27C,0.127000*%
%TD*%
%TA.AperFunction,Conductor*%
%ADD28C,2.000000*%
%TD*%
%TA.AperFunction,Conductor*%
%ADD29C,0.500000*%
%TD*%
%TA.AperFunction,Conductor*%
%ADD30C,0.200000*%
%TD*%
G04 APERTURE END LIST*
D10*
%TO.P,C25,1*%
%TO.N,+5V*%
X79730600Y-46583200D03*
%TO.P,C25,2*%
%TO.N,GND*%
X82430600Y-46583200D03*
%TD*%
D11*
%TO.P,C7,1*%
%TO.N,+3V3*%
X97704500Y-92180501D03*
%TO.P,C7,2*%
%TO.N,GND*%
X97704500Y-93315501D03*
%TD*%
D12*
%TO.P,U6,1,V_{CC}*%
%TO.N,+3V3*%
X96144000Y-96565000D03*
%TO.P,U6,2,GND*%
%TO.N,GND*%
X95194000Y-96565000D03*
%TO.P,U6,3,A*%
%TO.N,/OUT4+*%
X94244000Y-96565000D03*
%TO.P,U6,4,B*%
%TO.N,/OUT4-*%
X94244000Y-98840000D03*
%TO.P,U6,5,R*%
%TO.N,Net-(U6-R)*%
X96144000Y-98840000D03*
%TD*%
D11*
%TO.P,C4,1*%
%TO.N,+3V3*%
X97693600Y-104714701D03*
%TO.P,C4,2*%
%TO.N,GND*%
X97693600Y-105849701D03*
%TD*%
D12*
%TO.P,U16,1,V_{CC}*%
%TO.N,+3V3*%
X102920000Y-54965000D03*
%TO.P,U16,2,GND*%
%TO.N,GND*%
X101970000Y-54965000D03*
%TO.P,U16,3,A*%
%TO.N,/OUT14+*%
X101020000Y-54965000D03*
%TO.P,U16,4,B*%
%TO.N,/OUT14-*%
X101020000Y-57240000D03*
%TO.P,U16,5,R*%
%TO.N,Net-(U16-R)*%
X102920000Y-57240000D03*
%TD*%
D13*
%TO.P,C24,1*%
%TO.N,+3V3*%
X84810600Y-46503200D03*
%TO.P,C24,2*%
%TO.N,GND*%
X84810600Y-49203200D03*
%TD*%
D11*
%TO.P,C6,1*%
%TO.N,+3V3*%
X97693400Y-96378501D03*
%TO.P,C6,2*%
%TO.N,GND*%
X97693400Y-97513501D03*
%TD*%
%TO.P,C18,1*%
%TO.N,+3V3*%
X107354000Y-73756001D03*
%TO.P,C18,2*%
%TO.N,GND*%
X107354000Y-74891001D03*
%TD*%
%TO.P,C3,1*%
%TO.N,+3V3*%
X97694600Y-108894701D03*
%TO.P,C3,2*%
%TO.N,GND*%
X97694600Y-110029701D03*
%TD*%
D12*
%TO.P,U14,1,V_{CC}*%
%TO.N,+3V3*%
X102910700Y-63285000D03*
%TO.P,U14,2,GND*%
%TO.N,GND*%
X101960700Y-63285000D03*
%TO.P,U14,3,A*%
%TO.N,/OUT12+*%
X101010700Y-63285000D03*
%TO.P,U14,4,B*%
%TO.N,/OUT12-*%
X101010700Y-65560000D03*
%TO.P,U14,5,R*%
%TO.N,Net-(U14-R)*%
X102910700Y-65560000D03*
%TD*%
D14*
%TO.P,R18,1*%
%TO.N,Net-(U18-R)*%
X107174200Y-76228500D03*
%TO.P,R18,2*%
%TO.N,/HSYNC*%
X108194200Y-76228500D03*
%TD*%
%TO.P,R20,1*%
%TO.N,Net-(U20-R)*%
X107184000Y-71374000D03*
%TO.P,R20,2*%
%TO.N,/DATA_VALID*%
X108204000Y-71374000D03*
%TD*%
%TO.P,R19,1*%
%TO.N,Net-(U19-R)*%
X107155600Y-80910000D03*
%TO.P,R19,2*%
%TO.N,/VSYNC*%
X108175600Y-80910000D03*
%TD*%
D12*
%TO.P,U17,1,V_{CC}*%
%TO.N,+3V3*%
X102920000Y-50795000D03*
%TO.P,U17,2,GND*%
%TO.N,GND*%
X101970000Y-50795000D03*
%TO.P,U17,3,A*%
%TO.N,/OUT15+*%
X101020000Y-50795000D03*
%TO.P,U17,4,B*%
%TO.N,/OUT15-*%
X101020000Y-53070000D03*
%TO.P,U17,5,R*%
%TO.N,Net-(U17-R)*%
X102920000Y-53070000D03*
%TD*%
D14*
%TO.P,R12,1*%
%TO.N,Net-(U12-R)*%
X97522500Y-73869000D03*
%TO.P,R12,2*%
%TO.N,/OUT10*%
X98542500Y-73869000D03*
%TD*%
D15*
%TO.P,J2,1,V3P3*%
%TO.N,unconnected-(J2-V3P3-Pad1)*%
X110870000Y-50038000D03*
D16*
%TO.P,J2,2,V1P2*%
%TO.N,unconnected-(J2-V1P2-Pad2)*%
X113410000Y-50038000D03*
%TO.P,J2,3,USB3_VBUS*%
%TO.N,+5V*%
X110870000Y-52578000D03*
%TO.P,J2,4,USB3_VBUS*%
X113410000Y-52578000D03*
%TO.P,J2,5,KEY*%
%TO.N,unconnected-(J2-KEY-Pad5)*%
X110870000Y-55118000D03*
%TO.P,J2,6,GND*%
%TO.N,GND*%
X113410000Y-55118000D03*
%TO.P,J2,7,CTL12*%
%TO.N,unconnected-(J2-CTL12-Pad7)*%
X110870000Y-57658000D03*
%TO.P,J2,8,DQ15*%
%TO.N,/OUT15*%
X113410000Y-57658000D03*
%TO.P,J2,9,CTL11*%
%TO.N,unconnected-(J2-CTL11-Pad9)*%
X110870000Y-60198000D03*
%TO.P,J2,10,DQ14*%
%TO.N,/OUT14*%
X113410000Y-60198000D03*
%TO.P,J2,11,CTL10*%
%TO.N,unconnected-(J2-CTL10-Pad11)*%
X110870000Y-62738000D03*
%TO.P,J2,12,DQ13*%
%TO.N,/OUT13*%
X113410000Y-62738000D03*
%TO.P,J2,13,CTL9*%
%TO.N,unconnected-(J2-CTL9-Pad13)*%
X110870000Y-65278000D03*
%TO.P,J2,14,DQ12*%
%TO.N,/OUT12*%
X113410000Y-65278000D03*
%TO.P,J2,15,CTL8*%
%TO.N,unconnected-(J2-CTL8-Pad15)*%
X110870000Y-67818000D03*
%TO.P,J2,16,DQ11*%
%TO.N,/OUT11*%
X113410000Y-67818000D03*
%TO.P,J2,17,CTL7*%
%TO.N,/DATA_VALID*%
X110870000Y-70358000D03*
%TO.P,J2,18,DQ10*%
%TO.N,/OUT10*%
X113410000Y-70358000D03*
%TO.P,J2,19,CTL6*%
%TO.N,/HSYNC*%
X110870000Y-72898000D03*
%TO.P,J2,20,DQ9*%
%TO.N,/OUT9*%
X113410000Y-72898000D03*
%TO.P,J2,21,CTL5*%
%TO.N,/VSYNC*%
X110870000Y-75438000D03*
%TO.P,J2,22,DQ8*%
%TO.N,/OUT8*%
X113410000Y-75438000D03*
%TO.P,J2,23,CTL4_SW*%
%TO.N,unconnected-(J2-CTL4_SW-Pad23)*%
X110870000Y-77978000D03*
%TO.P,J2,24,DQ7*%
%TO.N,/OUT7*%
X113410000Y-77978000D03*
%TO.P,J2,25,CTL3*%
%TO.N,unconnected-(J2-CTL3-Pad25)*%
X110870000Y-80518000D03*
%TO.P,J2,26,DQ6*%
%TO.N,/OUT6*%
X113410000Y-80518000D03*
%TO.P,J2,27,CTL2*%
%TO.N,unconnected-(J2-CTL2-Pad27)*%
X110870000Y-83058000D03*
%TO.P,J2,28,DQ5*%
%TO.N,/OUT5*%
X113410000Y-83058000D03*
%TO.P,J2,29,CTL1*%
%TO.N,unconnected-(J2-CTL1-Pad29)*%
X110870000Y-85598000D03*
%TO.P,J2,30,DQ4*%
%TO.N,/OUT4*%
X113410000Y-85598000D03*
%TO.P,J2,31,CTL0*%
%TO.N,unconnected-(J2-CTL0-Pad31)*%
X110870000Y-88138000D03*
%TO.P,J2,32,DQ3*%
%TO.N,/OUT3*%
X113410000Y-88138000D03*
%TO.P,J2,33,GND*%
%TO.N,GND*%
X110870000Y-90678000D03*
%TO.P,J2,34,DQ2*%
%TO.N,/OUT2*%
X113410000Y-90678000D03*
%TO.P,J2,35,PCLK*%
%TO.N,/PIXCLK*%
X110870000Y-93218000D03*
%TO.P,J2,36,DQ1*%
%TO.N,/OUT1*%
X113410000Y-93218000D03*
%TO.P,J2,37,GND*%
%TO.N,GND*%
X110870000Y-95758000D03*
%TO.P,J2,38,DQ0*%
%TO.N,/OUT0*%
X113410000Y-95758000D03*
%TO.P,J2,39,I2C_SDA_FX3*%
%TO.N,unconnected-(J2-I2C_SDA_FX3-Pad39)*%
X110870000Y-98298000D03*
%TO.P,J2,40,I2C_SCL_FX3*%
%TO.N,unconnected-(J2-I2C_SCL_FX3-Pad40)*%
X113410000Y-98298000D03*
%TD*%
D12*
%TO.P,U10,1,V_{CC}*%
%TO.N,+3V3*%
X96155100Y-79887000D03*
%TO.P,U10,2,GND*%
%TO.N,GND*%
X95205100Y-79887000D03*
%TO.P,U10,3,A*%
%TO.N,/OUT8+*%
X94255100Y-79887000D03*
%TO.P,U10,4,B*%
%TO.N,/OUT8-*%
X94255100Y-82162000D03*
%TO.P,U10,5,R*%
%TO.N,Net-(U10-R)*%
X96155100Y-82162000D03*
%TD*%
D14*
%TO.P,R8,1*%
%TO.N,Net-(U8-R)*%
X97524700Y-90493000D03*
%TO.P,R8,2*%
%TO.N,/OUT6*%
X98544700Y-90493000D03*
%TD*%
D12*
%TO.P,U13,1,V_{CC}*%
%TO.N,+3V3*%
X96162900Y-67433000D03*
%TO.P,U13,2,GND*%
%TO.N,GND*%
X95212900Y-67433000D03*
%TO.P,U13,3,A*%
%TO.N,/OUT11+*%
X94262900Y-67433000D03*
%TO.P,U13,4,B*%
%TO.N,/OUT11-*%
X94262900Y-69708000D03*
%TO.P,U13,5,R*%
%TO.N,Net-(U13-R)*%
X96162900Y-69708000D03*
%TD*%
D15*
%TO.P,J1,1,V3P3*%
%TO.N,unconnected-(J1-V3P3-Pad1)*%
X69342000Y-50038000D03*
D16*
%TO.P,J1,2,V1P2*%
%TO.N,unconnected-(J1-V1P2-Pad2)*%
X71882000Y-50038000D03*
%TO.P,J1,3,INT_N_CTL15*%
%TO.N,unconnected-(J1-INT_N_CTL15-Pad3)*%
X69342000Y-52578000D03*
%TO.P,J1,4,VIO*%
%TO.N,unconnected-(J1-VIO-Pad4)*%
X71882000Y-52578000D03*
%TO.P,J1,5,KEY*%
%TO.N,unconnected-(J1-KEY-Pad5)*%
X69342000Y-55118000D03*
%TO.P,J1,6,DQ31*%
%TO.N,unconnected-(J1-DQ31-Pad6)*%
X71882000Y-55118000D03*
%TO.P,J1,7,PMODE_2*%
%TO.N,unconnected-(J1-PMODE_2-Pad7)*%
X69342000Y-57658000D03*
%TO.P,J1,8,DQ30*%
%TO.N,unconnected-(J1-DQ30-Pad8)*%
X71882000Y-57658000D03*
%TO.P,J1,9,PMODE_1*%
%TO.N,unconnected-(J1-PMODE_1-Pad9)*%
X69342000Y-60198000D03*
%TO.P,J1,10,DQ29*%
%TO.N,unconnected-(J1-DQ29-Pad10)*%
X71882000Y-60198000D03*
%TO.P,J1,11,PMODE_0*%
%TO.N,unconnected-(J1-PMODE_0-Pad11)*%
X69342000Y-62738000D03*
%TO.P,J1,12,DQ28*%
%TO.N,unconnected-(J1-DQ28-Pad12)*%
X71882000Y-62738000D03*
%TO.P,J1,13,GND*%
%TO.N,GND*%
X69342000Y-65278000D03*
%TO.P,J1,14,GPIO45*%
%TO.N,unconnected-(J1-GPIO45-Pad14)*%
X71882000Y-65278000D03*
%TO.P,J1,15,GND*%
%TO.N,GND*%
X69342000Y-67818000D03*
%TO.P,J1,16,DQ27*%
%TO.N,unconnected-(J1-DQ27-Pad16)*%
X71882000Y-67818000D03*
%TO.P,J1,17,GND*%
%TO.N,GND*%
X69342000Y-70358000D03*
%TO.P,J1,18,DQ26*%
%TO.N,unconnected-(J1-DQ26-Pad18)*%
X71882000Y-70358000D03*
%TO.P,J1,19,SPI-MOSI_UART-RX*%
%TO.N,unconnected-(J1-SPI-MOSI_UART-RX-Pad19)*%
X69342000Y-72898000D03*
%TO.P,J1,20,DQ25*%
%TO.N,unconnected-(J1-DQ25-Pad20)*%
X71882000Y-72898000D03*
%TO.P,J1,21,SPI-MISO_UART_TX*%
%TO.N,unconnected-(J1-SPI-MISO_UART_TX-Pad21)*%
X69342000Y-75438000D03*
%TO.P,J1,22,DQ24*%
%TO.N,unconnected-(J1-DQ24-Pad22)*%
X71882000Y-75438000D03*
%TO.P,J1,23,SPI-SSN_UART-CTS*%
%TO.N,unconnected-(J1-SPI-SSN_UART-CTS-Pad23)*%
X69342000Y-77978000D03*
%TO.P,J1,24,DQ23*%
%TO.N,unconnected-(J1-DQ23-Pad24)*%
X71882000Y-77978000D03*
%TO.P,J1,25,GND*%
%TO.N,GND*%
X69342000Y-80518000D03*
%TO.P,J1,26,DQ22*%
%TO.N,unconnected-(J1-DQ22-Pad26)*%
X71882000Y-80518000D03*
%TO.P,J1,27,SPI-SCK_UART-RTS*%
%TO.N,unconnected-(J1-SPI-SCK_UART-RTS-Pad27)*%
X69342000Y-83058000D03*
%TO.P,J1,28,DQ21*%
%TO.N,unconnected-(J1-DQ21-Pad28)*%
X71882000Y-83058000D03*
%TO.P,J1,29,GND*%
%TO.N,GND*%
X69342000Y-85598000D03*
%TO.P,J1,30,DQ20*%
%TO.N,unconnected-(J1-DQ20-Pad30)*%
X71882000Y-85598000D03*
%TO.P,J1,31,I2S_WS*%
%TO.N,unconnected-(J1-I2S_WS-Pad31)*%
X69342000Y-88138000D03*
%TO.P,J1,32,DQ19*%
%TO.N,unconnected-(J1-DQ19-Pad32)*%
X71882000Y-88138000D03*
%TO.P,J1,33,I2S_SD*%
%TO.N,unconnected-(J1-I2S_SD-Pad33)*%
X69342000Y-90678000D03*
%TO.P,J1,34,DQ18*%
%TO.N,unconnected-(J1-DQ18-Pad34)*%
X71882000Y-90678000D03*
%TO.P,J1,35,GPIO57_I2S-MCLK_VIO3_SW*%
%TO.N,unconnected-(J1-GPIO57_I2S-MCLK_VIO3_SW-Pad35)*%
X69342000Y-93218000D03*
%TO.P,J1,36,DQ17*%
%TO.N,unconnected-(J1-DQ17-Pad36)*%
X71882000Y-93218000D03*
%TO.P,J1,37,I2S_CLK*%
%TO.N,unconnected-(J1-I2S_CLK-Pad37)*%
X69342000Y-95758000D03*
%TO.P,J1,38,DQ16*%
%TO.N,unconnected-(J1-DQ16-Pad38)*%
X71882000Y-95758000D03*
%TO.P,J1,39,GND*%
%TO.N,GND*%
X69342000Y-98298000D03*
%TO.P,J1,40,GND*%
X71882000Y-98298000D03*
%TD*%
D17*
%TO.P,C22,1*%
%TO.N,+5V*%
X79865600Y-49123200D03*
%TO.P,C22,2*%
%TO.N,GND*%
X81000600Y-49123200D03*
%TD*%
D18*
%TO.P,C2,1*%
%TO.N,Net-(C2-Pad1)*%
X118601500Y-114826050D03*
%TO.P,C2,2*%
%TO.N,GND*%
X121551500Y-114826050D03*
%TD*%
D12*
%TO.P,U4,1,V_{CC}*%
%TO.N,+3V3*%
X96144200Y-104901200D03*
%TO.P,U4,2,GND*%
%TO.N,GND*%
X95194200Y-104901200D03*
%TO.P,U4,3,A*%
%TO.N,/OUT2+*%
X94244200Y-104901200D03*
%TO.P,U4,4,B*%
%TO.N,/OUT2-*%
X94244200Y-107176200D03*
%TO.P,U4,5,R*%
%TO.N,Net-(U4-R)*%
X96144200Y-107176200D03*
%TD*%
D14*
%TO.P,R6,1*%
%TO.N,Net-(U6-R)*%
X97513600Y-98851000D03*
%TO.P,R6,2*%
%TO.N,/OUT4*%
X98533600Y-98851000D03*
%TD*%
D12*
%TO.P,U8,1,V_{CC}*%
%TO.N,+3V3*%
X96155100Y-88207000D03*
%TO.P,U8,2,GND*%
%TO.N,GND*%
X95205100Y-88207000D03*
%TO.P,U8,3,A*%
%TO.N,/OUT6+*%
X94255100Y-88207000D03*
%TO.P,U8,4,B*%
%TO.N,/OUT6-*%
X94255100Y-90482000D03*
%TO.P,U8,5,R*%
%TO.N,Net-(U8-R)*%
X96155100Y-90482000D03*
%TD*%
D14*
%TO.P,R10,1*%
%TO.N,Net-(U10-R)*%
X97524700Y-82173000D03*
%TO.P,R10,2*%
%TO.N,/OUT8*%
X98544700Y-82173000D03*
%TD*%
D12*
%TO.P,U21,1,V_{CC}*%
%TO.N,+3V3*%
X106087100Y-91059000D03*
%TO.P,U21,2,GND*%
%TO.N,GND*%
X105137100Y-91059000D03*
%TO.P,U21,3,A*%
%TO.N,/PIXCLK+*%
X104187100Y-91059000D03*
%TO.P,U21,4,B*%
%TO.N,/PIXCLK-*%
X104187100Y-93334000D03*
%TO.P,U21,5,R*%
%TO.N,Net-(U21-R)*%
X106087100Y-93334000D03*
%TD*%
D11*
%TO.P,C1,1*%
%TO.N,+3V3*%
X97696600Y-113161900D03*
%TO.P,C1,2*%
%TO.N,GND*%
X97696600Y-114296900D03*
%TD*%
D14*
%TO.P,R13,1*%
%TO.N,Net-(U13-R)*%
X97532500Y-69719000D03*
%TO.P,R13,2*%
%TO.N,/OUT11*%
X98552500Y-69719000D03*
%TD*%
D11*
%TO.P,C15,1*%
%TO.N,+3V3*%
X104469400Y-58958501D03*
%TO.P,C15,2*%
%TO.N,GND*%
X104469400Y-60093501D03*
%TD*%
D14*
%TO.P,R11,1*%
%TO.N,Net-(U11-R)*%
X97523600Y-78011000D03*
%TO.P,R11,2*%
%TO.N,/OUT9*%
X98543600Y-78011000D03*
%TD*%
D12*
%TO.P,U5,1,V_{CC}*%
%TO.N,+3V3*%
X96134000Y-100730000D03*
%TO.P,U5,2,GND*%
%TO.N,GND*%
X95184000Y-100730000D03*
%TO.P,U5,3,A*%
%TO.N,/OUT3+*%
X94234000Y-100730000D03*
%TO.P,U5,4,B*%
%TO.N,/OUT3-*%
X94234000Y-103005000D03*
%TO.P,U5,5,R*%
%TO.N,Net-(U5-R)*%
X96134000Y-103005000D03*
%TD*%
D19*
%TO.P,U1,1,1*%
%TO.N,/OUT12-*%
X106883200Y-120660000D03*
%TO.P,U1,2,2*%
%TO.N,/OUT13-*%
X105613200Y-122560000D03*
%TO.P,U1,3,3*%
%TO.N,GND*%
X104343200Y-120660000D03*
%TO.P,U1,4,4*%
%TO.N,/OUT14-*%
X103073200Y-122560000D03*
%TO.P,U1,5,5*%
%TO.N,/OUT15-*%
X101803200Y-120660000D03*
%TO.P,U1,6,6*%
%TO.N,/PIXCLK+*%
X100533200Y-122560000D03*
%TO.P,U1,7,7*%
%TO.N,/HSYNC+*%
X99263200Y-120660000D03*
%TO.P,U1,8,8*%
%TO.N,GND*%
X97993200Y-122560000D03*
%TO.P,U1,9,9*%
%TO.N,/VSYNC+*%
X96723200Y-120660000D03*
%TO.P,U1,10,10*%
%TO.N,/DATA_VALID+*%
X95453200Y-122560000D03*
%TO.P,U1,11,11*%
%TO.N,unconnected-(U1-Pad11)*%
X94183200Y-120660000D03*
%TO.P,U1,12,12*%
%TO.N,unconnected-(U1-Pad12)*%
X92913200Y-122560000D03*
%TO.P,U1,13,13*%
%TO.N,/OUT0-*%
X91643200Y-120660000D03*
%TO.P,U1,14,14*%
%TO.N,/OUT1-*%
X90373200Y-122560000D03*
%TO.P,U1,15,15*%
%TO.N,/OUT2-*%
X89103200Y-120660000D03*
%TO.P,U1,16,16*%
%TO.N,/OUT3-*%
X87833200Y-122560000D03*
%TO.P,U1,17,17*%
%TO.N,/OUT4-*%
X86563200Y-120660000D03*
%TO.P,U1,18,18*%
%TO.N,/OUT5-*%
X85293200Y-122560000D03*
%TO.P,U1,19,19*%
%TO.N,GND*%
X84023200Y-120660000D03*
%TO.P,U1,20,20*%
%TO.N,/OUT6-*%
X82753200Y-122560000D03*
%TO.P,U1,21,21*%
%TO.N,/OUT7-*%
X81483200Y-120660000D03*
%TO.P,U1,22,22*%
%TO.N,/OUT8-*%
X80213200Y-122560000D03*
%TO.P,U1,23,23*%
%TO.N,/OUT9-*%
X78943200Y-120660000D03*
%TO.P,U1,24,24*%
%TO.N,/OUT10-*%
X77673200Y-122560000D03*
%TO.P,U1,25,25*%
%TO.N,/OUT11-*%
X76403200Y-120660000D03*
%TO.P,U1,26,26*%
%TO.N,/OUT12+*%
X106883200Y-124460000D03*
%TO.P,U1,27,27*%
%TO.N,/OUT13+*%
X105613200Y-126360000D03*
%TO.P,U1,28,28*%
%TO.N,GND*%
X104343200Y-124460000D03*
%TO.P,U1,29,29*%
%TO.N,/OUT14+*%
X103073200Y-126360000D03*
%TO.P,U1,30,30*%
%TO.N,/OUT15+*%
X101803200Y-124460000D03*
%TO.P,U1,31,31*%
%TO.N,/PIXCLK-*%
X100533200Y-126360000D03*
%TO.P,U1,32,32*%
%TO.N,/HSYNC-*%
X99263200Y-124460000D03*
%TO.P,U1,33,33*%
%TO.N,GND*%
X97993200Y-126360000D03*
%TO.P,U1,34,34*%
%TO.N,/VSYNC-*%
X96723200Y-124460000D03*
%TO.P,U1,35,35*%
%TO.N,/DATA_VALID-*%
X95453200Y-126360000D03*
%TO.P,U1,36,36*%
%TO.N,unconnected-(U1-Pad36)*%
X94183200Y-124460000D03*
%TO.P,U1,37,37*%
%TO.N,unconnected-(U1-Pad37)*%
X92913200Y-126360000D03*
%TO.P,U1,38,38*%
%TO.N,/OUT0+*%
X91643200Y-124460000D03*
%TO.P,U1,39,39*%
%TO.N,/OUT1+*%
X90373200Y-126360000D03*
%TO.P,U1,40,40*%
%TO.N,/OUT2+*%
X89103200Y-124460000D03*
%TO.P,U1,41,41*%
%TO.N,/OUT3+*%
X87833200Y-126360000D03*
%TO.P,U1,42,42*%
%TO.N,/OUT4+*%
X86563200Y-124460000D03*
%TO.P,U1,43,43*%
%TO.N,/OUT5+*%
X85293200Y-126360000D03*
%TO.P,U1,44,44*%
%TO.N,GND*%
X84023200Y-124460000D03*
%TO.P,U1,45,45*%
%TO.N,/OUT6+*%
X82753200Y-126360000D03*
%TO.P,U1,46,46*%
%TO.N,/OUT7+*%
X81483200Y-124460000D03*
%TO.P,U1,47,47*%
%TO.N,/OUT8+*%
X80213200Y-126360000D03*
%TO.P,U1,48,48*%
%TO.N,/OUT9+*%
X78943200Y-124460000D03*
%TO.P,U1,49,49*%
%TO.N,/OUT10+*%
X77673200Y-126360000D03*
%TO.P,U1,50,50*%
%TO.N,/OUT11+*%
X76403200Y-124460000D03*
D20*
%TO.P,U1,S1,S1*%
%TO.N,Net-(C2-Pad1)*%
X114883200Y-124460000D03*
%TO.P,U1,S2,S2*%
X68403200Y-124460000D03*
%TD*%
D11*
%TO.P,C9,1*%
%TO.N,+3V3*%
X97713400Y-83858501D03*
%TO.P,C9,2*%
%TO.N,GND*%
X97713400Y-84993501D03*
%TD*%
D21*
%TO.P,U22,1,GND*%
%TO.N,GND*%
X84570600Y-52323200D03*
%TO.P,U22,2,VO*%
%TO.N,+3V3*%
X82270600Y-52323200D03*
D22*
X82270600Y-58623200D03*
D21*
%TO.P,U22,3,VI*%
%TO.N,+5V*%
X79970600Y-52323200D03*
%TD*%
D11*
%TO.P,C8,1*%
%TO.N,+3V3*%
X97704500Y-88020501D03*
%TO.P,C8,2*%
%TO.N,GND*%
X97704500Y-89155501D03*
%TD*%
D14*
%TO.P,R17,1*%
%TO.N,Net-(U17-R)*%
X104289600Y-53081000D03*
%TO.P,R17,2*%
%TO.N,/OUT15*%
X105309600Y-53081000D03*
%TD*%
%TO.P,R21,1*%
%TO.N,Net-(U21-R)*%
X107456700Y-93345000D03*
%TO.P,R21,2*%
%TO.N,/PIXCLK*%
X108476700Y-93345000D03*
%TD*%
D11*
%TO.P,C13,1*%
%TO.N,+3V3*%
X97712300Y-67246501D03*
%TO.P,C13,2*%
%TO.N,GND*%
X97712300Y-68381501D03*
%TD*%
%TO.P,C17,1*%
%TO.N,+3V3*%
X104469400Y-50608501D03*
%TO.P,C17,2*%
%TO.N,GND*%
X104469400Y-51743501D03*
%TD*%
D12*
%TO.P,U7,1,V_{CC}*%
%TO.N,+3V3*%
X96155100Y-92367000D03*
%TO.P,U7,2,GND*%
%TO.N,GND*%
X95205100Y-92367000D03*
%TO.P,U7,3,A*%
%TO.N,/OUT5+*%
X94255100Y-92367000D03*
%TO.P,U7,4,B*%
%TO.N,/OUT5-*%
X94255100Y-94642000D03*
%TO.P,U7,5,R*%
%TO.N,Net-(U7-R)*%
X96155100Y-94642000D03*
%TD*%
D14*
%TO.P,R5,1*%
%TO.N,Net-(U5-R)*%
X97503600Y-103016000D03*
%TO.P,R5,2*%
%TO.N,/OUT3*%
X98523600Y-103016000D03*
%TD*%
D23*
%TO.P,R1,1*%
%TO.N,Net-(C2-Pad1)*%
X118614000Y-112159050D03*
%TO.P,R1,2*%
%TO.N,GND*%
X121539000Y-112159050D03*
%TD*%
D11*
%TO.P,C14,1*%
%TO.N,+3V3*%
X104460100Y-63098501D03*
%TO.P,C14,2*%
%TO.N,GND*%
X104460100Y-64233501D03*
%TD*%
%TO.P,C16,1*%
%TO.N,+3V3*%
X104469400Y-54778501D03*
%TO.P,C16,2*%
%TO.N,GND*%
X104469400Y-55913501D03*
%TD*%
D13*
%TO.P,C23,1*%
%TO.N,+3V3*%
X87350600Y-46503200D03*
%TO.P,C23,2*%
%TO.N,GND*%
X87350600Y-49203200D03*
%TD*%
D12*
%TO.P,U2,1,V_{CC}*%
%TO.N,+3V3*%
X96147200Y-113348400D03*
%TO.P,U2,2,GND*%
%TO.N,GND*%
X95197200Y-113348400D03*
%TO.P,U2,3,A*%
%TO.N,/OUT0+*%
X94247200Y-113348400D03*
%TO.P,U2,4,B*%
%TO.N,/OUT0-*%
X94247200Y-115623400D03*
%TO.P,U2,5,R*%
%TO.N,Net-(U2-R)*%
X96147200Y-115623400D03*
%TD*%
D14*
%TO.P,R15,1*%
%TO.N,Net-(U15-R)*%
X104289600Y-61431000D03*
%TO.P,R15,2*%
%TO.N,/OUT13*%
X105309600Y-61431000D03*
%TD*%
D12*
%TO.P,U18,1,V_{CC}*%
%TO.N,+3V3*%
X105804600Y-73942500D03*
%TO.P,U18,2,GND*%
%TO.N,GND*%
X104854600Y-73942500D03*
%TO.P,U18,3,A*%
%TO.N,/HSYNC+*%
X103904600Y-73942500D03*
%TO.P,U18,4,B*%
%TO.N,/HSYNC-*%
X103904600Y-76217500D03*
%TO.P,U18,5,R*%
%TO.N,Net-(U18-R)*%
X105804600Y-76217500D03*
%TD*%
D14*
%TO.P,R7,1*%
%TO.N,Net-(U7-R)*%
X97524700Y-94653000D03*
%TO.P,R7,2*%
%TO.N,/OUT5*%
X98544700Y-94653000D03*
%TD*%
D11*
%TO.P,C11,1*%
%TO.N,+3V3*%
X97703400Y-75538501D03*
%TO.P,C11,2*%
%TO.N,GND*%
X97703400Y-76673501D03*
%TD*%
D12*
%TO.P,U11,1,V_{CC}*%
%TO.N,+3V3*%
X96154000Y-75725000D03*
%TO.P,U11,2,GND*%
%TO.N,GND*%
X95204000Y-75725000D03*
%TO.P,U11,3,A*%
%TO.N,/OUT9+*%
X94254000Y-75725000D03*
%TO.P,U11,4,B*%
%TO.N,/OUT9-*%
X94254000Y-78000000D03*
%TO.P,U11,5,R*%
%TO.N,Net-(U11-R)*%
X96154000Y-78000000D03*
%TD*%
D11*
%TO.P,C20,1*%
%TO.N,+3V3*%
X107363800Y-68901501D03*
%TO.P,C20,2*%
%TO.N,GND*%
X107363800Y-70036501D03*
%TD*%
D14*
%TO.P,R9,1*%
%TO.N,Net-(U9-R)*%
X97533600Y-86331000D03*
%TO.P,R9,2*%
%TO.N,/LVDSReceiver7/R*%
X98553600Y-86331000D03*
%TD*%
D11*
%TO.P,C12,1*%
%TO.N,+3V3*%
X97702300Y-71396501D03*
%TO.P,C12,2*%
%TO.N,GND*%
X97702300Y-72531501D03*
%TD*%
%TO.P,C10,1*%
%TO.N,+3V3*%
X97704500Y-79700501D03*
%TO.P,C10,2*%
%TO.N,GND*%
X97704500Y-80835501D03*
%TD*%
D12*
%TO.P,U9,1,V_{CC}*%
%TO.N,+3V3*%
X96164000Y-84045000D03*
%TO.P,U9,2,GND*%
%TO.N,GND*%
X95214000Y-84045000D03*
%TO.P,U9,3,A*%
%TO.N,/LVDSReceiver7/A*%
X94264000Y-84045000D03*
%TO.P,U9,4,B*%
%TO.N,/LVDSReceiver7/B*%
X94264000Y-86320000D03*
%TO.P,U9,5,R*%
%TO.N,Net-(U9-R)*%
X96164000Y-86320000D03*
%TD*%
D11*
%TO.P,C19,1*%
%TO.N,+3V3*%
X107335400Y-78437501D03*
%TO.P,C19,2*%
%TO.N,GND*%
X107335400Y-79572501D03*
%TD*%
D14*
%TO.P,R14,1*%
%TO.N,Net-(U14-R)*%
X104280300Y-65571000D03*
%TO.P,R14,2*%
%TO.N,/OUT12*%
X105300300Y-65571000D03*
%TD*%
%TO.P,R16,1*%
%TO.N,Net-(U16-R)*%
X104289600Y-57251000D03*
%TO.P,R16,2*%
%TO.N,/OUT14*%
X105309600Y-57251000D03*
%TD*%
%TO.P,R4,1*%
%TO.N,Net-(U4-R)*%
X97513800Y-107187200D03*
%TO.P,R4,2*%
%TO.N,/OUT2*%
X98533800Y-107187200D03*
%TD*%
%TO.P,R2,1*%
%TO.N,Net-(U2-R)*%
X97516800Y-115634400D03*
%TO.P,R2,2*%
%TO.N,/OUT0*%
X98536800Y-115634400D03*
%TD*%
D12*
%TO.P,U3,1,V_{CC}*%
%TO.N,+3V3*%
X96145200Y-109081200D03*
%TO.P,U3,2,GND*%
%TO.N,GND*%
X95195200Y-109081200D03*
%TO.P,U3,3,A*%
%TO.N,/OUT1+*%
X94245200Y-109081200D03*
%TO.P,U3,4,B*%
%TO.N,/OUT1-*%
X94245200Y-111356200D03*
%TO.P,U3,5,R*%
%TO.N,Net-(U3-R)*%
X96145200Y-111356200D03*
%TD*%
%TO.P,U19,1,V_{CC}*%
%TO.N,+3V3*%
X105786000Y-78624000D03*
%TO.P,U19,2,GND*%
%TO.N,GND*%
X104836000Y-78624000D03*
%TO.P,U19,3,A*%
%TO.N,/VSYNC+*%
X103886000Y-78624000D03*
%TO.P,U19,4,B*%
%TO.N,/VSYNC-*%
X103886000Y-80899000D03*
%TO.P,U19,5,R*%
%TO.N,Net-(U19-R)*%
X105786000Y-80899000D03*
%TD*%
D11*
%TO.P,C21,1*%
%TO.N,+3V3*%
X107636500Y-90872501D03*
%TO.P,C21,2*%
%TO.N,GND*%
X107636500Y-92007501D03*
%TD*%
D14*
%TO.P,R3,1*%
%TO.N,Net-(U3-R)*%
X97514800Y-111367200D03*
%TO.P,R3,2*%
%TO.N,/OUT1*%
X98534800Y-111367200D03*
%TD*%
D12*
%TO.P,U15,1,V_{CC}*%
%TO.N,+3V3*%
X102920000Y-59145000D03*
%TO.P,U15,2,GND*%
%TO.N,GND*%
X101970000Y-59145000D03*
%TO.P,U15,3,A*%
%TO.N,/OUT13+*%
X101020000Y-59145000D03*
%TO.P,U15,4,B*%
%TO.N,/OUT13-*%
X101020000Y-61420000D03*
%TO.P,U15,5,R*%
%TO.N,Net-(U15-R)*%
X102920000Y-61420000D03*
%TD*%
%TO.P,U20,1,V_{CC}*%
%TO.N,+3V3*%
X105814400Y-69088000D03*
%TO.P,U20,2,GND*%
%TO.N,GND*%
X104864400Y-69088000D03*
%TO.P,U20,3,A*%
%TO.N,/DATA_VALID+*%
X103914400Y-69088000D03*
%TO.P,U20,4,B*%
%TO.N,/DATA_VALID-*%
X103914400Y-71363000D03*
%TO.P,U20,5,R*%
%TO.N,Net-(U20-R)*%
X105814400Y-71363000D03*
%TD*%
%TO.P,U12,1,V_{CC}*%
%TO.N,+3V3*%
X96152900Y-71583000D03*
%TO.P,U12,2,GND*%
%TO.N,GND*%
X95202900Y-71583000D03*
%TO.P,U12,3,A*%
%TO.N,/OUT10+*%
X94252900Y-71583000D03*
%TO.P,U12,4,B*%
%TO.N,/OUT10-*%
X94252900Y-73858000D03*
%TO.P,U12,5,R*%
%TO.N,Net-(U12-R)*%
X96152900Y-73858000D03*
%TD*%
D11*
%TO.P,C5,1*%
%TO.N,+3V3*%
X97683400Y-100543501D03*
%TO.P,C5,2*%
%TO.N,GND*%
X97683400Y-101678501D03*
%TD*%
D24*
%TO.N,GND*%
X121600000Y-112100000D03*
X121600000Y-113500000D03*
X121600000Y-114800000D03*
%TO.N,+3V3*%
X103707400Y-54711000D03*
X106592000Y-73688500D03*
X103707400Y-50541000D03*
X82778600Y-50647200D03*
X82270600Y-55219200D03*
X96931600Y-104647200D03*
X82270600Y-57251200D03*
X106874500Y-90805000D03*
X96921400Y-100476000D03*
X85826600Y-46583200D03*
X103707400Y-58891000D03*
X96942500Y-79633000D03*
X96951400Y-83791000D03*
X96941400Y-75471000D03*
X106573400Y-78370000D03*
X96942500Y-87953000D03*
X96940300Y-71329000D03*
X82270600Y-56235200D03*
X96931400Y-96311000D03*
X96926400Y-67208400D03*
X103698100Y-63031000D03*
X96934600Y-113094400D03*
X83286600Y-49123200D03*
X82270600Y-54203200D03*
X96942500Y-92113000D03*
X96932600Y-108827200D03*
X83794600Y-47599200D03*
X106601800Y-68834000D03*
%TO.N,GND*%
X96931600Y-105790200D03*
X106592000Y-74831500D03*
X96942500Y-93256000D03*
X96934600Y-114237400D03*
X106573400Y-79513000D03*
X103707400Y-60034000D03*
X96941400Y-76614000D03*
X81254600Y-47853200D03*
X96921400Y-101619000D03*
X106874500Y-91948000D03*
X103707400Y-51684000D03*
X96942500Y-80776000D03*
X96942500Y-89096000D03*
X84556600Y-50647200D03*
X96931400Y-97454000D03*
X85826600Y-49123200D03*
X108458000Y-56388000D03*
X96951400Y-84934000D03*
X103698100Y-64174000D03*
X98400000Y-91440000D03*
X96950300Y-68322000D03*
X106601800Y-69977000D03*
X108458000Y-52832000D03*
X96932600Y-109970200D03*
X103707400Y-55854000D03*
X96940300Y-72472000D03*
%TO.N,/VSYNC-*%
X101595721Y-80462921D03*
X111087841Y-105729420D03*
%TO.N,/VSYNC+*%
X100994679Y-79861879D03*
X110237841Y-105729420D03*
%TO.N,/DATA_VALID+*%
X102767999Y-69800500D03*
X108083800Y-105714800D03*
%TO.N,/PIXCLK-*%
X105460800Y-95434600D03*
X115791800Y-105765600D03*
%TO.N,/OUT12-*%
X98577400Y-64847500D03*
%TO.N,/PIXCLK+*%
X114941800Y-105765600D03*
X105460800Y-96284600D03*
%TO.N,/OUT8+*%
X79610400Y-108229400D03*
%TO.N,/OUT5+*%
X85297479Y-111205479D03*
%TO.N,/OUT13-*%
X98501200Y-60707500D03*
X104948521Y-118266679D03*
%TO.N,/OUT12+*%
X98577400Y-63997500D03*
%TO.N,/OUT3+*%
X88345479Y-113491479D03*
%TO.N,/OUT8-*%
X80460400Y-108229400D03*
%TO.N,/OUT13+*%
X104347479Y-118867721D03*
X98501200Y-59857500D03*
%TO.N,/OUT15-*%
X98755200Y-52357500D03*
%TO.N,/OUT10+*%
X75673400Y-108178600D03*
%TO.N,/OUT1-*%
X92248521Y-112822521D03*
%TO.N,/OUT5-*%
X85898521Y-111806521D03*
%TO.N,/OUT3-*%
X88946521Y-114092521D03*
%TO.N,/HSYNC-*%
X102814921Y-75738521D03*
X113455000Y-105714800D03*
%TO.N,/OUT10-*%
X76523400Y-108178600D03*
%TO.N,/OUT1+*%
X91647479Y-112221479D03*
%TO.N,/OUT14-*%
X98602800Y-56527500D03*
%TO.N,/HSYNC+*%
X112605000Y-105714800D03*
X102213879Y-75137479D03*
%TO.N,/DATA_VALID-*%
X102767999Y-70650500D03*
X108933800Y-105714800D03*
%TO.N,/OUT15+*%
X98755200Y-51507500D03*
%TO.N,/OUT14+*%
X98602800Y-55677500D03*
%TO.N,+5V*%
X79750000Y-48000000D03*
X79750000Y-50750000D03*
X79750000Y-50000000D03*
%TD*%
D25*
%TO.N,GND*%
X121600000Y-112100000D02*
X121539000Y-113439000D01*
X121539000Y-113561000D02*
X121539000Y-114813550D01*
X121600000Y-113500000D02*
X121539000Y-113561000D01*
X121539000Y-113439000D02*
X121600000Y-113500000D01*
X121600000Y-114874550D02*
X121551500Y-114826050D01*
X121600000Y-114800000D02*
X121600000Y-114874550D01*
X121525450Y-114800000D02*
X121600000Y-114800000D01*
X121539000Y-112159050D02*
X121600000Y-112100000D01*
X121539000Y-114813550D02*
X121525450Y-114800000D01*
D26*
%TO.N,+3V3*%
X96988900Y-100543500D02*
X96921400Y-100476000D01*
X97694600Y-108894700D02*
X97000100Y-108894700D01*
D27*
X96341600Y-88020500D02*
X96155100Y-88207000D01*
X96340500Y-75538500D02*
X96154000Y-75725000D01*
D26*
X103774900Y-58958500D02*
X103707400Y-58891000D01*
X107423300Y-68961000D02*
X107363800Y-68901500D01*
X97742900Y-100603000D02*
X97683400Y-100543500D01*
D27*
X96349400Y-67246500D02*
X96162900Y-67433000D01*
X97713400Y-83858500D02*
X96350500Y-83858500D01*
D26*
X97756100Y-113221400D02*
X97696600Y-113161900D01*
D25*
X83286600Y-49123200D02*
X83286600Y-50139200D01*
D26*
X106942000Y-90872500D02*
X106874500Y-90805000D01*
X97754100Y-108954200D02*
X97694600Y-108894700D01*
X96999100Y-104714700D02*
X96931600Y-104647200D01*
X97704500Y-79700500D02*
X97010000Y-79700500D01*
D27*
X97683400Y-100543500D02*
X96320500Y-100543500D01*
D26*
X104460100Y-63098500D02*
X103765600Y-63098500D01*
X103774900Y-50608500D02*
X103707400Y-50541000D01*
D25*
X85906600Y-46503200D02*
X85826600Y-46583200D01*
D27*
X104469400Y-50608500D02*
X103106500Y-50608500D01*
D26*
X97010000Y-79700500D02*
X96942500Y-79633000D01*
X97010000Y-88020500D02*
X96942500Y-87953000D01*
D27*
X97693400Y-96378500D02*
X96330500Y-96378500D01*
D26*
X106669300Y-68901500D02*
X106601800Y-68834000D01*
X97764000Y-79760000D02*
X97704500Y-79700500D01*
X107696000Y-90932000D02*
X107636500Y-90872500D01*
D27*
X107354000Y-73756000D02*
X105991100Y-73756000D01*
X97704500Y-79700500D02*
X96341600Y-79700500D01*
D26*
X97693400Y-96378500D02*
X96998900Y-96378500D01*
D27*
X103097200Y-63098500D02*
X102910700Y-63285000D01*
X105972500Y-78437500D02*
X105786000Y-78624000D01*
X107636500Y-90872500D02*
X106273600Y-90872500D01*
D26*
X104469400Y-58958500D02*
X103774900Y-58958500D01*
D25*
X85746600Y-46503200D02*
X84810600Y-46503200D01*
D27*
X103106500Y-50608500D02*
X102920000Y-50795000D01*
D25*
X83286600Y-48027200D02*
X83286600Y-49123200D01*
D26*
X97018900Y-83858500D02*
X96951400Y-83791000D01*
X97017800Y-67246500D02*
X96950300Y-67179000D01*
D27*
X97694600Y-108894700D02*
X96331700Y-108894700D01*
D26*
X104519600Y-63158000D02*
X104460100Y-63098500D01*
D27*
X103106500Y-58958500D02*
X102920000Y-59145000D01*
D26*
X103774900Y-54778500D02*
X103707400Y-54711000D01*
X97713400Y-83858500D02*
X97018900Y-83858500D01*
D25*
X83794600Y-47519200D02*
X83794600Y-47599200D01*
D27*
X96350500Y-83858500D02*
X96164000Y-84045000D01*
D26*
X107636500Y-90872500D02*
X106942000Y-90872500D01*
D25*
X82778600Y-50647200D02*
X83286600Y-50139200D01*
D26*
X104528900Y-50668000D02*
X104469400Y-50608500D01*
X97761800Y-71456000D02*
X97702300Y-71396500D01*
X103765600Y-63098500D02*
X103698100Y-63031000D01*
X97683400Y-100543500D02*
X96988900Y-100543500D01*
X104528900Y-59018000D02*
X104469400Y-58958500D01*
X97772900Y-83918000D02*
X97713400Y-83858500D01*
D27*
X105991100Y-73756000D02*
X105804600Y-73942500D01*
D26*
X107394900Y-78497000D02*
X107335400Y-78437500D01*
D27*
X107363800Y-68901500D02*
X106000900Y-68901500D01*
D26*
X97000100Y-108894700D02*
X96932600Y-108827200D01*
D25*
X83794600Y-47599200D02*
X83714600Y-47599200D01*
D26*
X97008900Y-75538500D02*
X96941400Y-75471000D01*
X97704500Y-92180500D02*
X97010000Y-92180500D01*
D25*
X83714600Y-47599200D02*
X83286600Y-48027200D01*
D27*
X97693600Y-104714700D02*
X96330700Y-104714700D01*
X97703400Y-75538500D02*
X96340500Y-75538500D01*
X97712300Y-67246500D02*
X96349400Y-67246500D01*
D26*
X97702300Y-71396500D02*
X97007800Y-71396500D01*
D27*
X106000900Y-68901500D02*
X105814400Y-69088000D01*
D25*
X82270600Y-52323200D02*
X82270600Y-51155200D01*
D26*
X97752900Y-96438000D02*
X97693400Y-96378500D01*
X104469400Y-54778500D02*
X103774900Y-54778500D01*
X97007800Y-71396500D02*
X96940300Y-71329000D01*
X97712300Y-67246500D02*
X97017800Y-67246500D01*
X97764000Y-88080000D02*
X97704500Y-88020500D01*
D27*
X97704500Y-88020500D02*
X96341600Y-88020500D01*
D26*
X97762900Y-75598000D02*
X97703400Y-75538500D01*
D27*
X106273600Y-90872500D02*
X106087100Y-91059000D01*
D28*
X82270600Y-56235200D02*
X82270600Y-55219200D01*
D26*
X97704500Y-88020500D02*
X97010000Y-88020500D01*
X104469400Y-50608500D02*
X103774900Y-50608500D01*
D27*
X96320500Y-100543500D02*
X96134000Y-100730000D01*
D26*
X106659500Y-73756000D02*
X106592000Y-73688500D01*
D27*
X97696600Y-113161900D02*
X96333700Y-113161900D01*
X103106500Y-54778500D02*
X102920000Y-54965000D01*
D25*
X85826600Y-46583200D02*
X85746600Y-46503200D01*
D26*
X107354000Y-73756000D02*
X106659500Y-73756000D01*
D25*
X87350600Y-46503200D02*
X85906600Y-46503200D01*
D27*
X96330500Y-96378500D02*
X96144000Y-96565000D01*
X96341600Y-79700500D02*
X96155100Y-79887000D01*
D28*
X82270600Y-54203200D02*
X82270600Y-52323200D01*
D26*
X97703400Y-75538500D02*
X97008900Y-75538500D01*
D27*
X104460100Y-63098500D02*
X103097200Y-63098500D01*
D28*
X82270600Y-57251200D02*
X82270600Y-56235200D01*
D26*
X97771800Y-67306000D02*
X97712300Y-67246500D01*
D28*
X82270600Y-55219200D02*
X82270600Y-54203200D01*
D27*
X104469400Y-54778500D02*
X103106500Y-54778500D01*
D26*
X97753100Y-104774200D02*
X97693600Y-104714700D01*
D27*
X96331700Y-108894700D02*
X96145200Y-109081200D01*
D26*
X96998900Y-96378500D02*
X96931400Y-96311000D01*
D25*
X84810600Y-46503200D02*
X83794600Y-47519200D01*
D27*
X96333700Y-113161900D02*
X96147200Y-113348400D01*
D28*
X82270600Y-58623200D02*
X82270600Y-57251200D01*
D26*
X106640900Y-78437500D02*
X106573400Y-78370000D01*
D27*
X96330700Y-104714700D02*
X96144200Y-104901200D01*
D26*
X97010000Y-92180500D02*
X96942500Y-92113000D01*
D25*
X82270600Y-51155200D02*
X82778600Y-50647200D01*
D26*
X107413500Y-73815500D02*
X107354000Y-73756000D01*
D27*
X96341600Y-92180500D02*
X96155100Y-92367000D01*
D26*
X107363800Y-68901500D02*
X106669300Y-68901500D01*
X97764000Y-92240000D02*
X97704500Y-92180500D01*
X97696600Y-113161900D02*
X97002100Y-113161900D01*
D27*
X104469400Y-58958500D02*
X103106500Y-58958500D01*
D26*
X97693600Y-104714700D02*
X96999100Y-104714700D01*
D27*
X97702300Y-71396500D02*
X96339400Y-71396500D01*
X96339400Y-71396500D02*
X96152900Y-71583000D01*
D26*
X104528900Y-54838000D02*
X104469400Y-54778500D01*
X97002100Y-113161900D02*
X96934600Y-113094400D01*
D27*
X107335400Y-78437500D02*
X105972500Y-78437500D01*
D26*
X107335400Y-78437500D02*
X106640900Y-78437500D01*
D27*
X97704500Y-92180500D02*
X96341600Y-92180500D01*
D26*
%TO.N,GND*%
X96980900Y-101678500D02*
X96921400Y-101619000D01*
X97830000Y-93190000D02*
X97704500Y-93315500D01*
D25*
X84810600Y-49203200D02*
X85746600Y-49203200D01*
D26*
X103766900Y-51743500D02*
X103707400Y-51684000D01*
X103766900Y-60093500D02*
X103707400Y-60034000D01*
X104430400Y-55952500D02*
X102295001Y-55952500D01*
X107363800Y-70036500D02*
X106661300Y-70036500D01*
X97693400Y-97513500D02*
X97654400Y-97552500D01*
X104469400Y-60093500D02*
X103766900Y-60093500D01*
D25*
X84570600Y-50633200D02*
X84570600Y-49443200D01*
D26*
X107489300Y-69911000D02*
X107363800Y-70036500D01*
D25*
X81160600Y-47853200D02*
X81133100Y-47880700D01*
X84570600Y-50661200D02*
X84556600Y-50647200D01*
D26*
X97009800Y-68381500D02*
X96950300Y-68322000D01*
X97838900Y-84868000D02*
X97713400Y-84993500D01*
X95519201Y-105888700D02*
X95194200Y-105563699D01*
X97712300Y-68381500D02*
X97673300Y-68420500D01*
D25*
X81254600Y-47853200D02*
X81160600Y-47853200D01*
D26*
X97665500Y-93354500D02*
X95530101Y-93354500D01*
X105189401Y-70075500D02*
X104864400Y-69750499D01*
X95522201Y-114335900D02*
X95197200Y-114010899D01*
D25*
X84570600Y-49443200D02*
X84810600Y-49203200D01*
D26*
X107363800Y-70036500D02*
X107324800Y-70075500D01*
X104469400Y-51743500D02*
X103766900Y-51743500D01*
X97693600Y-105849700D02*
X97654600Y-105888700D01*
X97704500Y-93315500D02*
X97002000Y-93315500D01*
X95202900Y-72245499D02*
X95202900Y-71583000D01*
X95214000Y-84707499D02*
X95214000Y-84045000D01*
X97654600Y-105888700D02*
X95519201Y-105888700D01*
X107597500Y-92046500D02*
X105462101Y-92046500D01*
X97703400Y-76673500D02*
X97664400Y-76712500D01*
X95212900Y-68095499D02*
X95212900Y-67433000D01*
X97693600Y-105849700D02*
X96991100Y-105849700D01*
X97828900Y-76548000D02*
X97703400Y-76673500D01*
X95527901Y-72570500D02*
X95202900Y-72245499D01*
X95184000Y-101392499D02*
X95184000Y-100730000D01*
X105161001Y-79611500D02*
X104836000Y-79286499D01*
X97644400Y-101717500D02*
X95509001Y-101717500D01*
X95530101Y-80874500D02*
X95205100Y-80549499D01*
X104594900Y-51618000D02*
X104469400Y-51743500D01*
X104430400Y-60132500D02*
X102295001Y-60132500D01*
X97704500Y-80835500D02*
X97665500Y-80874500D01*
X107636500Y-92007500D02*
X107597500Y-92046500D01*
X97713400Y-84993500D02*
X97010900Y-84993500D01*
X97704500Y-89155500D02*
X97665500Y-89194500D01*
D25*
X84556600Y-50647200D02*
X84570600Y-50633200D01*
D26*
X97827800Y-72406000D02*
X97702300Y-72531500D01*
X104594900Y-55788000D02*
X104469400Y-55913500D01*
X95195200Y-109743699D02*
X95195200Y-109081200D01*
X96991100Y-105849700D02*
X96931600Y-105790200D01*
X97010900Y-84993500D02*
X96951400Y-84934000D01*
X95205100Y-80549499D02*
X95205100Y-79887000D01*
D25*
X84570600Y-52323200D02*
X84570600Y-50661200D01*
D26*
X97702300Y-72531500D02*
X96999800Y-72531500D01*
X107324800Y-70075500D02*
X105189401Y-70075500D01*
X104864400Y-69750499D02*
X104864400Y-69088000D01*
D25*
X85826600Y-49123200D02*
X85906600Y-49203200D01*
D26*
X103766900Y-55913500D02*
X103707400Y-55854000D01*
X104836000Y-79286499D02*
X104836000Y-78624000D01*
X107479500Y-74765500D02*
X107354000Y-74891000D01*
X101960700Y-63947499D02*
X101960700Y-63285000D01*
D25*
X82430600Y-46583200D02*
X81254600Y-47759200D01*
D26*
X97704500Y-80835500D02*
X97002000Y-80835500D01*
X104469400Y-51743500D02*
X104430400Y-51782500D01*
X97694600Y-110029700D02*
X96992100Y-110029700D01*
X97663300Y-72570500D02*
X95527901Y-72570500D01*
X97830000Y-80710000D02*
X97704500Y-80835500D01*
X106661300Y-70036500D02*
X106601800Y-69977000D01*
X104585600Y-64108000D02*
X104460100Y-64233500D01*
X97696600Y-114296900D02*
X96994100Y-114296900D01*
X97808900Y-101553000D02*
X97683400Y-101678500D01*
X102295001Y-60132500D02*
X101970000Y-59807499D01*
X104854600Y-74604999D02*
X104854600Y-73942500D01*
X107335400Y-79572500D02*
X107296400Y-79611500D01*
X103757600Y-64233500D02*
X103698100Y-64174000D01*
X97664400Y-76712500D02*
X95529001Y-76712500D01*
X104421100Y-64272500D02*
X102285701Y-64272500D01*
X105179601Y-74930000D02*
X104854600Y-74604999D01*
X96992100Y-110029700D02*
X96932600Y-109970200D01*
X95197200Y-114010899D02*
X95197200Y-113348400D01*
X95509001Y-101717500D02*
X95184000Y-101392499D01*
X104430400Y-51782500D02*
X102295001Y-51782500D01*
X95537901Y-68420500D02*
X95212900Y-68095499D01*
X105137100Y-91721499D02*
X105137100Y-91059000D01*
X104594900Y-59968000D02*
X104469400Y-60093500D01*
X101970000Y-59807499D02*
X101970000Y-59145000D01*
X104469400Y-55913500D02*
X103766900Y-55913500D01*
X97822100Y-114171400D02*
X97696600Y-114296900D01*
X107460900Y-79447000D02*
X107335400Y-79572500D01*
X97655600Y-110068700D02*
X95520201Y-110068700D01*
X104469400Y-55913500D02*
X104430400Y-55952500D01*
X97713400Y-84993500D02*
X97674400Y-85032500D01*
X97657600Y-114335900D02*
X95522201Y-114335900D01*
D25*
X85906600Y-49203200D02*
X87350600Y-49203200D01*
D26*
X95529001Y-76712500D02*
X95204000Y-76387499D01*
X95519001Y-97552500D02*
X95194000Y-97227499D01*
X97702300Y-72531500D02*
X97663300Y-72570500D01*
X97704500Y-93315500D02*
X97665500Y-93354500D01*
X97674400Y-85032500D02*
X95539001Y-85032500D01*
X97665500Y-80874500D02*
X95530101Y-80874500D01*
X102295001Y-55952500D02*
X101970000Y-55627499D01*
X107335400Y-79572500D02*
X106632900Y-79572500D01*
X97002000Y-89155500D02*
X96942500Y-89096000D01*
X96990900Y-97513500D02*
X96931400Y-97454000D01*
X107762000Y-91882000D02*
X107636500Y-92007500D01*
D25*
X81133100Y-47880700D02*
X81133100Y-48990700D01*
D26*
X97002000Y-93315500D02*
X96942500Y-93256000D01*
X97693400Y-97513500D02*
X96990900Y-97513500D01*
X95194200Y-105563699D02*
X95194200Y-104901200D01*
X101970000Y-51457499D02*
X101970000Y-50795000D01*
X97694600Y-110029700D02*
X97655600Y-110068700D01*
X97683400Y-101678500D02*
X96980900Y-101678500D01*
X95204000Y-76387499D02*
X95204000Y-75725000D01*
X95530101Y-93354500D02*
X95205100Y-93029499D01*
X95194000Y-97227499D02*
X95194000Y-96565000D01*
X107354000Y-74891000D02*
X107315000Y-74930000D01*
X97654400Y-97552500D02*
X95519001Y-97552500D01*
X97673300Y-68420500D02*
X95537901Y-68420500D01*
X97704500Y-89155500D02*
X97002000Y-89155500D01*
X104460100Y-64233500D02*
X104421100Y-64272500D01*
X97830000Y-89030000D02*
X97704500Y-89155500D01*
X97818900Y-97388000D02*
X97693400Y-97513500D01*
X97000900Y-76673500D02*
X96941400Y-76614000D01*
D25*
X85746600Y-49203200D02*
X85826600Y-49123200D01*
D26*
X102295001Y-51782500D02*
X101970000Y-51457499D01*
X105462101Y-92046500D02*
X105137100Y-91721499D01*
X106632900Y-79572500D02*
X106573400Y-79513000D01*
X106934000Y-92007500D02*
X106874500Y-91948000D01*
X106651500Y-74891000D02*
X106592000Y-74831500D01*
X97819100Y-105724200D02*
X97693600Y-105849700D01*
X97837800Y-68256000D02*
X97712300Y-68381500D01*
X95520201Y-110068700D02*
X95195200Y-109743699D01*
X97712300Y-68381500D02*
X97009800Y-68381500D01*
X95539001Y-85032500D02*
X95214000Y-84707499D01*
X107296400Y-79611500D02*
X105161001Y-79611500D01*
X95205100Y-93029499D02*
X95205100Y-92367000D01*
D25*
X81254600Y-47759200D02*
X81254600Y-47853200D01*
D26*
X97696600Y-114296900D02*
X97657600Y-114335900D01*
X97002000Y-80835500D02*
X96942500Y-80776000D01*
X107315000Y-74930000D02*
X105179601Y-74930000D01*
X96999800Y-72531500D02*
X96940300Y-72472000D01*
X107636500Y-92007500D02*
X106934000Y-92007500D01*
X107354000Y-74891000D02*
X106651500Y-74891000D01*
X97683400Y-101678500D02*
X97644400Y-101717500D01*
X104469400Y-60093500D02*
X104430400Y-60132500D01*
X97665500Y-89194500D02*
X95530101Y-89194500D01*
X96994100Y-114296900D02*
X96934600Y-114237400D01*
X97820100Y-109904200D02*
X97694600Y-110029700D01*
X95530101Y-89194500D02*
X95205100Y-88869499D01*
X95205100Y-88869499D02*
X95205100Y-88207000D01*
X97703400Y-76673500D02*
X97000900Y-76673500D01*
X104460100Y-64233500D02*
X103757600Y-64233500D01*
X101970000Y-55627499D02*
X101970000Y-54965000D01*
X102285701Y-64272500D02*
X101960700Y-63947499D01*
D28*
%TO.N,Net-(C2-Pad1)*%
X118614000Y-119274400D02*
X118614000Y-112159050D01*
X118643400Y-119303800D02*
X118614000Y-119274400D01*
D29*
X72733200Y-128790000D02*
X110413800Y-128790000D01*
X110553200Y-128790000D02*
X110413800Y-128790000D01*
X68403200Y-124460000D02*
X72733200Y-128790000D01*
X114883200Y-124460000D02*
X110553200Y-128790000D01*
D28*
X118643400Y-120699800D02*
X118643400Y-119303800D01*
X118614000Y-114813550D02*
X118601500Y-114826050D01*
X118614000Y-112159050D02*
X118614000Y-114813550D01*
X114883200Y-124460000D02*
X118643400Y-120699800D01*
D30*
%TO.N,/VSYNC-*%
X97009200Y-121888000D02*
X98044000Y-120853200D01*
X96723200Y-124460000D02*
X97009200Y-124174000D01*
X101595721Y-80180078D02*
X101595721Y-80462921D01*
X101789299Y-79986500D02*
X101595721Y-80180078D01*
X103886000Y-80899000D02*
X102892249Y-80899000D01*
X102892249Y-80899000D02*
X101979749Y-79986500D01*
X98044000Y-120853200D02*
X98044000Y-119672800D01*
X110887842Y-105929419D02*
X111087841Y-105729420D01*
X110887842Y-106828958D02*
X110887842Y-105929419D01*
X101979749Y-79986500D02*
X101789299Y-79986500D01*
X98044000Y-119672800D02*
X110887842Y-106828958D01*
X97009200Y-124174000D02*
X97009200Y-121888000D01*
%TO.N,/VSYNC+*%
X101602901Y-79536500D02*
X101277522Y-79861879D01*
X102892249Y-78624000D02*
X101979749Y-79536500D01*
X96723200Y-120357200D02*
X96723200Y-120660000D01*
X110437840Y-106642560D02*
X96723200Y-120357200D01*
X101979749Y-79536500D02*
X101602901Y-79536500D01*
X110237841Y-105729420D02*
X110437840Y-105929419D01*
X103886000Y-78624000D02*
X102892249Y-78624000D01*
X110437840Y-105929419D02*
X110437840Y-106642560D01*
X101277522Y-79861879D02*
X100994679Y-79861879D01*
%TO.N,/DATA_VALID+*%
X102967998Y-70000499D02*
X102767999Y-69800500D01*
X98679435Y-116615000D02*
X98091200Y-116615000D01*
X103914400Y-69088000D02*
X103001901Y-70000499D01*
X108283799Y-107010636D02*
X98679435Y-116615000D01*
X93878400Y-119456200D02*
X93116400Y-120218200D01*
X93116400Y-121190522D02*
X94485878Y-122560000D01*
X98091200Y-116615000D02*
X95250000Y-119456200D01*
X94485878Y-122560000D02*
X95453200Y-122560000D01*
X108283799Y-105914799D02*
X108283799Y-107010636D01*
X95250000Y-119456200D02*
X93878400Y-119456200D01*
X93116400Y-120218200D02*
X93116400Y-121190522D01*
X108083800Y-105714800D02*
X108283799Y-105914799D01*
X103001901Y-70000499D02*
X102967998Y-70000499D01*
%TO.N,/OUT9+*%
X78943200Y-122051587D02*
X78943200Y-124460000D01*
X94254000Y-75725000D02*
X93260249Y-75725000D01*
X90989100Y-76637500D02*
X77753000Y-89873600D01*
X77753000Y-89873600D02*
X77753000Y-120861387D01*
X93260249Y-75725000D02*
X92347749Y-76637500D01*
X77753000Y-120861387D02*
X78943200Y-122051587D01*
X92347749Y-76637500D02*
X90989100Y-76637500D01*
%TO.N,/PIXCLK-*%
X115591801Y-112767599D02*
X115591801Y-105965599D01*
X102912100Y-92421500D02*
X102867100Y-92421500D01*
X102867100Y-92421500D02*
X102231400Y-93057200D01*
X100533200Y-126360000D02*
X101325600Y-126360000D01*
X102231400Y-94852000D02*
X103013999Y-95634599D01*
X103333900Y-118675500D02*
X105300000Y-116709400D01*
X103824600Y-93334000D02*
X102912100Y-92421500D01*
X103013999Y-95634599D02*
X105260801Y-95634599D01*
X103333900Y-121042287D02*
X103333900Y-118675500D01*
X111650000Y-116709400D02*
X115591801Y-112767599D01*
X101325600Y-126360000D02*
X103022400Y-124663200D01*
X103022400Y-124002800D02*
X104057200Y-122968000D01*
X104057200Y-121765587D02*
X103333900Y-121042287D01*
X104057200Y-122968000D02*
X104057200Y-121765587D01*
X115591801Y-105965599D02*
X115791800Y-105765600D01*
X102231400Y-93057200D02*
X102231400Y-94852000D01*
X104187100Y-93334000D02*
X103824600Y-93334000D01*
X105300000Y-116709400D02*
X111650000Y-116709400D01*
X105260801Y-95634599D02*
X105460800Y-95434600D01*
X103022400Y-124663200D02*
X103022400Y-124002800D01*
%TO.N,/OUT6-*%
X94255100Y-90482000D02*
X93261349Y-90482000D01*
X84273600Y-109872000D02*
X83003600Y-111142000D01*
X83003600Y-122309600D02*
X82753200Y-122560000D01*
X84273600Y-96613200D02*
X84273600Y-109872000D01*
X93261349Y-90482000D02*
X92348849Y-89569500D01*
X83003600Y-111142000D02*
X83003600Y-122309600D01*
X91317300Y-89569500D02*
X84273600Y-96613200D01*
X92348849Y-89569500D02*
X91317300Y-89569500D01*
%TO.N,/OUT12-*%
X101010700Y-65560000D02*
X100098201Y-64647501D01*
X98777399Y-64647501D02*
X98577400Y-64847500D01*
X100098201Y-64647501D02*
X98777399Y-64647501D01*
%TO.N,/OUT7+*%
X80499200Y-121067587D02*
X81351613Y-121920000D01*
X92357749Y-84957500D02*
X91000300Y-84957500D01*
X80518000Y-119634000D02*
X80499200Y-119652800D01*
X93270249Y-84045000D02*
X92357749Y-84957500D01*
X81369200Y-124346000D02*
X81483200Y-124460000D01*
X80518000Y-109892400D02*
X80518000Y-119634000D01*
X81351613Y-121920000D02*
X81369200Y-121920000D01*
X81817000Y-94140800D02*
X81817000Y-108593400D01*
X91000300Y-84957500D02*
X81817000Y-94140800D01*
X80499200Y-119652800D02*
X80499200Y-121067587D01*
X81369200Y-121920000D02*
X81369200Y-124346000D01*
X94264000Y-84045000D02*
X93270249Y-84045000D01*
X81817000Y-108593400D02*
X80518000Y-109892400D01*
%TO.N,/OUT0-*%
X92851261Y-115623400D02*
X94247200Y-115623400D01*
X91643200Y-116831461D02*
X92851261Y-115623400D01*
X91643200Y-120660000D02*
X91643200Y-116831461D01*
D27*
X91643200Y-120660000D02*
X91643200Y-119430800D01*
D30*
%TO.N,/OUT6+*%
X81769200Y-123354413D02*
X82753200Y-124338413D01*
X82553600Y-110955600D02*
X82553600Y-119630400D01*
X92348849Y-89119500D02*
X91130900Y-89119500D01*
X94255100Y-88207000D02*
X93261349Y-88207000D01*
X82553600Y-119630400D02*
X82550000Y-119634000D01*
X81769200Y-121765587D02*
X81769200Y-123354413D01*
X83823600Y-109685600D02*
X82553600Y-110955600D01*
X93261349Y-88207000D02*
X92348849Y-89119500D01*
X91130900Y-89119500D02*
X83823600Y-96426800D01*
X82753200Y-124338413D02*
X82753200Y-126360000D01*
X82550000Y-120984787D02*
X81769200Y-121765587D01*
X82550000Y-119634000D02*
X82550000Y-120984787D01*
X83823600Y-96426800D02*
X83823600Y-109685600D01*
%TO.N,/OUT0+*%
X90659200Y-121158000D02*
X90659200Y-116936400D01*
X91643200Y-124460000D02*
X91643200Y-122142000D01*
X90659200Y-116936400D02*
X94247200Y-113348400D01*
X91643200Y-122142000D02*
X90659200Y-121158000D01*
%TO.N,/PIXCLK+*%
X115141799Y-105965599D02*
X114941800Y-105765600D01*
X103824600Y-91059000D02*
X102912100Y-91971500D01*
X101274800Y-121818400D02*
X102036387Y-121818400D01*
X102680700Y-91971500D02*
X101781400Y-92870800D01*
X102036387Y-121818400D02*
X102787200Y-121067587D01*
X100533200Y-122560000D02*
X101274800Y-121818400D01*
X102787200Y-118585800D02*
X105113600Y-116259400D01*
X105260801Y-96084601D02*
X105460800Y-96284600D01*
X102912100Y-91971500D02*
X102680700Y-91971500D01*
X115141799Y-112581201D02*
X115141799Y-105965599D01*
X101781400Y-92870800D02*
X101781400Y-95038400D01*
X105113600Y-116259400D02*
X111463600Y-116259400D01*
X111463600Y-116259400D02*
X115141799Y-112581201D01*
X102787200Y-121067587D02*
X102787200Y-118585800D01*
X102827601Y-96084601D02*
X105260801Y-96084601D01*
X104187100Y-91059000D02*
X103824600Y-91059000D01*
X101781400Y-95038400D02*
X102827601Y-96084601D01*
%TO.N,/OUT4+*%
X92337749Y-97477500D02*
X91789900Y-97477500D01*
X87151000Y-112174800D02*
X85579200Y-113746600D01*
X85579200Y-121139200D02*
X86563200Y-122123200D01*
X85579200Y-113746600D02*
X85579200Y-121139200D01*
X87151000Y-102116400D02*
X87151000Y-112174800D01*
X93250249Y-96565000D02*
X92337749Y-97477500D01*
X86563200Y-122123200D02*
X86563200Y-124460000D01*
X91789900Y-97477500D02*
X87151000Y-102116400D01*
X94244000Y-96565000D02*
X93250249Y-96565000D01*
%TO.N,/OUT8+*%
X79810400Y-108029400D02*
X79610400Y-108229400D01*
X79810400Y-92058000D02*
X79810400Y-108029400D01*
X91068900Y-80799500D02*
X79810400Y-92058000D01*
X92348849Y-80799500D02*
X91068900Y-80799500D01*
X94255100Y-79887000D02*
X93261349Y-79887000D01*
X93261349Y-79887000D02*
X92348849Y-80799500D01*
%TO.N,/OUT2+*%
X90199000Y-106840800D02*
X90199000Y-114486200D01*
X93250449Y-104901200D02*
X92337949Y-105813700D01*
X90199000Y-114486200D02*
X88522600Y-116162600D01*
X91226100Y-105813700D02*
X90199000Y-106840800D01*
X94244200Y-104901200D02*
X93250449Y-104901200D01*
X88119200Y-121139200D02*
X89103200Y-122123200D01*
X92337949Y-105813700D02*
X91226100Y-105813700D01*
X89103200Y-122123200D02*
X89103200Y-124460000D01*
X88522600Y-116162600D02*
X88522600Y-119503400D01*
X88522600Y-119503400D02*
X88119200Y-119906800D01*
X88119200Y-119906800D02*
X88119200Y-121139200D01*
%TO.N,/OUT5+*%
X92348849Y-93279500D02*
X91568300Y-93279500D01*
X91568300Y-93279500D02*
X85636980Y-99210820D01*
X85580322Y-111205479D02*
X85297479Y-111205479D01*
X85636980Y-111148821D02*
X85580322Y-111205479D01*
X85636980Y-99210820D02*
X85636980Y-111148821D01*
X94255100Y-92367000D02*
X93261349Y-92367000D01*
X93261349Y-92367000D02*
X92348849Y-93279500D01*
%TO.N,/OUT13-*%
X105492900Y-119093900D02*
X105899200Y-119500200D01*
X104948521Y-118549522D02*
X105492900Y-119093900D01*
X101020000Y-61420000D02*
X100107501Y-60507501D01*
X100107501Y-60507501D02*
X98701199Y-60507501D01*
X105899200Y-119500200D02*
X105899200Y-122274000D01*
X105899200Y-122274000D02*
X105613200Y-122560000D01*
X98701199Y-60507501D02*
X98501200Y-60707500D01*
X104948521Y-118266679D02*
X104948521Y-118549522D01*
%TO.N,/OUT12+*%
X100098201Y-64197499D02*
X98777399Y-64197499D01*
X101010700Y-63285000D02*
X100098201Y-64197499D01*
X98777399Y-64197499D02*
X98577400Y-63997500D01*
%TO.N,/OUT11+*%
X93269149Y-67433000D02*
X92356649Y-68345500D01*
X75953200Y-117749600D02*
X75953200Y-119718413D01*
X74044600Y-115841000D02*
X75953200Y-117749600D01*
X75953200Y-119718413D02*
X75419200Y-120252413D01*
X75419200Y-121067587D02*
X75953200Y-121601587D01*
X94262900Y-67433000D02*
X93269149Y-67433000D01*
X75953200Y-124010000D02*
X76403200Y-124460000D01*
X74044600Y-85098400D02*
X74044600Y-115841000D01*
X90797500Y-68345500D02*
X74044600Y-85098400D01*
X75419200Y-120252413D02*
X75419200Y-121067587D01*
X75953200Y-121601587D02*
X75953200Y-124010000D01*
X92356649Y-68345500D02*
X90797500Y-68345500D01*
%TO.N,/OUT11-*%
X94262900Y-69708000D02*
X93269149Y-69708000D01*
X74494600Y-115654600D02*
X76403200Y-117563200D01*
X90983900Y-68795500D02*
X74494600Y-85284800D01*
X76403200Y-117563200D02*
X76403200Y-120660000D01*
X74494600Y-85284800D02*
X74494600Y-115654600D01*
X92356649Y-68795500D02*
X90983900Y-68795500D01*
X93269149Y-69708000D02*
X92356649Y-68795500D01*
%TO.N,/OUT3+*%
X93240249Y-100730000D02*
X92327749Y-101642500D01*
X94234000Y-100730000D02*
X93240249Y-100730000D01*
X88628322Y-113491479D02*
X88345479Y-113491479D01*
X91511100Y-101642500D02*
X88675000Y-104478600D01*
X88675000Y-113444801D02*
X88628322Y-113491479D01*
X92327749Y-101642500D02*
X91511100Y-101642500D01*
X88675000Y-104478600D02*
X88675000Y-113444801D01*
%TO.N,/OUT8-*%
X92348849Y-81249500D02*
X91255300Y-81249500D01*
X80260400Y-108029400D02*
X80460400Y-108229400D01*
X93261349Y-82162000D02*
X92348849Y-81249500D01*
X91255300Y-81249500D02*
X80260400Y-92244400D01*
X94255100Y-82162000D02*
X93261349Y-82162000D01*
X80260400Y-92244400D02*
X80260400Y-108029400D01*
%TO.N,/OUT13+*%
X98701199Y-60057499D02*
X98501200Y-59857500D01*
X105327200Y-121088400D02*
X105327200Y-119564599D01*
X101020000Y-59145000D02*
X100107501Y-60057499D01*
X100107501Y-60057499D02*
X98701199Y-60057499D01*
X105327200Y-119564599D02*
X104630322Y-118867721D01*
X105613200Y-123951587D02*
X104629200Y-122967587D01*
X104630322Y-118867721D02*
X104347479Y-118867721D01*
X104629200Y-122967587D02*
X104629200Y-121786400D01*
X105613200Y-126360000D02*
X105613200Y-123951587D01*
X104629200Y-121786400D02*
X105327200Y-121088400D01*
%TO.N,/OUT15-*%
X98955199Y-52157501D02*
X98755200Y-52357500D01*
X101020000Y-53070000D02*
X100107501Y-52157501D01*
X100107501Y-52157501D02*
X98955199Y-52157501D01*
%TO.N,/OUT10+*%
X91016300Y-72495500D02*
X75873400Y-87638400D01*
X75873400Y-87638400D02*
X75873400Y-107978600D01*
X94252900Y-71583000D02*
X93259149Y-71583000D01*
X75873400Y-107978600D02*
X75673400Y-108178600D01*
X92346649Y-72495500D02*
X91016300Y-72495500D01*
X93259149Y-71583000D02*
X92346649Y-72495500D01*
%TO.N,/OUT7-*%
X92357749Y-85407500D02*
X91186700Y-85407500D01*
X94264000Y-86320000D02*
X93270249Y-86320000D01*
X81483200Y-120091200D02*
X81483200Y-120660000D01*
X91186700Y-85407500D02*
X82267000Y-94327200D01*
X82267000Y-108779800D02*
X81026000Y-110020800D01*
X82267000Y-94327200D02*
X82267000Y-108779800D01*
X81026000Y-110020800D02*
X81026000Y-119634000D01*
X81026000Y-119634000D02*
X81483200Y-120091200D01*
X93270249Y-86320000D02*
X92357749Y-85407500D01*
D27*
%TO.N,/OUT1-*%
X90373200Y-122560000D02*
X90295700Y-122482500D01*
D30*
X92248521Y-112822521D02*
X92248521Y-111714276D01*
X92248521Y-111714276D02*
X92606597Y-111356200D01*
X92606597Y-111356200D02*
X94245200Y-111356200D01*
%TO.N,/OUT5-*%
X94255100Y-94642000D02*
X93261349Y-94642000D01*
X92348849Y-93729500D02*
X91754700Y-93729500D01*
X93261349Y-94642000D02*
X92348849Y-93729500D01*
X86086980Y-99397220D02*
X86086980Y-111335219D01*
X85898521Y-111523678D02*
X85898521Y-111806521D01*
X91754700Y-93729500D02*
X86086980Y-99397220D01*
X86086980Y-111335219D02*
X85898521Y-111523678D01*
%TO.N,/OUT3-*%
X94234000Y-103005000D02*
X93240249Y-103005000D01*
X92327749Y-102092500D02*
X91697500Y-102092500D01*
X89125000Y-104665000D02*
X89125000Y-113631199D01*
X88946521Y-113809678D02*
X88946521Y-114092521D01*
X93240249Y-103005000D02*
X92327749Y-102092500D01*
X91697500Y-102092500D02*
X89125000Y-104665000D01*
X89125000Y-113631199D02*
X88946521Y-113809678D01*
%TO.N,/OUT4-*%
X91976300Y-97927500D02*
X87601000Y-102302800D01*
X93250249Y-98840000D02*
X92337749Y-97927500D01*
X86563200Y-119430800D02*
X86563200Y-120660000D01*
X87601000Y-102302800D02*
X87601000Y-112361200D01*
X86614000Y-119380000D02*
X86563200Y-119430800D01*
X94244000Y-98840000D02*
X93250249Y-98840000D01*
X87601000Y-112361200D02*
X86614000Y-113348200D01*
X86614000Y-113348200D02*
X86614000Y-119380000D01*
X92337749Y-97927500D02*
X91976300Y-97927500D01*
%TO.N,/HSYNC-*%
X99263200Y-122051586D02*
X100446593Y-120868193D01*
X102992101Y-75305001D02*
X102965598Y-75305001D01*
X113255001Y-106722399D02*
X113255001Y-105914799D01*
X103904600Y-76217500D02*
X102992101Y-75305001D01*
X102814921Y-75455678D02*
X102814921Y-75738521D01*
X102965598Y-75305001D02*
X102814921Y-75455678D01*
X113255001Y-105914799D02*
X113455000Y-105714800D01*
X99263200Y-124460000D02*
X99263200Y-122051586D01*
X100446593Y-119530807D02*
X113255001Y-106722399D01*
X100446593Y-120868193D02*
X100446593Y-119530807D01*
%TO.N,/OUT10-*%
X93259149Y-73858000D02*
X92346649Y-72945500D01*
X94252900Y-73858000D02*
X93259149Y-73858000D01*
X92346649Y-72945500D02*
X91202700Y-72945500D01*
X76323400Y-87824800D02*
X76323400Y-107978600D01*
X76323400Y-107978600D02*
X76523400Y-108178600D01*
X91202700Y-72945500D02*
X76323400Y-87824800D01*
%TO.N,/OUT1+*%
X91798520Y-112070438D02*
X91798520Y-111527880D01*
X91647479Y-112221479D02*
X91798520Y-112070438D01*
X91798520Y-111527880D02*
X94245200Y-109081200D01*
%TO.N,/OUT14-*%
X101020000Y-57240000D02*
X100107501Y-56327501D01*
X98802799Y-56327501D02*
X98602800Y-56527500D01*
X100107501Y-56327501D02*
X98802799Y-56327501D01*
%TO.N,/HSYNC+*%
X102992101Y-74854999D02*
X102779202Y-74854999D01*
X99263200Y-120091200D02*
X100018500Y-119335900D01*
X112804999Y-106536001D02*
X112804999Y-105914799D01*
X100018500Y-119322500D02*
X112804999Y-106536001D01*
X99263200Y-120660000D02*
X99263200Y-120091200D01*
X102496722Y-75137479D02*
X102213879Y-75137479D01*
X102779202Y-74854999D02*
X102496722Y-75137479D01*
X100018500Y-119335900D02*
X100018500Y-119322500D01*
X103904600Y-73942500D02*
X102992101Y-74854999D01*
X112804999Y-105914799D02*
X112605000Y-105714800D01*
%TO.N,/DATA_VALID-*%
X98247200Y-117094000D02*
X98836832Y-117094000D01*
X95453200Y-123951587D02*
X96469200Y-122935587D01*
X96469200Y-122174000D02*
X95504000Y-121208800D01*
X103001901Y-70450501D02*
X102967998Y-70450501D01*
X103914400Y-71363000D02*
X103001901Y-70450501D01*
X96469200Y-122935587D02*
X96469200Y-122174000D01*
X102967998Y-70450501D02*
X102767999Y-70650500D01*
X95504000Y-119837200D02*
X98247200Y-117094000D01*
X95504000Y-121208800D02*
X95504000Y-119837200D01*
X108933800Y-106997032D02*
X108933800Y-105714800D01*
X95453200Y-126360000D02*
X95453200Y-123951587D01*
X98836832Y-117094000D02*
X108933800Y-106997032D01*
%TO.N,/OUT2-*%
X88950800Y-119938800D02*
X89103200Y-120091200D01*
X93250449Y-107176200D02*
X92337949Y-106263700D01*
X90649000Y-107027200D02*
X90649000Y-114672600D01*
X92337949Y-106263700D02*
X91412500Y-106263700D01*
X88972600Y-119917000D02*
X88950800Y-119938800D01*
X91412500Y-106263700D02*
X90649000Y-107027200D01*
X94244200Y-107176200D02*
X93250449Y-107176200D01*
X89103200Y-120091200D02*
X89103200Y-120660000D01*
X88972600Y-116349000D02*
X88972600Y-119917000D01*
X90649000Y-114672600D02*
X88972600Y-116349000D01*
%TO.N,/OUT15+*%
X101020000Y-50795000D02*
X100107501Y-51707499D01*
X100107501Y-51707499D02*
X98955199Y-51707499D01*
X98955199Y-51707499D02*
X98755200Y-51507500D01*
%TO.N,/OUT14+*%
X98802799Y-55877499D02*
X98602800Y-55677500D01*
X101020000Y-54965000D02*
X100107501Y-55877499D01*
X100107501Y-55877499D02*
X98802799Y-55877499D01*
%TO.N,/OUT9-*%
X78203000Y-90060000D02*
X78203000Y-118948200D01*
X93260249Y-78000000D02*
X92347749Y-77087500D01*
X92347749Y-77087500D02*
X91175500Y-77087500D01*
X94254000Y-78000000D02*
X93260249Y-78000000D01*
X78943200Y-119688400D02*
X78943200Y-120660000D01*
X91175500Y-77087500D02*
X78203000Y-90060000D01*
X78203000Y-118948200D02*
X78943200Y-119688400D01*
D27*
%TO.N,/OUT0*%
X112296500Y-98980700D02*
X112296500Y-96871500D01*
X98536800Y-112740400D02*
X112296500Y-98980700D01*
X112296500Y-96871500D02*
X113410000Y-95758000D01*
X98536800Y-115634400D02*
X98536800Y-112740400D01*
%TO.N,/OUT1*%
X98534800Y-111367200D02*
X98534800Y-109034000D01*
X111983500Y-94644500D02*
X113410000Y-93218000D01*
X111247900Y-97184500D02*
X111983500Y-96448900D01*
X111983500Y-96448900D02*
X111983500Y-94644500D01*
X110384300Y-97184500D02*
X111247900Y-97184500D01*
X98534800Y-109034000D02*
X110384300Y-97184500D01*
%TO.N,/OUT2*%
X100482400Y-105968800D02*
X99264000Y-107187200D01*
X99264000Y-107187200D02*
X98533800Y-107187200D01*
X108762800Y-94335600D02*
X100482400Y-102616000D01*
X100482400Y-102616000D02*
X100482400Y-105968800D01*
X111327127Y-94335600D02*
X108762800Y-94335600D01*
X111983500Y-92104500D02*
X111983500Y-93679227D01*
X113410000Y-90678000D02*
X111983500Y-92104500D01*
X111983500Y-93679227D02*
X111327127Y-94335600D01*
%TO.N,/OUT3*%
X101015800Y-90982800D02*
X101015800Y-98602800D01*
X98523600Y-101095000D02*
X98523600Y-103016000D01*
X101015800Y-98602800D02*
X98523600Y-101095000D01*
X112296500Y-89251500D02*
X102747100Y-89251500D01*
X113410000Y-88138000D02*
X112296500Y-89251500D01*
X102747100Y-89251500D02*
X101015800Y-90982800D01*
%TO.N,/OUT4*%
X98533600Y-96563800D02*
X98533600Y-98851000D01*
X103128100Y-86711500D02*
X100279200Y-89560400D01*
X112296500Y-86711500D02*
X103128100Y-86711500D01*
X100279200Y-89560400D02*
X100279200Y-94818200D01*
X100279200Y-94818200D02*
X98533600Y-96563800D01*
X113410000Y-85598000D02*
X112296500Y-86711500D01*
%TO.N,/OUT5*%
X108508800Y-85394800D02*
X109419100Y-84484500D01*
X99441000Y-93756700D02*
X99441000Y-88874600D01*
X102920800Y-85394800D02*
X108508800Y-85394800D01*
X99441000Y-88874600D02*
X102920800Y-85394800D01*
X111983500Y-84484500D02*
X113410000Y-83058000D01*
X98544700Y-94653000D02*
X99441000Y-93756700D01*
X109419100Y-84484500D02*
X111983500Y-84484500D01*
%TO.N,/OUT6*%
X113410000Y-80518000D02*
X112140000Y-81788000D01*
X108102400Y-84226400D02*
X102489000Y-84226400D01*
X110540800Y-81788000D02*
X108102400Y-84226400D01*
X98544700Y-88170700D02*
X98544700Y-90493000D01*
X102489000Y-84226400D02*
X98544700Y-88170700D01*
X112140000Y-81788000D02*
X110540800Y-81788000D01*
%TO.N,/OUT7*%
X109486236Y-81420164D02*
X107873800Y-83032600D01*
X110408773Y-79404500D02*
X109486236Y-80327036D01*
X109486236Y-80327036D02*
X109486236Y-81420164D01*
X107873800Y-83032600D02*
X101854000Y-83032600D01*
X98553600Y-86331000D02*
X98555600Y-86331000D01*
X113410000Y-77978000D02*
X111983500Y-79404500D01*
X98555600Y-86331000D02*
X101854000Y-83032600D01*
X111983500Y-79404500D02*
X110408773Y-79404500D01*
%TO.N,/OUT8*%
X107799906Y-82173000D02*
X109016800Y-80956106D01*
X98544700Y-82173000D02*
X107799906Y-82173000D01*
X110408773Y-76864500D02*
X109016800Y-78256473D01*
X111983500Y-76864500D02*
X110408773Y-76864500D01*
X109016800Y-80956106D02*
X109016800Y-78435200D01*
X113410000Y-75438000D02*
X111983500Y-76864500D01*
X109016800Y-78256473D02*
X109016800Y-79044800D01*
%TO.N,/OUT9*%
X108966000Y-75488800D02*
X110130300Y-74324500D01*
X108305600Y-77266800D02*
X108966000Y-76606400D01*
X110130300Y-74324500D02*
X111983500Y-74324500D01*
X111983500Y-74324500D02*
X113410000Y-72898000D01*
X98543600Y-78011000D02*
X99287800Y-77266800D01*
X99287800Y-77266800D02*
X108305600Y-77266800D01*
X108966000Y-76606400D02*
X108966000Y-75488800D01*
%TO.N,/OUT10*%
X108864400Y-72694800D02*
X99716700Y-72694800D01*
X109931200Y-71628000D02*
X108864400Y-72694800D01*
X99716700Y-72694800D02*
X98542500Y-73869000D01*
X113410000Y-70358000D02*
X112140000Y-71628000D01*
X112140000Y-71628000D02*
X109931200Y-71628000D01*
%TO.N,/OUT11*%
X112140000Y-69088000D02*
X109778800Y-69088000D01*
X109778800Y-69088000D02*
X108204000Y-67513200D01*
X108204000Y-67513200D02*
X102362000Y-67513200D01*
X113410000Y-67818000D02*
X112140000Y-69088000D01*
X102362000Y-67513200D02*
X100156200Y-69719000D01*
X100156200Y-69719000D02*
X98552500Y-69719000D01*
%TO.N,/OUT12*%
X106680000Y-66446400D02*
X112241600Y-66446400D01*
X112241600Y-66446400D02*
X113410000Y-65278000D01*
X105300300Y-65571000D02*
X105804600Y-65571000D01*
X105804600Y-65571000D02*
X106680000Y-66446400D01*
%TO.N,/OUT13*%
X105309600Y-61431000D02*
X112103000Y-61431000D01*
X112103000Y-61431000D02*
X113410000Y-62738000D01*
%TO.N,/OUT14*%
X110350000Y-58940000D02*
X112152000Y-58940000D01*
X105309600Y-57251000D02*
X108661000Y-57251000D01*
X112152000Y-58940000D02*
X113410000Y-60198000D01*
X108661000Y-57251000D02*
X110350000Y-58940000D01*
%TO.N,/OUT15*%
X110408773Y-56231500D02*
X109138636Y-54961364D01*
X105309600Y-53081000D02*
X107258272Y-53081000D01*
X111983500Y-56231500D02*
X110408773Y-56231500D01*
X113410000Y-57658000D02*
X111983500Y-56231500D01*
X107258272Y-53081000D02*
X109138636Y-54961364D01*
%TO.N,/HSYNC*%
X108194200Y-76228500D02*
X108194200Y-75573800D01*
X108194200Y-75573800D02*
X110870000Y-72898000D01*
%TO.N,/VSYNC*%
X108175600Y-78132400D02*
X108175600Y-80910000D01*
X110870000Y-75438000D02*
X108175600Y-78132400D01*
%TO.N,/DATA_VALID*%
X108204000Y-71374000D02*
X109220000Y-70358000D01*
X109220000Y-70358000D02*
X110870000Y-70358000D01*
%TO.N,/PIXCLK*%
X110870000Y-93218000D02*
X108603700Y-93218000D01*
X108603700Y-93218000D02*
X108476700Y-93345000D01*
D25*
%TO.N,+5V*%
X79750000Y-50750000D02*
X79730600Y-50730600D01*
X79730600Y-50769400D02*
X79750000Y-50750000D01*
X79730600Y-48019400D02*
X79750000Y-48000000D01*
X79730600Y-50019400D02*
X79750000Y-50000000D01*
X79730600Y-50730600D02*
X79730600Y-50019400D01*
X79750000Y-50000000D02*
X79730600Y-49980600D01*
X79730600Y-49980600D02*
X79730600Y-48019400D01*
X79730600Y-47980600D02*
X79730600Y-46583200D01*
X79730600Y-52083200D02*
X79730600Y-50769400D01*
X113410000Y-52578000D02*
X110310000Y-52578000D01*
X79750000Y-48000000D02*
X79730600Y-47980600D01*
X79970600Y-52323200D02*
X79730600Y-52083200D01*
D27*
%TO.N,Net-(U2-R)*%
X97505800Y-115623400D02*
X97516800Y-115634400D01*
X96147200Y-115623400D02*
X97505800Y-115623400D01*
%TO.N,Net-(U3-R)*%
X96145200Y-111356200D02*
X97503800Y-111356200D01*
X97503800Y-111356200D02*
X97514800Y-111367200D01*
%TO.N,Net-(U4-R)*%
X96144200Y-107176200D02*
X97502800Y-107176200D01*
X97502800Y-107176200D02*
X97513800Y-107187200D01*
%TO.N,Net-(U5-R)*%
X96134000Y-103005000D02*
X97492600Y-103005000D01*
X97492600Y-103005000D02*
X97503600Y-103016000D01*
%TO.N,Net-(U6-R)*%
X97502600Y-98840000D02*
X97513600Y-98851000D01*
X96144000Y-98840000D02*
X97502600Y-98840000D01*
%TO.N,Net-(U7-R)*%
X96155100Y-94642000D02*
X97513700Y-94642000D01*
X97513700Y-94642000D02*
X97524700Y-94653000D01*
%TO.N,Net-(U8-R)*%
X97513700Y-90482000D02*
X97524700Y-90493000D01*
X96155100Y-90482000D02*
X97513700Y-90482000D01*
%TO.N,Net-(U9-R)*%
X97522600Y-86320000D02*
X97533600Y-86331000D01*
X96164000Y-86320000D02*
X97522600Y-86320000D01*
%TO.N,Net-(U10-R)*%
X97513700Y-82162000D02*
X97524700Y-82173000D01*
X96155100Y-82162000D02*
X97513700Y-82162000D01*
%TO.N,Net-(U11-R)*%
X96154000Y-78000000D02*
X97512600Y-78000000D01*
X97512600Y-78000000D02*
X97523600Y-78011000D01*
%TO.N,Net-(U12-R)*%
X96152900Y-73858000D02*
X97511500Y-73858000D01*
X97511500Y-73858000D02*
X97522500Y-73869000D01*
%TO.N,Net-(U13-R)*%
X96162900Y-69708000D02*
X97521500Y-69708000D01*
X97521500Y-69708000D02*
X97532500Y-69719000D01*
%TO.N,Net-(U14-R)*%
X102910700Y-65560000D02*
X104269300Y-65560000D01*
X104269300Y-65560000D02*
X104280300Y-65571000D01*
%TO.N,Net-(U15-R)*%
X104278600Y-61420000D02*
X104289600Y-61431000D01*
X102920000Y-61420000D02*
X104278600Y-61420000D01*
%TO.N,Net-(U16-R)*%
X104278600Y-57240000D02*
X104289600Y-57251000D01*
X102920000Y-57240000D02*
X104278600Y-57240000D01*
%TO.N,Net-(U17-R)*%
X102920000Y-53070000D02*
X104278600Y-53070000D01*
X104278600Y-53070000D02*
X104289600Y-53081000D01*
%TO.N,Net-(U18-R)*%
X105804600Y-76217500D02*
X107163200Y-76217500D01*
X107163200Y-76217500D02*
X107174200Y-76228500D01*
%TO.N,Net-(U19-R)*%
X107144600Y-80899000D02*
X107155600Y-80910000D01*
X105786000Y-80899000D02*
X107144600Y-80899000D01*
%TO.N,Net-(U20-R)*%
X105814400Y-71363000D02*
X107173000Y-71363000D01*
X107173000Y-71363000D02*
X107184000Y-71374000D01*
%TO.N,Net-(U21-R)*%
X107445700Y-93334000D02*
X107456700Y-93345000D01*
X106087100Y-93334000D02*
X107445700Y-93334000D01*
%TD*%
M02*
