%TF.GenerationSoftware,KiCad,Pcbnew,8.0.4*%
%TF.CreationDate,2024-12-14T22:45:00+01:00*%
%TF.ProjectId,SpicyLightFX3,53706963-794c-4696-9768-744658332e6b,rev?*%
%TF.SameCoordinates,Original*%
%TF.FileFunction,Legend,Bot*%
%TF.FilePolarity,Positive*%
%FSLAX46Y46*%
G04 Gerber Fmt 4.6, Leading zero omitted, Abs format (unit mm)*
G04 Created by KiCad (PCBNEW 8.0.4) date 2024-12-14 22:45:00*
%MOMM*%
%LPD*%
G01*
G04 APERTURE LIST*
%ADD10C,0.300000*%
%ADD11C,0.000000*%
G04 APERTURE END LIST*
D10*
X90195339Y-73754609D02*
X90123910Y-73611752D01*
X90123910Y-73611752D02*
X90123910Y-73397466D01*
X90123910Y-73397466D02*
X90195339Y-73183180D01*
X90195339Y-73183180D02*
X90338196Y-73040323D01*
X90338196Y-73040323D02*
X90481053Y-72968894D01*
X90481053Y-72968894D02*
X90766767Y-72897466D01*
X90766767Y-72897466D02*
X90981053Y-72897466D01*
X90981053Y-72897466D02*
X91266767Y-72968894D01*
X91266767Y-72968894D02*
X91409624Y-73040323D01*
X91409624Y-73040323D02*
X91552482Y-73183180D01*
X91552482Y-73183180D02*
X91623910Y-73397466D01*
X91623910Y-73397466D02*
X91623910Y-73540323D01*
X91623910Y-73540323D02*
X91552482Y-73754609D01*
X91552482Y-73754609D02*
X91481053Y-73826037D01*
X91481053Y-73826037D02*
X90981053Y-73826037D01*
X90981053Y-73826037D02*
X90981053Y-73540323D01*
X90123910Y-74683180D02*
X90481053Y-74683180D01*
X90338196Y-74326037D02*
X90481053Y-74683180D01*
X90481053Y-74683180D02*
X90338196Y-75040323D01*
X90766767Y-74468894D02*
X90481053Y-74683180D01*
X90481053Y-74683180D02*
X90766767Y-74897466D01*
X90123910Y-75826037D02*
X90481053Y-75826037D01*
X90338196Y-75468894D02*
X90481053Y-75826037D01*
X90481053Y-75826037D02*
X90338196Y-76183180D01*
X90766767Y-75611751D02*
X90481053Y-75826037D01*
X90481053Y-75826037D02*
X90766767Y-76040323D01*
X90123910Y-76968894D02*
X90481053Y-76968894D01*
X90338196Y-76611751D02*
X90481053Y-76968894D01*
X90481053Y-76968894D02*
X90338196Y-77326037D01*
X90766767Y-76754608D02*
X90481053Y-76968894D01*
X90481053Y-76968894D02*
X90766767Y-77183180D01*
D11*
%TO.C,G\u002A\u002A\u002A*%
G36*
X105972712Y-60196297D02*
G01*
X105975263Y-60266720D01*
X105976200Y-60384193D01*
X105975319Y-60498670D01*
X105972812Y-60570652D01*
X105969073Y-60590138D01*
X105964496Y-60551508D01*
X105962023Y-60506309D01*
X105959777Y-60356819D01*
X105964496Y-60216878D01*
X105968941Y-60178546D01*
X105972712Y-60196297D01*
G37*
G36*
X90913713Y-62341739D02*
G01*
X91239009Y-62343256D01*
X91581920Y-62350033D01*
X91900324Y-62361942D01*
X92181213Y-62378991D01*
X92411580Y-62401188D01*
X92586394Y-62423735D01*
X93450924Y-62565951D01*
X94279881Y-62755877D01*
X95081363Y-62995880D01*
X95863466Y-63288328D01*
X96634290Y-63635588D01*
X96781922Y-63708640D01*
X97411610Y-64042548D01*
X97996043Y-64392535D01*
X98550251Y-64768665D01*
X99089266Y-65180996D01*
X99628118Y-65639591D01*
X100209278Y-66195034D01*
X100784411Y-66823876D01*
X101322255Y-67495698D01*
X101816992Y-68202710D01*
X102262802Y-68937118D01*
X102653867Y-69691131D01*
X102849695Y-70126954D01*
X103123383Y-70830785D01*
X103357762Y-71557632D01*
X103548952Y-72293620D01*
X103693068Y-73024874D01*
X103786228Y-73737518D01*
X103798510Y-73866699D01*
X103812751Y-74016262D01*
X103824420Y-74138585D01*
X103831792Y-74215560D01*
X103834327Y-74245042D01*
X103842234Y-74397072D01*
X103846942Y-74596609D01*
X103848622Y-74830778D01*
X103847446Y-75086706D01*
X103843587Y-75351518D01*
X103837216Y-75612339D01*
X103828505Y-75856297D01*
X103817625Y-76070516D01*
X103804749Y-76242123D01*
X103695672Y-77092339D01*
X103521050Y-77971249D01*
X103285600Y-78832951D01*
X102990002Y-79674968D01*
X102634939Y-80494824D01*
X102595891Y-80576107D01*
X102179205Y-81363286D01*
X101709803Y-82116512D01*
X101190146Y-82833539D01*
X100622692Y-83512118D01*
X100009902Y-84150001D01*
X99354236Y-84744943D01*
X98658154Y-85294694D01*
X97924115Y-85797007D01*
X97154579Y-86249635D01*
X96352007Y-86650329D01*
X95518857Y-86996843D01*
X95147671Y-87129660D01*
X94298374Y-87385455D01*
X93428751Y-87583058D01*
X92543868Y-87721944D01*
X91648787Y-87801585D01*
X90748574Y-87821455D01*
X89848294Y-87781028D01*
X88953012Y-87679775D01*
X88173478Y-87536925D01*
X87348379Y-87327140D01*
X86529911Y-87060122D01*
X85725214Y-86739004D01*
X84941431Y-86366916D01*
X84185704Y-85946992D01*
X83465176Y-85482361D01*
X82786987Y-84976157D01*
X82740705Y-84938787D01*
X82102431Y-84384378D01*
X81496625Y-83784872D01*
X80930855Y-83148742D01*
X80412692Y-82484462D01*
X79949705Y-81800504D01*
X79797479Y-81551601D01*
X79361312Y-80760367D01*
X78985656Y-79949423D01*
X78670154Y-79117759D01*
X78414451Y-78264364D01*
X78218191Y-77388228D01*
X78081019Y-76488340D01*
X78058666Y-76248563D01*
X78041265Y-75951887D01*
X78029656Y-75619470D01*
X78023835Y-75265407D01*
X78023808Y-74977583D01*
X78551278Y-74977583D01*
X78574932Y-75842660D01*
X78659824Y-76705112D01*
X78806112Y-77561005D01*
X79013955Y-78406401D01*
X79170839Y-78912737D01*
X79470150Y-79709296D01*
X79827005Y-80487385D01*
X80237857Y-81240153D01*
X80699161Y-81960752D01*
X81207368Y-82642333D01*
X81301487Y-82757643D01*
X81440522Y-82922768D01*
X81582697Y-83086491D01*
X81721724Y-83242026D01*
X81851315Y-83382585D01*
X81965184Y-83501384D01*
X82057042Y-83591634D01*
X82120602Y-83646549D01*
X82149576Y-83659342D01*
X82154407Y-83650467D01*
X82177986Y-83590358D01*
X82216243Y-83482497D01*
X82266051Y-83336017D01*
X82324281Y-83160054D01*
X82387805Y-82963741D01*
X82390264Y-82956061D01*
X82464944Y-82723181D01*
X82543899Y-82477614D01*
X82621214Y-82237711D01*
X82690975Y-82021825D01*
X82747267Y-81848308D01*
X82769845Y-81778972D01*
X82819584Y-81626489D01*
X82861029Y-81499803D01*
X82890379Y-81410520D01*
X82903830Y-81370248D01*
X82904183Y-81365976D01*
X82883669Y-81319630D01*
X82832807Y-81241932D01*
X82760755Y-81147161D01*
X82544710Y-80865711D01*
X82225465Y-80398610D01*
X81921936Y-79893642D01*
X81643272Y-79366359D01*
X81398625Y-78832311D01*
X81398338Y-78831631D01*
X81137340Y-78136241D01*
X80928624Y-77415034D01*
X80773787Y-76677322D01*
X80674426Y-75932418D01*
X80671645Y-75883565D01*
X81448468Y-75883565D01*
X81450472Y-75930525D01*
X81482506Y-76052467D01*
X81556158Y-76142381D01*
X81674746Y-76201478D01*
X81841585Y-76230964D01*
X82059993Y-76232048D01*
X82333286Y-76205940D01*
X82405728Y-76196313D01*
X82636640Y-76161367D01*
X82812709Y-76124896D01*
X82940883Y-76083198D01*
X83028109Y-76032571D01*
X83081333Y-75969311D01*
X83107502Y-75889716D01*
X83113564Y-75790085D01*
X83111606Y-75746611D01*
X83099217Y-75659912D01*
X83079776Y-75611034D01*
X83074466Y-75607088D01*
X83017845Y-75585167D01*
X82919864Y-75559180D01*
X82798092Y-75533935D01*
X82662707Y-75507175D01*
X82538615Y-75473836D01*
X82456999Y-75435727D01*
X82406112Y-75386965D01*
X82374208Y-75321668D01*
X82363195Y-75279739D01*
X82726771Y-75279739D01*
X82744196Y-75285455D01*
X82810428Y-75297989D01*
X82906498Y-75311839D01*
X82998456Y-75320528D01*
X83057053Y-75315260D01*
X83074454Y-75292254D01*
X83078662Y-75244525D01*
X83092876Y-75138105D01*
X83115593Y-74987963D01*
X83145234Y-74804469D01*
X83180218Y-74597994D01*
X83194751Y-74513578D01*
X83225270Y-74330352D01*
X83244858Y-74198602D01*
X83254177Y-74110238D01*
X83253890Y-74057167D01*
X83244659Y-74031300D01*
X83227146Y-74024545D01*
X83222759Y-74025034D01*
X83178269Y-74056360D01*
X83130307Y-74121478D01*
X83125159Y-74129960D01*
X83053036Y-74207901D01*
X82961136Y-74265892D01*
X82847015Y-74313575D01*
X82916287Y-74425659D01*
X82925492Y-74441162D01*
X82982419Y-74602923D01*
X82979060Y-74779689D01*
X82915982Y-74968037D01*
X82793754Y-75164546D01*
X82774976Y-75190049D01*
X82736269Y-75250468D01*
X82726771Y-75279739D01*
X82363195Y-75279739D01*
X82346682Y-75216866D01*
X82339803Y-75011664D01*
X82390202Y-74808755D01*
X82494589Y-74618526D01*
X82649675Y-74451368D01*
X82659733Y-74442766D01*
X82754915Y-74348588D01*
X82821422Y-74247107D01*
X82877946Y-74110403D01*
X82920460Y-74002077D01*
X82982334Y-73868308D01*
X83040964Y-73763052D01*
X83053800Y-73743870D01*
X83125053Y-73650686D01*
X83210821Y-73553310D01*
X83227146Y-73536699D01*
X83300124Y-73462442D01*
X83381978Y-73388780D01*
X83445402Y-73343024D01*
X83479415Y-73335875D01*
X83484051Y-73344406D01*
X83494663Y-73408435D01*
X83500922Y-73522938D01*
X83503059Y-73678141D01*
X83501304Y-73864269D01*
X83495886Y-74071548D01*
X83487036Y-74290203D01*
X83474984Y-74510462D01*
X83459961Y-74722548D01*
X83442195Y-74916689D01*
X83440306Y-74934823D01*
X83414322Y-75220884D01*
X83400252Y-75474763D01*
X83397085Y-75725030D01*
X83403808Y-76000253D01*
X83407980Y-76104222D01*
X83419664Y-76357338D01*
X83433346Y-76612661D01*
X83448297Y-76859207D01*
X83463784Y-77085993D01*
X83479078Y-77282036D01*
X83493445Y-77436352D01*
X83506157Y-77537957D01*
X83513622Y-77604850D01*
X83506867Y-77650988D01*
X83484341Y-77643411D01*
X83450987Y-77585187D01*
X83411752Y-77479385D01*
X83384908Y-77401048D01*
X83357052Y-77335745D01*
X83340367Y-77316551D01*
X83335400Y-77329283D01*
X83335051Y-77397314D01*
X83347589Y-77511589D01*
X83370897Y-77661462D01*
X83402855Y-77836291D01*
X83441344Y-78025431D01*
X83484245Y-78218238D01*
X83529438Y-78404068D01*
X83574805Y-78572278D01*
X83618227Y-78712222D01*
X83656743Y-78814565D01*
X83734725Y-78995546D01*
X83832341Y-79202898D01*
X83941339Y-79420305D01*
X84053469Y-79631449D01*
X84160477Y-79820013D01*
X84254113Y-79969679D01*
X84285278Y-80016607D01*
X84350320Y-80120113D01*
X84395444Y-80200026D01*
X84412332Y-80242034D01*
X84396714Y-80271554D01*
X84344465Y-80338889D01*
X84264178Y-80431399D01*
X84164888Y-80538266D01*
X84054930Y-80655842D01*
X83784337Y-80974794D01*
X83544898Y-81306947D01*
X83328724Y-81664934D01*
X83127930Y-82061390D01*
X82934627Y-82508950D01*
X82805353Y-82895741D01*
X82719129Y-83314294D01*
X82687461Y-83726669D01*
X82687589Y-83815149D01*
X82696435Y-83987622D01*
X82721273Y-84113423D01*
X82766992Y-84204138D01*
X82838481Y-84271355D01*
X82940630Y-84326660D01*
X82999480Y-84348679D01*
X83172805Y-84386354D01*
X83393669Y-84407254D01*
X83652465Y-84411658D01*
X83939589Y-84399848D01*
X84245434Y-84372107D01*
X84560397Y-84328716D01*
X84874870Y-84269956D01*
X84940852Y-84255434D01*
X85491301Y-84100292D01*
X86040805Y-83886168D01*
X86581588Y-83616883D01*
X87105872Y-83296259D01*
X87605880Y-82928116D01*
X87739735Y-82822307D01*
X87861700Y-82733681D01*
X87959124Y-82676643D01*
X88044412Y-82645391D01*
X88129972Y-82634122D01*
X88228211Y-82637032D01*
X88324519Y-82647539D01*
X88469575Y-82668364D01*
X88638211Y-82696029D01*
X88810325Y-82727412D01*
X88851037Y-82735173D01*
X88981319Y-82758242D01*
X89102022Y-82775570D01*
X89225365Y-82787947D01*
X89363565Y-82796166D01*
X89528842Y-82801016D01*
X89733413Y-82803291D01*
X89989497Y-82803780D01*
X90208782Y-82803378D01*
X90412433Y-82801690D01*
X90574609Y-82797845D01*
X90707234Y-82790957D01*
X90822235Y-82780139D01*
X90931535Y-82764504D01*
X91047060Y-82743167D01*
X91180737Y-82715241D01*
X91426842Y-82656478D01*
X91986617Y-82476568D01*
X92523607Y-82237741D01*
X93036919Y-81940758D01*
X93525663Y-81586376D01*
X93988946Y-81175355D01*
X94425877Y-80708454D01*
X94835566Y-80186430D01*
X95217119Y-79610043D01*
X95569646Y-78980052D01*
X95647276Y-78829407D01*
X95722560Y-78683906D01*
X95783157Y-78567435D01*
X95824264Y-78489222D01*
X95841080Y-78458494D01*
X95863275Y-78466137D01*
X95933073Y-78500116D01*
X96041500Y-78556553D01*
X96179462Y-78630702D01*
X96337864Y-78717817D01*
X96415597Y-78760814D01*
X96690205Y-78909711D01*
X96957749Y-79050394D01*
X97208646Y-79178053D01*
X97433317Y-79287876D01*
X97622181Y-79375052D01*
X97765657Y-79434772D01*
X97868974Y-79473718D01*
X98083673Y-79554080D01*
X98256760Y-79617687D01*
X98400865Y-79668980D01*
X98528617Y-79712401D01*
X98652648Y-79752389D01*
X98785587Y-79793386D01*
X98890033Y-79824911D01*
X99036607Y-79868591D01*
X99160419Y-79904855D01*
X99242378Y-79928076D01*
X99266060Y-79935114D01*
X99341437Y-79966985D01*
X99378932Y-79998455D01*
X99378042Y-80023974D01*
X99354107Y-80094765D01*
X99309712Y-80185096D01*
X99290992Y-80217132D01*
X99223191Y-80305433D01*
X99165412Y-80334161D01*
X99119737Y-80302031D01*
X99082179Y-80269943D01*
X99002316Y-80222608D01*
X98901018Y-80171800D01*
X98798132Y-80127420D01*
X98713500Y-80099368D01*
X98662739Y-80091479D01*
X98551839Y-80111894D01*
X98465873Y-80186065D01*
X98407370Y-80309506D01*
X98378858Y-80477726D01*
X98382867Y-80686236D01*
X98383691Y-80695322D01*
X98389918Y-80802896D01*
X98388002Y-80879175D01*
X98378273Y-80908157D01*
X98371138Y-80904524D01*
X98331380Y-80863606D01*
X98269268Y-80786835D01*
X98194801Y-80686303D01*
X98182797Y-80669562D01*
X98091522Y-80550748D01*
X98024791Y-80483567D01*
X97977510Y-80463981D01*
X97944587Y-80487953D01*
X97943844Y-80489814D01*
X97956586Y-80531064D01*
X98004320Y-80618192D01*
X98087845Y-80752487D01*
X98207959Y-80935238D01*
X98365459Y-81167735D01*
X98380735Y-81190378D01*
X98444214Y-81296959D01*
X98466948Y-81363338D01*
X98447688Y-81386200D01*
X98446654Y-81386084D01*
X98408213Y-81368103D01*
X98332376Y-81325450D01*
X98234427Y-81266689D01*
X98040264Y-81147179D01*
X97621230Y-81149781D01*
X97595508Y-81149977D01*
X97436894Y-81152811D01*
X97300689Y-81157893D01*
X97200669Y-81164568D01*
X97150611Y-81172179D01*
X97139098Y-81178312D01*
X97128139Y-81202502D01*
X97139745Y-81249953D01*
X97177364Y-81331105D01*
X97244443Y-81456402D01*
X97275744Y-81512891D01*
X97372613Y-81679235D01*
X97453936Y-81800558D01*
X97528081Y-81887036D01*
X97603419Y-81948846D01*
X97688318Y-81996164D01*
X97736276Y-82019997D01*
X97803150Y-82059205D01*
X97829396Y-82084014D01*
X97823017Y-82094275D01*
X97778515Y-82139096D01*
X97700866Y-82208373D01*
X97601102Y-82292054D01*
X97372808Y-82478558D01*
X97228499Y-82306846D01*
X97162320Y-82231051D01*
X97054496Y-82113009D01*
X96930317Y-81981121D01*
X96805518Y-81852297D01*
X96526848Y-81569460D01*
X96328840Y-81583782D01*
X96299417Y-81586235D01*
X96160552Y-81613085D01*
X96072493Y-81667676D01*
X96026251Y-81758876D01*
X96012834Y-81895554D01*
X96012988Y-81912282D01*
X96020760Y-81993440D01*
X96045465Y-82072423D01*
X96094256Y-82166917D01*
X96174287Y-82294603D01*
X96195034Y-82326216D01*
X96288602Y-82465717D01*
X96383171Y-82602735D01*
X96461113Y-82711635D01*
X96522487Y-82798428D01*
X96568782Y-82871480D01*
X96586485Y-82910162D01*
X96580668Y-82915165D01*
X96528514Y-82918572D01*
X96433473Y-82911457D01*
X96309303Y-82894593D01*
X96307635Y-82894326D01*
X96130477Y-82871592D01*
X96012524Y-82870425D01*
X95952560Y-82892111D01*
X95949369Y-82937937D01*
X96001735Y-83009189D01*
X96108443Y-83107154D01*
X96186072Y-83174850D01*
X96245058Y-83231864D01*
X96267522Y-83261502D01*
X96252571Y-83278145D01*
X96194520Y-83317560D01*
X96107726Y-83366857D01*
X95948198Y-83451277D01*
X95900842Y-83383668D01*
X95870090Y-83333553D01*
X95853487Y-83290297D01*
X95842988Y-83248700D01*
X95813032Y-83163345D01*
X95768883Y-83047784D01*
X95715827Y-82914836D01*
X95659150Y-82777317D01*
X95604139Y-82648046D01*
X95556079Y-82539840D01*
X95520256Y-82465517D01*
X95501957Y-82437894D01*
X95486534Y-82448356D01*
X95444869Y-82500358D01*
X95393064Y-82581307D01*
X95360399Y-82635663D01*
X95318931Y-82699740D01*
X95298221Y-82724720D01*
X95296896Y-82724506D01*
X95257205Y-82711211D01*
X95175866Y-82681344D01*
X95068511Y-82640628D01*
X94910308Y-82582268D01*
X94629333Y-82492404D01*
X94385784Y-82433826D01*
X94183785Y-82407208D01*
X94027459Y-82413228D01*
X93920930Y-82452559D01*
X93863639Y-82511966D01*
X93814422Y-82595832D01*
X93801217Y-82639011D01*
X93800675Y-82724095D01*
X93833270Y-82822207D01*
X93902391Y-82938628D01*
X94011426Y-83078638D01*
X94163763Y-83247518D01*
X94362790Y-83450549D01*
X94494228Y-83580227D01*
X94621142Y-83703836D01*
X94728288Y-83806535D01*
X94807247Y-83880256D01*
X94849597Y-83916931D01*
X94874747Y-83937739D01*
X94890283Y-83967076D01*
X94871831Y-83997441D01*
X94812820Y-84033760D01*
X94706679Y-84080961D01*
X94546837Y-84143971D01*
X94282541Y-84242121D01*
X93934571Y-84358291D01*
X93595871Y-84454022D01*
X93240187Y-84537216D01*
X93200194Y-84545728D01*
X93021293Y-84583057D01*
X92862270Y-84614463D01*
X92706522Y-84642873D01*
X92537445Y-84671211D01*
X92338433Y-84702404D01*
X92092884Y-84739378D01*
X92071519Y-84742318D01*
X91929241Y-84755430D01*
X91736798Y-84765806D01*
X91505462Y-84773453D01*
X91246503Y-84778381D01*
X90971191Y-84780598D01*
X90690798Y-84780113D01*
X90416592Y-84776934D01*
X90159845Y-84771071D01*
X89931828Y-84762532D01*
X89743810Y-84751325D01*
X89607063Y-84737460D01*
X89484914Y-84719553D01*
X88945604Y-84626101D01*
X88417195Y-84511908D01*
X87917106Y-84381037D01*
X87462759Y-84237548D01*
X87150951Y-84128811D01*
X86745695Y-84272992D01*
X86587847Y-84328720D01*
X86371762Y-84404057D01*
X86157425Y-84477917D01*
X85973938Y-84540221D01*
X85959889Y-84544940D01*
X85808303Y-84596069D01*
X85614482Y-84661713D01*
X85394620Y-84736374D01*
X85164915Y-84814553D01*
X84941562Y-84890751D01*
X84864163Y-84916947D01*
X84670950Y-84980094D01*
X84501244Y-85032385D01*
X84364178Y-85071184D01*
X84268885Y-85093856D01*
X84224498Y-85097762D01*
X84212612Y-85093203D01*
X84129976Y-85066441D01*
X84022405Y-85036549D01*
X83907137Y-85007675D01*
X83801412Y-84983964D01*
X83722469Y-84969563D01*
X83687548Y-84968618D01*
X83687661Y-84972077D01*
X83720416Y-85003282D01*
X83796935Y-85060110D01*
X83908713Y-85137074D01*
X84047247Y-85228689D01*
X84204032Y-85329468D01*
X84370565Y-85433924D01*
X84538342Y-85536570D01*
X84698859Y-85631920D01*
X84843612Y-85714488D01*
X85286950Y-85949213D01*
X86094029Y-86321355D01*
X86919614Y-86632777D01*
X87762516Y-86883098D01*
X88621547Y-87071940D01*
X89495519Y-87198924D01*
X89630224Y-87212898D01*
X90528516Y-87270716D01*
X91420699Y-87266928D01*
X92303898Y-87202036D01*
X93175239Y-87076542D01*
X94031849Y-86890947D01*
X94870854Y-86645754D01*
X95689380Y-86341463D01*
X96484554Y-85978577D01*
X96776783Y-85828131D01*
X97435886Y-85454761D01*
X98053054Y-85052970D01*
X98640336Y-84614004D01*
X99209780Y-84129112D01*
X99773436Y-83589542D01*
X100206078Y-83132497D01*
X100726429Y-82516174D01*
X101195708Y-81875866D01*
X101620910Y-81201861D01*
X102009027Y-80484444D01*
X102114660Y-80268553D01*
X102451862Y-79495333D01*
X102730592Y-78708542D01*
X102952547Y-77902246D01*
X103119426Y-77070512D01*
X103232926Y-76207405D01*
X103239679Y-76131181D01*
X103253525Y-75908828D01*
X103263721Y-75645431D01*
X103270192Y-75355938D01*
X103272860Y-75055300D01*
X103271649Y-74758465D01*
X103266484Y-74480384D01*
X103257288Y-74236005D01*
X103243985Y-74040278D01*
X103234856Y-73945299D01*
X103116121Y-73063908D01*
X102938155Y-72203421D01*
X102701503Y-71365556D01*
X102406712Y-70552034D01*
X102054329Y-69764574D01*
X101644898Y-69004895D01*
X101237243Y-68356688D01*
X100718510Y-67640907D01*
X100154150Y-66968200D01*
X99546306Y-66340213D01*
X98897121Y-65758588D01*
X98208737Y-65224970D01*
X97483297Y-64741001D01*
X96722944Y-64308327D01*
X95929819Y-63928590D01*
X95106067Y-63603435D01*
X94253829Y-63334505D01*
X93947143Y-63253123D01*
X93361923Y-63120430D01*
X92781966Y-63020848D01*
X92191277Y-62952294D01*
X91573858Y-62912688D01*
X90913713Y-62899948D01*
X90897328Y-62899957D01*
X90079909Y-62922674D01*
X89298870Y-62990431D01*
X88543814Y-63105158D01*
X87804340Y-63268783D01*
X87070050Y-63483238D01*
X86330543Y-63750452D01*
X86154764Y-63822145D01*
X85936346Y-63916373D01*
X85709303Y-64018948D01*
X85481081Y-64126104D01*
X85259127Y-64234076D01*
X85050889Y-64339098D01*
X84863813Y-64437405D01*
X84705347Y-64525231D01*
X84582936Y-64598810D01*
X84504029Y-64654378D01*
X84476071Y-64688167D01*
X84480665Y-64697926D01*
X84517871Y-64749462D01*
X84586375Y-64835505D01*
X84678862Y-64946989D01*
X84788017Y-65074844D01*
X84816047Y-65107252D01*
X84962526Y-65276605D01*
X85128318Y-65468283D01*
X85295101Y-65661102D01*
X85444551Y-65833879D01*
X85522767Y-65925273D01*
X85632285Y-66056757D01*
X85722791Y-66169667D01*
X85786552Y-66254277D01*
X85815834Y-66300858D01*
X85838000Y-66345813D01*
X85873128Y-66388380D01*
X85883574Y-66391195D01*
X85913910Y-66388320D01*
X85966493Y-66375239D01*
X86046628Y-66350101D01*
X86159620Y-66311052D01*
X86310771Y-66256241D01*
X86505388Y-66183814D01*
X86748773Y-66091921D01*
X87046232Y-65978707D01*
X87130862Y-65946773D01*
X87892525Y-65691074D01*
X88656196Y-65490884D01*
X89416865Y-65346987D01*
X90169524Y-65260169D01*
X90909164Y-65231212D01*
X91630777Y-65260901D01*
X91704035Y-65267284D01*
X91921481Y-65288901D01*
X92145404Y-65314521D01*
X92361804Y-65342282D01*
X92556684Y-65370322D01*
X92716043Y-65396782D01*
X92825883Y-65419798D01*
X92827668Y-65420257D01*
X92903501Y-65439491D01*
X93024308Y-65469870D01*
X93173826Y-65507312D01*
X93335795Y-65547739D01*
X93542431Y-65600528D01*
X93858291Y-65688181D01*
X94147497Y-65779144D01*
X94433075Y-65880857D01*
X94738054Y-66000759D01*
X94808234Y-66029694D01*
X95034404Y-66126752D01*
X95262109Y-66229639D01*
X95483835Y-66334486D01*
X95692066Y-66437424D01*
X95879287Y-66534587D01*
X96037985Y-66622106D01*
X96160645Y-66696113D01*
X96239752Y-66752742D01*
X96267790Y-66788123D01*
X96257922Y-66805822D01*
X96210449Y-66855855D01*
X96136935Y-66920195D01*
X96006079Y-67026855D01*
X96093294Y-67050180D01*
X96121253Y-67056458D01*
X96215210Y-67072774D01*
X96343589Y-67091604D01*
X96487073Y-67110014D01*
X96565087Y-67119890D01*
X96691568Y-67138581D01*
X96787153Y-67156176D01*
X96835596Y-67169882D01*
X96836492Y-67170406D01*
X96839563Y-67198773D01*
X96792338Y-67252341D01*
X96692183Y-67334126D01*
X96655496Y-67362073D01*
X96469473Y-67505537D01*
X96282432Y-67652407D01*
X96101741Y-67796655D01*
X95934771Y-67932249D01*
X95788890Y-68053161D01*
X95671469Y-68153360D01*
X95589875Y-68226816D01*
X95551479Y-68267499D01*
X95547391Y-68274043D01*
X95499319Y-68394679D01*
X95482281Y-68530204D01*
X95500605Y-68648236D01*
X95519115Y-68683167D01*
X95601815Y-68758654D01*
X95722534Y-68810405D01*
X95863642Y-68829613D01*
X95903935Y-68828680D01*
X95956518Y-68823099D01*
X96018563Y-68809791D01*
X96100077Y-68785733D01*
X96211071Y-68747900D01*
X96361552Y-68693271D01*
X96561530Y-68618822D01*
X96570810Y-68615353D01*
X96716417Y-68562293D01*
X96841885Y-68518967D01*
X96934097Y-68489758D01*
X96979935Y-68479048D01*
X96982096Y-68479154D01*
X97024661Y-68508640D01*
X97064528Y-68574657D01*
X97066992Y-68580514D01*
X97099590Y-68644033D01*
X97124166Y-68670064D01*
X97130617Y-68667882D01*
X97154047Y-68642823D01*
X97191269Y-68584856D01*
X97245785Y-68487870D01*
X97321096Y-68345750D01*
X97420704Y-68152386D01*
X97476167Y-68046624D01*
X97535398Y-67940488D01*
X97580035Y-67868299D01*
X97603263Y-67841658D01*
X97604220Y-67841712D01*
X97641883Y-67864554D01*
X97697256Y-67916370D01*
X97767444Y-67991081D01*
X97670217Y-68207782D01*
X97661968Y-68226276D01*
X97618354Y-68328347D01*
X97589855Y-68402507D01*
X97582295Y-68433788D01*
X97598923Y-68438744D01*
X97667184Y-68452579D01*
X97775267Y-68471924D01*
X97909378Y-68494228D01*
X97974468Y-68505071D01*
X98131788Y-68536275D01*
X98230491Y-68565829D01*
X98274360Y-68595121D01*
X98267179Y-68625540D01*
X98264359Y-68627309D01*
X98215925Y-68641297D01*
X98119333Y-68662027D01*
X97986942Y-68686998D01*
X97831115Y-68713712D01*
X97795318Y-68719638D01*
X97646388Y-68745823D01*
X97525641Y-68769491D01*
X97444680Y-68788244D01*
X97415110Y-68799686D01*
X97427572Y-68809739D01*
X97486391Y-68832746D01*
X97577202Y-68859110D01*
X97668268Y-68886752D01*
X97718476Y-68916869D01*
X97725633Y-68952962D01*
X97711083Y-68983769D01*
X97664854Y-69060138D01*
X97595746Y-69164767D01*
X97512250Y-69284460D01*
X97457095Y-69362479D01*
X97387785Y-69466701D01*
X97350357Y-69536286D01*
X97339971Y-69581082D01*
X97351786Y-69610937D01*
X97389168Y-69646945D01*
X97425442Y-69648577D01*
X97467866Y-69605263D01*
X97527293Y-69510811D01*
X97632286Y-69350334D01*
X97777765Y-69172845D01*
X97932141Y-69025585D01*
X98086745Y-68915571D01*
X98232908Y-68849818D01*
X98361960Y-68835343D01*
X98363122Y-68835477D01*
X98398645Y-68843019D01*
X98405049Y-68858777D01*
X98376202Y-68889299D01*
X98305970Y-68941134D01*
X98188217Y-69020830D01*
X98146722Y-69049024D01*
X98028443Y-69136842D01*
X97952319Y-69206495D01*
X97925294Y-69251884D01*
X97932770Y-69287716D01*
X97964790Y-69303022D01*
X98028681Y-69288585D01*
X98131560Y-69242633D01*
X98280549Y-69163392D01*
X98343682Y-69129159D01*
X98450842Y-69074515D01*
X98530213Y-69038646D01*
X98568045Y-69028025D01*
X98566231Y-69054599D01*
X98534730Y-69119205D01*
X98480055Y-69207207D01*
X98417451Y-69303279D01*
X98342545Y-69438627D01*
X98299164Y-69561031D01*
X98280582Y-69692249D01*
X98280072Y-69854038D01*
X98281144Y-69882006D01*
X98288500Y-70001528D01*
X98298495Y-70093269D01*
X98309289Y-70139256D01*
X98320521Y-70147872D01*
X98374075Y-70154459D01*
X98473439Y-70146335D01*
X98623873Y-70122940D01*
X98830641Y-70083712D01*
X98887633Y-70060785D01*
X98979159Y-70002589D01*
X99073154Y-69925235D01*
X99222705Y-69785348D01*
X99388116Y-70045224D01*
X99430535Y-70113816D01*
X99490820Y-70219838D01*
X99529522Y-70299783D01*
X99539722Y-70340193D01*
X99531359Y-70348367D01*
X99474592Y-70380310D01*
X99373897Y-70427471D01*
X99240092Y-70484925D01*
X99083993Y-70547745D01*
X98961091Y-70596423D01*
X98353708Y-70858733D01*
X97777803Y-71143943D01*
X97241391Y-71447574D01*
X96752490Y-71765150D01*
X96319117Y-72092191D01*
X96105619Y-72267191D01*
X96258411Y-72287316D01*
X96306429Y-72293640D01*
X96399196Y-72305856D01*
X96456366Y-72313382D01*
X96475670Y-72317493D01*
X96511837Y-72348933D01*
X96498276Y-72393277D01*
X96437696Y-72433151D01*
X96364038Y-72453551D01*
X96208030Y-72467664D01*
X96043577Y-72455297D01*
X95901726Y-72417365D01*
X95831279Y-72384471D01*
X95743690Y-72328154D01*
X95660799Y-72250442D01*
X95570893Y-72139800D01*
X95462256Y-71984694D01*
X95428082Y-71934517D01*
X95307862Y-71764427D01*
X95171265Y-71578492D01*
X95031265Y-71393906D01*
X94900832Y-71227864D01*
X94792939Y-71097558D01*
X94769044Y-71070189D01*
X94529268Y-70816495D01*
X94248789Y-70550447D01*
X93943026Y-70284949D01*
X93627398Y-70032903D01*
X93317325Y-69807214D01*
X93028227Y-69620785D01*
X92686202Y-69427244D01*
X92354612Y-69263189D01*
X92024166Y-69127083D01*
X91673240Y-69010048D01*
X91280212Y-68903208D01*
X91241718Y-68893708D01*
X91125859Y-68866711D01*
X91022234Y-68846758D01*
X90918181Y-68832771D01*
X90801038Y-68823669D01*
X90658143Y-68818374D01*
X90476835Y-68815804D01*
X90244453Y-68814881D01*
X90043562Y-68815916D01*
X89735503Y-68825520D01*
X89460935Y-68847502D01*
X89201592Y-68884748D01*
X88939212Y-68940143D01*
X88655530Y-69016571D01*
X88332282Y-69116918D01*
X88215349Y-69159301D01*
X88027864Y-69237674D01*
X87814197Y-69335393D01*
X87590265Y-69444641D01*
X87371982Y-69557600D01*
X87175265Y-69666454D01*
X87016031Y-69763385D01*
X86776116Y-69928052D01*
X86271422Y-70329014D01*
X85791853Y-70786977D01*
X85338986Y-71300222D01*
X84914399Y-71867027D01*
X84519672Y-72485671D01*
X84467309Y-72574633D01*
X84399992Y-72688736D01*
X84356168Y-72761467D01*
X84330089Y-72801295D01*
X84316008Y-72816689D01*
X84308175Y-72816115D01*
X84300842Y-72808043D01*
X84303717Y-72773462D01*
X84326774Y-72696841D01*
X84365063Y-72595027D01*
X84422815Y-72451685D01*
X84493832Y-72269586D01*
X84541598Y-72137149D01*
X84567802Y-72049154D01*
X84574134Y-72000377D01*
X84562284Y-71985598D01*
X84529119Y-72009958D01*
X84476027Y-72075951D01*
X84415524Y-72168848D01*
X84385206Y-72219685D01*
X84278314Y-72396092D01*
X84177285Y-72558774D01*
X84087434Y-72699505D01*
X84014077Y-72810056D01*
X83962532Y-72882199D01*
X83938115Y-72907707D01*
X83936588Y-72907045D01*
X83908831Y-72873954D01*
X83855678Y-72798315D01*
X83784101Y-72690348D01*
X83701074Y-72560277D01*
X83646974Y-72474048D01*
X83554966Y-72328063D01*
X83488793Y-72226046D01*
X83442819Y-72161302D01*
X83411405Y-72127138D01*
X83388914Y-72116859D01*
X83369709Y-72123771D01*
X83348152Y-72141180D01*
X83312844Y-72203107D01*
X83299260Y-72309109D01*
X83310370Y-72438855D01*
X83346253Y-72574280D01*
X83367356Y-72641485D01*
X83395935Y-72754794D01*
X83423789Y-72884659D01*
X83448052Y-73015380D01*
X83465859Y-73131260D01*
X83474344Y-73216601D01*
X83470641Y-73255704D01*
X83469959Y-73256320D01*
X83426750Y-73266230D01*
X83350962Y-73266123D01*
X83330698Y-73266595D01*
X83233724Y-73297889D01*
X83106719Y-73370513D01*
X82957214Y-73477715D01*
X82792742Y-73612741D01*
X82620837Y-73768837D01*
X82449029Y-73939249D01*
X82284853Y-74117224D01*
X82135840Y-74296008D01*
X82009523Y-74468847D01*
X82002461Y-74479416D01*
X81853588Y-74723161D01*
X81720802Y-74979481D01*
X81609001Y-75236028D01*
X81523080Y-75480455D01*
X81467937Y-75700417D01*
X81448468Y-75883565D01*
X80671645Y-75883565D01*
X80632138Y-75189637D01*
X80648520Y-74458291D01*
X80659074Y-74304515D01*
X80674544Y-74107612D01*
X80690620Y-73929556D01*
X80705929Y-73785280D01*
X80719101Y-73689713D01*
X80750831Y-73512180D01*
X80834278Y-73075147D01*
X80915838Y-72693764D01*
X80996896Y-72362215D01*
X81078838Y-72074681D01*
X81163048Y-71825347D01*
X81174289Y-71794860D01*
X81230768Y-71640004D01*
X81285962Y-71486387D01*
X81329350Y-71363239D01*
X81332842Y-71353457D01*
X81371562Y-71258449D01*
X81432951Y-71120736D01*
X81511361Y-70952472D01*
X81601143Y-70765812D01*
X81696648Y-70572912D01*
X81726794Y-70512773D01*
X81812310Y-70340324D01*
X81885011Y-70190970D01*
X81940878Y-70073141D01*
X81975893Y-69995268D01*
X81986037Y-69965781D01*
X81984281Y-69964953D01*
X81941416Y-69950863D01*
X81851189Y-69923381D01*
X81725424Y-69886064D01*
X81575946Y-69842466D01*
X81464539Y-69809943D01*
X81266810Y-69751434D01*
X81042049Y-69684240D01*
X80810195Y-69614332D01*
X80591190Y-69547678D01*
X80575600Y-69542918D01*
X80393713Y-69489141D01*
X80233452Y-69444866D01*
X80104594Y-69412558D01*
X80016914Y-69394678D01*
X79980187Y-69393692D01*
X79962680Y-69421765D01*
X79922442Y-69495910D01*
X79866822Y-69602647D01*
X79802212Y-69729240D01*
X79735009Y-69862952D01*
X79671608Y-69991048D01*
X79618404Y-70100790D01*
X79581792Y-70179442D01*
X79568167Y-70214268D01*
X79560697Y-70237430D01*
X79532895Y-70304987D01*
X79491592Y-70398242D01*
X79486125Y-70410358D01*
X79434905Y-70529869D01*
X79375307Y-70676554D01*
X79319132Y-70821457D01*
X79065877Y-71569761D01*
X78846162Y-72405972D01*
X78687052Y-73255303D01*
X78588704Y-74113819D01*
X78551278Y-74977583D01*
X78023808Y-74977583D01*
X78023801Y-74903794D01*
X78029552Y-74548725D01*
X78041084Y-74214295D01*
X78058396Y-73914600D01*
X78081485Y-73663734D01*
X78148021Y-73175496D01*
X78315545Y-72297348D01*
X78541638Y-71436993D01*
X78824871Y-70598054D01*
X79163815Y-69784156D01*
X79557041Y-68998923D01*
X80003119Y-68245980D01*
X80500621Y-67528950D01*
X80520522Y-67502494D01*
X80619523Y-67376009D01*
X80691004Y-67296259D01*
X80740855Y-67257326D01*
X80774966Y-67253291D01*
X80820168Y-67266661D01*
X80912990Y-67287758D01*
X81026294Y-67309565D01*
X81119877Y-67322476D01*
X81221433Y-67327302D01*
X81343072Y-67323164D01*
X81499060Y-67309568D01*
X81703659Y-67286018D01*
X81762989Y-67279025D01*
X81948492Y-67260589D01*
X82122766Y-67247923D01*
X82268521Y-67242111D01*
X82368468Y-67244242D01*
X82397668Y-67247464D01*
X82518447Y-67270245D01*
X82640014Y-67305031D01*
X82746496Y-67345947D01*
X82822024Y-67387122D01*
X82850726Y-67422683D01*
X82850109Y-67425031D01*
X82813461Y-67445132D01*
X82731427Y-67467967D01*
X82619672Y-67489038D01*
X82618019Y-67489293D01*
X82348315Y-67532250D01*
X82123396Y-67571976D01*
X81924831Y-67612543D01*
X81734191Y-67658024D01*
X81533044Y-67712493D01*
X81302963Y-67780022D01*
X81262581Y-67792214D01*
X80939956Y-67893530D01*
X80673562Y-67985384D01*
X80457704Y-68070181D01*
X80286687Y-68150325D01*
X80154816Y-68228220D01*
X80056395Y-68306270D01*
X80041634Y-68320344D01*
X79965597Y-68402761D01*
X79928508Y-68472129D01*
X79918731Y-68548961D01*
X79942506Y-68666017D01*
X79980187Y-68724087D01*
X80020204Y-68785757D01*
X80141646Y-68877328D01*
X80225420Y-68915036D01*
X80395598Y-68975282D01*
X80607472Y-69037404D01*
X80848238Y-69098743D01*
X81105096Y-69156640D01*
X81365245Y-69208434D01*
X81615884Y-69251466D01*
X81844211Y-69283076D01*
X82037426Y-69300606D01*
X82182727Y-69301394D01*
X82307849Y-69284109D01*
X82419897Y-69244124D01*
X82545073Y-69170350D01*
X82636818Y-69113024D01*
X82716907Y-69069928D01*
X82762595Y-69053890D01*
X82769010Y-69055366D01*
X82819146Y-69085722D01*
X82897552Y-69147138D01*
X82990261Y-69228877D01*
X82993423Y-69231806D01*
X83107288Y-69331913D01*
X83226191Y-69428294D01*
X83324890Y-69500465D01*
X83387797Y-69538574D01*
X83485656Y-69575913D01*
X83586966Y-69578682D01*
X83707969Y-69546200D01*
X83864904Y-69477785D01*
X84006888Y-69390056D01*
X84144223Y-69244829D01*
X84230760Y-69067444D01*
X84264959Y-68863348D01*
X84245281Y-68637990D01*
X84170189Y-68396818D01*
X84159957Y-68371252D01*
X84145102Y-68320066D01*
X84141146Y-68263221D01*
X84149109Y-68186644D01*
X84170010Y-68076260D01*
X84204868Y-67917995D01*
X84205977Y-67913708D01*
X84229625Y-67877505D01*
X84285088Y-67840997D01*
X84382323Y-67798941D01*
X84531288Y-67746092D01*
X84633187Y-67711100D01*
X84867080Y-67623712D01*
X85039028Y-67547293D01*
X85148641Y-67482011D01*
X85153593Y-67478133D01*
X85236065Y-67376494D01*
X85296029Y-67232961D01*
X85331179Y-67065200D01*
X85339208Y-66890877D01*
X85317810Y-66727654D01*
X85264678Y-66593199D01*
X85155225Y-66453491D01*
X85014496Y-66354305D01*
X84837637Y-66297908D01*
X84615850Y-66280052D01*
X84598352Y-66279971D01*
X84472375Y-66270064D01*
X84396237Y-66237285D01*
X84358600Y-66172613D01*
X84348130Y-66067028D01*
X84346285Y-66032432D01*
X84313078Y-65881640D01*
X84243787Y-65701774D01*
X84145637Y-65505219D01*
X84025852Y-65304360D01*
X83891656Y-65111582D01*
X83750274Y-64939270D01*
X83608930Y-64799809D01*
X83560730Y-64754274D01*
X83509626Y-64690415D01*
X83496615Y-64648239D01*
X83497069Y-64647255D01*
X83533087Y-64613467D01*
X83615829Y-64553672D01*
X83737032Y-64473042D01*
X83888431Y-64376749D01*
X84061763Y-64269966D01*
X84248765Y-64157866D01*
X84441170Y-64045620D01*
X84630717Y-63938402D01*
X85084390Y-63700238D01*
X85675694Y-63424708D01*
X86292633Y-63172705D01*
X86590670Y-63063083D01*
X87277236Y-62840665D01*
X87971380Y-62659174D01*
X88689510Y-62514608D01*
X89448033Y-62402965D01*
X89612102Y-62386080D01*
X89882438Y-62367313D01*
X90193304Y-62353640D01*
X90531693Y-62345067D01*
X90884597Y-62341603D01*
X90913713Y-62341739D01*
G37*
G36*
X84278905Y-66636209D02*
G01*
X84314304Y-66681885D01*
X84371509Y-66763598D01*
X84441952Y-66869294D01*
X84445044Y-66874039D01*
X84529790Y-67014198D01*
X84573984Y-67112932D01*
X84580064Y-67175649D01*
X84539731Y-67256813D01*
X84452817Y-67351739D01*
X84343576Y-67428699D01*
X84233372Y-67469582D01*
X84159921Y-67476788D01*
X84042922Y-67476309D01*
X83922848Y-67465850D01*
X83816402Y-67447713D01*
X83740287Y-67424200D01*
X83711203Y-67397613D01*
X83711937Y-67394655D01*
X83736254Y-67352827D01*
X83789023Y-67274305D01*
X83862116Y-67170201D01*
X83947403Y-67051627D01*
X84036758Y-66929695D01*
X84122050Y-66815516D01*
X84195152Y-66720202D01*
X84247936Y-66654865D01*
X84272272Y-66630617D01*
X84278905Y-66636209D01*
G37*
G36*
X83409283Y-65875785D02*
G01*
X83459177Y-65904397D01*
X83491416Y-65966773D01*
X83509500Y-66072771D01*
X83516928Y-66232248D01*
X83520224Y-66423465D01*
X83580001Y-66325438D01*
X83613708Y-66281227D01*
X83696904Y-66199717D01*
X83795002Y-66124324D01*
X83950224Y-66021237D01*
X83969604Y-66142677D01*
X83973125Y-66164559D01*
X83985953Y-66241101D01*
X83993329Y-66280052D01*
X83990316Y-66322652D01*
X83962961Y-66420102D01*
X83912271Y-66560755D01*
X83841015Y-66737029D01*
X83751959Y-66941344D01*
X83711089Y-67031053D01*
X83642441Y-67173076D01*
X83590081Y-67265880D01*
X83549817Y-67316443D01*
X83517456Y-67331746D01*
X83504388Y-67331195D01*
X83471999Y-67321066D01*
X83443512Y-67291562D01*
X83415310Y-67234129D01*
X83383775Y-67140214D01*
X83345289Y-67001266D01*
X83296236Y-66808730D01*
X83288431Y-66777305D01*
X83244118Y-66585539D01*
X83217640Y-66438044D01*
X83206921Y-66320639D01*
X83209884Y-66219144D01*
X83228144Y-66083058D01*
X83264991Y-65957340D01*
X83318075Y-65888143D01*
X83389104Y-65872161D01*
X83409283Y-65875785D01*
G37*
G36*
X83514015Y-67953201D02*
G01*
X83527691Y-67971901D01*
X83568878Y-68040071D01*
X83626297Y-68142532D01*
X83691973Y-68265295D01*
X83730321Y-68340701D01*
X83786081Y-68459548D01*
X83824421Y-68553621D01*
X83838681Y-68607390D01*
X83837001Y-68621294D01*
X83806793Y-68690648D01*
X83750683Y-68767746D01*
X83706079Y-68815596D01*
X83659889Y-68846781D01*
X83603415Y-68848775D01*
X83510986Y-68828035D01*
X83435399Y-68804196D01*
X83313359Y-68747314D01*
X83207854Y-68677733D01*
X83133693Y-68605895D01*
X83105682Y-68542240D01*
X83112577Y-68492566D01*
X83146734Y-68396280D01*
X83202225Y-68286782D01*
X83270888Y-68175844D01*
X83344561Y-68075243D01*
X83415081Y-67996753D01*
X83474287Y-67952147D01*
X83514015Y-67953201D01*
G37*
G36*
X83165750Y-67739245D02*
G01*
X83243392Y-67754607D01*
X83246625Y-67755898D01*
X83280912Y-67775315D01*
X83278537Y-67805070D01*
X83238628Y-67865429D01*
X83234913Y-67870590D01*
X83170342Y-67955343D01*
X83080901Y-68066690D01*
X82974737Y-68195133D01*
X82859998Y-68331176D01*
X82744829Y-68465324D01*
X82637378Y-68588081D01*
X82545793Y-68689949D01*
X82478220Y-68761433D01*
X82442806Y-68793036D01*
X82436330Y-68796104D01*
X82363175Y-68819637D01*
X82269108Y-68839111D01*
X82149597Y-68857475D01*
X82149597Y-68704579D01*
X82154468Y-68633955D01*
X82194114Y-68499250D01*
X82278623Y-68358463D01*
X82413973Y-68200190D01*
X82450328Y-68159923D01*
X82480777Y-68111820D01*
X82463231Y-68096614D01*
X82455654Y-68097499D01*
X82400024Y-68128057D01*
X82337469Y-68188651D01*
X82252804Y-68273078D01*
X82078359Y-68378021D01*
X81871040Y-68433414D01*
X81704025Y-68455311D01*
X81749317Y-68304818D01*
X81764539Y-68259525D01*
X81808434Y-68159410D01*
X81852592Y-68090085D01*
X81864541Y-68078186D01*
X81946059Y-68019085D01*
X82066274Y-67950498D01*
X82207698Y-67881149D01*
X82352844Y-67819758D01*
X82484227Y-67775048D01*
X82493087Y-67772659D01*
X82602403Y-67752980D01*
X82743271Y-67739289D01*
X82896747Y-67732096D01*
X83043888Y-67731912D01*
X83165750Y-67739245D01*
G37*
G36*
X82567522Y-65381915D02*
G01*
X82588040Y-65433431D01*
X82620619Y-65531377D01*
X82661354Y-65663600D01*
X82706337Y-65817944D01*
X82778759Y-66067565D01*
X82859505Y-66332939D01*
X82935157Y-66568059D01*
X83003084Y-66765042D01*
X83060654Y-66916001D01*
X83105234Y-67013051D01*
X83117369Y-67035476D01*
X83153064Y-67107583D01*
X83168086Y-67148496D01*
X83167958Y-67148878D01*
X83133461Y-67154265D01*
X83042708Y-67159214D01*
X82902704Y-67163581D01*
X82720453Y-67167225D01*
X82502957Y-67170005D01*
X82257222Y-67171776D01*
X81990250Y-67172398D01*
X81971684Y-67172396D01*
X81705854Y-67171795D01*
X81461677Y-67170223D01*
X81246166Y-67167799D01*
X81066336Y-67164646D01*
X80929202Y-67160884D01*
X80841778Y-67156635D01*
X80811078Y-67152021D01*
X80811122Y-67151149D01*
X80833843Y-67109128D01*
X80893675Y-67029006D01*
X80984035Y-66918465D01*
X81098341Y-66785186D01*
X81230012Y-66636849D01*
X81372466Y-66481136D01*
X81519122Y-66325728D01*
X81589319Y-66253166D01*
X81756757Y-66084244D01*
X81923813Y-65920888D01*
X82084179Y-65768815D01*
X82231546Y-65633744D01*
X82359606Y-65521394D01*
X82462051Y-65437481D01*
X82532571Y-65387725D01*
X82564858Y-65377844D01*
X82567522Y-65381915D01*
G37*
G36*
X102763108Y-73654130D02*
G01*
X102791153Y-73667666D01*
X102801735Y-73690351D01*
X102802486Y-73722887D01*
X102801040Y-73765977D01*
X102789091Y-73861911D01*
X102754693Y-73907831D01*
X102729141Y-73913641D01*
X102646877Y-73924739D01*
X102527299Y-73936701D01*
X102386493Y-73947783D01*
X102288627Y-73955783D01*
X102178867Y-73968668D01*
X102108734Y-73982032D01*
X102090243Y-73994001D01*
X102090999Y-73994645D01*
X102132665Y-74015361D01*
X102221163Y-74052034D01*
X102344005Y-74099672D01*
X102488705Y-74153284D01*
X102861564Y-74288515D01*
X102873539Y-74419353D01*
X102876231Y-74447940D01*
X102884879Y-74529970D01*
X102891081Y-74575092D01*
X102890176Y-74589726D01*
X102874108Y-74603026D01*
X102834557Y-74615004D01*
X102763516Y-74626988D01*
X102652978Y-74640308D01*
X102494938Y-74656291D01*
X102281387Y-74676266D01*
X102147570Y-74688634D01*
X101955181Y-74706178D01*
X101813664Y-74717400D01*
X101714918Y-74721509D01*
X101650842Y-74717712D01*
X101613334Y-74705218D01*
X101594295Y-74683235D01*
X101585622Y-74650972D01*
X101579216Y-74607635D01*
X101576270Y-74588159D01*
X101569497Y-74513378D01*
X101573768Y-74476124D01*
X101581829Y-74472208D01*
X101637349Y-74460515D01*
X101724166Y-74449937D01*
X101775024Y-74445049D01*
X101905641Y-74431387D01*
X102036172Y-74416621D01*
X102107404Y-74409083D01*
X102199028Y-74402421D01*
X102251291Y-74402695D01*
X102266783Y-74403063D01*
X102291128Y-74380437D01*
X102288189Y-74374933D01*
X102244050Y-74347007D01*
X102157955Y-74308287D01*
X102044139Y-74265405D01*
X102022233Y-74257746D01*
X101891534Y-74210540D01*
X101775391Y-74166328D01*
X101696725Y-74133795D01*
X101689416Y-74130509D01*
X101612304Y-74100437D01*
X101561280Y-74088082D01*
X101553338Y-74084856D01*
X101532251Y-74040473D01*
X101521479Y-73960604D01*
X101520597Y-73937767D01*
X101516703Y-73849260D01*
X101513512Y-73793289D01*
X101529023Y-73777713D01*
X101588862Y-73760265D01*
X101698140Y-73742019D01*
X101861597Y-73722201D01*
X102083976Y-73700036D01*
X102093760Y-73699124D01*
X102323624Y-73677442D01*
X102497857Y-73661400D01*
X102624093Y-73651699D01*
X102709966Y-73649042D01*
X102763108Y-73654130D01*
G37*
G36*
X101860889Y-75046421D02*
G01*
X102219421Y-75059688D01*
X102247383Y-75060738D01*
X102439691Y-75068841D01*
X102609003Y-75077451D01*
X102745143Y-75085942D01*
X102837931Y-75093690D01*
X102877190Y-75100070D01*
X102882891Y-75110705D01*
X102890352Y-75172786D01*
X102891196Y-75276207D01*
X102885038Y-75405940D01*
X102879024Y-75477383D01*
X102847611Y-75670228D01*
X102792124Y-75812279D01*
X102705290Y-75909641D01*
X102579838Y-75968421D01*
X102408497Y-75994727D01*
X102183994Y-75994664D01*
X102116268Y-75990933D01*
X101925870Y-75967254D01*
X101786017Y-75920402D01*
X101689605Y-75842623D01*
X101629533Y-75726165D01*
X101598699Y-75563273D01*
X101593958Y-75444988D01*
X101851314Y-75444988D01*
X101858417Y-75549634D01*
X101911369Y-75631449D01*
X102015388Y-75682926D01*
X102174507Y-75707339D01*
X102267146Y-75711992D01*
X102398585Y-75709575D01*
X102485716Y-75689504D01*
X102540467Y-75648026D01*
X102574769Y-75581386D01*
X102596355Y-75512097D01*
X102608019Y-75426634D01*
X102585745Y-75383613D01*
X102556888Y-75377939D01*
X102475065Y-75370549D01*
X102355172Y-75363523D01*
X102211278Y-75357830D01*
X101860889Y-75346928D01*
X101851314Y-75444988D01*
X101593958Y-75444988D01*
X101589999Y-75346194D01*
X101589999Y-75036397D01*
X101860889Y-75046421D01*
G37*
G36*
X102419538Y-72415135D02*
G01*
X102507483Y-72469238D01*
X102574455Y-72555318D01*
X102629013Y-72675747D01*
X102643851Y-72721000D01*
X102664847Y-72890612D01*
X102630169Y-73043203D01*
X102543357Y-73169418D01*
X102407951Y-73259900D01*
X102369939Y-73273933D01*
X102274389Y-73302138D01*
X102147281Y-73335058D01*
X102001943Y-73369756D01*
X101851703Y-73403293D01*
X101709888Y-73432731D01*
X101589826Y-73455131D01*
X101504845Y-73467556D01*
X101468272Y-73467067D01*
X101465459Y-73461623D01*
X101453294Y-73411040D01*
X101440015Y-73328122D01*
X101434672Y-73285815D01*
X101435847Y-73223747D01*
X101468013Y-73192084D01*
X101546271Y-73168083D01*
X101555369Y-73165748D01*
X101653716Y-73142685D01*
X101785425Y-73114190D01*
X101924628Y-73085883D01*
X101940228Y-73082823D01*
X102098525Y-73051395D01*
X102206299Y-73028084D01*
X102274678Y-73009141D01*
X102314788Y-72990821D01*
X102337759Y-72969375D01*
X102354718Y-72941057D01*
X102359232Y-72931815D01*
X102373157Y-72839804D01*
X102347098Y-72747535D01*
X102288648Y-72684497D01*
X102287471Y-72683890D01*
X102235543Y-72674844D01*
X102140716Y-72680516D01*
X101996792Y-72701591D01*
X101797573Y-72738752D01*
X101618683Y-72771814D01*
X101476419Y-72793029D01*
X101380410Y-72801082D01*
X101338494Y-72795010D01*
X101338100Y-72794570D01*
X101313700Y-72743632D01*
X101292606Y-72663703D01*
X101286777Y-72635226D01*
X101282116Y-72602097D01*
X101289704Y-72576954D01*
X101317891Y-72556256D01*
X101375027Y-72536468D01*
X101469461Y-72514051D01*
X101609544Y-72485466D01*
X101803624Y-72447176D01*
X101944258Y-72420984D01*
X102146486Y-72393378D01*
X102302059Y-72390639D01*
X102419538Y-72415135D01*
G37*
G36*
X101608546Y-76656171D02*
G01*
X101723787Y-76677790D01*
X101703243Y-76842218D01*
X101682699Y-77006647D01*
X102042685Y-77079473D01*
X102167523Y-77105104D01*
X102318303Y-77137019D01*
X102443779Y-77164618D01*
X102525339Y-77183875D01*
X102561967Y-77193565D01*
X102620119Y-77217389D01*
X102636691Y-77256582D01*
X102626435Y-77332883D01*
X102625974Y-77335408D01*
X102615941Y-77395977D01*
X102605098Y-77439392D01*
X102584650Y-77466228D01*
X102545803Y-77477063D01*
X102479762Y-77472470D01*
X102377731Y-77453027D01*
X102230917Y-77419308D01*
X102030525Y-77371889D01*
X101990427Y-77362495D01*
X101831608Y-77327142D01*
X101722260Y-77309574D01*
X101652163Y-77311631D01*
X101611097Y-77335158D01*
X101588842Y-77381996D01*
X101575179Y-77453988D01*
X101553122Y-77601074D01*
X101421377Y-77580007D01*
X101390031Y-77574653D01*
X101312931Y-77558063D01*
X101275133Y-77544442D01*
X101275012Y-77544304D01*
X101276369Y-77508291D01*
X101290194Y-77423110D01*
X101314196Y-77301325D01*
X101346081Y-77155500D01*
X101378574Y-77008886D01*
X101405971Y-76876869D01*
X101424426Y-76778177D01*
X101431089Y-76727165D01*
X101447518Y-76669092D01*
X101503854Y-76646485D01*
X101608546Y-76656171D01*
G37*
G36*
X101332996Y-77786801D02*
G01*
X101443773Y-77814529D01*
X101446850Y-77815299D01*
X101590981Y-77854915D01*
X101754277Y-77902398D01*
X101925629Y-77954497D01*
X102093925Y-78007958D01*
X102248054Y-78059531D01*
X102376907Y-78105962D01*
X102419189Y-78125838D01*
X102445040Y-78165034D01*
X102437792Y-78238765D01*
X102437512Y-78240154D01*
X102414105Y-78320393D01*
X102386560Y-78371521D01*
X102381147Y-78375019D01*
X102324106Y-78377247D01*
X102224208Y-78358715D01*
X102094625Y-78322434D01*
X101948531Y-78271413D01*
X101909085Y-78269939D01*
X101907095Y-78306232D01*
X101939190Y-78371655D01*
X102000899Y-78457141D01*
X102087749Y-78553627D01*
X102266804Y-78734570D01*
X102225137Y-78897148D01*
X102207361Y-78959631D01*
X102180619Y-79031668D01*
X102160656Y-79059726D01*
X102154814Y-79057212D01*
X102113534Y-79021553D01*
X102045742Y-78952514D01*
X101962732Y-78861410D01*
X101880704Y-78769644D01*
X101822112Y-78711415D01*
X101780907Y-78686948D01*
X101744382Y-78688925D01*
X101699829Y-78710029D01*
X101634662Y-78736692D01*
X101483318Y-78756597D01*
X101328240Y-78732430D01*
X101195464Y-78666442D01*
X101118858Y-78594786D01*
X101072280Y-78510014D01*
X101059185Y-78404000D01*
X101065563Y-78357416D01*
X101345804Y-78357416D01*
X101367936Y-78407634D01*
X101372149Y-78412519D01*
X101440483Y-78451836D01*
X101512068Y-78433337D01*
X101573245Y-78360179D01*
X101585705Y-78335148D01*
X101617834Y-78239162D01*
X101602952Y-78175713D01*
X101539520Y-78134493D01*
X101503634Y-78122226D01*
X101443773Y-78118562D01*
X101403128Y-78157357D01*
X101366358Y-78248731D01*
X101355768Y-78283324D01*
X101345804Y-78357416D01*
X101065563Y-78357416D01*
X101078218Y-78264975D01*
X101128022Y-78081173D01*
X101147716Y-78018641D01*
X101187204Y-77901284D01*
X101219895Y-77814369D01*
X101240197Y-77773250D01*
X101260529Y-77772675D01*
X101332996Y-77786801D01*
G37*
G36*
X102088485Y-70880604D02*
G01*
X102109206Y-70923100D01*
X102142026Y-70996740D01*
X102150678Y-71016781D01*
X102179839Y-71085354D01*
X102192920Y-71117877D01*
X102191220Y-71122046D01*
X102176461Y-71131462D01*
X102140374Y-71147994D01*
X102075312Y-71174762D01*
X101973632Y-71214886D01*
X101827688Y-71271487D01*
X101629835Y-71347684D01*
X101627177Y-71348707D01*
X101488892Y-71404997D01*
X101375747Y-71456796D01*
X101299349Y-71498391D01*
X101271303Y-71524074D01*
X101271940Y-71531854D01*
X101288128Y-71593578D01*
X101319320Y-71677526D01*
X101367336Y-71792445D01*
X101251689Y-71840765D01*
X101229437Y-71849907D01*
X101155744Y-71877748D01*
X101116031Y-71888831D01*
X101102241Y-71869095D01*
X101067607Y-71795011D01*
X101015565Y-71671303D01*
X100948428Y-71503649D01*
X100868508Y-71297727D01*
X100778120Y-71059216D01*
X100775982Y-71052115D01*
X100792358Y-71009671D01*
X100866393Y-70971575D01*
X100951648Y-70943918D01*
X101014428Y-70941734D01*
X101053839Y-70980493D01*
X101088828Y-71068446D01*
X101115712Y-71139531D01*
X101147126Y-71181161D01*
X101195419Y-71190929D01*
X101274626Y-71171401D01*
X101398782Y-71125146D01*
X101519922Y-71078443D01*
X101695994Y-71011835D01*
X101849995Y-70955075D01*
X101972610Y-70911518D01*
X102054520Y-70884521D01*
X102086409Y-70877440D01*
X102088485Y-70880604D01*
G37*
G36*
X101045126Y-78964253D02*
G01*
X101142097Y-78980834D01*
X101273361Y-79022922D01*
X101419992Y-79082213D01*
X101563064Y-79150400D01*
X101683649Y-79219179D01*
X101762820Y-79280244D01*
X101769757Y-79287688D01*
X101834172Y-79374979D01*
X101875928Y-79461419D01*
X101892034Y-79541868D01*
X101880523Y-79696494D01*
X101820102Y-79838433D01*
X101719862Y-79955234D01*
X101588891Y-80034445D01*
X101436281Y-80063615D01*
X101410192Y-80062374D01*
X101290935Y-80038634D01*
X101147868Y-79990720D01*
X100998126Y-79926528D01*
X100858848Y-79853954D01*
X100747168Y-79780895D01*
X100680226Y-79715247D01*
X100635109Y-79624659D01*
X100610389Y-79487559D01*
X100901353Y-79487559D01*
X100905555Y-79499628D01*
X100947229Y-79549699D01*
X101034672Y-79607763D01*
X101175479Y-79679129D01*
X101290377Y-79732149D01*
X101374304Y-79766105D01*
X101429182Y-79777976D01*
X101469776Y-79770773D01*
X101510850Y-79747507D01*
X101553610Y-79708447D01*
X101590046Y-79622487D01*
X101578467Y-79532390D01*
X101518292Y-79460501D01*
X101512136Y-79456522D01*
X101407593Y-79397969D01*
X101287585Y-79343046D01*
X101169930Y-79298542D01*
X101072448Y-79271249D01*
X101012957Y-79267954D01*
X100950994Y-79308076D01*
X100904149Y-79391251D01*
X100901353Y-79487559D01*
X100610389Y-79487559D01*
X100608195Y-79475389D01*
X100627308Y-79325036D01*
X100686382Y-79186172D01*
X100779349Y-79071370D01*
X100900141Y-78993200D01*
X101012957Y-78970277D01*
X101042690Y-78964236D01*
X101045126Y-78964253D01*
G37*
G36*
X101429787Y-69501422D02*
G01*
X101448301Y-69520193D01*
X101451859Y-69524905D01*
X101507887Y-69621333D01*
X101509884Y-69695589D01*
X101458291Y-69758131D01*
X101395622Y-69798217D01*
X101343658Y-69816859D01*
X101330470Y-69821886D01*
X101287226Y-69867075D01*
X101240067Y-69943805D01*
X101175666Y-70070042D01*
X101453623Y-70079250D01*
X101731581Y-70088459D01*
X101802471Y-70215013D01*
X101823221Y-70253655D01*
X101854329Y-70321501D01*
X101861013Y-70353915D01*
X101859076Y-70354783D01*
X101814089Y-70358779D01*
X101719899Y-70361328D01*
X101588791Y-70362220D01*
X101433048Y-70361245D01*
X101017432Y-70356227D01*
X100882309Y-70628679D01*
X100846882Y-70698651D01*
X100790944Y-70802805D01*
X100748133Y-70874466D01*
X100725637Y-70901131D01*
X100700683Y-70876345D01*
X100660944Y-70814212D01*
X100618231Y-70735951D01*
X100584117Y-70662790D01*
X100570174Y-70615957D01*
X100573022Y-70605541D01*
X100600000Y-70548311D01*
X100649360Y-70456776D01*
X100713587Y-70345130D01*
X100742869Y-70295277D01*
X100801329Y-70193477D01*
X100841846Y-70119649D01*
X100857000Y-70087140D01*
X100854729Y-70086104D01*
X100814925Y-70099403D01*
X100735767Y-70134549D01*
X100630647Y-70185712D01*
X100600033Y-70200998D01*
X100498790Y-70249481D01*
X100425976Y-70281122D01*
X100395679Y-70289688D01*
X100393475Y-70287059D01*
X100356365Y-70226258D01*
X100323276Y-70148530D01*
X100303052Y-70078164D01*
X100304539Y-70039446D01*
X100304742Y-70039255D01*
X100341459Y-70016589D01*
X100425433Y-69970104D01*
X100547328Y-69904804D01*
X100697806Y-69825690D01*
X100867534Y-69737766D01*
X100887566Y-69727464D01*
X101069828Y-69634275D01*
X101204515Y-69567345D01*
X101299742Y-69523635D01*
X101363620Y-69500103D01*
X101404264Y-69493712D01*
X101429787Y-69501422D01*
G37*
G36*
X100444184Y-79793973D02*
G01*
X100491970Y-79816109D01*
X100564642Y-79857595D01*
X100670653Y-79922227D01*
X100587884Y-80063461D01*
X100505116Y-80204695D01*
X100577482Y-80249299D01*
X100622224Y-80276181D01*
X100713941Y-80330348D01*
X100834181Y-80400814D01*
X100968543Y-80479116D01*
X101085488Y-80547524D01*
X101199530Y-80615208D01*
X101283719Y-80666277D01*
X101325372Y-80693124D01*
X101337457Y-80715077D01*
X101331981Y-80777787D01*
X101302965Y-80852051D01*
X101260918Y-80914066D01*
X101216351Y-80940027D01*
X101205671Y-80937430D01*
X101145496Y-80910071D01*
X101046259Y-80857617D01*
X100918863Y-80785964D01*
X100774214Y-80701006D01*
X100711709Y-80663650D01*
X100577511Y-80584095D01*
X100468064Y-80520111D01*
X100393311Y-80477480D01*
X100363195Y-80461984D01*
X100356114Y-80468065D01*
X100324448Y-80513736D01*
X100279519Y-80589462D01*
X100256914Y-80627339D01*
X100210436Y-80691553D01*
X100178821Y-80716940D01*
X100170720Y-80715981D01*
X100116653Y-80694656D01*
X100048247Y-80656291D01*
X99989562Y-80615495D01*
X99964654Y-80586880D01*
X99964725Y-80585991D01*
X99982003Y-80546789D01*
X100024752Y-80467510D01*
X100085846Y-80360086D01*
X100158162Y-80236453D01*
X100234575Y-80108545D01*
X100307959Y-79988296D01*
X100371191Y-79887640D01*
X100417144Y-79818511D01*
X100438696Y-79792844D01*
X100444184Y-79793973D01*
G37*
G36*
X100715427Y-68354065D02*
G01*
X100730944Y-68376240D01*
X100767670Y-68443741D01*
X100773918Y-68484562D01*
X100753075Y-68503833D01*
X100687824Y-68553413D01*
X100590275Y-68622894D01*
X100472217Y-68703714D01*
X100377904Y-68767819D01*
X100279502Y-68836522D01*
X100212492Y-68885548D01*
X100187740Y-68907125D01*
X100196526Y-68911928D01*
X100243512Y-68908389D01*
X100251278Y-68906968D01*
X100319448Y-68896203D01*
X100426952Y-68880517D01*
X100554239Y-68862781D01*
X100574565Y-68860004D01*
X100709958Y-68841173D01*
X100830041Y-68823965D01*
X100910882Y-68811801D01*
X100924442Y-68809777D01*
X100988201Y-68810115D01*
X101037282Y-68841150D01*
X101094132Y-68915595D01*
X101117605Y-68951093D01*
X101159217Y-69020351D01*
X101175695Y-69058112D01*
X101175162Y-69059499D01*
X101143172Y-69088145D01*
X101067446Y-69145751D01*
X100955980Y-69226509D01*
X100816771Y-69324612D01*
X100657815Y-69434250D01*
X100139936Y-69787902D01*
X100068229Y-69705349D01*
X100063142Y-69699396D01*
X100016073Y-69633040D01*
X99996991Y-69584737D01*
X100017758Y-69556979D01*
X100082073Y-69500848D01*
X100179499Y-69426269D01*
X100299376Y-69341806D01*
X100410459Y-69265203D01*
X100506956Y-69196068D01*
X100570517Y-69147437D01*
X100591084Y-69126726D01*
X100585544Y-69125897D01*
X100533179Y-69129544D01*
X100437945Y-69140279D01*
X100314575Y-69156093D01*
X100177801Y-69174976D01*
X100042353Y-69194919D01*
X99922965Y-69213912D01*
X99834369Y-69229945D01*
X99825218Y-69231655D01*
X99771210Y-69229642D01*
X99723370Y-69194470D01*
X99664243Y-69114274D01*
X99634963Y-69065799D01*
X99603933Y-68995396D01*
X99603311Y-68957201D01*
X99603765Y-68956797D01*
X99639714Y-68930489D01*
X99719490Y-68874885D01*
X99834400Y-68795956D01*
X99975756Y-68699672D01*
X100134868Y-68592004D01*
X100639712Y-68251438D01*
X100715427Y-68354065D01*
G37*
G36*
X99877697Y-80721079D02*
G01*
X99922999Y-80750904D01*
X99989972Y-80804582D01*
X100092557Y-80892223D01*
X99963154Y-81059881D01*
X99902584Y-81143629D01*
X99866698Y-81212376D01*
X99875300Y-81241696D01*
X99877843Y-81242434D01*
X99930929Y-81250762D01*
X100032391Y-81262296D01*
X100168721Y-81275612D01*
X100326412Y-81289284D01*
X100446564Y-81299783D01*
X100595910Y-81316616D01*
X100701272Y-81335450D01*
X100774822Y-81358696D01*
X100828732Y-81388764D01*
X100835996Y-81394070D01*
X100890988Y-81449296D01*
X100898765Y-81492213D01*
X100875657Y-81528078D01*
X100815003Y-81614594D01*
X100737248Y-81719951D01*
X100651510Y-81832431D01*
X100566904Y-81940314D01*
X100492545Y-82031882D01*
X100437551Y-82095417D01*
X100411036Y-82119199D01*
X100407237Y-82118719D01*
X100361117Y-82094496D01*
X100296190Y-82044948D01*
X100209869Y-81970698D01*
X100343405Y-81774058D01*
X100382512Y-81716125D01*
X100431561Y-81638993D01*
X100449247Y-81597425D01*
X100438950Y-81580448D01*
X100404047Y-81577088D01*
X100350738Y-81574639D01*
X100246273Y-81567467D01*
X100108495Y-81556730D01*
X99953085Y-81543594D01*
X99795380Y-81527136D01*
X99624852Y-81499015D01*
X99509283Y-81463495D01*
X99443635Y-81418865D01*
X99422872Y-81363414D01*
X99423181Y-81360818D01*
X99444648Y-81315570D01*
X99493627Y-81234848D01*
X99561279Y-81131389D01*
X99638765Y-81017927D01*
X99717244Y-80907202D01*
X99787877Y-80811948D01*
X99841826Y-80744903D01*
X99870249Y-80718803D01*
X99877697Y-80721079D01*
G37*
G36*
X100002656Y-75463737D02*
G01*
X100194765Y-75472746D01*
X100339354Y-75484941D01*
X100436915Y-75498523D01*
X100502483Y-75518197D01*
X100551923Y-75548734D01*
X100601101Y-75594903D01*
X100626166Y-75621261D01*
X100677305Y-75680980D01*
X100697652Y-75714637D01*
X100693311Y-75722070D01*
X100649174Y-75753065D01*
X100572798Y-75791918D01*
X100559107Y-75797980D01*
X100507787Y-75817170D01*
X100452163Y-75828908D01*
X100380404Y-75833483D01*
X100280681Y-75831183D01*
X100141163Y-75822297D01*
X99950019Y-75807114D01*
X99556484Y-75788661D01*
X99123712Y-75794392D01*
X98692270Y-75824022D01*
X98291504Y-75876325D01*
X98076784Y-75913334D01*
X97826191Y-75959989D01*
X97598129Y-76007752D01*
X97371830Y-76061326D01*
X97126524Y-76125416D01*
X96841441Y-76204724D01*
X96710276Y-76234884D01*
X96579225Y-76251871D01*
X96468525Y-76253661D01*
X96391981Y-76240076D01*
X96363399Y-76210935D01*
X96366409Y-76186313D01*
X96417302Y-76107181D01*
X96529848Y-76030321D01*
X96702451Y-75956926D01*
X96963919Y-75871651D01*
X97312635Y-75773180D01*
X97687532Y-75681049D01*
X98068373Y-75600179D01*
X98434917Y-75535494D01*
X98512492Y-75524734D01*
X98717934Y-75503833D01*
X98962703Y-75486437D01*
X99230180Y-75473136D01*
X99503744Y-75464524D01*
X99766775Y-75461193D01*
X100002656Y-75463737D01*
G37*
G36*
X100061146Y-72979138D02*
G01*
X100195855Y-72986710D01*
X100296226Y-72996769D01*
X100385079Y-73011199D01*
X100442658Y-73034765D01*
X100487222Y-73075815D01*
X100537031Y-73142697D01*
X100570552Y-73191441D01*
X100614628Y-73261565D01*
X100632492Y-73299312D01*
X100629017Y-73301397D01*
X100579012Y-73307255D01*
X100475719Y-73312506D01*
X100326944Y-73316951D01*
X100140494Y-73320390D01*
X99924176Y-73322625D01*
X99685795Y-73323456D01*
X99666714Y-73323462D01*
X99385347Y-73324068D01*
X99145405Y-73326273D01*
X98935291Y-73331010D01*
X98743407Y-73339214D01*
X98558156Y-73351818D01*
X98367942Y-73369755D01*
X98161167Y-73393961D01*
X97926235Y-73425369D01*
X97651547Y-73464912D01*
X97325508Y-73513526D01*
X97284928Y-73519618D01*
X97094024Y-73547544D01*
X96957556Y-73564712D01*
X96868285Y-73570367D01*
X96818978Y-73563757D01*
X96802396Y-73544126D01*
X96811303Y-73510722D01*
X96838464Y-73462790D01*
X96846545Y-73449901D01*
X96874536Y-73413686D01*
X96912446Y-73384206D01*
X96970723Y-73357305D01*
X97059820Y-73328827D01*
X97190187Y-73294616D01*
X97372275Y-73250517D01*
X97524723Y-73214472D01*
X97753521Y-73162286D01*
X97946995Y-73121496D01*
X98121871Y-73088857D01*
X98294871Y-73061123D01*
X98482721Y-73035049D01*
X98550240Y-73027243D01*
X98725968Y-73012386D01*
X98939108Y-72999513D01*
X99175236Y-72989030D01*
X99419927Y-72981344D01*
X99658759Y-72976862D01*
X99877307Y-72975991D01*
X100061146Y-72979138D01*
G37*
G36*
X99846452Y-67302232D02*
G01*
X99885110Y-67330842D01*
X99953981Y-67398388D01*
X100043927Y-67495448D01*
X100145809Y-67612597D01*
X100406638Y-67921332D01*
X100323096Y-68008973D01*
X100298061Y-68033392D01*
X100229698Y-68082639D01*
X100177034Y-68097582D01*
X100154628Y-68072712D01*
X100152838Y-68067645D01*
X100122143Y-68023712D01*
X100061373Y-67949413D01*
X99980902Y-67857593D01*
X99808418Y-67666376D01*
X99735598Y-67738525D01*
X99718935Y-67755076D01*
X99690670Y-67789060D01*
X99684911Y-67822641D01*
X99706204Y-67868185D01*
X99759095Y-67938057D01*
X99848129Y-68044623D01*
X99970627Y-68190142D01*
X99879999Y-68269849D01*
X99864810Y-68282966D01*
X99803704Y-68330731D01*
X99768089Y-68350563D01*
X99766788Y-68350385D01*
X99733563Y-68324487D01*
X99672576Y-68263207D01*
X99595987Y-68178690D01*
X99552596Y-68129268D01*
X99488883Y-68061819D01*
X99446263Y-68031876D01*
X99411231Y-68032032D01*
X99370281Y-68054877D01*
X99319574Y-68098107D01*
X99295394Y-68141596D01*
X99297851Y-68150749D01*
X99329742Y-68204112D01*
X99390760Y-68286719D01*
X99471051Y-68384920D01*
X99646708Y-68590592D01*
X99544989Y-68677375D01*
X99489021Y-68721150D01*
X99437501Y-68742523D01*
X99397323Y-68726026D01*
X99396081Y-68724974D01*
X99355267Y-68683619D01*
X99288157Y-68609307D01*
X99204534Y-68513573D01*
X99114179Y-68407951D01*
X99026876Y-68303976D01*
X98952405Y-68213184D01*
X98900549Y-68147108D01*
X98881090Y-68117285D01*
X98889226Y-68105025D01*
X98937154Y-68056709D01*
X99020110Y-67980587D01*
X99128924Y-67884421D01*
X99254429Y-67775970D01*
X99387455Y-67662994D01*
X99518834Y-67553255D01*
X99639396Y-67454513D01*
X99739972Y-67374527D01*
X99811395Y-67321059D01*
X99844494Y-67301869D01*
X99846452Y-67302232D01*
G37*
G36*
X99251588Y-81597415D02*
G01*
X99272687Y-81597956D01*
X99311958Y-81627864D01*
X99387709Y-81692241D01*
X99488260Y-81781111D01*
X99602529Y-81884837D01*
X99705169Y-81978841D01*
X99830726Y-82093029D01*
X99941078Y-82192564D01*
X100020425Y-82263141D01*
X100076209Y-82314851D01*
X100133617Y-82376661D01*
X100155871Y-82413502D01*
X100151613Y-82428428D01*
X100113811Y-82487720D01*
X100047045Y-82570812D01*
X99963734Y-82664125D01*
X99876297Y-82754081D01*
X99797153Y-82827100D01*
X99738722Y-82869604D01*
X99719575Y-82878235D01*
X99619678Y-82905109D01*
X99508910Y-82915937D01*
X99457689Y-82912921D01*
X99348296Y-82883429D01*
X99233871Y-82817541D01*
X99105131Y-82709186D01*
X98952797Y-82552296D01*
X98947213Y-82546171D01*
X98862268Y-82448268D01*
X98813304Y-82375654D01*
X98790861Y-82310359D01*
X98785482Y-82234413D01*
X98786492Y-82218897D01*
X99072307Y-82218897D01*
X99080344Y-82243813D01*
X99127700Y-82309003D01*
X99205268Y-82390616D01*
X99298858Y-82476043D01*
X99394284Y-82552674D01*
X99477355Y-82607900D01*
X99533884Y-82629111D01*
X99544646Y-82628174D01*
X99614748Y-82598377D01*
X99687800Y-82539726D01*
X99704204Y-82522318D01*
X99753155Y-82465945D01*
X99772278Y-82436150D01*
X99755957Y-82416800D01*
X99700850Y-82362258D01*
X99616098Y-82282206D01*
X99511354Y-82185903D01*
X99251588Y-81949846D01*
X99161948Y-82057221D01*
X99140409Y-82084616D01*
X99091737Y-82161961D01*
X99072307Y-82218897D01*
X98786492Y-82218897D01*
X98788424Y-82189238D01*
X98836374Y-82033864D01*
X98940374Y-81866633D01*
X99096957Y-81693565D01*
X99156131Y-81640628D01*
X99225628Y-81596750D01*
X99251588Y-81597415D01*
G37*
G36*
X98998849Y-66477019D02*
G01*
X99059570Y-66520191D01*
X99149650Y-66597306D01*
X99277043Y-66713829D01*
X99297827Y-66733204D01*
X99409015Y-66839740D01*
X99499351Y-66931066D01*
X99560018Y-66998010D01*
X99582203Y-67031398D01*
X99582118Y-67033104D01*
X99558476Y-67078443D01*
X99505552Y-67137704D01*
X99459415Y-67174133D01*
X99409576Y-67187267D01*
X99352066Y-67165617D01*
X99275689Y-67104584D01*
X99169248Y-66999568D01*
X99098160Y-66930569D01*
X99032334Y-66875011D01*
X98994775Y-66853703D01*
X98979493Y-66859458D01*
X98927302Y-66900201D01*
X98861437Y-66967169D01*
X98830255Y-67001661D01*
X98746251Y-67092397D01*
X98641884Y-67203333D01*
X98532774Y-67317807D01*
X98305056Y-67554979D01*
X98210639Y-67485173D01*
X98197561Y-67475161D01*
X98139717Y-67420552D01*
X98116222Y-67379701D01*
X98131346Y-67354872D01*
X98184198Y-67289109D01*
X98268589Y-67190934D01*
X98377821Y-67067802D01*
X98505196Y-66927168D01*
X98644017Y-66776487D01*
X98787584Y-66623215D01*
X98929200Y-66474808D01*
X98933672Y-66470643D01*
X98959534Y-66462325D01*
X98998849Y-66477019D01*
G37*
G36*
X98389904Y-82470058D02*
G01*
X98422595Y-82494615D01*
X98489880Y-82559346D01*
X98584586Y-82656873D01*
X98699543Y-82779819D01*
X98827579Y-82920807D01*
X98833987Y-82927963D01*
X98959563Y-83069422D01*
X99068712Y-83194624D01*
X99154839Y-83295827D01*
X99211352Y-83365287D01*
X99231655Y-83395261D01*
X99230977Y-83397433D01*
X99201428Y-83432715D01*
X99134616Y-83500114D01*
X99039431Y-83590909D01*
X98924764Y-83696375D01*
X98617874Y-83974079D01*
X98518428Y-83873364D01*
X98418982Y-83772649D01*
X98636041Y-83574756D01*
X98853099Y-83376864D01*
X98772123Y-83300791D01*
X98691147Y-83224718D01*
X98532528Y-83373088D01*
X98531918Y-83373658D01*
X98449093Y-83448129D01*
X98384004Y-83501215D01*
X98350695Y-83521457D01*
X98310016Y-83501579D01*
X98252369Y-83450032D01*
X98201714Y-83389574D01*
X98179961Y-83343091D01*
X98201780Y-83304157D01*
X98260232Y-83238601D01*
X98342479Y-83161147D01*
X98504997Y-83018980D01*
X98450357Y-82935589D01*
X98449024Y-82933563D01*
X98405153Y-82876028D01*
X98375246Y-82852198D01*
X98369153Y-82854578D01*
X98324035Y-82886309D01*
X98248086Y-82947237D01*
X98153792Y-83027480D01*
X98121054Y-83055719D01*
X98030028Y-83130776D01*
X97960448Y-83183107D01*
X97925286Y-83202762D01*
X97918485Y-83201340D01*
X97875938Y-83168531D01*
X97825389Y-83109715D01*
X97784958Y-83048141D01*
X97772766Y-83007062D01*
X97775648Y-83001819D01*
X97813870Y-82959326D01*
X97886165Y-82889883D01*
X97980995Y-82803540D01*
X98086824Y-82710345D01*
X98192113Y-82620346D01*
X98285327Y-82543592D01*
X98354926Y-82490132D01*
X98389373Y-82470015D01*
X98389904Y-82470058D01*
G37*
G36*
X98051109Y-65712324D02*
G01*
X98129312Y-65766798D01*
X98235061Y-65843994D01*
X98356693Y-65935553D01*
X98472476Y-66026364D01*
X98568881Y-66106675D01*
X98634057Y-66166399D01*
X98658004Y-66196867D01*
X98638393Y-66239955D01*
X98589679Y-66300053D01*
X98533285Y-66352935D01*
X98490680Y-66375661D01*
X98488455Y-66375367D01*
X98445740Y-66352977D01*
X98369831Y-66301973D01*
X98275569Y-66232248D01*
X98263622Y-66223101D01*
X98170684Y-66155109D01*
X98097793Y-66107054D01*
X98059843Y-66088835D01*
X98018821Y-66106572D01*
X97972375Y-66153435D01*
X97941436Y-66206718D01*
X97943286Y-66243491D01*
X97971665Y-66267067D01*
X98038560Y-66321314D01*
X98124189Y-66389990D01*
X98191973Y-66448184D01*
X98252322Y-66510281D01*
X98275569Y-66549227D01*
X98275332Y-66552415D01*
X98250000Y-66601343D01*
X98195635Y-66662731D01*
X98115700Y-66737826D01*
X98020352Y-66668287D01*
X98020081Y-66668089D01*
X97924123Y-66598097D01*
X97827272Y-66527444D01*
X97729539Y-66456141D01*
X97671227Y-66533446D01*
X97634451Y-66597526D01*
X97627302Y-66644586D01*
X97629996Y-66649003D01*
X97670827Y-66688370D01*
X97747673Y-66749732D01*
X97846608Y-66821834D01*
X97870170Y-66838534D01*
X97962479Y-66908537D01*
X98027365Y-66965160D01*
X98052006Y-66997442D01*
X98051091Y-67003494D01*
X98023874Y-67052521D01*
X97970522Y-67118028D01*
X97888562Y-67206419D01*
X97770481Y-67117702D01*
X97760931Y-67110530D01*
X97671599Y-67043582D01*
X97556797Y-66957705D01*
X97438899Y-66869638D01*
X97404227Y-66843180D01*
X97314283Y-66768192D01*
X97253186Y-66707472D01*
X97232604Y-66672187D01*
X97237719Y-66658202D01*
X97274663Y-66595765D01*
X97340334Y-66500836D01*
X97427340Y-66382727D01*
X97528290Y-66250751D01*
X97635791Y-66114221D01*
X97742452Y-65982449D01*
X97840881Y-65864748D01*
X97923686Y-65770430D01*
X97983475Y-65708808D01*
X98012857Y-65689194D01*
X98051109Y-65712324D01*
G37*
G36*
X98452272Y-74253659D02*
G01*
X98499709Y-74264015D01*
X98503265Y-74267881D01*
X98517128Y-74318897D01*
X98526856Y-74412981D01*
X98530526Y-74533335D01*
X98530526Y-74783609D01*
X98411015Y-74802058D01*
X98400054Y-74803721D01*
X98263475Y-74821486D01*
X98093616Y-74839790D01*
X97909783Y-74856943D01*
X97731280Y-74871257D01*
X97577413Y-74881042D01*
X97467488Y-74884610D01*
X97374273Y-74875914D01*
X97276461Y-74851305D01*
X97196292Y-74817260D01*
X97148858Y-74780307D01*
X97149257Y-74746976D01*
X97165012Y-74742465D01*
X97235575Y-74735726D01*
X97351714Y-74730338D01*
X97502089Y-74726766D01*
X97675360Y-74725472D01*
X97784435Y-74725073D01*
X97941394Y-74722924D01*
X98066783Y-74719228D01*
X98149879Y-74714344D01*
X98179961Y-74708629D01*
X98167289Y-74675171D01*
X98132878Y-74600862D01*
X98084352Y-74502386D01*
X98037410Y-74405704D01*
X98002203Y-74325713D01*
X97988744Y-74284544D01*
X97999578Y-74276218D01*
X98057861Y-74264244D01*
X98150569Y-74255266D01*
X98259405Y-74250019D01*
X98366072Y-74249238D01*
X98452272Y-74253659D01*
G37*
G36*
X97567470Y-83204290D02*
G01*
X97616954Y-83265095D01*
X97689258Y-83360084D01*
X97777079Y-83479322D01*
X97873116Y-83612874D01*
X97970067Y-83750805D01*
X98060631Y-83883181D01*
X98072247Y-83900104D01*
X98124315Y-83973092D01*
X98187042Y-84058463D01*
X98211123Y-84092127D01*
X98256336Y-84165182D01*
X98274683Y-84210954D01*
X98260294Y-84240520D01*
X98208710Y-84289094D01*
X98142839Y-84331751D01*
X98087476Y-84350065D01*
X98074149Y-84341868D01*
X98028709Y-84291922D01*
X97963287Y-84206684D01*
X97887170Y-84097846D01*
X97842554Y-84032161D01*
X97776436Y-83938103D01*
X97729188Y-83875203D01*
X97708898Y-83854501D01*
X97708416Y-83858288D01*
X97718208Y-83905314D01*
X97742650Y-83993600D01*
X97777688Y-84108195D01*
X97855433Y-84353016D01*
X97788601Y-84415279D01*
X97770507Y-84431275D01*
X97707064Y-84467976D01*
X97639963Y-84466371D01*
X97556158Y-84423485D01*
X97442601Y-84336342D01*
X97437313Y-84331960D01*
X97352498Y-84264480D01*
X97289482Y-84219354D01*
X97261564Y-84206145D01*
X97264067Y-84216527D01*
X97292905Y-84269351D01*
X97346822Y-84355707D01*
X97418454Y-84463516D01*
X97586347Y-84709883D01*
X97492752Y-84784772D01*
X97477107Y-84797118D01*
X97416067Y-84841706D01*
X97383223Y-84859816D01*
X97370994Y-84848730D01*
X97328377Y-84795298D01*
X97264114Y-84707668D01*
X97186592Y-84597051D01*
X97163146Y-84562963D01*
X97051180Y-84400650D01*
X96930485Y-84226269D01*
X96823406Y-84072116D01*
X96640916Y-83810102D01*
X96717277Y-83747316D01*
X96723922Y-83741852D01*
X96803528Y-83679016D01*
X96865923Y-83644445D01*
X96924400Y-83640577D01*
X96992249Y-83669853D01*
X97082765Y-83734710D01*
X97209239Y-83837589D01*
X97310063Y-83919065D01*
X97404848Y-83992096D01*
X97471484Y-84039287D01*
X97499685Y-84053009D01*
X97498024Y-84032578D01*
X97479309Y-83962610D01*
X97445394Y-83855710D01*
X97400224Y-83724897D01*
X97365592Y-83626404D01*
X97325417Y-83507215D01*
X97298042Y-83419738D01*
X97288019Y-83378045D01*
X97306832Y-83350477D01*
X97362414Y-83301336D01*
X97434849Y-83247754D01*
X97503793Y-83204640D01*
X97548899Y-83186899D01*
X97567470Y-83204290D01*
G37*
G36*
X97098277Y-65120020D02*
G01*
X97232677Y-65176438D01*
X97350947Y-65257136D01*
X97429298Y-65348947D01*
X97440908Y-65372117D01*
X97474727Y-65512095D01*
X97454853Y-65673004D01*
X97380736Y-65860658D01*
X97379104Y-65863917D01*
X97326568Y-65961292D01*
X97282172Y-66030579D01*
X97255375Y-66056966D01*
X97251162Y-66056087D01*
X97204924Y-66034845D01*
X97126361Y-65992780D01*
X97033357Y-65939985D01*
X96943798Y-65886556D01*
X96875567Y-65842588D01*
X96873609Y-65820020D01*
X96895017Y-65762318D01*
X96931840Y-65693175D01*
X96971737Y-65635147D01*
X97002369Y-65610792D01*
X97031248Y-65616045D01*
X97095307Y-65642078D01*
X97142638Y-65656181D01*
X97172771Y-65623835D01*
X97178713Y-65599033D01*
X97161973Y-65520777D01*
X97107069Y-65451009D01*
X97031856Y-65407392D01*
X96954186Y-65407589D01*
X96943805Y-65412956D01*
X96887334Y-65465527D01*
X96815478Y-65556718D01*
X96738976Y-65671906D01*
X96668567Y-65796470D01*
X96667094Y-65799347D01*
X96634611Y-65872836D01*
X96634279Y-65923146D01*
X96665607Y-65980921D01*
X96689214Y-66012226D01*
X96746089Y-66047654D01*
X96836147Y-66052338D01*
X96893411Y-66055099D01*
X96987196Y-66077570D01*
X97073608Y-66114483D01*
X97134185Y-66157310D01*
X97150465Y-66197523D01*
X97127067Y-66237849D01*
X97046215Y-66299912D01*
X96930770Y-66342770D01*
X96799183Y-66357995D01*
X96789368Y-66357836D01*
X96625027Y-66332296D01*
X96496800Y-66259145D01*
X96391971Y-66131304D01*
X96378428Y-66107858D01*
X96336651Y-65981626D01*
X96342530Y-65840487D01*
X96397352Y-65676898D01*
X96502402Y-65483314D01*
X96523341Y-65449990D01*
X96639712Y-65287693D01*
X96749485Y-65179659D01*
X96860640Y-65119512D01*
X96981155Y-65100880D01*
X97098277Y-65120020D01*
G37*
G36*
X96068442Y-73930784D02*
G01*
X96132039Y-73964761D01*
X96221435Y-74025792D01*
X96349151Y-74119571D01*
X96595886Y-74324063D01*
X96856133Y-74601211D01*
X97068625Y-74864396D01*
X96867392Y-74944156D01*
X96684351Y-75023028D01*
X96498253Y-75121810D01*
X96328904Y-75236925D01*
X96169191Y-75375355D01*
X96012002Y-75544084D01*
X95850225Y-75750094D01*
X95676748Y-76000367D01*
X95484459Y-76301886D01*
X95301737Y-76593132D01*
X95130576Y-76855888D01*
X94968381Y-77091564D01*
X94806048Y-77312084D01*
X94634470Y-77529373D01*
X94444543Y-77755356D01*
X94227162Y-78001957D01*
X93973221Y-78281102D01*
X93517131Y-78777183D01*
X93450365Y-78709315D01*
X93383600Y-78641446D01*
X93529992Y-78507988D01*
X93555037Y-78484364D01*
X93655094Y-78380778D01*
X93782299Y-78238999D01*
X93930938Y-78066247D01*
X94095295Y-77869741D01*
X94269655Y-77656699D01*
X94448303Y-77434340D01*
X94625523Y-77209884D01*
X94795600Y-76990548D01*
X94952819Y-76783552D01*
X95091464Y-76596114D01*
X95205820Y-76435453D01*
X95290172Y-76308789D01*
X95338804Y-76223339D01*
X95403428Y-76029615D01*
X95436375Y-75774942D01*
X95427319Y-75489487D01*
X95375929Y-75182604D01*
X95359888Y-75115815D01*
X95313497Y-74958329D01*
X95262127Y-74846560D01*
X95198495Y-74767217D01*
X95115318Y-74707007D01*
X95110024Y-74703259D01*
X95069864Y-74654319D01*
X95016382Y-74568413D01*
X94957277Y-74460802D01*
X94900245Y-74346751D01*
X94852985Y-74241523D01*
X94823193Y-74160382D01*
X94818569Y-74118591D01*
X94840300Y-74101496D01*
X94902007Y-74088082D01*
X94907535Y-74087940D01*
X94974234Y-74081351D01*
X95087071Y-74066535D01*
X95231711Y-74045710D01*
X95393816Y-74021092D01*
X95559051Y-73994899D01*
X95713079Y-73969348D01*
X95841565Y-73946658D01*
X95930172Y-73929046D01*
X95968559Y-73921216D01*
X96018122Y-73918167D01*
X96068442Y-73930784D01*
G37*
G36*
X95753318Y-64409786D02*
G01*
X95823576Y-64437828D01*
X95845601Y-64446619D01*
X95962641Y-64502425D01*
X96088284Y-64568616D01*
X96206373Y-64636602D01*
X96300755Y-64697795D01*
X96355273Y-64743606D01*
X96356696Y-64745342D01*
X96406283Y-64833895D01*
X96426860Y-64925598D01*
X96422816Y-64970223D01*
X96381243Y-65089685D01*
X96307454Y-65197338D01*
X96217373Y-65267217D01*
X96186232Y-65283331D01*
X96148910Y-65327077D01*
X96149634Y-65402013D01*
X96152111Y-65466709D01*
X96125825Y-65590419D01*
X96068795Y-65700786D01*
X95991600Y-65772976D01*
X95888302Y-65807959D01*
X95761212Y-65806372D01*
X95606569Y-65763712D01*
X95415139Y-65678466D01*
X95353024Y-65646806D01*
X95249972Y-65592043D01*
X95178868Y-65551159D01*
X95152357Y-65531238D01*
X95162668Y-65503842D01*
X95195256Y-65429392D01*
X95205575Y-65406698D01*
X95534792Y-65406698D01*
X95541396Y-65414595D01*
X95589646Y-65444123D01*
X95669321Y-65482922D01*
X95712422Y-65501065D01*
X95795177Y-65522954D01*
X95844604Y-65509331D01*
X95860898Y-65493740D01*
X95886363Y-65427944D01*
X95853546Y-65361110D01*
X95765846Y-65302173D01*
X95739237Y-65289984D01*
X95666193Y-65255942D01*
X95627924Y-65237181D01*
X95608847Y-65251049D01*
X95577015Y-65300269D01*
X95547675Y-65360625D01*
X95534792Y-65406698D01*
X95205575Y-65406698D01*
X95244817Y-65320393D01*
X95305899Y-65188997D01*
X95349996Y-65094869D01*
X95429441Y-64924617D01*
X95435250Y-64912114D01*
X95744504Y-64912114D01*
X95745954Y-64961863D01*
X95790966Y-65001736D01*
X95888132Y-65046324D01*
X95975217Y-65072552D01*
X96055447Y-65063632D01*
X96095439Y-65020626D01*
X96105155Y-64948762D01*
X96068606Y-64885679D01*
X96065232Y-64883075D01*
X96006655Y-64845765D01*
X95926173Y-64801791D01*
X95823576Y-64749692D01*
X95772081Y-64849274D01*
X95744504Y-64912114D01*
X95435250Y-64912114D01*
X95505217Y-64761510D01*
X95565573Y-64630805D01*
X95579651Y-64600831D01*
X95627924Y-64508279D01*
X95633049Y-64498453D01*
X95678889Y-64426759D01*
X95708510Y-64399751D01*
X95753318Y-64409786D01*
G37*
G36*
X95873637Y-84254582D02*
G01*
X95899014Y-84285237D01*
X95945792Y-84364442D01*
X96009202Y-84483282D01*
X96084478Y-84632841D01*
X96166854Y-84804205D01*
X96171315Y-84813693D01*
X96251624Y-84985622D01*
X96321498Y-85137287D01*
X96376716Y-85259358D01*
X96413055Y-85342505D01*
X96426290Y-85377398D01*
X96403656Y-85402191D01*
X96336053Y-85444382D01*
X96238682Y-85495143D01*
X96126978Y-85546936D01*
X96016377Y-85592226D01*
X95922315Y-85623475D01*
X95769730Y-85640440D01*
X95617005Y-85601428D01*
X95486473Y-85503715D01*
X95469399Y-85482746D01*
X95414955Y-85395865D01*
X95352816Y-85276797D01*
X95290827Y-85143057D01*
X95236835Y-85012161D01*
X95198687Y-84901625D01*
X95185508Y-84835402D01*
X95507424Y-84835402D01*
X95533317Y-84946645D01*
X95596473Y-85099588D01*
X95627634Y-85164093D01*
X95695868Y-85277110D01*
X95763012Y-85337223D01*
X95838666Y-85350859D01*
X95932433Y-85324443D01*
X95952690Y-85315554D01*
X96018019Y-85279462D01*
X96044019Y-85252004D01*
X96037063Y-85229416D01*
X96008236Y-85157846D01*
X95962247Y-85051504D01*
X95904749Y-84923716D01*
X95861784Y-84831353D01*
X95803452Y-84718897D01*
X95754942Y-84655083D01*
X95707178Y-84633452D01*
X95651085Y-84647546D01*
X95577587Y-84690907D01*
X95565634Y-84699273D01*
X95518345Y-84756174D01*
X95507424Y-84835402D01*
X95185508Y-84835402D01*
X95184227Y-84828965D01*
X95200858Y-84742854D01*
X95259694Y-84625768D01*
X95348514Y-84519603D01*
X95405081Y-84478118D01*
X95499569Y-84421911D01*
X95611607Y-84362337D01*
X95707178Y-84316226D01*
X95723184Y-84308503D01*
X95816288Y-84269516D01*
X95872908Y-84254481D01*
X95873637Y-84254582D01*
G37*
G36*
X94422522Y-63931613D02*
G01*
X94443703Y-63937872D01*
X94522512Y-63968931D01*
X94561185Y-64010244D01*
X94578706Y-64079828D01*
X94591443Y-64137560D01*
X94592566Y-64139208D01*
X94619926Y-64179360D01*
X94678830Y-64212683D01*
X94783623Y-64250404D01*
X94972606Y-64313276D01*
X95041181Y-64227274D01*
X95077934Y-64185530D01*
X95126736Y-64159016D01*
X95186829Y-64172310D01*
X95246208Y-64195179D01*
X95323300Y-64222268D01*
X95342799Y-64228315D01*
X95358028Y-64236821D01*
X95361573Y-64252738D01*
X95349431Y-64282130D01*
X95317600Y-64331062D01*
X95262077Y-64405600D01*
X95178861Y-64511807D01*
X95063948Y-64655749D01*
X94913336Y-64843491D01*
X94905389Y-64853388D01*
X94784828Y-65000995D01*
X94676286Y-65129410D01*
X94586592Y-65230892D01*
X94522575Y-65297701D01*
X94491065Y-65322097D01*
X94447431Y-65306585D01*
X94387489Y-65260228D01*
X94369380Y-65239898D01*
X94345810Y-65196309D01*
X94331952Y-65131748D01*
X94325400Y-65031975D01*
X94323750Y-64882751D01*
X94323403Y-64819955D01*
X94319821Y-64638772D01*
X94578706Y-64638772D01*
X94580372Y-64706674D01*
X94591961Y-64767991D01*
X94618222Y-64773116D01*
X94663372Y-64726413D01*
X94719043Y-64651648D01*
X94749399Y-64591197D01*
X94738980Y-64553888D01*
X94689457Y-64526928D01*
X94629313Y-64505473D01*
X94592566Y-64495359D01*
X94588433Y-64501913D01*
X94581462Y-64553209D01*
X94578706Y-64638772D01*
X94319821Y-64638772D01*
X94319570Y-64626096D01*
X94312397Y-64417654D01*
X94303011Y-64230059D01*
X94282272Y-63891103D01*
X94422522Y-63931613D01*
G37*
G36*
X94501585Y-84863564D02*
G01*
X94573584Y-84931118D01*
X94594717Y-84950946D01*
X94713048Y-85091031D01*
X94749692Y-85137104D01*
X94876663Y-85295080D01*
X95011698Y-85461161D01*
X95131134Y-85606190D01*
X95194265Y-85684138D01*
X95266493Y-85779730D01*
X95313005Y-85849695D01*
X95325834Y-85882723D01*
X95321498Y-85887486D01*
X95272989Y-85914899D01*
X95193887Y-85945611D01*
X95176885Y-85951152D01*
X95104333Y-85967872D01*
X95055964Y-85952299D01*
X95001788Y-85896814D01*
X94973934Y-85863877D01*
X94945062Y-85836792D01*
X94911315Y-85827695D01*
X94858854Y-85837306D01*
X94773844Y-85866346D01*
X94642445Y-85915537D01*
X94605692Y-85931274D01*
X94558378Y-85975611D01*
X94546837Y-86053905D01*
X94546830Y-86057501D01*
X94538823Y-86124791D01*
X94503680Y-86163398D01*
X94423629Y-86193452D01*
X94398031Y-86200981D01*
X94320388Y-86221945D01*
X94278184Y-86230366D01*
X94276879Y-86229686D01*
X94270258Y-86191360D01*
X94267283Y-86102293D01*
X94267514Y-85973700D01*
X94270509Y-85816798D01*
X94275827Y-85642802D01*
X94281648Y-85497367D01*
X94546837Y-85497367D01*
X94547420Y-85546756D01*
X94557672Y-85605455D01*
X94592379Y-85620353D01*
X94666347Y-85604758D01*
X94700038Y-85594463D01*
X94731026Y-85571120D01*
X94719093Y-85530354D01*
X94664004Y-85457530D01*
X94616723Y-85403911D01*
X94573584Y-85376070D01*
X94552445Y-85406489D01*
X94546837Y-85497367D01*
X94281648Y-85497367D01*
X94283026Y-85462928D01*
X94291665Y-85288393D01*
X94301303Y-85130410D01*
X94311498Y-85000198D01*
X94321809Y-84908970D01*
X94331795Y-84867944D01*
X94369137Y-84834172D01*
X94428206Y-84825702D01*
X94501585Y-84863564D01*
G37*
G36*
X90902489Y-69206522D02*
G01*
X91133143Y-69244789D01*
X91439187Y-69330142D01*
X91731442Y-69456602D01*
X92018688Y-69628910D01*
X92309705Y-69851803D01*
X92613270Y-70130022D01*
X92692033Y-70209139D01*
X92888843Y-70424264D01*
X93073323Y-70654537D01*
X93250333Y-70907680D01*
X93424730Y-71191415D01*
X93601374Y-71513464D01*
X93785124Y-71881548D01*
X93980838Y-72303390D01*
X94001875Y-72355516D01*
X94043529Y-72472860D01*
X94094220Y-72626135D01*
X94149289Y-72800239D01*
X94204075Y-72980068D01*
X94253917Y-73150520D01*
X94294156Y-73296495D01*
X94320131Y-73402888D01*
X94330550Y-73454001D01*
X94378687Y-73751731D01*
X94417996Y-74107846D01*
X94448014Y-74518321D01*
X94450800Y-74566446D01*
X94460299Y-74729588D01*
X94468561Y-74870029D01*
X94474779Y-74974125D01*
X94478148Y-75028233D01*
X94478432Y-75039448D01*
X94477254Y-75109719D01*
X94473495Y-75229625D01*
X94467529Y-75388874D01*
X94459735Y-75577170D01*
X94450489Y-75784220D01*
X94431312Y-76114161D01*
X94395778Y-76490785D01*
X94345161Y-76820022D01*
X94276287Y-77110691D01*
X94185982Y-77371607D01*
X94071072Y-77611589D01*
X93928382Y-77839454D01*
X93754739Y-78064019D01*
X93546969Y-78294102D01*
X93436867Y-78411405D01*
X93290577Y-78572714D01*
X93150503Y-78732347D01*
X93036003Y-78868540D01*
X92909788Y-79018142D01*
X92758270Y-79176017D01*
X92607062Y-79302964D01*
X92438844Y-79413103D01*
X92236297Y-79520556D01*
X91782639Y-79720876D01*
X91298099Y-79881544D01*
X90812093Y-79984923D01*
X90315780Y-80032329D01*
X89800318Y-80025080D01*
X89256867Y-79964493D01*
X88890395Y-79892204D01*
X88452792Y-79770653D01*
X88007677Y-79613073D01*
X87566916Y-79425022D01*
X87142375Y-79212053D01*
X86745920Y-78979724D01*
X86389415Y-78733590D01*
X86084727Y-78479207D01*
X86056931Y-78452865D01*
X85941597Y-78336467D01*
X85827526Y-78211652D01*
X85723506Y-78089091D01*
X85638325Y-77979454D01*
X85580772Y-77893411D01*
X85559635Y-77841635D01*
X85563687Y-77838731D01*
X85602078Y-77859052D01*
X85672320Y-77911438D01*
X85763717Y-77988205D01*
X85800369Y-78020126D01*
X85889488Y-78095394D01*
X85955491Y-78147749D01*
X85986201Y-78167380D01*
X85987122Y-78167009D01*
X85978877Y-78136079D01*
X85946124Y-78065201D01*
X85895178Y-77968195D01*
X85832153Y-77846433D01*
X85721557Y-77591188D01*
X85635123Y-77332690D01*
X85580710Y-77102729D01*
X86866957Y-77102729D01*
X86893295Y-77385315D01*
X86977892Y-77664287D01*
X87117489Y-77919133D01*
X87308699Y-78145876D01*
X87548133Y-78340541D01*
X87832403Y-78499152D01*
X88158119Y-78617731D01*
X88270237Y-78644089D01*
X88481823Y-78674894D01*
X88711093Y-78690085D01*
X88938271Y-78689307D01*
X89143583Y-78672203D01*
X89307250Y-78638418D01*
X89463002Y-78580785D01*
X89701807Y-78452184D01*
X89907077Y-78289876D01*
X90068934Y-78102267D01*
X90177498Y-77897767D01*
X90204120Y-77818482D01*
X90233166Y-77705248D01*
X90244453Y-77620771D01*
X90244017Y-77591956D01*
X90238002Y-77562799D01*
X90219053Y-77570651D01*
X90179886Y-77620980D01*
X90113218Y-77719252D01*
X90106082Y-77729808D01*
X90013265Y-77854206D01*
X89898981Y-77991300D01*
X89786300Y-78113285D01*
X89604864Y-78275036D01*
X89367280Y-78424834D01*
X89119727Y-78512667D01*
X88859525Y-78539408D01*
X88583997Y-78505934D01*
X88357618Y-78442714D01*
X88062863Y-78315669D01*
X87807513Y-78149483D01*
X87596660Y-77948403D01*
X87435393Y-77716678D01*
X87328801Y-77458554D01*
X87313754Y-77395826D01*
X87293044Y-77256314D01*
X87281179Y-77097329D01*
X87277916Y-76932669D01*
X87283007Y-76776131D01*
X87296208Y-76641512D01*
X87317274Y-76542610D01*
X87345959Y-76493222D01*
X87356413Y-76497183D01*
X87376263Y-76544572D01*
X87393182Y-76629059D01*
X87419376Y-76772143D01*
X87507621Y-77032972D01*
X87640854Y-77249231D01*
X87817252Y-77419382D01*
X88034997Y-77541886D01*
X88292265Y-77615205D01*
X88587238Y-77637801D01*
X88746578Y-77628337D01*
X89018109Y-77569202D01*
X89262718Y-77454317D01*
X89484165Y-77281669D01*
X89686210Y-77049245D01*
X89769112Y-76928457D01*
X89883642Y-76709398D01*
X89947659Y-76488969D01*
X89966881Y-76250908D01*
X89964516Y-76176760D01*
X89922926Y-75934156D01*
X89826258Y-75715267D01*
X89670199Y-75509313D01*
X89551043Y-75399012D01*
X89338581Y-75272240D01*
X89093416Y-75199318D01*
X88816946Y-75180598D01*
X88510569Y-75216432D01*
X88316865Y-75265223D01*
X88000234Y-75396133D01*
X87708531Y-75585301D01*
X87442632Y-75832111D01*
X87203413Y-76135946D01*
X87068230Y-76354885D01*
X86953820Y-76603861D01*
X86888253Y-76848763D01*
X86866957Y-77102729D01*
X85580710Y-77102729D01*
X85576393Y-77084484D01*
X85548913Y-76860111D01*
X85556226Y-76673115D01*
X85565284Y-76611194D01*
X85573262Y-76538500D01*
X85572301Y-76510165D01*
X85563355Y-76521644D01*
X85533888Y-76576568D01*
X85493289Y-76661545D01*
X85477929Y-76696928D01*
X85421446Y-76866392D01*
X85383049Y-77047676D01*
X85366589Y-77218031D01*
X85375920Y-77354707D01*
X85382402Y-77386715D01*
X85396909Y-77482940D01*
X85392107Y-77529404D01*
X85366022Y-77524727D01*
X85316678Y-77467527D01*
X85242099Y-77356424D01*
X85140309Y-77190038D01*
X85079695Y-77087753D01*
X84904205Y-76781168D01*
X84750078Y-76492168D01*
X84612503Y-76209307D01*
X84486675Y-75921139D01*
X84367783Y-75616216D01*
X84251020Y-75283091D01*
X84131577Y-74910319D01*
X84004647Y-74486451D01*
X83992676Y-74444288D01*
X83954357Y-74297511D01*
X83912454Y-74122815D01*
X83868979Y-73930198D01*
X83825943Y-73729658D01*
X83785357Y-73531193D01*
X83749232Y-73344801D01*
X83719579Y-73180480D01*
X83698409Y-73048229D01*
X83687732Y-72958046D01*
X83689561Y-72919929D01*
X83691275Y-72920606D01*
X83718902Y-72953932D01*
X83775611Y-73030997D01*
X83856272Y-73144297D01*
X83955753Y-73286328D01*
X84068925Y-73449588D01*
X84190659Y-73626572D01*
X84315822Y-73809778D01*
X84439286Y-73991702D01*
X84555921Y-74164840D01*
X84660595Y-74321689D01*
X84748179Y-74454745D01*
X84813543Y-74556506D01*
X84851556Y-74619467D01*
X84886498Y-74668675D01*
X84923262Y-74693603D01*
X84929818Y-74693105D01*
X84944671Y-74684355D01*
X84952877Y-74660170D01*
X84953523Y-74614707D01*
X84945697Y-74542118D01*
X84928487Y-74436561D01*
X84900981Y-74292188D01*
X84862266Y-74103156D01*
X84811431Y-73863620D01*
X84747563Y-73567733D01*
X84740621Y-73534659D01*
X84720464Y-73420653D01*
X84711307Y-73335934D01*
X84715107Y-73296842D01*
X84723791Y-73292648D01*
X84766477Y-73318658D01*
X84833113Y-73402953D01*
X84923372Y-73545076D01*
X85036926Y-73744570D01*
X85050648Y-73769328D01*
X85125556Y-73897964D01*
X85209416Y-74033630D01*
X85295269Y-74166044D01*
X85376158Y-74284926D01*
X85445126Y-74379995D01*
X85495214Y-74440970D01*
X85519465Y-74457570D01*
X85517640Y-74437320D01*
X85502870Y-74364142D01*
X85476275Y-74247507D01*
X85440223Y-74097718D01*
X85397081Y-73925078D01*
X85366274Y-73802593D01*
X85323569Y-73628471D01*
X85287668Y-73476957D01*
X85261638Y-73361079D01*
X85248545Y-73293868D01*
X85232695Y-73184848D01*
X85377938Y-73269966D01*
X85434352Y-73302389D01*
X85504254Y-73340307D01*
X85537516Y-73355083D01*
X85537797Y-73355040D01*
X85538500Y-73324587D01*
X85527583Y-73248463D01*
X85507310Y-73142595D01*
X85485762Y-72989812D01*
X85496161Y-72759912D01*
X85561224Y-72535548D01*
X85586880Y-72488707D01*
X86631628Y-72488707D01*
X86661596Y-72673467D01*
X86741254Y-72837069D01*
X86869534Y-72972029D01*
X87045372Y-73070868D01*
X87183086Y-73114492D01*
X87378798Y-73156562D01*
X87587501Y-73185176D01*
X87782064Y-73195736D01*
X87846705Y-73194512D01*
X88127291Y-73162151D01*
X88400703Y-73089767D01*
X88657601Y-72982675D01*
X88816946Y-72888541D01*
X88863749Y-72860892D01*
X89289891Y-72860892D01*
X89304851Y-72895992D01*
X89345500Y-72972190D01*
X89404714Y-73077411D01*
X89475366Y-73199577D01*
X89550331Y-73326612D01*
X89622481Y-73446439D01*
X89684692Y-73546983D01*
X89729836Y-73616165D01*
X89750789Y-73641909D01*
X89750850Y-73641908D01*
X89775599Y-73617277D01*
X89826017Y-73553107D01*
X89892554Y-73462840D01*
X89965661Y-73359921D01*
X90035786Y-73257791D01*
X90093380Y-73169896D01*
X90128893Y-73109677D01*
X90130130Y-73107234D01*
X90174674Y-72997948D01*
X90183746Y-72902748D01*
X90153248Y-72808848D01*
X90079083Y-72703464D01*
X89957154Y-72573811D01*
X89733594Y-72351964D01*
X89512507Y-72590600D01*
X89447672Y-72661900D01*
X89366719Y-72755393D01*
X89311004Y-72825490D01*
X89289894Y-72860820D01*
X89289891Y-72860892D01*
X88863749Y-72860892D01*
X88888644Y-72846185D01*
X89084491Y-72685612D01*
X89235803Y-72506266D01*
X89333239Y-72313462D01*
X89341614Y-72288073D01*
X89382345Y-72095920D01*
X89371555Y-71955763D01*
X90324127Y-71955763D01*
X90552552Y-72066081D01*
X90679628Y-72134625D01*
X90824526Y-72240425D01*
X90914604Y-72347923D01*
X90945582Y-72452902D01*
X90940470Y-72490354D01*
X90910867Y-72582692D01*
X90863672Y-72684282D01*
X90781761Y-72834778D01*
X90941326Y-73083827D01*
X91001657Y-73183124D01*
X91105776Y-73400149D01*
X91157796Y-73599055D01*
X91160428Y-73788560D01*
X91156309Y-73817687D01*
X91103837Y-73993467D01*
X91005291Y-74190169D01*
X90867136Y-74396490D01*
X90695832Y-74601127D01*
X90617539Y-74688508D01*
X90548029Y-74773705D01*
X90509043Y-74831599D01*
X90507492Y-74852950D01*
X90555954Y-74840013D01*
X90642705Y-74804945D01*
X90747973Y-74755505D01*
X90854591Y-74693864D01*
X91038899Y-74544373D01*
X91189885Y-74364500D01*
X91292359Y-74170564D01*
X91328157Y-74052338D01*
X91362581Y-73869441D01*
X91378143Y-73685605D01*
X91371204Y-73530366D01*
X91370011Y-73523092D01*
X91350292Y-73440341D01*
X91316186Y-73323612D01*
X91274305Y-73195736D01*
X91225351Y-73030591D01*
X91197377Y-72864009D01*
X91186915Y-72668428D01*
X91186873Y-72665819D01*
X91181778Y-72517897D01*
X91170193Y-72416523D01*
X91148942Y-72344842D01*
X91114849Y-72285994D01*
X91047546Y-72201895D01*
X90883059Y-72062121D01*
X90691679Y-71979915D01*
X90471500Y-71954294D01*
X90324127Y-71955763D01*
X89371555Y-71955763D01*
X89369774Y-71932628D01*
X89301926Y-71789931D01*
X89176824Y-71659567D01*
X89035395Y-71562088D01*
X88858981Y-71486117D01*
X88641090Y-71434629D01*
X88568771Y-71423164D01*
X88451433Y-71413401D01*
X88344050Y-71422797D01*
X88212179Y-71452810D01*
X87944536Y-71554757D01*
X87708495Y-71710197D01*
X87507973Y-71915337D01*
X87346605Y-72166456D01*
X87228026Y-72459835D01*
X87218337Y-72493791D01*
X87194514Y-72603100D01*
X87184980Y-72690889D01*
X87179353Y-72752633D01*
X87157212Y-72776715D01*
X87120185Y-72741212D01*
X87070309Y-72646906D01*
X87066962Y-72639361D01*
X87016904Y-72455114D01*
X87026549Y-72265853D01*
X87096578Y-72069628D01*
X87227677Y-71864489D01*
X87420529Y-71648485D01*
X87610349Y-71485617D01*
X87896802Y-71308143D01*
X88216825Y-71174852D01*
X88559992Y-71089864D01*
X88915878Y-71057302D01*
X88940930Y-71056857D01*
X89042622Y-71051775D01*
X89087860Y-71043279D01*
X89082633Y-71032807D01*
X89032929Y-71021797D01*
X88944740Y-71011687D01*
X88824052Y-71003914D01*
X88676857Y-70999916D01*
X88555618Y-71001010D01*
X88250971Y-71029919D01*
X87966777Y-71100959D01*
X87678957Y-71219428D01*
X87628383Y-71245113D01*
X87423403Y-71369672D01*
X87214826Y-71523966D01*
X87023957Y-71691221D01*
X86872105Y-71854663D01*
X86850513Y-71882282D01*
X86725020Y-72085633D01*
X86652414Y-72290269D01*
X86631628Y-72488707D01*
X85586880Y-72488707D01*
X85682647Y-72313866D01*
X85862124Y-72092013D01*
X86101350Y-71867137D01*
X86402019Y-71636384D01*
X86409512Y-71631096D01*
X86927860Y-71302101D01*
X87462706Y-71034387D01*
X88015588Y-70827281D01*
X88588045Y-70680111D01*
X88676857Y-70657092D01*
X88734417Y-70642173D01*
X88872449Y-70575911D01*
X88973442Y-70479094D01*
X89051622Y-70341325D01*
X89065195Y-70311147D01*
X89240134Y-69993051D01*
X89449521Y-69725155D01*
X89690193Y-69509397D01*
X89733594Y-69483291D01*
X89958988Y-69347716D01*
X90252744Y-69242050D01*
X90471500Y-69208975D01*
X90568298Y-69194340D01*
X90902489Y-69206522D01*
G37*
G36*
X84688971Y-80656895D02*
G01*
X84737680Y-80685678D01*
X84826822Y-80745351D01*
X84948400Y-80830353D01*
X85094417Y-80935120D01*
X85256874Y-81054092D01*
X85313849Y-81096215D01*
X85589082Y-81299684D01*
X85819079Y-81469659D01*
X86008895Y-81609864D01*
X86163586Y-81724021D01*
X86288207Y-81815850D01*
X86387813Y-81889076D01*
X86467460Y-81947419D01*
X86532203Y-81994602D01*
X86587098Y-82034346D01*
X86637200Y-82070375D01*
X86718082Y-82134194D01*
X86770245Y-82187259D01*
X86780613Y-82216747D01*
X86774840Y-82220732D01*
X86721208Y-82246965D01*
X86623214Y-82289645D01*
X86492432Y-82343834D01*
X86340438Y-82404590D01*
X86167278Y-82472814D01*
X86013818Y-82533852D01*
X85901156Y-82579631D01*
X85819287Y-82614301D01*
X85758207Y-82642010D01*
X85707911Y-82666907D01*
X85670475Y-82681755D01*
X85633635Y-82681865D01*
X85635102Y-82666332D01*
X85658535Y-82604003D01*
X85702794Y-82506507D01*
X85762289Y-82386670D01*
X85801221Y-82308581D01*
X85851400Y-82198244D01*
X85882309Y-82116809D01*
X85888406Y-82077850D01*
X85878368Y-82067543D01*
X85822341Y-82031268D01*
X85738953Y-81989102D01*
X85703000Y-81973684D01*
X85570623Y-81935695D01*
X85437405Y-81932502D01*
X85292017Y-81966394D01*
X85123127Y-82039658D01*
X84919402Y-82154582D01*
X84736367Y-82267388D01*
X84468864Y-82440718D01*
X84253451Y-82592975D01*
X84086175Y-82727016D01*
X83963079Y-82845700D01*
X83881821Y-82938878D01*
X83833560Y-83010900D01*
X83811851Y-83077863D01*
X83806812Y-83159621D01*
X83807835Y-83205511D01*
X83829467Y-83331554D01*
X83885280Y-83416996D01*
X83983281Y-83476203D01*
X84032641Y-83494191D01*
X84099626Y-83505050D01*
X84183829Y-83499063D01*
X84307378Y-83476232D01*
X84339216Y-83469863D01*
X84486822Y-83443818D01*
X84658490Y-83417414D01*
X84823268Y-83395496D01*
X84871274Y-83389280D01*
X85033689Y-83362670D01*
X85188551Y-83330118D01*
X85307881Y-83297292D01*
X85426146Y-83252253D01*
X85591192Y-83180756D01*
X85775229Y-83094864D01*
X85959345Y-83003694D01*
X86124627Y-82916366D01*
X86252163Y-82841998D01*
X86299820Y-82812957D01*
X86374674Y-82772476D01*
X86417331Y-82756589D01*
X86434859Y-82764025D01*
X86463602Y-82810115D01*
X86476345Y-82870435D01*
X86463359Y-82912112D01*
X86421772Y-82942310D01*
X86059618Y-83177486D01*
X85668338Y-83387446D01*
X85263851Y-83565104D01*
X84862080Y-83703376D01*
X84478947Y-83795176D01*
X84251928Y-83831705D01*
X83988037Y-83858765D01*
X83772384Y-83858953D01*
X83599207Y-83831746D01*
X83462749Y-83776618D01*
X83357249Y-83693046D01*
X83344985Y-83679580D01*
X83311145Y-83631609D01*
X83291954Y-83572641D01*
X83283547Y-83485120D01*
X83282060Y-83351489D01*
X83282381Y-83326521D01*
X83313965Y-83033211D01*
X83394627Y-82711958D01*
X83520992Y-82369940D01*
X83689690Y-82014334D01*
X83897348Y-81652319D01*
X84140593Y-81291072D01*
X84416055Y-80937772D01*
X84504073Y-80835160D01*
X84588411Y-80742180D01*
X84651245Y-80678867D01*
X84683223Y-80655118D01*
X84688971Y-80656895D01*
G37*
G36*
X83693894Y-74385905D02*
G01*
X83713120Y-74400152D01*
X83731509Y-74445568D01*
X83741593Y-74531182D01*
X83745511Y-74668701D01*
X83745927Y-74702517D01*
X83749355Y-74830879D01*
X83754891Y-74935493D01*
X83761554Y-74996363D01*
X83765975Y-75028877D01*
X83774609Y-75119870D01*
X83785372Y-75253704D01*
X83797316Y-75418376D01*
X83809489Y-75601884D01*
X83814851Y-75686471D01*
X83829183Y-75912228D01*
X83843831Y-76142574D01*
X83857348Y-76354776D01*
X83868289Y-76526100D01*
X83881078Y-76726292D01*
X83890775Y-76887832D01*
X83895879Y-77001760D01*
X83895995Y-77076369D01*
X83890729Y-77119957D01*
X83879685Y-77140820D01*
X83862467Y-77147254D01*
X83838681Y-77147555D01*
X83793423Y-77134073D01*
X83775001Y-77075849D01*
X83774706Y-77064978D01*
X83771288Y-76995684D01*
X83764385Y-76872702D01*
X83754426Y-76703185D01*
X83741840Y-76494288D01*
X83727056Y-76253165D01*
X83710504Y-75986972D01*
X83692614Y-75702862D01*
X83685044Y-75582138D01*
X83668478Y-75308279D01*
X83654134Y-75057377D01*
X83642345Y-74836207D01*
X83633446Y-74651542D01*
X83627773Y-74510154D01*
X83625660Y-74418818D01*
X83627441Y-74384308D01*
X83641928Y-74378329D01*
X83693894Y-74385905D01*
G37*
G36*
X81713971Y-80368039D02*
G01*
X81750553Y-80401241D01*
X81801035Y-80464797D01*
X81801048Y-80464815D01*
X81845042Y-80536865D01*
X81853590Y-80598168D01*
X81831508Y-80683235D01*
X81814002Y-80742498D01*
X81811047Y-80800041D01*
X81835649Y-80858829D01*
X81893660Y-80943346D01*
X81917674Y-80975710D01*
X81978955Y-81044574D01*
X82036286Y-81075977D01*
X82110606Y-81083440D01*
X82176396Y-81088647D01*
X82240241Y-81120172D01*
X82301100Y-81194493D01*
X82376409Y-81305546D01*
X82159427Y-81361545D01*
X82080774Y-81381657D01*
X81902563Y-81426138D01*
X81717727Y-81471051D01*
X81537675Y-81513745D01*
X81373816Y-81551567D01*
X81237561Y-81581866D01*
X81140318Y-81601989D01*
X81093497Y-81609287D01*
X81056462Y-81594373D01*
X81008080Y-81542968D01*
X81001752Y-81532201D01*
X80989524Y-81492981D01*
X80999198Y-81444751D01*
X81035708Y-81373144D01*
X81103989Y-81263795D01*
X81117054Y-81243587D01*
X81454579Y-81243587D01*
X81459222Y-81245412D01*
X81507148Y-81240559D01*
X81585534Y-81220470D01*
X81608570Y-81213036D01*
X81675868Y-81185906D01*
X81702455Y-81165734D01*
X81702334Y-81164071D01*
X81682162Y-81112756D01*
X81643608Y-81059925D01*
X81608402Y-81035636D01*
X81588068Y-81046451D01*
X81543822Y-81091996D01*
X81496459Y-81154049D01*
X81461528Y-81211586D01*
X81454579Y-81243587D01*
X81117054Y-81243587D01*
X81239688Y-81053913D01*
X81385296Y-80830195D01*
X81500984Y-80654562D01*
X81588986Y-80523701D01*
X81608402Y-80495951D01*
X81651537Y-80434300D01*
X81690870Y-80383048D01*
X81709221Y-80366633D01*
X81713971Y-80368039D01*
G37*
G36*
X81306275Y-79633649D02*
G01*
X81344133Y-79660333D01*
X81389782Y-79721075D01*
X81399003Y-79736408D01*
X81433347Y-79802402D01*
X81433263Y-79847379D01*
X81391841Y-79888990D01*
X81302169Y-79944889D01*
X81217701Y-79994725D01*
X81130795Y-80049789D01*
X81087305Y-80093667D01*
X81081452Y-80140893D01*
X81107456Y-80205997D01*
X81159537Y-80303512D01*
X81265870Y-80503013D01*
X81189854Y-80561464D01*
X81167529Y-80577901D01*
X81098037Y-80612510D01*
X81039602Y-80602882D01*
X80981220Y-80543817D01*
X80911885Y-80430115D01*
X80910672Y-80427912D01*
X80854599Y-80332613D01*
X80807902Y-80264754D01*
X80780581Y-80238898D01*
X80742548Y-80255097D01*
X80682052Y-80297481D01*
X80609704Y-80356065D01*
X80742855Y-80597275D01*
X80876006Y-80838485D01*
X80762192Y-80908826D01*
X80733015Y-80926310D01*
X80669402Y-80959748D01*
X80640181Y-80967564D01*
X80637737Y-80963709D01*
X80611391Y-80919427D01*
X80563587Y-80837849D01*
X80502480Y-80732875D01*
X80414510Y-80578909D01*
X80329822Y-80422134D01*
X80276977Y-80310653D01*
X80253957Y-80240109D01*
X80258746Y-80206143D01*
X80259509Y-80205448D01*
X80301105Y-80177823D01*
X80385931Y-80127628D01*
X80503021Y-80060865D01*
X80641412Y-79983534D01*
X80790139Y-79901633D01*
X80938237Y-79821164D01*
X81074742Y-79748125D01*
X81188690Y-79688517D01*
X81269116Y-79648339D01*
X81305055Y-79633592D01*
X81306275Y-79633649D01*
G37*
G36*
X80485223Y-70213376D02*
G01*
X80530210Y-70215326D01*
X80559390Y-70216714D01*
X80717368Y-70224227D01*
X80895902Y-70233839D01*
X81047457Y-70243126D01*
X81153675Y-70251054D01*
X81248308Y-70262102D01*
X81323201Y-70276548D01*
X81351329Y-70290180D01*
X81350164Y-70295851D01*
X81330761Y-70346331D01*
X81295463Y-70423088D01*
X81271002Y-70468023D01*
X81216421Y-70523818D01*
X81136259Y-70544722D01*
X81095691Y-70550792D01*
X81043957Y-70574742D01*
X80999419Y-70628654D01*
X80946836Y-70727214D01*
X80862282Y-70899615D01*
X80937360Y-70979533D01*
X80969390Y-71014631D01*
X80994456Y-71057523D01*
X80988843Y-71106460D01*
X80954722Y-71187442D01*
X80937928Y-71222901D01*
X80900768Y-71289152D01*
X80876511Y-71315435D01*
X80856969Y-71301915D01*
X80800800Y-71250413D01*
X80718816Y-71169397D01*
X80620929Y-71068446D01*
X80574557Y-71019810D01*
X80434913Y-70874029D01*
X80289241Y-70722731D01*
X80162461Y-70591821D01*
X80139259Y-70567938D01*
X80062158Y-70486827D01*
X80445804Y-70486827D01*
X80547746Y-70588769D01*
X80579186Y-70618926D01*
X80634817Y-70664782D01*
X80662684Y-70676410D01*
X80666294Y-70671998D01*
X80690362Y-70617055D01*
X80701988Y-70550943D01*
X80694573Y-70508424D01*
X80691443Y-70506006D01*
X80640811Y-70492385D01*
X80559390Y-70486827D01*
X80445804Y-70486827D01*
X80062158Y-70486827D01*
X80046220Y-70470060D01*
X79990254Y-70403532D01*
X79964633Y-70356932D01*
X79962631Y-70318836D01*
X79977517Y-70277821D01*
X80015956Y-70193456D01*
X80485223Y-70213376D01*
G37*
G36*
X81029019Y-79092306D02*
G01*
X81070220Y-79126182D01*
X81111147Y-79195171D01*
X81119571Y-79214429D01*
X81148313Y-79289081D01*
X81145450Y-79334694D01*
X81102320Y-79370051D01*
X81010262Y-79413937D01*
X80781950Y-79517886D01*
X80553784Y-79621486D01*
X80374280Y-79702564D01*
X80238371Y-79763367D01*
X80140986Y-79806140D01*
X80077056Y-79833133D01*
X80041512Y-79846592D01*
X80029283Y-79848763D01*
X80025893Y-79844248D01*
X79997260Y-79793377D01*
X79961744Y-79719185D01*
X79931512Y-79648257D01*
X79918731Y-79607182D01*
X79944644Y-79584493D01*
X80018027Y-79542428D01*
X80127417Y-79487415D01*
X80261329Y-79425546D01*
X80376336Y-79374091D01*
X80537660Y-79300967D01*
X80683661Y-79233800D01*
X80792823Y-79182433D01*
X80888477Y-79138923D01*
X80974823Y-79104705D01*
X81023786Y-79091595D01*
X81029019Y-79092306D01*
G37*
G36*
X80748092Y-78359119D02*
G01*
X80774484Y-78392572D01*
X80803214Y-78462173D01*
X80805599Y-78469647D01*
X80828491Y-78545703D01*
X80839694Y-78590783D01*
X80835558Y-78601321D01*
X80782195Y-78637466D01*
X80668155Y-78688581D01*
X80494260Y-78754321D01*
X80261329Y-78834341D01*
X80166952Y-78866871D01*
X80055247Y-78909150D01*
X79978885Y-78942859D01*
X79950601Y-78962739D01*
X79952467Y-78974996D01*
X79969454Y-79036219D01*
X79998405Y-79123465D01*
X80012304Y-79163270D01*
X80036595Y-79235493D01*
X80046209Y-79268413D01*
X80032377Y-79282094D01*
X79976163Y-79303628D01*
X79900278Y-79322050D01*
X79830512Y-79331493D01*
X79792660Y-79326089D01*
X79782196Y-79306799D01*
X79751965Y-79236863D01*
X79708887Y-79129909D01*
X79658171Y-78999683D01*
X79605025Y-78859930D01*
X79554657Y-78724397D01*
X79512276Y-78606830D01*
X79483089Y-78520975D01*
X79472306Y-78480579D01*
X79474509Y-78475772D01*
X79514700Y-78450197D01*
X79589408Y-78420584D01*
X79665838Y-78399493D01*
X79712954Y-78404315D01*
X79748756Y-78440139D01*
X79773348Y-78482796D01*
X79791741Y-78547938D01*
X79792613Y-78572947D01*
X79802444Y-78618229D01*
X79829905Y-78642453D01*
X79883317Y-78645129D01*
X79971005Y-78625763D01*
X80101290Y-78583866D01*
X80282495Y-78518945D01*
X80350572Y-78494155D01*
X80499613Y-78440688D01*
X80622601Y-78397677D01*
X80708297Y-78369015D01*
X80745461Y-78358597D01*
X80748092Y-78359119D01*
G37*
G36*
X79667553Y-71148097D02*
G01*
X79757151Y-71170158D01*
X79807188Y-71183899D01*
X79887387Y-71205922D01*
X80048472Y-71252705D01*
X80230616Y-71307824D01*
X80243545Y-71311814D01*
X80422894Y-71367922D01*
X80578682Y-71418038D01*
X80701550Y-71459044D01*
X80782136Y-71487819D01*
X80811078Y-71501244D01*
X80810892Y-71502948D01*
X80800201Y-71545744D01*
X80776328Y-71630940D01*
X80743821Y-71742237D01*
X80708262Y-71850873D01*
X80617941Y-72049243D01*
X80511925Y-72187320D01*
X80389385Y-72266333D01*
X80348960Y-72280489D01*
X80290108Y-72292296D01*
X80222852Y-72289659D01*
X80129664Y-72271219D01*
X79993014Y-72235619D01*
X79913974Y-72213137D01*
X79778163Y-72165714D01*
X79678531Y-72113643D01*
X79596510Y-72048145D01*
X79520642Y-71964847D01*
X79468985Y-71867752D01*
X79452810Y-71755354D01*
X79459670Y-71700389D01*
X79743564Y-71700389D01*
X79746028Y-71769735D01*
X79760701Y-71794249D01*
X79829086Y-71848274D01*
X79935091Y-71901415D01*
X80061806Y-71945928D01*
X80192319Y-71974071D01*
X80193225Y-71974195D01*
X80282594Y-71980970D01*
X80335074Y-71964438D01*
X80375402Y-71916871D01*
X80410478Y-71851416D01*
X80444434Y-71759380D01*
X80449077Y-71738270D01*
X80448344Y-71706860D01*
X80426755Y-71681232D01*
X80374212Y-71655533D01*
X80280614Y-71623908D01*
X80135865Y-71580502D01*
X79807188Y-71483526D01*
X79767029Y-71596448D01*
X79762632Y-71609533D01*
X79743564Y-71700389D01*
X79459670Y-71700389D01*
X79470442Y-71614089D01*
X79520206Y-71430395D01*
X79538927Y-71371656D01*
X79577621Y-71258530D01*
X79609089Y-71177330D01*
X79627875Y-71142644D01*
X79628383Y-71142420D01*
X79667553Y-71148097D01*
G37*
G36*
X80369006Y-76887038D02*
G01*
X80371509Y-76890364D01*
X80390645Y-76940956D01*
X80409146Y-77021960D01*
X80429249Y-77135387D01*
X80094316Y-77209729D01*
X79982921Y-77235874D01*
X79867240Y-77266747D01*
X79788474Y-77292345D01*
X79759384Y-77308890D01*
X79759738Y-77311017D01*
X79792716Y-77333946D01*
X79862960Y-77355019D01*
X79912970Y-77365622D01*
X80031005Y-77392124D01*
X80162439Y-77423006D01*
X80292162Y-77454559D01*
X80405067Y-77483080D01*
X80486042Y-77504859D01*
X80519979Y-77516192D01*
X80521076Y-77517492D01*
X80536590Y-77557927D01*
X80556554Y-77631948D01*
X80575297Y-77719699D01*
X80581243Y-77796528D01*
X80562417Y-77837512D01*
X80516285Y-77856788D01*
X80485222Y-77863707D01*
X80395482Y-77884046D01*
X80264003Y-77914037D01*
X80102895Y-77950918D01*
X79924268Y-77991924D01*
X79800825Y-78019390D01*
X79638283Y-78052430D01*
X79506937Y-78075304D01*
X79417012Y-78086295D01*
X79378733Y-78083681D01*
X79378094Y-78082951D01*
X79354923Y-78032788D01*
X79334349Y-77953222D01*
X79333073Y-77946485D01*
X79326427Y-77906187D01*
X79330118Y-77875912D01*
X79352787Y-77851659D01*
X79403076Y-77829427D01*
X79489627Y-77805218D01*
X79621082Y-77775030D01*
X79806082Y-77734864D01*
X79910013Y-77711613D01*
X79978084Y-77692083D01*
X80002433Y-77674155D01*
X79979345Y-77654816D01*
X79905104Y-77631053D01*
X79775993Y-77599850D01*
X79588299Y-77558193D01*
X79435255Y-77523729D01*
X79328518Y-77493646D01*
X79260642Y-77460263D01*
X79219802Y-77414937D01*
X79194174Y-77349027D01*
X79171932Y-77253890D01*
X79166398Y-77230358D01*
X79160451Y-77198724D01*
X79164887Y-77173476D01*
X79187077Y-77151579D01*
X79234393Y-77130000D01*
X79314207Y-77105706D01*
X79433891Y-77075660D01*
X79600816Y-77036831D01*
X79822353Y-76986182D01*
X79958329Y-76955911D01*
X80116931Y-76923080D01*
X80245298Y-76899379D01*
X80332850Y-76886725D01*
X80369006Y-76887038D01*
G37*
G36*
X79315925Y-72466093D02*
G01*
X79409334Y-72480035D01*
X79544434Y-72502093D01*
X79710101Y-72530444D01*
X79895209Y-72563266D01*
X80461273Y-72665299D01*
X80440772Y-72779137D01*
X80438899Y-72789661D01*
X80425468Y-72861836D01*
X80407866Y-72907330D01*
X80374310Y-72929667D01*
X80313015Y-72932369D01*
X80212198Y-72918960D01*
X80060073Y-72892964D01*
X79930524Y-72870780D01*
X79897945Y-73050518D01*
X79886012Y-73128480D01*
X79880001Y-73207365D01*
X79885889Y-73242939D01*
X79885995Y-73243003D01*
X79926104Y-73254857D01*
X80010673Y-73273621D01*
X80121538Y-73295261D01*
X80336663Y-73334900D01*
X80315274Y-73464502D01*
X80310112Y-73494424D01*
X80294736Y-73569771D01*
X80283599Y-73605375D01*
X80283183Y-73605613D01*
X80245923Y-73602862D01*
X80156543Y-73590055D01*
X80024851Y-73568774D01*
X79860652Y-73540596D01*
X79673752Y-73507104D01*
X79074189Y-73397564D01*
X79081914Y-73274584D01*
X79083566Y-73253467D01*
X79096311Y-73172736D01*
X79113783Y-73128140D01*
X79132979Y-73121949D01*
X79201807Y-73123066D01*
X79297276Y-73137713D01*
X79338372Y-73146224D01*
X79457716Y-73168521D01*
X79532188Y-73171410D01*
X79575711Y-73149434D01*
X79602208Y-73097138D01*
X79625602Y-73009065D01*
X79641495Y-72938533D01*
X79654604Y-72860674D01*
X79654246Y-72825018D01*
X79627885Y-72815445D01*
X79553831Y-72798042D01*
X79451271Y-72778298D01*
X79365208Y-72761376D01*
X79272982Y-72738674D01*
X79221353Y-72720011D01*
X79204208Y-72699217D01*
X79194224Y-72634310D01*
X79206689Y-72556069D01*
X79236093Y-72490094D01*
X79276921Y-72461985D01*
X79315925Y-72466093D01*
G37*
G36*
X80185606Y-75550514D02*
G01*
X80201012Y-75604156D01*
X80218302Y-75687135D01*
X80218330Y-75687293D01*
X80226790Y-75768419D01*
X80205027Y-75817157D01*
X80140151Y-75862417D01*
X80080179Y-75903378D01*
X80053492Y-75952627D01*
X80059131Y-76032122D01*
X80059594Y-76034979D01*
X80072276Y-76133371D01*
X80077728Y-76214944D01*
X80077966Y-76221932D01*
X80105906Y-76282887D01*
X80187413Y-76331906D01*
X80230846Y-76352448D01*
X80286978Y-76403142D01*
X80309521Y-76483714D01*
X80316348Y-76555249D01*
X80310047Y-76620805D01*
X80275284Y-76647999D01*
X80201486Y-76642621D01*
X80078079Y-76610460D01*
X80059620Y-76605223D01*
X79970837Y-76580593D01*
X79840052Y-76544759D01*
X79681749Y-76501679D01*
X79510414Y-76455314D01*
X79373385Y-76417158D01*
X79189736Y-76358853D01*
X79066170Y-76305509D01*
X79000965Y-76253462D01*
X78992399Y-76199049D01*
X79014196Y-76170624D01*
X79547942Y-76170624D01*
X79581139Y-76190900D01*
X79671743Y-76217437D01*
X79707556Y-76227049D01*
X79766018Y-76236538D01*
X79787935Y-76216222D01*
X79791253Y-76157031D01*
X79788984Y-76114841D01*
X79768779Y-76072802D01*
X79718544Y-76073523D01*
X79627361Y-76114146D01*
X79567902Y-76146717D01*
X79547942Y-76170624D01*
X79014196Y-76170624D01*
X79038749Y-76138606D01*
X79138293Y-76068469D01*
X79289308Y-75984975D01*
X79337224Y-75960082D01*
X79517005Y-75866256D01*
X79708258Y-75765939D01*
X79768779Y-75734019D01*
X79876923Y-75676983D01*
X79969515Y-75629540D01*
X80076181Y-75579538D01*
X80151581Y-75549935D01*
X80183465Y-75545966D01*
X80185606Y-75550514D01*
G37*
G36*
X79498875Y-73854795D02*
G01*
X79612511Y-73929992D01*
X79696353Y-74052243D01*
X79741779Y-74216365D01*
X79751566Y-74290025D01*
X79770239Y-74400538D01*
X79790746Y-74464945D01*
X79817777Y-74494982D01*
X79856019Y-74502386D01*
X79865170Y-74501893D01*
X79926150Y-74467268D01*
X79966188Y-74389308D01*
X79982555Y-74283840D01*
X79972523Y-74166693D01*
X79933364Y-74053694D01*
X79914292Y-74014198D01*
X79900141Y-73950472D01*
X79931859Y-73906273D01*
X80017339Y-73863753D01*
X80041967Y-73854222D01*
X80100381Y-73843950D01*
X80144019Y-73868032D01*
X80182892Y-73935644D01*
X80227010Y-74055966D01*
X80254806Y-74167099D01*
X80260153Y-74360596D01*
X80211850Y-74539681D01*
X80112291Y-74691095D01*
X80096783Y-74707346D01*
X80033230Y-74759936D01*
X79962162Y-74783670D01*
X79855689Y-74789211D01*
X79777343Y-74784894D01*
X79661930Y-74751269D01*
X79577929Y-74677824D01*
X79518161Y-74556843D01*
X79475442Y-74380609D01*
X79470564Y-74353984D01*
X79437652Y-74219761D01*
X79399351Y-74144560D01*
X79352386Y-74124317D01*
X79293480Y-74154971D01*
X79269072Y-74184624D01*
X79254227Y-74249472D01*
X79259361Y-74357721D01*
X79265591Y-74411122D01*
X79281101Y-74513314D01*
X79296341Y-74582391D01*
X79301886Y-74609836D01*
X79283022Y-74650429D01*
X79213797Y-74685284D01*
X79149148Y-74703712D01*
X79080625Y-74694626D01*
X79031497Y-74636866D01*
X78991459Y-74522905D01*
X78972445Y-74419377D01*
X78974924Y-74250769D01*
X79014295Y-74094391D01*
X79085802Y-73966029D01*
X79184689Y-73881470D01*
X79216714Y-73866300D01*
X79364068Y-73831837D01*
X79498875Y-73854795D01*
G37*
%TD*%
M02*
