%TF.GenerationSoftware,KiCad,Pcbnew,8.0.4*%
%TF.CreationDate,2024-12-14T22:44:59+01:00*%
%TF.ProjectId,SpicyLightFX3,53706963-794c-4696-9768-744658332e6b,rev?*%
%TF.SameCoordinates,Original*%
%TF.FileFunction,Copper,L3,Inr*%
%TF.FilePolarity,Positive*%
%FSLAX46Y46*%
G04 Gerber Fmt 4.6, Leading zero omitted, Abs format (unit mm)*
G04 Created by KiCad (PCBNEW 8.0.4) date 2024-12-14 22:44:59*
%MOMM*%
%LPD*%
G01*
G04 APERTURE LIST*
%TA.AperFunction,ComponentPad*%
%ADD10R,1.700000X1.700000*%
%TD*%
%TA.AperFunction,ComponentPad*%
%ADD11O,1.700000X1.700000*%
%TD*%
%TA.AperFunction,ComponentPad*%
%ADD12C,1.368000*%
%TD*%
%TA.AperFunction,ComponentPad*%
%ADD13C,3.836000*%
%TD*%
%TA.AperFunction,ViaPad*%
%ADD14C,0.600000*%
%TD*%
G04 APERTURE END LIST*
D10*
%TO.N,unconnected-(J2-V3P3-Pad1)*%
%TO.C,J2*%
X110870000Y-50038000D03*
D11*
%TO.N,unconnected-(J2-V1P2-Pad2)*%
X113410000Y-50038000D03*
%TO.N,+5V*%
X110870000Y-52578000D03*
X113410000Y-52578000D03*
%TO.N,unconnected-(J2-KEY-Pad5)*%
X110870000Y-55118000D03*
%TO.N,GND*%
X113410000Y-55118000D03*
%TO.N,unconnected-(J2-CTL12-Pad7)*%
X110870000Y-57658000D03*
%TO.N,/OUT15*%
X113410000Y-57658000D03*
%TO.N,unconnected-(J2-CTL11-Pad9)*%
X110870000Y-60198000D03*
%TO.N,/OUT14*%
X113410000Y-60198000D03*
%TO.N,unconnected-(J2-CTL10-Pad11)*%
X110870000Y-62738000D03*
%TO.N,/OUT13*%
X113410000Y-62738000D03*
%TO.N,unconnected-(J2-CTL9-Pad13)*%
X110870000Y-65278000D03*
%TO.N,/OUT12*%
X113410000Y-65278000D03*
%TO.N,unconnected-(J2-CTL8-Pad15)*%
X110870000Y-67818000D03*
%TO.N,/OUT11*%
X113410000Y-67818000D03*
%TO.N,/DATA_VALID*%
X110870000Y-70358000D03*
%TO.N,/OUT10*%
X113410000Y-70358000D03*
%TO.N,/HSYNC*%
X110870000Y-72898000D03*
%TO.N,/OUT9*%
X113410000Y-72898000D03*
%TO.N,/VSYNC*%
X110870000Y-75438000D03*
%TO.N,/OUT8*%
X113410000Y-75438000D03*
%TO.N,unconnected-(J2-CTL4_SW-Pad23)*%
X110870000Y-77978000D03*
%TO.N,/OUT7*%
X113410000Y-77978000D03*
%TO.N,unconnected-(J2-CTL3-Pad25)*%
X110870000Y-80518000D03*
%TO.N,/OUT6*%
X113410000Y-80518000D03*
%TO.N,unconnected-(J2-CTL2-Pad27)*%
X110870000Y-83058000D03*
%TO.N,/OUT5*%
X113410000Y-83058000D03*
%TO.N,unconnected-(J2-CTL1-Pad29)*%
X110870000Y-85598000D03*
%TO.N,/OUT4*%
X113410000Y-85598000D03*
%TO.N,unconnected-(J2-CTL0-Pad31)*%
X110870000Y-88138000D03*
%TO.N,/OUT3*%
X113410000Y-88138000D03*
%TO.N,GND*%
X110870000Y-90678000D03*
%TO.N,/OUT2*%
X113410000Y-90678000D03*
%TO.N,/PIXCLK*%
X110870000Y-93218000D03*
%TO.N,/OUT1*%
X113410000Y-93218000D03*
%TO.N,GND*%
X110870000Y-95758000D03*
%TO.N,/OUT0*%
X113410000Y-95758000D03*
%TO.N,unconnected-(J2-I2C_SDA_FX3-Pad39)*%
X110870000Y-98298000D03*
%TO.N,unconnected-(J2-I2C_SCL_FX3-Pad40)*%
X113410000Y-98298000D03*
%TD*%
D10*
%TO.N,unconnected-(J1-V3P3-Pad1)*%
%TO.C,J1*%
X69342000Y-50038000D03*
D11*
%TO.N,unconnected-(J1-V1P2-Pad2)*%
X71882000Y-50038000D03*
%TO.N,unconnected-(J1-INT_N_CTL15-Pad3)*%
X69342000Y-52578000D03*
%TO.N,unconnected-(J1-VIO-Pad4)*%
X71882000Y-52578000D03*
%TO.N,unconnected-(J1-KEY-Pad5)*%
X69342000Y-55118000D03*
%TO.N,unconnected-(J1-DQ31-Pad6)*%
X71882000Y-55118000D03*
%TO.N,unconnected-(J1-PMODE_2-Pad7)*%
X69342000Y-57658000D03*
%TO.N,unconnected-(J1-DQ30-Pad8)*%
X71882000Y-57658000D03*
%TO.N,unconnected-(J1-PMODE_1-Pad9)*%
X69342000Y-60198000D03*
%TO.N,unconnected-(J1-DQ29-Pad10)*%
X71882000Y-60198000D03*
%TO.N,unconnected-(J1-PMODE_0-Pad11)*%
X69342000Y-62738000D03*
%TO.N,unconnected-(J1-DQ28-Pad12)*%
X71882000Y-62738000D03*
%TO.N,GND*%
X69342000Y-65278000D03*
%TO.N,unconnected-(J1-GPIO45-Pad14)*%
X71882000Y-65278000D03*
%TO.N,GND*%
X69342000Y-67818000D03*
%TO.N,unconnected-(J1-DQ27-Pad16)*%
X71882000Y-67818000D03*
%TO.N,GND*%
X69342000Y-70358000D03*
%TO.N,unconnected-(J1-DQ26-Pad18)*%
X71882000Y-70358000D03*
%TO.N,unconnected-(J1-SPI-MOSI_UART-RX-Pad19)*%
X69342000Y-72898000D03*
%TO.N,unconnected-(J1-DQ25-Pad20)*%
X71882000Y-72898000D03*
%TO.N,unconnected-(J1-SPI-MISO_UART_TX-Pad21)*%
X69342000Y-75438000D03*
%TO.N,unconnected-(J1-DQ24-Pad22)*%
X71882000Y-75438000D03*
%TO.N,unconnected-(J1-SPI-SSN_UART-CTS-Pad23)*%
X69342000Y-77978000D03*
%TO.N,unconnected-(J1-DQ23-Pad24)*%
X71882000Y-77978000D03*
%TO.N,GND*%
X69342000Y-80518000D03*
%TO.N,unconnected-(J1-DQ22-Pad26)*%
X71882000Y-80518000D03*
%TO.N,unconnected-(J1-SPI-SCK_UART-RTS-Pad27)*%
X69342000Y-83058000D03*
%TO.N,unconnected-(J1-DQ21-Pad28)*%
X71882000Y-83058000D03*
%TO.N,GND*%
X69342000Y-85598000D03*
%TO.N,unconnected-(J1-DQ20-Pad30)*%
X71882000Y-85598000D03*
%TO.N,unconnected-(J1-I2S_WS-Pad31)*%
X69342000Y-88138000D03*
%TO.N,unconnected-(J1-DQ19-Pad32)*%
X71882000Y-88138000D03*
%TO.N,unconnected-(J1-I2S_SD-Pad33)*%
X69342000Y-90678000D03*
%TO.N,unconnected-(J1-DQ18-Pad34)*%
X71882000Y-90678000D03*
%TO.N,unconnected-(J1-GPIO57_I2S-MCLK_VIO3_SW-Pad35)*%
X69342000Y-93218000D03*
%TO.N,unconnected-(J1-DQ17-Pad36)*%
X71882000Y-93218000D03*
%TO.N,unconnected-(J1-I2S_CLK-Pad37)*%
X69342000Y-95758000D03*
%TO.N,unconnected-(J1-DQ16-Pad38)*%
X71882000Y-95758000D03*
%TO.N,GND*%
X69342000Y-98298000D03*
X71882000Y-98298000D03*
%TD*%
D12*
%TO.N,/OUT12-*%
%TO.C,U1*%
X106883200Y-120660000D03*
%TO.N,/OUT13-*%
X105613200Y-122560000D03*
%TO.N,GND*%
X104343200Y-120660000D03*
%TO.N,/OUT14-*%
X103073200Y-122560000D03*
%TO.N,/OUT15-*%
X101803200Y-120660000D03*
%TO.N,/PIXCLK+*%
X100533200Y-122560000D03*
%TO.N,/HSYNC+*%
X99263200Y-120660000D03*
%TO.N,GND*%
X97993200Y-122560000D03*
%TO.N,/VSYNC+*%
X96723200Y-120660000D03*
%TO.N,/DATA_VALID+*%
X95453200Y-122560000D03*
%TO.N,unconnected-(U1-Pad11)*%
X94183200Y-120660000D03*
%TO.N,unconnected-(U1-Pad12)*%
X92913200Y-122560000D03*
%TO.N,/OUT0-*%
X91643200Y-120660000D03*
%TO.N,/OUT1-*%
X90373200Y-122560000D03*
%TO.N,/OUT2-*%
X89103200Y-120660000D03*
%TO.N,/OUT3-*%
X87833200Y-122560000D03*
%TO.N,/OUT4-*%
X86563200Y-120660000D03*
%TO.N,/OUT5-*%
X85293200Y-122560000D03*
%TO.N,GND*%
X84023200Y-120660000D03*
%TO.N,/OUT6-*%
X82753200Y-122560000D03*
%TO.N,/OUT7-*%
X81483200Y-120660000D03*
%TO.N,/OUT8-*%
X80213200Y-122560000D03*
%TO.N,/OUT9-*%
X78943200Y-120660000D03*
%TO.N,/OUT10-*%
X77673200Y-122560000D03*
%TO.N,/OUT11-*%
X76403200Y-120660000D03*
%TO.N,/OUT12+*%
X106883200Y-124460000D03*
%TO.N,/OUT13+*%
X105613200Y-126360000D03*
%TO.N,GND*%
X104343200Y-124460000D03*
%TO.N,/OUT14+*%
X103073200Y-126360000D03*
%TO.N,/OUT15+*%
X101803200Y-124460000D03*
%TO.N,/PIXCLK-*%
X100533200Y-126360000D03*
%TO.N,/HSYNC-*%
X99263200Y-124460000D03*
%TO.N,GND*%
X97993200Y-126360000D03*
%TO.N,/VSYNC-*%
X96723200Y-124460000D03*
%TO.N,/DATA_VALID-*%
X95453200Y-126360000D03*
%TO.N,unconnected-(U1-Pad36)*%
X94183200Y-124460000D03*
%TO.N,unconnected-(U1-Pad37)*%
X92913200Y-126360000D03*
%TO.N,/OUT0+*%
X91643200Y-124460000D03*
%TO.N,/OUT1+*%
X90373200Y-126360000D03*
%TO.N,/OUT2+*%
X89103200Y-124460000D03*
%TO.N,/OUT3+*%
X87833200Y-126360000D03*
%TO.N,/OUT4+*%
X86563200Y-124460000D03*
%TO.N,/OUT5+*%
X85293200Y-126360000D03*
%TO.N,GND*%
X84023200Y-124460000D03*
%TO.N,/OUT6+*%
X82753200Y-126360000D03*
%TO.N,/OUT7+*%
X81483200Y-124460000D03*
%TO.N,/OUT8+*%
X80213200Y-126360000D03*
%TO.N,/OUT9+*%
X78943200Y-124460000D03*
%TO.N,/OUT10+*%
X77673200Y-126360000D03*
%TO.N,/OUT11+*%
X76403200Y-124460000D03*
D13*
%TO.N,Net-(C2-Pad1)*%
X114883200Y-124460000D03*
X68403200Y-124460000D03*
%TD*%
D14*
%TO.N,GND*%
X121600000Y-112100000D03*
X121600000Y-113500000D03*
X121600000Y-114800000D03*
%TO.N,+3V3*%
X103707400Y-54711000D03*
X106592000Y-73688500D03*
X103707400Y-50541000D03*
X82778600Y-50647200D03*
X82270600Y-55219200D03*
X96931600Y-104647200D03*
X82270600Y-57251200D03*
X106874500Y-90805000D03*
X96921400Y-100476000D03*
X85826600Y-46583200D03*
X103707400Y-58891000D03*
X96942500Y-79633000D03*
X96951400Y-83791000D03*
X96941400Y-75471000D03*
X106573400Y-78370000D03*
X96942500Y-87953000D03*
X96940300Y-71329000D03*
X82270600Y-56235200D03*
X96931400Y-96311000D03*
X96926400Y-67208400D03*
X103698100Y-63031000D03*
X96934600Y-113094400D03*
X83286600Y-49123200D03*
X82270600Y-54203200D03*
X96942500Y-92113000D03*
X96932600Y-108827200D03*
X83794600Y-47599200D03*
X106601800Y-68834000D03*
%TO.N,GND*%
X96931600Y-105790200D03*
X106592000Y-74831500D03*
X96942500Y-93256000D03*
X96934600Y-114237400D03*
X106573400Y-79513000D03*
X103707400Y-60034000D03*
X96941400Y-76614000D03*
X81254600Y-47853200D03*
X96921400Y-101619000D03*
X106874500Y-91948000D03*
X103707400Y-51684000D03*
X96942500Y-80776000D03*
X96942500Y-89096000D03*
X84556600Y-50647200D03*
X96931400Y-97454000D03*
X85826600Y-49123200D03*
X108458000Y-56388000D03*
X96951400Y-84934000D03*
X103698100Y-64174000D03*
X98400000Y-91440000D03*
X96950300Y-68322000D03*
X106601800Y-69977000D03*
X108458000Y-52832000D03*
X96932600Y-109970200D03*
X103707400Y-55854000D03*
X96940300Y-72472000D03*
%TO.N,/VSYNC-*%
X101595721Y-80462921D03*
X111087841Y-105729420D03*
%TO.N,/VSYNC+*%
X100994679Y-79861879D03*
X110237841Y-105729420D03*
%TO.N,/DATA_VALID+*%
X102767999Y-69800500D03*
X108083800Y-105714800D03*
%TO.N,/PIXCLK-*%
X105460800Y-95434600D03*
X115791800Y-105765600D03*
%TO.N,/OUT12-*%
X98577400Y-64847500D03*
%TO.N,/PIXCLK+*%
X114941800Y-105765600D03*
X105460800Y-96284600D03*
%TO.N,/OUT8+*%
X79610400Y-108229400D03*
%TO.N,/OUT5+*%
X85297479Y-111205479D03*
%TO.N,/OUT13-*%
X98501200Y-60707500D03*
X104948521Y-118266679D03*
%TO.N,/OUT12+*%
X98577400Y-63997500D03*
%TO.N,/OUT3+*%
X88345479Y-113491479D03*
%TO.N,/OUT8-*%
X80460400Y-108229400D03*
%TO.N,/OUT13+*%
X104347479Y-118867721D03*
X98501200Y-59857500D03*
%TO.N,/OUT15-*%
X98755200Y-52357500D03*
%TO.N,/OUT10+*%
X75673400Y-108178600D03*
%TO.N,/OUT1-*%
X92248521Y-112822521D03*
%TO.N,/OUT5-*%
X85898521Y-111806521D03*
%TO.N,/OUT3-*%
X88946521Y-114092521D03*
%TO.N,/HSYNC-*%
X102814921Y-75738521D03*
X113455000Y-105714800D03*
%TO.N,/OUT10-*%
X76523400Y-108178600D03*
%TO.N,/OUT1+*%
X91647479Y-112221479D03*
%TO.N,/OUT14-*%
X98602800Y-56527500D03*
%TO.N,/HSYNC+*%
X112605000Y-105714800D03*
X102213879Y-75137479D03*
%TO.N,/DATA_VALID-*%
X102767999Y-70650500D03*
X108933800Y-105714800D03*
%TO.N,/OUT15+*%
X98755200Y-51507500D03*
%TO.N,/OUT14+*%
X98602800Y-55677500D03*
%TO.N,+5V*%
X79750000Y-48000000D03*
X79750000Y-50750000D03*
X79750000Y-50000000D03*
%TD*%
%TA.AperFunction,Conductor*%
%TO.N,+3V3*%
G36*
X123902539Y-31000185D02*
G01*
X123948294Y-31052989D01*
X123959500Y-31104500D01*
X123959500Y-128915500D01*
X123939815Y-128982539D01*
X123887011Y-129028294D01*
X123835500Y-129039500D01*
X59044500Y-129039500D01*
X58977461Y-129019815D01*
X58931706Y-128967011D01*
X58920500Y-128915500D01*
X58920500Y-125918592D01*
X61173500Y-125918592D01*
X61173500Y-126081407D01*
X61205259Y-126241073D01*
X61205262Y-126241082D01*
X61267562Y-126391490D01*
X61267563Y-126391492D01*
X61358015Y-126526862D01*
X61358018Y-126526866D01*
X61473133Y-126641981D01*
X61473137Y-126641984D01*
X61608505Y-126732435D01*
X61608506Y-126732435D01*
X61608507Y-126732436D01*
X61608509Y-126732437D01*
X61686342Y-126764676D01*
X61758919Y-126794738D01*
X61758921Y-126794738D01*
X61758926Y-126794740D01*
X61918592Y-126826499D01*
X61918595Y-126826500D01*
X61918597Y-126826500D01*
X62081405Y-126826500D01*
X62081406Y-126826499D01*
X62134629Y-126815912D01*
X62241073Y-126794740D01*
X62241076Y-126794738D01*
X62241081Y-126794738D01*
X62391495Y-126732435D01*
X62526863Y-126641984D01*
X62641984Y-126526863D01*
X62732435Y-126391495D01*
X62794738Y-126241081D01*
X62826500Y-126081403D01*
X62826500Y-125918597D01*
X62826500Y-125918594D01*
X62826499Y-125918592D01*
X62794740Y-125758926D01*
X62794737Y-125758917D01*
X62732437Y-125608509D01*
X62732436Y-125608507D01*
X62676546Y-125524863D01*
X62641984Y-125473137D01*
X62641981Y-125473133D01*
X62526866Y-125358018D01*
X62526862Y-125358015D01*
X62391492Y-125267563D01*
X62391490Y-125267562D01*
X62241082Y-125205262D01*
X62241073Y-125205259D01*
X62081406Y-125173500D01*
X62081403Y-125173500D01*
X61918597Y-125173500D01*
X61918594Y-125173500D01*
X61758926Y-125205259D01*
X61758917Y-125205262D01*
X61608509Y-125267562D01*
X61608507Y-125267563D01*
X61473137Y-125358015D01*
X61473133Y-125358018D01*
X61358018Y-125473133D01*
X61358015Y-125473137D01*
X61267563Y-125608507D01*
X61267562Y-125608509D01*
X61205262Y-125758917D01*
X61205259Y-125758926D01*
X61173500Y-125918592D01*
X58920500Y-125918592D01*
X58920500Y-124459994D01*
X65979918Y-124459994D01*
X65979918Y-124460005D01*
X65999024Y-124763710D01*
X65999026Y-124763718D01*
X66056050Y-125062646D01*
X66105824Y-125215836D01*
X66150089Y-125352071D01*
X66150091Y-125352076D01*
X66279659Y-125627420D01*
X66279661Y-125627423D01*
X66279662Y-125627425D01*
X66363110Y-125758917D01*
X66442726Y-125884372D01*
X66636701Y-126118849D01*
X66858540Y-126327169D01*
X66858550Y-126327177D01*
X67104729Y-126506037D01*
X67104735Y-126506040D01*
X67104741Y-126506045D01*
X67293704Y-126609928D01*
X67371417Y-126652651D01*
X67371425Y-126652655D01*
X67647606Y-126762001D01*
X67654365Y-126764678D01*
X67949122Y-126840359D01*
X68012459Y-126848360D01*
X68251029Y-126878499D01*
X68251038Y-126878499D01*
X68251041Y-126878500D01*
X68251043Y-126878500D01*
X68555357Y-126878500D01*
X68555359Y-126878500D01*
X68555362Y-126878499D01*
X68555370Y-126878499D01*
X68735525Y-126855739D01*
X68857278Y-126840359D01*
X69152035Y-126764678D01*
X69290129Y-126710002D01*
X69434974Y-126652655D01*
X69434978Y-126652652D01*
X69434983Y-126652651D01*
X69701659Y-126506045D01*
X69947858Y-126327171D01*
X70169697Y-126118851D01*
X70363676Y-125884369D01*
X70526738Y-125627425D01*
X70656311Y-125352070D01*
X70750350Y-125062646D01*
X70807374Y-124763718D01*
X70808621Y-124743909D01*
X70826482Y-124460005D01*
X70826482Y-124459994D01*
X70807375Y-124156289D01*
X70807374Y-124156282D01*
X70750350Y-123857354D01*
X70656311Y-123567930D01*
X70629380Y-123510700D01*
X70526740Y-123292579D01*
X70526739Y-123292578D01*
X70526738Y-123292575D01*
X70363676Y-123035631D01*
X70325700Y-122989726D01*
X70169698Y-122801150D01*
X69947859Y-122592830D01*
X69947849Y-122592822D01*
X69701670Y-122413962D01*
X69701652Y-122413951D01*
X69434982Y-122267348D01*
X69434974Y-122267344D01*
X69152039Y-122155323D01*
X69123964Y-122148114D01*
X68857278Y-122079641D01*
X68857275Y-122079640D01*
X68857268Y-122079639D01*
X68555370Y-122041500D01*
X68555359Y-122041500D01*
X68251041Y-122041500D01*
X68251029Y-122041500D01*
X67949131Y-122079639D01*
X67949122Y-122079641D01*
X67654360Y-122155323D01*
X67371425Y-122267344D01*
X67371417Y-122267348D01*
X67104747Y-122413951D01*
X67104729Y-122413962D01*
X66858550Y-122592822D01*
X66858540Y-122592830D01*
X66636701Y-122801150D01*
X66442726Y-123035627D01*
X66279659Y-123292579D01*
X66150091Y-123567923D01*
X66150089Y-123567928D01*
X66120632Y-123658589D01*
X66056050Y-123857354D01*
X66023959Y-124025575D01*
X65999024Y-124156289D01*
X65979918Y-124459994D01*
X58920500Y-124459994D01*
X58920500Y-120659999D01*
X75213625Y-120659999D01*
X75213625Y-120660000D01*
X75233879Y-120878579D01*
X75233879Y-120878581D01*
X75233880Y-120878584D01*
X75293954Y-121089724D01*
X75293955Y-121089727D01*
X75346987Y-121196228D01*
X75391803Y-121286231D01*
X75524093Y-121461411D01*
X75686321Y-121609301D01*
X75872961Y-121724864D01*
X76077657Y-121804164D01*
X76293440Y-121844500D01*
X76293443Y-121844500D01*
X76505987Y-121844500D01*
X76573026Y-121864185D01*
X76618781Y-121916989D01*
X76628725Y-121986147D01*
X76616987Y-122023772D01*
X76563955Y-122130272D01*
X76503879Y-122341420D01*
X76483625Y-122559999D01*
X76483625Y-122560000D01*
X76503879Y-122778579D01*
X76503879Y-122778581D01*
X76503880Y-122778584D01*
X76563954Y-122989724D01*
X76563955Y-122989727D01*
X76616987Y-123096228D01*
X76629248Y-123165013D01*
X76602375Y-123229508D01*
X76544900Y-123269236D01*
X76505987Y-123275500D01*
X76293440Y-123275500D01*
X76077657Y-123315836D01*
X76077654Y-123315836D01*
X76077654Y-123315837D01*
X75872961Y-123395135D01*
X75872959Y-123395136D01*
X75686319Y-123510700D01*
X75524094Y-123658587D01*
X75391803Y-123833768D01*
X75293955Y-124030272D01*
X75233879Y-124241420D01*
X75213625Y-124459999D01*
X75213625Y-124460000D01*
X75233879Y-124678579D01*
X75233879Y-124678581D01*
X75233880Y-124678584D01*
X75258103Y-124763718D01*
X75293955Y-124889727D01*
X75381238Y-125065013D01*
X75391803Y-125086231D01*
X75524093Y-125261411D01*
X75686321Y-125409301D01*
X75872961Y-125524864D01*
X76077657Y-125604164D01*
X76293440Y-125644500D01*
X76293443Y-125644500D01*
X76505987Y-125644500D01*
X76573026Y-125664185D01*
X76618781Y-125716989D01*
X76628725Y-125786147D01*
X76616987Y-125823772D01*
X76563955Y-125930272D01*
X76563954Y-125930276D01*
X76520955Y-126081405D01*
X76503879Y-126141420D01*
X76483625Y-126359999D01*
X76483625Y-126360000D01*
X76503879Y-126578579D01*
X76503879Y-126578581D01*
X76503880Y-126578584D01*
X76547655Y-126732437D01*
X76563955Y-126789727D01*
X76608159Y-126878500D01*
X76661803Y-126986231D01*
X76794093Y-127161411D01*
X76956321Y-127309301D01*
X77142961Y-127424864D01*
X77347657Y-127504164D01*
X77563440Y-127544500D01*
X77563443Y-127544500D01*
X77782957Y-127544500D01*
X77782960Y-127544500D01*
X77998743Y-127504164D01*
X78203439Y-127424864D01*
X78390079Y-127309301D01*
X78552307Y-127161411D01*
X78684597Y-126986231D01*
X78782446Y-126789724D01*
X78823934Y-126643907D01*
X78861212Y-126584815D01*
X78924522Y-126555257D01*
X78993761Y-126564619D01*
X79046948Y-126609928D01*
X79062465Y-126643905D01*
X79064954Y-126652651D01*
X79103954Y-126789726D01*
X79148159Y-126878500D01*
X79201803Y-126986231D01*
X79334093Y-127161411D01*
X79496321Y-127309301D01*
X79682961Y-127424864D01*
X79887657Y-127504164D01*
X80103440Y-127544500D01*
X80103443Y-127544500D01*
X80322957Y-127544500D01*
X80322960Y-127544500D01*
X80538743Y-127504164D01*
X80743439Y-127424864D01*
X80930079Y-127309301D01*
X81092307Y-127161411D01*
X81224597Y-126986231D01*
X81322446Y-126789724D01*
X81363934Y-126643907D01*
X81401212Y-126584815D01*
X81464522Y-126555257D01*
X81533761Y-126564619D01*
X81586948Y-126609928D01*
X81602465Y-126643905D01*
X81604954Y-126652651D01*
X81643954Y-126789726D01*
X81688159Y-126878500D01*
X81741803Y-126986231D01*
X81874093Y-127161411D01*
X82036321Y-127309301D01*
X82222961Y-127424864D01*
X82427657Y-127504164D01*
X82643440Y-127544500D01*
X82643443Y-127544500D01*
X82862957Y-127544500D01*
X82862960Y-127544500D01*
X83078743Y-127504164D01*
X83283439Y-127424864D01*
X83470079Y-127309301D01*
X83632307Y-127161411D01*
X83764597Y-126986231D01*
X83862446Y-126789724D01*
X83903934Y-126643907D01*
X83941212Y-126584815D01*
X84004522Y-126555257D01*
X84073761Y-126564619D01*
X84126948Y-126609928D01*
X84142465Y-126643905D01*
X84144954Y-126652651D01*
X84183954Y-126789726D01*
X84228159Y-126878500D01*
X84281803Y-126986231D01*
X84414093Y-127161411D01*
X84576321Y-127309301D01*
X84762961Y-127424864D01*
X84967657Y-127504164D01*
X85183440Y-127544500D01*
X85183443Y-127544500D01*
X85402957Y-127544500D01*
X85402960Y-127544500D01*
X85618743Y-127504164D01*
X85823439Y-127424864D01*
X86010079Y-127309301D01*
X86172307Y-127161411D01*
X86304597Y-126986231D01*
X86402446Y-126789724D01*
X86443934Y-126643907D01*
X86481212Y-126584815D01*
X86544522Y-126555257D01*
X86613761Y-126564619D01*
X86666948Y-126609928D01*
X86682465Y-126643905D01*
X86684954Y-126652651D01*
X86723954Y-126789726D01*
X86768159Y-126878500D01*
X86821803Y-126986231D01*
X86954093Y-127161411D01*
X87116321Y-127309301D01*
X87302961Y-127424864D01*
X87507657Y-127504164D01*
X87723440Y-127544500D01*
X87723443Y-127544500D01*
X87942957Y-127544500D01*
X87942960Y-127544500D01*
X88158743Y-127504164D01*
X88363439Y-127424864D01*
X88550079Y-127309301D01*
X88712307Y-127161411D01*
X88844597Y-126986231D01*
X88942446Y-126789724D01*
X88983934Y-126643907D01*
X89021212Y-126584815D01*
X89084522Y-126555257D01*
X89153761Y-126564619D01*
X89206948Y-126609928D01*
X89222465Y-126643905D01*
X89224954Y-126652651D01*
X89263954Y-126789726D01*
X89308159Y-126878500D01*
X89361803Y-126986231D01*
X89494093Y-127161411D01*
X89656321Y-127309301D01*
X89842961Y-127424864D01*
X90047657Y-127504164D01*
X90263440Y-127544500D01*
X90263443Y-127544500D01*
X90482957Y-127544500D01*
X90482960Y-127544500D01*
X90698743Y-127504164D01*
X90903439Y-127424864D01*
X91090079Y-127309301D01*
X91252307Y-127161411D01*
X91384597Y-126986231D01*
X91482446Y-126789724D01*
X91523934Y-126643907D01*
X91561212Y-126584815D01*
X91624522Y-126555257D01*
X91693761Y-126564619D01*
X91746948Y-126609928D01*
X91762465Y-126643905D01*
X91764954Y-126652651D01*
X91803954Y-126789726D01*
X91848159Y-126878500D01*
X91901803Y-126986231D01*
X92034093Y-127161411D01*
X92196321Y-127309301D01*
X92382961Y-127424864D01*
X92587657Y-127504164D01*
X92803440Y-127544500D01*
X92803443Y-127544500D01*
X93022957Y-127544500D01*
X93022960Y-127544500D01*
X93238743Y-127504164D01*
X93443439Y-127424864D01*
X93630079Y-127309301D01*
X93792307Y-127161411D01*
X93924597Y-126986231D01*
X94022446Y-126789724D01*
X94063934Y-126643907D01*
X94101212Y-126584815D01*
X94164522Y-126555257D01*
X94233761Y-126564619D01*
X94286948Y-126609928D01*
X94302465Y-126643905D01*
X94304954Y-126652651D01*
X94343954Y-126789726D01*
X94388159Y-126878500D01*
X94441803Y-126986231D01*
X94574093Y-127161411D01*
X94736321Y-127309301D01*
X94922961Y-127424864D01*
X95127657Y-127504164D01*
X95343440Y-127544500D01*
X95343443Y-127544500D01*
X95562957Y-127544500D01*
X95562960Y-127544500D01*
X95778743Y-127504164D01*
X95983439Y-127424864D01*
X96170079Y-127309301D01*
X96332307Y-127161411D01*
X96464597Y-126986231D01*
X96562446Y-126789724D01*
X96603934Y-126643907D01*
X96641212Y-126584815D01*
X96704522Y-126555257D01*
X96773761Y-126564619D01*
X96826948Y-126609928D01*
X96842465Y-126643905D01*
X96844954Y-126652651D01*
X96883954Y-126789726D01*
X96928159Y-126878500D01*
X96981803Y-126986231D01*
X97114093Y-127161411D01*
X97276321Y-127309301D01*
X97462961Y-127424864D01*
X97667657Y-127504164D01*
X97883440Y-127544500D01*
X97883443Y-127544500D01*
X98102957Y-127544500D01*
X98102960Y-127544500D01*
X98318743Y-127504164D01*
X98523439Y-127424864D01*
X98710079Y-127309301D01*
X98872307Y-127161411D01*
X99004597Y-126986231D01*
X99102446Y-126789724D01*
X99143934Y-126643907D01*
X99181212Y-126584815D01*
X99244522Y-126555257D01*
X99313761Y-126564619D01*
X99366948Y-126609928D01*
X99382465Y-126643905D01*
X99384954Y-126652651D01*
X99423954Y-126789726D01*
X99468159Y-126878500D01*
X99521803Y-126986231D01*
X99654093Y-127161411D01*
X99816321Y-127309301D01*
X100002961Y-127424864D01*
X100207657Y-127504164D01*
X100423440Y-127544500D01*
X100423443Y-127544500D01*
X100642957Y-127544500D01*
X100642960Y-127544500D01*
X100858743Y-127504164D01*
X101063439Y-127424864D01*
X101250079Y-127309301D01*
X101412307Y-127161411D01*
X101544597Y-126986231D01*
X101642446Y-126789724D01*
X101683934Y-126643907D01*
X101721212Y-126584815D01*
X101784522Y-126555257D01*
X101853761Y-126564619D01*
X101906948Y-126609928D01*
X101922465Y-126643905D01*
X101924954Y-126652651D01*
X101963954Y-126789726D01*
X102008159Y-126878500D01*
X102061803Y-126986231D01*
X102194093Y-127161411D01*
X102356321Y-127309301D01*
X102542961Y-127424864D01*
X102747657Y-127504164D01*
X102963440Y-127544500D01*
X102963443Y-127544500D01*
X103182957Y-127544500D01*
X103182960Y-127544500D01*
X103398743Y-127504164D01*
X103603439Y-127424864D01*
X103790079Y-127309301D01*
X103952307Y-127161411D01*
X104084597Y-126986231D01*
X104182446Y-126789724D01*
X104223934Y-126643907D01*
X104261212Y-126584815D01*
X104324522Y-126555257D01*
X104393761Y-126564619D01*
X104446948Y-126609928D01*
X104462465Y-126643905D01*
X104464954Y-126652651D01*
X104503954Y-126789726D01*
X104548159Y-126878500D01*
X104601803Y-126986231D01*
X104734093Y-127161411D01*
X104896321Y-127309301D01*
X105082961Y-127424864D01*
X105287657Y-127504164D01*
X105503440Y-127544500D01*
X105503443Y-127544500D01*
X105722957Y-127544500D01*
X105722960Y-127544500D01*
X105938743Y-127504164D01*
X106143439Y-127424864D01*
X106330079Y-127309301D01*
X106492307Y-127161411D01*
X106624597Y-126986231D01*
X106722446Y-126789724D01*
X106782520Y-126578584D01*
X106802775Y-126360000D01*
X106782520Y-126141416D01*
X106722446Y-125930276D01*
X106669412Y-125823771D01*
X106657152Y-125754987D01*
X106684025Y-125690492D01*
X106741500Y-125650764D01*
X106780413Y-125644500D01*
X106992957Y-125644500D01*
X106992960Y-125644500D01*
X107208743Y-125604164D01*
X107413439Y-125524864D01*
X107600079Y-125409301D01*
X107762307Y-125261411D01*
X107894597Y-125086231D01*
X107992446Y-124889724D01*
X108052520Y-124678584D01*
X108072775Y-124460000D01*
X108072774Y-124459994D01*
X112459918Y-124459994D01*
X112459918Y-124460005D01*
X112479024Y-124763710D01*
X112479026Y-124763718D01*
X112536050Y-125062646D01*
X112585824Y-125215836D01*
X112630089Y-125352071D01*
X112630091Y-125352076D01*
X112759659Y-125627420D01*
X112759661Y-125627423D01*
X112759662Y-125627425D01*
X112843110Y-125758917D01*
X112922726Y-125884372D01*
X113116701Y-126118849D01*
X113338540Y-126327169D01*
X113338550Y-126327177D01*
X113584729Y-126506037D01*
X113584735Y-126506040D01*
X113584741Y-126506045D01*
X113773704Y-126609928D01*
X113851417Y-126652651D01*
X113851425Y-126652655D01*
X114127606Y-126762001D01*
X114134365Y-126764678D01*
X114429122Y-126840359D01*
X114492459Y-126848360D01*
X114731029Y-126878499D01*
X114731038Y-126878499D01*
X114731041Y-126878500D01*
X114731043Y-126878500D01*
X115035357Y-126878500D01*
X115035359Y-126878500D01*
X115035362Y-126878499D01*
X115035370Y-126878499D01*
X115215525Y-126855739D01*
X115337278Y-126840359D01*
X115632035Y-126764678D01*
X115770129Y-126710002D01*
X115914974Y-126652655D01*
X115914978Y-126652652D01*
X115914983Y-126652651D01*
X116181659Y-126506045D01*
X116427858Y-126327171D01*
X116649697Y-126118851D01*
X116843676Y-125884369D01*
X117006738Y-125627425D01*
X117136311Y-125352070D01*
X117230350Y-125062646D01*
X117287374Y-124763718D01*
X117288621Y-124743909D01*
X117306482Y-124460005D01*
X117306482Y-124459994D01*
X117287375Y-124156289D01*
X117287374Y-124156282D01*
X117230350Y-123857354D01*
X117136311Y-123567930D01*
X117109380Y-123510700D01*
X117006740Y-123292579D01*
X117006739Y-123292578D01*
X117006738Y-123292575D01*
X116843676Y-123035631D01*
X116805700Y-122989726D01*
X116649698Y-122801150D01*
X116427859Y-122592830D01*
X116427849Y-122592822D01*
X116181670Y-122413962D01*
X116181652Y-122413951D01*
X115914982Y-122267348D01*
X115914974Y-122267344D01*
X115632039Y-122155323D01*
X115603964Y-122148114D01*
X115337278Y-122079641D01*
X115337275Y-122079640D01*
X115337268Y-122079639D01*
X115035370Y-122041500D01*
X115035359Y-122041500D01*
X114731041Y-122041500D01*
X114731029Y-122041500D01*
X114429131Y-122079639D01*
X114429122Y-122079641D01*
X114134360Y-122155323D01*
X113851425Y-122267344D01*
X113851417Y-122267348D01*
X113584747Y-122413951D01*
X113584729Y-122413962D01*
X113338550Y-122592822D01*
X113338540Y-122592830D01*
X113116701Y-122801150D01*
X112922726Y-123035627D01*
X112759659Y-123292579D01*
X112630091Y-123567923D01*
X112630089Y-123567928D01*
X112600632Y-123658589D01*
X112536050Y-123857354D01*
X112503959Y-124025575D01*
X112479024Y-124156289D01*
X112459918Y-124459994D01*
X108072774Y-124459994D01*
X108052520Y-124241420D01*
X108052520Y-124241416D01*
X107992446Y-124030276D01*
X107894597Y-123833769D01*
X107762307Y-123658589D01*
X107600079Y-123510699D01*
X107529003Y-123466690D01*
X107413440Y-123395136D01*
X107413438Y-123395135D01*
X107252467Y-123332775D01*
X107208743Y-123315836D01*
X106992960Y-123275500D01*
X106780414Y-123275500D01*
X106713375Y-123255815D01*
X106667620Y-123203011D01*
X106657676Y-123133853D01*
X106669414Y-123096229D01*
X106722443Y-122989730D01*
X106722444Y-122989729D01*
X106722444Y-122989726D01*
X106722446Y-122989724D01*
X106782520Y-122778584D01*
X106802775Y-122560000D01*
X106782520Y-122341416D01*
X106722446Y-122130276D01*
X106669412Y-122023771D01*
X106657152Y-121954987D01*
X106684025Y-121890492D01*
X106741500Y-121850764D01*
X106780413Y-121844500D01*
X106992957Y-121844500D01*
X106992960Y-121844500D01*
X107208743Y-121804164D01*
X107413439Y-121724864D01*
X107600079Y-121609301D01*
X107762307Y-121461411D01*
X107894597Y-121286231D01*
X107992446Y-121089724D01*
X108052520Y-120878584D01*
X108072775Y-120660000D01*
X108052520Y-120441416D01*
X107992446Y-120230276D01*
X107894597Y-120033769D01*
X107762307Y-119858589D01*
X107600079Y-119710699D01*
X107529003Y-119666690D01*
X107413440Y-119595136D01*
X107413438Y-119595135D01*
X107263765Y-119537151D01*
X107208743Y-119515836D01*
X106992960Y-119475500D01*
X106773440Y-119475500D01*
X106557657Y-119515836D01*
X106557654Y-119515836D01*
X106557654Y-119515837D01*
X106352961Y-119595135D01*
X106352959Y-119595136D01*
X106166319Y-119710700D01*
X106004094Y-119858587D01*
X105871803Y-120033768D01*
X105773955Y-120230272D01*
X105773954Y-120230276D01*
X105732465Y-120376092D01*
X105695188Y-120435184D01*
X105631878Y-120464742D01*
X105562638Y-120455380D01*
X105509452Y-120410071D01*
X105493934Y-120376094D01*
X105452446Y-120230276D01*
X105354597Y-120033769D01*
X105222307Y-119858589D01*
X105060079Y-119710699D01*
X104995103Y-119670467D01*
X104931625Y-119631163D01*
X104884990Y-119579135D01*
X104873886Y-119510153D01*
X104901839Y-119446119D01*
X104909200Y-119438077D01*
X104977295Y-119369983D01*
X105073268Y-119217243D01*
X105111809Y-119107096D01*
X105152531Y-119050321D01*
X105187895Y-119031009D01*
X105298043Y-118992468D01*
X105450783Y-118896495D01*
X105578337Y-118768941D01*
X105674310Y-118616201D01*
X105733889Y-118445934D01*
X105733890Y-118445928D01*
X105754086Y-118266682D01*
X105754086Y-118266675D01*
X105733890Y-118087429D01*
X105733889Y-118087424D01*
X105674309Y-117917155D01*
X105578336Y-117764416D01*
X105450783Y-117636863D01*
X105298044Y-117540890D01*
X105127775Y-117481310D01*
X105127770Y-117481309D01*
X104948525Y-117461114D01*
X104948517Y-117461114D01*
X104769271Y-117481309D01*
X104769266Y-117481310D01*
X104598997Y-117540890D01*
X104446258Y-117636863D01*
X104318705Y-117764416D01*
X104222733Y-117917154D01*
X104222732Y-117917155D01*
X104184189Y-118027304D01*
X104143467Y-118084079D01*
X104108104Y-118103389D01*
X103997955Y-118141932D01*
X103997954Y-118141933D01*
X103845216Y-118237905D01*
X103717663Y-118365458D01*
X103621690Y-118518197D01*
X103562110Y-118688466D01*
X103562109Y-118688471D01*
X103541914Y-118867717D01*
X103541914Y-118867724D01*
X103562109Y-119046970D01*
X103562110Y-119046975D01*
X103621690Y-119217244D01*
X103717663Y-119369983D01*
X103782462Y-119434782D01*
X103815947Y-119496105D01*
X103810963Y-119565797D01*
X103769091Y-119621730D01*
X103760060Y-119627889D01*
X103626321Y-119710698D01*
X103626320Y-119710699D01*
X103464094Y-119858587D01*
X103331803Y-120033768D01*
X103233955Y-120230272D01*
X103233954Y-120230276D01*
X103192465Y-120376092D01*
X103155188Y-120435184D01*
X103091878Y-120464742D01*
X103022638Y-120455380D01*
X102969452Y-120410071D01*
X102953934Y-120376094D01*
X102912446Y-120230276D01*
X102814597Y-120033769D01*
X102682307Y-119858589D01*
X102520079Y-119710699D01*
X102449003Y-119666690D01*
X102333440Y-119595136D01*
X102333438Y-119595135D01*
X102183765Y-119537151D01*
X102128743Y-119515836D01*
X101912960Y-119475500D01*
X101693440Y-119475500D01*
X101477657Y-119515836D01*
X101477654Y-119515836D01*
X101477654Y-119515837D01*
X101272961Y-119595135D01*
X101272959Y-119595136D01*
X101086319Y-119710700D01*
X100924094Y-119858587D01*
X100791803Y-120033768D01*
X100693955Y-120230272D01*
X100693954Y-120230276D01*
X100652465Y-120376092D01*
X100615188Y-120435184D01*
X100551878Y-120464742D01*
X100482638Y-120455380D01*
X100429452Y-120410071D01*
X100413934Y-120376094D01*
X100372446Y-120230276D01*
X100274597Y-120033769D01*
X100142307Y-119858589D01*
X99980079Y-119710699D01*
X99909003Y-119666690D01*
X99793440Y-119595136D01*
X99793438Y-119595135D01*
X99643765Y-119537151D01*
X99588743Y-119515836D01*
X99372960Y-119475500D01*
X99153440Y-119475500D01*
X98937657Y-119515836D01*
X98937654Y-119515836D01*
X98937654Y-119515837D01*
X98732961Y-119595135D01*
X98732959Y-119595136D01*
X98546319Y-119710700D01*
X98384094Y-119858587D01*
X98251803Y-120033768D01*
X98153955Y-120230272D01*
X98153954Y-120230276D01*
X98112465Y-120376092D01*
X98075188Y-120435184D01*
X98011878Y-120464742D01*
X97942638Y-120455380D01*
X97889452Y-120410071D01*
X97873934Y-120376094D01*
X97832446Y-120230276D01*
X97734597Y-120033769D01*
X97602307Y-119858589D01*
X97440079Y-119710699D01*
X97369003Y-119666690D01*
X97253440Y-119595136D01*
X97253438Y-119595135D01*
X97103765Y-119537151D01*
X97048743Y-119515836D01*
X96832960Y-119475500D01*
X96613440Y-119475500D01*
X96397657Y-119515836D01*
X96397654Y-119515836D01*
X96397654Y-119515837D01*
X96192961Y-119595135D01*
X96192959Y-119595136D01*
X96006319Y-119710700D01*
X95844094Y-119858587D01*
X95711803Y-120033768D01*
X95613955Y-120230272D01*
X95613954Y-120230276D01*
X95572465Y-120376092D01*
X95535188Y-120435184D01*
X95471878Y-120464742D01*
X95402638Y-120455380D01*
X95349452Y-120410071D01*
X95333934Y-120376094D01*
X95292446Y-120230276D01*
X95194597Y-120033769D01*
X95062307Y-119858589D01*
X94900079Y-119710699D01*
X94829003Y-119666690D01*
X94713440Y-119595136D01*
X94713438Y-119595135D01*
X94563765Y-119537151D01*
X94508743Y-119515836D01*
X94292960Y-119475500D01*
X94073440Y-119475500D01*
X93857657Y-119515836D01*
X93857654Y-119515836D01*
X93857654Y-119515837D01*
X93652961Y-119595135D01*
X93652959Y-119595136D01*
X93466319Y-119710700D01*
X93304094Y-119858587D01*
X93171803Y-120033768D01*
X93073955Y-120230272D01*
X93073954Y-120230276D01*
X93032465Y-120376092D01*
X92995188Y-120435184D01*
X92931878Y-120464742D01*
X92862638Y-120455380D01*
X92809452Y-120410071D01*
X92793934Y-120376094D01*
X92752446Y-120230276D01*
X92654597Y-120033769D01*
X92522307Y-119858589D01*
X92360079Y-119710699D01*
X92289003Y-119666690D01*
X92173440Y-119595136D01*
X92173438Y-119595135D01*
X92023765Y-119537151D01*
X91968743Y-119515836D01*
X91752960Y-119475500D01*
X91533440Y-119475500D01*
X91317657Y-119515836D01*
X91317654Y-119515836D01*
X91317654Y-119515837D01*
X91112961Y-119595135D01*
X91112959Y-119595136D01*
X90926319Y-119710700D01*
X90764094Y-119858587D01*
X90631803Y-120033768D01*
X90533955Y-120230272D01*
X90533954Y-120230276D01*
X90492465Y-120376092D01*
X90455188Y-120435184D01*
X90391878Y-120464742D01*
X90322638Y-120455380D01*
X90269452Y-120410071D01*
X90253934Y-120376094D01*
X90212446Y-120230276D01*
X90114597Y-120033769D01*
X89982307Y-119858589D01*
X89820079Y-119710699D01*
X89749003Y-119666690D01*
X89633440Y-119595136D01*
X89633438Y-119595135D01*
X89483765Y-119537151D01*
X89428743Y-119515836D01*
X89212960Y-119475500D01*
X88993440Y-119475500D01*
X88777657Y-119515836D01*
X88777654Y-119515836D01*
X88777654Y-119515837D01*
X88572961Y-119595135D01*
X88572959Y-119595136D01*
X88386319Y-119710700D01*
X88224094Y-119858587D01*
X88091803Y-120033768D01*
X87993955Y-120230272D01*
X87993954Y-120230276D01*
X87952465Y-120376092D01*
X87915188Y-120435184D01*
X87851878Y-120464742D01*
X87782638Y-120455380D01*
X87729452Y-120410071D01*
X87713934Y-120376094D01*
X87672446Y-120230276D01*
X87574597Y-120033769D01*
X87442307Y-119858589D01*
X87280079Y-119710699D01*
X87209003Y-119666690D01*
X87093440Y-119595136D01*
X87093438Y-119595135D01*
X86943765Y-119537151D01*
X86888743Y-119515836D01*
X86672960Y-119475500D01*
X86453440Y-119475500D01*
X86237657Y-119515836D01*
X86237654Y-119515836D01*
X86237654Y-119515837D01*
X86032961Y-119595135D01*
X86032959Y-119595136D01*
X85846319Y-119710700D01*
X85684094Y-119858587D01*
X85551803Y-120033768D01*
X85453955Y-120230272D01*
X85453954Y-120230276D01*
X85412465Y-120376092D01*
X85375188Y-120435184D01*
X85311878Y-120464742D01*
X85242638Y-120455380D01*
X85189452Y-120410071D01*
X85173934Y-120376094D01*
X85132446Y-120230276D01*
X85034597Y-120033769D01*
X84902307Y-119858589D01*
X84740079Y-119710699D01*
X84669003Y-119666690D01*
X84553440Y-119595136D01*
X84553438Y-119595135D01*
X84403765Y-119537151D01*
X84348743Y-119515836D01*
X84132960Y-119475500D01*
X83913440Y-119475500D01*
X83697657Y-119515836D01*
X83697654Y-119515836D01*
X83697654Y-119515837D01*
X83492961Y-119595135D01*
X83492959Y-119595136D01*
X83306319Y-119710700D01*
X83144094Y-119858587D01*
X83011803Y-120033768D01*
X82913955Y-120230272D01*
X82913954Y-120230276D01*
X82872465Y-120376092D01*
X82835188Y-120435184D01*
X82771878Y-120464742D01*
X82702638Y-120455380D01*
X82649452Y-120410071D01*
X82633934Y-120376094D01*
X82592446Y-120230276D01*
X82494597Y-120033769D01*
X82362307Y-119858589D01*
X82200079Y-119710699D01*
X82129003Y-119666690D01*
X82013440Y-119595136D01*
X82013438Y-119595135D01*
X81863765Y-119537151D01*
X81808743Y-119515836D01*
X81592960Y-119475500D01*
X81373440Y-119475500D01*
X81157657Y-119515836D01*
X81157654Y-119515836D01*
X81157654Y-119515837D01*
X80952961Y-119595135D01*
X80952959Y-119595136D01*
X80766319Y-119710700D01*
X80604094Y-119858587D01*
X80471803Y-120033768D01*
X80373955Y-120230272D01*
X80373954Y-120230276D01*
X80332465Y-120376092D01*
X80295188Y-120435184D01*
X80231878Y-120464742D01*
X80162638Y-120455380D01*
X80109452Y-120410071D01*
X80093934Y-120376094D01*
X80052446Y-120230276D01*
X79954597Y-120033769D01*
X79822307Y-119858589D01*
X79660079Y-119710699D01*
X79589003Y-119666690D01*
X79473440Y-119595136D01*
X79473438Y-119595135D01*
X79323765Y-119537151D01*
X79268743Y-119515836D01*
X79052960Y-119475500D01*
X78833440Y-119475500D01*
X78617657Y-119515836D01*
X78617654Y-119515836D01*
X78617654Y-119515837D01*
X78412961Y-119595135D01*
X78412959Y-119595136D01*
X78226319Y-119710700D01*
X78064094Y-119858587D01*
X77931803Y-120033768D01*
X77833955Y-120230272D01*
X77833954Y-120230276D01*
X77792465Y-120376092D01*
X77755188Y-120435184D01*
X77691878Y-120464742D01*
X77622638Y-120455380D01*
X77569452Y-120410071D01*
X77553934Y-120376094D01*
X77512446Y-120230276D01*
X77414597Y-120033769D01*
X77282307Y-119858589D01*
X77120079Y-119710699D01*
X77049003Y-119666690D01*
X76933440Y-119595136D01*
X76933438Y-119595135D01*
X76783765Y-119537151D01*
X76728743Y-119515836D01*
X76512960Y-119475500D01*
X76293440Y-119475500D01*
X76077657Y-119515836D01*
X76077654Y-119515836D01*
X76077654Y-119515837D01*
X75872961Y-119595135D01*
X75872959Y-119595136D01*
X75686319Y-119710700D01*
X75524094Y-119858587D01*
X75391803Y-120033768D01*
X75293955Y-120230272D01*
X75233879Y-120441420D01*
X75213625Y-120659999D01*
X58920500Y-120659999D01*
X58920500Y-113491475D01*
X87539914Y-113491475D01*
X87539914Y-113491482D01*
X87560109Y-113670728D01*
X87560110Y-113670733D01*
X87619690Y-113841002D01*
X87665097Y-113913266D01*
X87715663Y-113993741D01*
X87843217Y-114121295D01*
X87995957Y-114217268D01*
X88106102Y-114255809D01*
X88162878Y-114296531D01*
X88182190Y-114331896D01*
X88220732Y-114442044D01*
X88311766Y-114586922D01*
X88316705Y-114594783D01*
X88444259Y-114722337D01*
X88471832Y-114739662D01*
X88567863Y-114800003D01*
X88596999Y-114818310D01*
X88736764Y-114867216D01*
X88767266Y-114877889D01*
X88767271Y-114877890D01*
X88946517Y-114898086D01*
X88946521Y-114898086D01*
X88946525Y-114898086D01*
X89125770Y-114877890D01*
X89125773Y-114877889D01*
X89125776Y-114877889D01*
X89296043Y-114818310D01*
X89448783Y-114722337D01*
X89576337Y-114594783D01*
X89672310Y-114442043D01*
X89731889Y-114271776D01*
X89735762Y-114237403D01*
X89735763Y-114237396D01*
X96129035Y-114237396D01*
X96129035Y-114237403D01*
X96149230Y-114416649D01*
X96149231Y-114416654D01*
X96208811Y-114586923D01*
X96293897Y-114722336D01*
X96304784Y-114739662D01*
X96432338Y-114867216D01*
X96585078Y-114963189D01*
X96755345Y-115022768D01*
X96755350Y-115022769D01*
X96934596Y-115042965D01*
X96934600Y-115042965D01*
X96934604Y-115042965D01*
X97113849Y-115022769D01*
X97113852Y-115022768D01*
X97113855Y-115022768D01*
X97284122Y-114963189D01*
X97436862Y-114867216D01*
X97564416Y-114739662D01*
X97660389Y-114586922D01*
X97719968Y-114416655D01*
X97736292Y-114271775D01*
X97740165Y-114237403D01*
X97740165Y-114237396D01*
X97719969Y-114058150D01*
X97719968Y-114058145D01*
X97669274Y-113913271D01*
X97660389Y-113887878D01*
X97564416Y-113735138D01*
X97436862Y-113607584D01*
X97284123Y-113511611D01*
X97113854Y-113452031D01*
X97113849Y-113452030D01*
X96934604Y-113431835D01*
X96934596Y-113431835D01*
X96755350Y-113452030D01*
X96755345Y-113452031D01*
X96585076Y-113511611D01*
X96432337Y-113607584D01*
X96304784Y-113735137D01*
X96208811Y-113887876D01*
X96149231Y-114058145D01*
X96149230Y-114058150D01*
X96129035Y-114237396D01*
X89735763Y-114237396D01*
X89752086Y-114092524D01*
X89752086Y-114092517D01*
X89731890Y-113913271D01*
X89731889Y-113913266D01*
X89672309Y-113742997D01*
X89587415Y-113607890D01*
X89576337Y-113590259D01*
X89448783Y-113462705D01*
X89296044Y-113366732D01*
X89235645Y-113345598D01*
X89185895Y-113328189D01*
X89129120Y-113287468D01*
X89109809Y-113252102D01*
X89071268Y-113141957D01*
X89065243Y-113132369D01*
X88983186Y-113001776D01*
X88975295Y-112989217D01*
X88847741Y-112861663D01*
X88695002Y-112765690D01*
X88524733Y-112706110D01*
X88524728Y-112706109D01*
X88345483Y-112685914D01*
X88345475Y-112685914D01*
X88166229Y-112706109D01*
X88166224Y-112706110D01*
X87995955Y-112765690D01*
X87843216Y-112861663D01*
X87715663Y-112989216D01*
X87619690Y-113141955D01*
X87560110Y-113312224D01*
X87560109Y-113312229D01*
X87539914Y-113491475D01*
X58920500Y-113491475D01*
X58920500Y-111353598D01*
X68605718Y-111353598D01*
X68605718Y-111353601D01*
X68625622Y-111631899D01*
X68684927Y-111904516D01*
X68684929Y-111904523D01*
X68737658Y-112045896D01*
X68782431Y-112165938D01*
X68782433Y-112165942D01*
X68916140Y-112410807D01*
X68916145Y-112410815D01*
X69083338Y-112634160D01*
X69083354Y-112634178D01*
X69280621Y-112831445D01*
X69280639Y-112831461D01*
X69503984Y-112998654D01*
X69503992Y-112998659D01*
X69748857Y-113132366D01*
X69748861Y-113132368D01*
X69748863Y-113132369D01*
X70010277Y-113229871D01*
X70112471Y-113252102D01*
X70282900Y-113289177D01*
X70282902Y-113289177D01*
X70282906Y-113289178D01*
X70530214Y-113306865D01*
X70561199Y-113309082D01*
X70561200Y-113309082D01*
X70561201Y-113309082D01*
X70589081Y-113307087D01*
X70839494Y-113289178D01*
X71112123Y-113229871D01*
X71373537Y-113132369D01*
X71618413Y-112998656D01*
X71841768Y-112831455D01*
X72039055Y-112634168D01*
X72206256Y-112410813D01*
X72339969Y-112165937D01*
X72437471Y-111904523D01*
X72496778Y-111631894D01*
X72516682Y-111353600D01*
X72506088Y-111205475D01*
X84491914Y-111205475D01*
X84491914Y-111205482D01*
X84512109Y-111384728D01*
X84512110Y-111384733D01*
X84571690Y-111555002D01*
X84598543Y-111597738D01*
X84667663Y-111707741D01*
X84795217Y-111835295D01*
X84885559Y-111892061D01*
X84931217Y-111920750D01*
X84947957Y-111931268D01*
X85058102Y-111969809D01*
X85114878Y-112010531D01*
X85134190Y-112045896D01*
X85172732Y-112156044D01*
X85250151Y-112279254D01*
X85268705Y-112308783D01*
X85396259Y-112436337D01*
X85548999Y-112532310D01*
X85719266Y-112591889D01*
X85719271Y-112591890D01*
X85898517Y-112612086D01*
X85898521Y-112612086D01*
X85898525Y-112612086D01*
X86077770Y-112591890D01*
X86077773Y-112591889D01*
X86077776Y-112591889D01*
X86248043Y-112532310D01*
X86400783Y-112436337D01*
X86528337Y-112308783D01*
X86583196Y-112221475D01*
X90841914Y-112221475D01*
X90841914Y-112221482D01*
X90862109Y-112400728D01*
X90862110Y-112400733D01*
X90921690Y-112571002D01*
X90967097Y-112643266D01*
X91017663Y-112723741D01*
X91145217Y-112851295D01*
X91297957Y-112947268D01*
X91408102Y-112985809D01*
X91464878Y-113026531D01*
X91484190Y-113061896D01*
X91522732Y-113172044D01*
X91559068Y-113229872D01*
X91618705Y-113324783D01*
X91746259Y-113452337D01*
X91898999Y-113548310D01*
X92068394Y-113607584D01*
X92069266Y-113607889D01*
X92069271Y-113607890D01*
X92248517Y-113628086D01*
X92248521Y-113628086D01*
X92248525Y-113628086D01*
X92427770Y-113607890D01*
X92427773Y-113607889D01*
X92427776Y-113607889D01*
X92598043Y-113548310D01*
X92750783Y-113452337D01*
X92878337Y-113324783D01*
X92974310Y-113172043D01*
X93033889Y-113001776D01*
X93033890Y-113001770D01*
X93054086Y-112822524D01*
X93054086Y-112822517D01*
X93033890Y-112643271D01*
X93033889Y-112643266D01*
X92974309Y-112472997D01*
X92878336Y-112320258D01*
X92750783Y-112192705D01*
X92598044Y-112096732D01*
X92537645Y-112075598D01*
X92487895Y-112058189D01*
X92431120Y-112017468D01*
X92411809Y-111982102D01*
X92407508Y-111969809D01*
X92373268Y-111871957D01*
X92277295Y-111719217D01*
X92149741Y-111591663D01*
X91997002Y-111495690D01*
X91826733Y-111436110D01*
X91826728Y-111436109D01*
X91647483Y-111415914D01*
X91647475Y-111415914D01*
X91468229Y-111436109D01*
X91468224Y-111436110D01*
X91297955Y-111495690D01*
X91145216Y-111591663D01*
X91017663Y-111719216D01*
X90921690Y-111871955D01*
X90862110Y-112042224D01*
X90862109Y-112042229D01*
X90841914Y-112221475D01*
X86583196Y-112221475D01*
X86624310Y-112156043D01*
X86683889Y-111985776D01*
X86693045Y-111904516D01*
X86704086Y-111806524D01*
X86704086Y-111806517D01*
X86683890Y-111627271D01*
X86683889Y-111627266D01*
X86652947Y-111538838D01*
X86624310Y-111456999D01*
X86559339Y-111353598D01*
X110464918Y-111353598D01*
X110464918Y-111353601D01*
X110484822Y-111631899D01*
X110544127Y-111904516D01*
X110544129Y-111904523D01*
X110596858Y-112045896D01*
X110641631Y-112165938D01*
X110641633Y-112165942D01*
X110775340Y-112410807D01*
X110775345Y-112410815D01*
X110942538Y-112634160D01*
X110942554Y-112634178D01*
X111139821Y-112831445D01*
X111139839Y-112831461D01*
X111363184Y-112998654D01*
X111363192Y-112998659D01*
X111608057Y-113132366D01*
X111608061Y-113132368D01*
X111608063Y-113132369D01*
X111869477Y-113229871D01*
X111971671Y-113252102D01*
X112142100Y-113289177D01*
X112142102Y-113289177D01*
X112142106Y-113289178D01*
X112389414Y-113306865D01*
X112420399Y-113309082D01*
X112420400Y-113309082D01*
X112420401Y-113309082D01*
X112448281Y-113307087D01*
X112698694Y-113289178D01*
X112971323Y-113229871D01*
X113232737Y-113132369D01*
X113477613Y-112998656D01*
X113700968Y-112831455D01*
X113898255Y-112634168D01*
X114065456Y-112410813D01*
X114199169Y-112165937D01*
X114223764Y-112099996D01*
X120794435Y-112099996D01*
X120794435Y-112100003D01*
X120814630Y-112279249D01*
X120814631Y-112279254D01*
X120874211Y-112449523D01*
X120970184Y-112602262D01*
X121080241Y-112712319D01*
X121113726Y-112773642D01*
X121108742Y-112843334D01*
X121080241Y-112887681D01*
X120970184Y-112997737D01*
X120874211Y-113150476D01*
X120814631Y-113320745D01*
X120814630Y-113320750D01*
X120794435Y-113499996D01*
X120794435Y-113500003D01*
X120814630Y-113679249D01*
X120814631Y-113679254D01*
X120874211Y-113849523D01*
X120970184Y-114002262D01*
X121030241Y-114062319D01*
X121063726Y-114123642D01*
X121058742Y-114193334D01*
X121030241Y-114237681D01*
X120970184Y-114297737D01*
X120874211Y-114450476D01*
X120814631Y-114620745D01*
X120814630Y-114620750D01*
X120794435Y-114799996D01*
X120794435Y-114800003D01*
X120814630Y-114979249D01*
X120814631Y-114979254D01*
X120874211Y-115149523D01*
X120970184Y-115302262D01*
X121097738Y-115429816D01*
X121250478Y-115525789D01*
X121420745Y-115585368D01*
X121420750Y-115585369D01*
X121599996Y-115605565D01*
X121600000Y-115605565D01*
X121600004Y-115605565D01*
X121779249Y-115585369D01*
X121779252Y-115585368D01*
X121779255Y-115585368D01*
X121949522Y-115525789D01*
X122102262Y-115429816D01*
X122229816Y-115302262D01*
X122325789Y-115149522D01*
X122385368Y-114979255D01*
X122385369Y-114979249D01*
X122405565Y-114800003D01*
X122405565Y-114799996D01*
X122385369Y-114620750D01*
X122385368Y-114620745D01*
X122325789Y-114450478D01*
X122229816Y-114297738D01*
X122169759Y-114237681D01*
X122136274Y-114176358D01*
X122141258Y-114106666D01*
X122169759Y-114062319D01*
X122173933Y-114058145D01*
X122229816Y-114002262D01*
X122325789Y-113849522D01*
X122385368Y-113679255D01*
X122386328Y-113670734D01*
X122405565Y-113500003D01*
X122405565Y-113499996D01*
X122385369Y-113320750D01*
X122385368Y-113320745D01*
X122325788Y-113150476D01*
X122232353Y-113001776D01*
X122229816Y-112997738D01*
X122119759Y-112887681D01*
X122086274Y-112826358D01*
X122091258Y-112756666D01*
X122119759Y-112712319D01*
X122146164Y-112685914D01*
X122229816Y-112602262D01*
X122325789Y-112449522D01*
X122385368Y-112279255D01*
X122390825Y-112230824D01*
X122405565Y-112100003D01*
X122405565Y-112099996D01*
X122385369Y-111920750D01*
X122385368Y-111920745D01*
X122379689Y-111904516D01*
X122325789Y-111750478D01*
X122306146Y-111719217D01*
X122251281Y-111631899D01*
X122229816Y-111597738D01*
X122102262Y-111470184D01*
X122081275Y-111456997D01*
X121949523Y-111374211D01*
X121779254Y-111314631D01*
X121779249Y-111314630D01*
X121600004Y-111294435D01*
X121599996Y-111294435D01*
X121420750Y-111314630D01*
X121420745Y-111314631D01*
X121250476Y-111374211D01*
X121097737Y-111470184D01*
X120970184Y-111597737D01*
X120874211Y-111750476D01*
X120814631Y-111920745D01*
X120814630Y-111920750D01*
X120794435Y-112099996D01*
X114223764Y-112099996D01*
X114296671Y-111904523D01*
X114355978Y-111631894D01*
X114375882Y-111353600D01*
X114355978Y-111075306D01*
X114339915Y-111001468D01*
X114296672Y-110802683D01*
X114296671Y-110802677D01*
X114199169Y-110541263D01*
X114165547Y-110479690D01*
X114065459Y-110296392D01*
X114065454Y-110296384D01*
X113898261Y-110073039D01*
X113898245Y-110073021D01*
X113700978Y-109875754D01*
X113700960Y-109875738D01*
X113477615Y-109708545D01*
X113477607Y-109708540D01*
X113232742Y-109574833D01*
X113232738Y-109574831D01*
X113133630Y-109537866D01*
X112971323Y-109477329D01*
X112971319Y-109477328D01*
X112971316Y-109477327D01*
X112698699Y-109418022D01*
X112420401Y-109398118D01*
X112420399Y-109398118D01*
X112142100Y-109418022D01*
X111869483Y-109477327D01*
X111869478Y-109477328D01*
X111869477Y-109477329D01*
X111806275Y-109500901D01*
X111608061Y-109574831D01*
X111608057Y-109574833D01*
X111363192Y-109708540D01*
X111363184Y-109708545D01*
X111139839Y-109875738D01*
X111139821Y-109875754D01*
X110942554Y-110073021D01*
X110942538Y-110073039D01*
X110775345Y-110296384D01*
X110775340Y-110296392D01*
X110641633Y-110541257D01*
X110641631Y-110541261D01*
X110544127Y-110802683D01*
X110484822Y-111075300D01*
X110464918Y-111353598D01*
X86559339Y-111353598D01*
X86528337Y-111304259D01*
X86400783Y-111176705D01*
X86387505Y-111168362D01*
X86248044Y-111080732D01*
X86187645Y-111059598D01*
X86137895Y-111042189D01*
X86081120Y-111001468D01*
X86061809Y-110966102D01*
X86023267Y-110855955D01*
X85927294Y-110703216D01*
X85799741Y-110575663D01*
X85647002Y-110479690D01*
X85476733Y-110420110D01*
X85476728Y-110420109D01*
X85297483Y-110399914D01*
X85297475Y-110399914D01*
X85118229Y-110420109D01*
X85118224Y-110420110D01*
X84947955Y-110479690D01*
X84795216Y-110575663D01*
X84667663Y-110703216D01*
X84571690Y-110855955D01*
X84512110Y-111026224D01*
X84512109Y-111026229D01*
X84491914Y-111205475D01*
X72506088Y-111205475D01*
X72496778Y-111075306D01*
X72480715Y-111001468D01*
X72437472Y-110802683D01*
X72437471Y-110802677D01*
X72339969Y-110541263D01*
X72306347Y-110479690D01*
X72206259Y-110296392D01*
X72206254Y-110296384D01*
X72039061Y-110073039D01*
X72039045Y-110073021D01*
X71936220Y-109970196D01*
X96127035Y-109970196D01*
X96127035Y-109970203D01*
X96147230Y-110149449D01*
X96147231Y-110149454D01*
X96206811Y-110319723D01*
X96271293Y-110422344D01*
X96302784Y-110472462D01*
X96430338Y-110600016D01*
X96583078Y-110695989D01*
X96753345Y-110755568D01*
X96753350Y-110755569D01*
X96932596Y-110775765D01*
X96932600Y-110775765D01*
X96932604Y-110775765D01*
X97111849Y-110755569D01*
X97111852Y-110755568D01*
X97111855Y-110755568D01*
X97282122Y-110695989D01*
X97434862Y-110600016D01*
X97562416Y-110472462D01*
X97658389Y-110319722D01*
X97717968Y-110149455D01*
X97738165Y-109970200D01*
X97717968Y-109790945D01*
X97658389Y-109620678D01*
X97562416Y-109467938D01*
X97434862Y-109340384D01*
X97282123Y-109244411D01*
X97111854Y-109184831D01*
X97111849Y-109184830D01*
X96932604Y-109164635D01*
X96932596Y-109164635D01*
X96753350Y-109184830D01*
X96753345Y-109184831D01*
X96583076Y-109244411D01*
X96430337Y-109340384D01*
X96302784Y-109467937D01*
X96206811Y-109620676D01*
X96147231Y-109790945D01*
X96147230Y-109790950D01*
X96127035Y-109970196D01*
X71936220Y-109970196D01*
X71841778Y-109875754D01*
X71841760Y-109875738D01*
X71618415Y-109708545D01*
X71618407Y-109708540D01*
X71373542Y-109574833D01*
X71373538Y-109574831D01*
X71274430Y-109537866D01*
X71112123Y-109477329D01*
X71112119Y-109477328D01*
X71112116Y-109477327D01*
X70839499Y-109418022D01*
X70561201Y-109398118D01*
X70561199Y-109398118D01*
X70282900Y-109418022D01*
X70010283Y-109477327D01*
X70010278Y-109477328D01*
X70010277Y-109477329D01*
X69947075Y-109500901D01*
X69748861Y-109574831D01*
X69748857Y-109574833D01*
X69503992Y-109708540D01*
X69503984Y-109708545D01*
X69280639Y-109875738D01*
X69280621Y-109875754D01*
X69083354Y-110073021D01*
X69083338Y-110073039D01*
X68916145Y-110296384D01*
X68916140Y-110296392D01*
X68782433Y-110541257D01*
X68782431Y-110541261D01*
X68684927Y-110802683D01*
X68625622Y-111075300D01*
X68605718Y-111353598D01*
X58920500Y-111353598D01*
X58920500Y-108178596D01*
X74867835Y-108178596D01*
X74867835Y-108178603D01*
X74888030Y-108357849D01*
X74888031Y-108357854D01*
X74947611Y-108528123D01*
X74979531Y-108578923D01*
X75043584Y-108680862D01*
X75171138Y-108808416D01*
X75323878Y-108904389D01*
X75451986Y-108949216D01*
X75494145Y-108963968D01*
X75494150Y-108963969D01*
X75673396Y-108984165D01*
X75673400Y-108984165D01*
X75673404Y-108984165D01*
X75852649Y-108963969D01*
X75852651Y-108963968D01*
X75852655Y-108963968D01*
X75852658Y-108963966D01*
X75852662Y-108963966D01*
X75919240Y-108940668D01*
X76022922Y-108904389D01*
X76032428Y-108898415D01*
X76099663Y-108879415D01*
X76164371Y-108898415D01*
X76173878Y-108904389D01*
X76225718Y-108922528D01*
X76344137Y-108963966D01*
X76344143Y-108963967D01*
X76344145Y-108963968D01*
X76344146Y-108963968D01*
X76344150Y-108963969D01*
X76523396Y-108984165D01*
X76523400Y-108984165D01*
X76523404Y-108984165D01*
X76702649Y-108963969D01*
X76702652Y-108963968D01*
X76702655Y-108963968D01*
X76872922Y-108904389D01*
X77025662Y-108808416D01*
X77153216Y-108680862D01*
X77249189Y-108528122D01*
X77308768Y-108357855D01*
X77323241Y-108229403D01*
X77323242Y-108229396D01*
X78804835Y-108229396D01*
X78804835Y-108229403D01*
X78825030Y-108408649D01*
X78825031Y-108408654D01*
X78884611Y-108578923D01*
X78948664Y-108680862D01*
X78980584Y-108731662D01*
X79108138Y-108859216D01*
X79260878Y-108955189D01*
X79343687Y-108984165D01*
X79431145Y-109014768D01*
X79431150Y-109014769D01*
X79610396Y-109034965D01*
X79610400Y-109034965D01*
X79610404Y-109034965D01*
X79789649Y-109014769D01*
X79789651Y-109014768D01*
X79789655Y-109014768D01*
X79789658Y-109014766D01*
X79789662Y-109014766D01*
X79877113Y-108984165D01*
X79959922Y-108955189D01*
X79969428Y-108949215D01*
X80036663Y-108930215D01*
X80101371Y-108949215D01*
X80110878Y-108955189D01*
X80135967Y-108963968D01*
X80281137Y-109014766D01*
X80281143Y-109014767D01*
X80281145Y-109014768D01*
X80281146Y-109014768D01*
X80281150Y-109014769D01*
X80460396Y-109034965D01*
X80460400Y-109034965D01*
X80460404Y-109034965D01*
X80639649Y-109014769D01*
X80639652Y-109014768D01*
X80639655Y-109014768D01*
X80809922Y-108955189D01*
X80962662Y-108859216D01*
X81090216Y-108731662D01*
X81186189Y-108578922D01*
X81245768Y-108408655D01*
X81251492Y-108357854D01*
X81265965Y-108229403D01*
X81265965Y-108229396D01*
X81245769Y-108050150D01*
X81245768Y-108050145D01*
X81186188Y-107879876D01*
X81090215Y-107727137D01*
X80962662Y-107599584D01*
X80809923Y-107503611D01*
X80639654Y-107444031D01*
X80639649Y-107444030D01*
X80460404Y-107423835D01*
X80460396Y-107423835D01*
X80281150Y-107444030D01*
X80281145Y-107444031D01*
X80110874Y-107503612D01*
X80101368Y-107509585D01*
X80034131Y-107528583D01*
X79969432Y-107509585D01*
X79959925Y-107503612D01*
X79789654Y-107444031D01*
X79789649Y-107444030D01*
X79610404Y-107423835D01*
X79610396Y-107423835D01*
X79431150Y-107444030D01*
X79431145Y-107444031D01*
X79260876Y-107503611D01*
X79108137Y-107599584D01*
X78980584Y-107727137D01*
X78884611Y-107879876D01*
X78825031Y-108050145D01*
X78825030Y-108050150D01*
X78804835Y-108229396D01*
X77323242Y-108229396D01*
X77328965Y-108178603D01*
X77328965Y-108178596D01*
X77308769Y-107999350D01*
X77308768Y-107999345D01*
X77249189Y-107829078D01*
X77153216Y-107676338D01*
X77025662Y-107548784D01*
X76872923Y-107452811D01*
X76702654Y-107393231D01*
X76702649Y-107393230D01*
X76523404Y-107373035D01*
X76523396Y-107373035D01*
X76344150Y-107393230D01*
X76344145Y-107393231D01*
X76173874Y-107452812D01*
X76164368Y-107458785D01*
X76097131Y-107477783D01*
X76032432Y-107458785D01*
X76022925Y-107452812D01*
X75852654Y-107393231D01*
X75852649Y-107393230D01*
X75673404Y-107373035D01*
X75673396Y-107373035D01*
X75494150Y-107393230D01*
X75494145Y-107393231D01*
X75323876Y-107452811D01*
X75171137Y-107548784D01*
X75043584Y-107676337D01*
X74947611Y-107829076D01*
X74888031Y-107999345D01*
X74888030Y-107999350D01*
X74867835Y-108178596D01*
X58920500Y-108178596D01*
X58920500Y-105790196D01*
X96126035Y-105790196D01*
X96126035Y-105790203D01*
X96146230Y-105969449D01*
X96146231Y-105969454D01*
X96205811Y-106139723D01*
X96263593Y-106231682D01*
X96301784Y-106292462D01*
X96429338Y-106420016D01*
X96503182Y-106466415D01*
X96580166Y-106514788D01*
X96582078Y-106515989D01*
X96682045Y-106550969D01*
X96752345Y-106575568D01*
X96752350Y-106575569D01*
X96931596Y-106595765D01*
X96931600Y-106595765D01*
X96931604Y-106595765D01*
X97110849Y-106575569D01*
X97110852Y-106575568D01*
X97110855Y-106575568D01*
X97281122Y-106515989D01*
X97433862Y-106420016D01*
X97561416Y-106292462D01*
X97657389Y-106139722D01*
X97716968Y-105969455D01*
X97719740Y-105944854D01*
X97737165Y-105790203D01*
X97737165Y-105790196D01*
X97728670Y-105714796D01*
X107278235Y-105714796D01*
X107278235Y-105714803D01*
X107298430Y-105894049D01*
X107298431Y-105894054D01*
X107358011Y-106064323D01*
X107434806Y-106186541D01*
X107453984Y-106217062D01*
X107581538Y-106344616D01*
X107662384Y-106395415D01*
X107717799Y-106430235D01*
X107734278Y-106440589D01*
X107862386Y-106485416D01*
X107904545Y-106500168D01*
X107904550Y-106500169D01*
X108083796Y-106520365D01*
X108083800Y-106520365D01*
X108083804Y-106520365D01*
X108263049Y-106500169D01*
X108263051Y-106500168D01*
X108263055Y-106500168D01*
X108263058Y-106500166D01*
X108263062Y-106500166D01*
X108329640Y-106476868D01*
X108433322Y-106440589D01*
X108442828Y-106434615D01*
X108510063Y-106415615D01*
X108574771Y-106434615D01*
X108584278Y-106440589D01*
X108608990Y-106449236D01*
X108754537Y-106500166D01*
X108754543Y-106500167D01*
X108754545Y-106500168D01*
X108754546Y-106500168D01*
X108754550Y-106500169D01*
X108933796Y-106520365D01*
X108933800Y-106520365D01*
X108933804Y-106520365D01*
X109113049Y-106500169D01*
X109113052Y-106500168D01*
X109113055Y-106500168D01*
X109283322Y-106440589D01*
X109436062Y-106344616D01*
X109490832Y-106289845D01*
X109552151Y-106256363D01*
X109621843Y-106261347D01*
X109666191Y-106289848D01*
X109735579Y-106359236D01*
X109825306Y-106415615D01*
X109870419Y-106443962D01*
X109888319Y-106455209D01*
X110058580Y-106514786D01*
X110058586Y-106514788D01*
X110058591Y-106514789D01*
X110237837Y-106534985D01*
X110237841Y-106534985D01*
X110237845Y-106534985D01*
X110417090Y-106514789D01*
X110417092Y-106514788D01*
X110417096Y-106514788D01*
X110417099Y-106514786D01*
X110417103Y-106514786D01*
X110483681Y-106491488D01*
X110587363Y-106455209D01*
X110596869Y-106449235D01*
X110664104Y-106430235D01*
X110728812Y-106449235D01*
X110738319Y-106455209D01*
X110770344Y-106466415D01*
X110908578Y-106514786D01*
X110908584Y-106514787D01*
X110908586Y-106514788D01*
X110908587Y-106514788D01*
X110908591Y-106514789D01*
X111087837Y-106534985D01*
X111087841Y-106534985D01*
X111087845Y-106534985D01*
X111267090Y-106514789D01*
X111267093Y-106514788D01*
X111267096Y-106514788D01*
X111437363Y-106455209D01*
X111590103Y-106359236D01*
X111717657Y-106231682D01*
X111746020Y-106186541D01*
X111798352Y-106140252D01*
X111867405Y-106129602D01*
X111931254Y-106157976D01*
X111956006Y-106186541D01*
X111975182Y-106217060D01*
X111975184Y-106217062D01*
X112102738Y-106344616D01*
X112183584Y-106395415D01*
X112238999Y-106430235D01*
X112255478Y-106440589D01*
X112383586Y-106485416D01*
X112425745Y-106500168D01*
X112425750Y-106500169D01*
X112604996Y-106520365D01*
X112605000Y-106520365D01*
X112605004Y-106520365D01*
X112784249Y-106500169D01*
X112784251Y-106500168D01*
X112784255Y-106500168D01*
X112784258Y-106500166D01*
X112784262Y-106500166D01*
X112850840Y-106476868D01*
X112954522Y-106440589D01*
X112964028Y-106434615D01*
X113031263Y-106415615D01*
X113095971Y-106434615D01*
X113105478Y-106440589D01*
X113130190Y-106449236D01*
X113275737Y-106500166D01*
X113275743Y-106500167D01*
X113275745Y-106500168D01*
X113275746Y-106500168D01*
X113275750Y-106500169D01*
X113454996Y-106520365D01*
X113455000Y-106520365D01*
X113455004Y-106520365D01*
X113634249Y-106500169D01*
X113634252Y-106500168D01*
X113634255Y-106500168D01*
X113804522Y-106440589D01*
X113957262Y-106344616D01*
X114084816Y-106217062D01*
X114084824Y-106217048D01*
X114085052Y-106216764D01*
X114085260Y-106216617D01*
X114089740Y-106212138D01*
X114090524Y-106212922D01*
X114142238Y-106176620D01*
X114212049Y-106173765D01*
X114272322Y-106209106D01*
X114286996Y-106228095D01*
X114311984Y-106267862D01*
X114439538Y-106395416D01*
X114592278Y-106491389D01*
X114662578Y-106515988D01*
X114762545Y-106550968D01*
X114762550Y-106550969D01*
X114941796Y-106571165D01*
X114941800Y-106571165D01*
X114941804Y-106571165D01*
X115121049Y-106550969D01*
X115121051Y-106550968D01*
X115121055Y-106550968D01*
X115121058Y-106550966D01*
X115121062Y-106550966D01*
X115221019Y-106515989D01*
X115291322Y-106491389D01*
X115300828Y-106485415D01*
X115368063Y-106466415D01*
X115432771Y-106485415D01*
X115442278Y-106491389D01*
X115467367Y-106500168D01*
X115612537Y-106550966D01*
X115612543Y-106550967D01*
X115612545Y-106550968D01*
X115612546Y-106550968D01*
X115612550Y-106550969D01*
X115791796Y-106571165D01*
X115791800Y-106571165D01*
X115791804Y-106571165D01*
X115971049Y-106550969D01*
X115971052Y-106550968D01*
X115971055Y-106550968D01*
X116141322Y-106491389D01*
X116294062Y-106395416D01*
X116421616Y-106267862D01*
X116517589Y-106115122D01*
X116577168Y-105944855D01*
X116582892Y-105894054D01*
X116597365Y-105765603D01*
X116597365Y-105765596D01*
X116577169Y-105586350D01*
X116577168Y-105586345D01*
X116517588Y-105416076D01*
X116437073Y-105287938D01*
X116421616Y-105263338D01*
X116294062Y-105135784D01*
X116236482Y-105099604D01*
X116141323Y-105039811D01*
X115971054Y-104980231D01*
X115971049Y-104980230D01*
X115791804Y-104960035D01*
X115791796Y-104960035D01*
X115612550Y-104980230D01*
X115612545Y-104980231D01*
X115442274Y-105039812D01*
X115432768Y-105045785D01*
X115365531Y-105064783D01*
X115300832Y-105045785D01*
X115291325Y-105039812D01*
X115121054Y-104980231D01*
X115121049Y-104980230D01*
X114941804Y-104960035D01*
X114941796Y-104960035D01*
X114762550Y-104980230D01*
X114762545Y-104980231D01*
X114592276Y-105039811D01*
X114439537Y-105135784D01*
X114311980Y-105263341D01*
X114311732Y-105263653D01*
X114311520Y-105263801D01*
X114307060Y-105268262D01*
X114306278Y-105267480D01*
X114254539Y-105303787D01*
X114184727Y-105306628D01*
X114124461Y-105271276D01*
X114109800Y-105252300D01*
X114084818Y-105212540D01*
X113957262Y-105084984D01*
X113804523Y-104989011D01*
X113634254Y-104929431D01*
X113634249Y-104929430D01*
X113455004Y-104909235D01*
X113454996Y-104909235D01*
X113275750Y-104929430D01*
X113275745Y-104929431D01*
X113105474Y-104989012D01*
X113095968Y-104994985D01*
X113028731Y-105013983D01*
X112964032Y-104994985D01*
X112954525Y-104989012D01*
X112784254Y-104929431D01*
X112784249Y-104929430D01*
X112605004Y-104909235D01*
X112604996Y-104909235D01*
X112425750Y-104929430D01*
X112425745Y-104929431D01*
X112255476Y-104989011D01*
X112102737Y-105084984D01*
X111975182Y-105212539D01*
X111946820Y-105257678D01*
X111894485Y-105303969D01*
X111825432Y-105314616D01*
X111761584Y-105286241D01*
X111736833Y-105257677D01*
X111733454Y-105252300D01*
X111717657Y-105227158D01*
X111590103Y-105099604D01*
X111570421Y-105087237D01*
X111437364Y-105003631D01*
X111267095Y-104944051D01*
X111267090Y-104944050D01*
X111087845Y-104923855D01*
X111087837Y-104923855D01*
X110908591Y-104944050D01*
X110908586Y-104944051D01*
X110738315Y-105003632D01*
X110728809Y-105009605D01*
X110661572Y-105028603D01*
X110596873Y-105009605D01*
X110587366Y-105003632D01*
X110417095Y-104944051D01*
X110417090Y-104944050D01*
X110237845Y-104923855D01*
X110237837Y-104923855D01*
X110058591Y-104944050D01*
X110058586Y-104944051D01*
X109888317Y-105003631D01*
X109735580Y-105099603D01*
X109680811Y-105154372D01*
X109619487Y-105187856D01*
X109549795Y-105182871D01*
X109505449Y-105154371D01*
X109436062Y-105084984D01*
X109283323Y-104989011D01*
X109113054Y-104929431D01*
X109113049Y-104929430D01*
X108933804Y-104909235D01*
X108933796Y-104909235D01*
X108754550Y-104929430D01*
X108754545Y-104929431D01*
X108584274Y-104989012D01*
X108574768Y-104994985D01*
X108507531Y-105013983D01*
X108442832Y-104994985D01*
X108433325Y-104989012D01*
X108263054Y-104929431D01*
X108263049Y-104929430D01*
X108083804Y-104909235D01*
X108083796Y-104909235D01*
X107904550Y-104929430D01*
X107904545Y-104929431D01*
X107734276Y-104989011D01*
X107581537Y-105084984D01*
X107453984Y-105212537D01*
X107358011Y-105365276D01*
X107298431Y-105535545D01*
X107298430Y-105535550D01*
X107278235Y-105714796D01*
X97728670Y-105714796D01*
X97716969Y-105610950D01*
X97716968Y-105610945D01*
X97657388Y-105440676D01*
X97578179Y-105314616D01*
X97561416Y-105287938D01*
X97433862Y-105160384D01*
X97424292Y-105154371D01*
X97281123Y-105064411D01*
X97110854Y-105004831D01*
X97110849Y-105004830D01*
X96931604Y-104984635D01*
X96931596Y-104984635D01*
X96752350Y-105004830D01*
X96752345Y-105004831D01*
X96582076Y-105064411D01*
X96429337Y-105160384D01*
X96301784Y-105287937D01*
X96205811Y-105440676D01*
X96146231Y-105610945D01*
X96146230Y-105610950D01*
X96126035Y-105790196D01*
X58920500Y-105790196D01*
X58920500Y-101618996D01*
X96115835Y-101618996D01*
X96115835Y-101619003D01*
X96136030Y-101798249D01*
X96136031Y-101798254D01*
X96195611Y-101968523D01*
X96291584Y-102121262D01*
X96419138Y-102248816D01*
X96571878Y-102344789D01*
X96742145Y-102404368D01*
X96742150Y-102404369D01*
X96921396Y-102424565D01*
X96921400Y-102424565D01*
X96921404Y-102424565D01*
X97100649Y-102404369D01*
X97100652Y-102404368D01*
X97100655Y-102404368D01*
X97270922Y-102344789D01*
X97423662Y-102248816D01*
X97551216Y-102121262D01*
X97647189Y-101968522D01*
X97706768Y-101798255D01*
X97726965Y-101619000D01*
X97706768Y-101439745D01*
X97647189Y-101269478D01*
X97551216Y-101116738D01*
X97423662Y-100989184D01*
X97270923Y-100893211D01*
X97100654Y-100833631D01*
X97100649Y-100833630D01*
X96921404Y-100813435D01*
X96921396Y-100813435D01*
X96742150Y-100833630D01*
X96742145Y-100833631D01*
X96571876Y-100893211D01*
X96419137Y-100989184D01*
X96291584Y-101116737D01*
X96195611Y-101269476D01*
X96136031Y-101439745D01*
X96136030Y-101439750D01*
X96115835Y-101618996D01*
X58920500Y-101618996D01*
X58920500Y-52577999D01*
X67986341Y-52577999D01*
X67986341Y-52578000D01*
X68006936Y-52813403D01*
X68006938Y-52813413D01*
X68068094Y-53041655D01*
X68068096Y-53041659D01*
X68068097Y-53041663D01*
X68124708Y-53163065D01*
X68167965Y-53255830D01*
X68167967Y-53255834D01*
X68276281Y-53410521D01*
X68303501Y-53449396D01*
X68303506Y-53449402D01*
X68470597Y-53616493D01*
X68470603Y-53616498D01*
X68656158Y-53746425D01*
X68699783Y-53801002D01*
X68706977Y-53870500D01*
X68675454Y-53932855D01*
X68656158Y-53949575D01*
X68470597Y-54079505D01*
X68303505Y-54246597D01*
X68167965Y-54440169D01*
X68167964Y-54440171D01*
X68068098Y-54654335D01*
X68068094Y-54654344D01*
X68006938Y-54882586D01*
X68006936Y-54882596D01*
X67986341Y-55117999D01*
X67986341Y-55118000D01*
X68006936Y-55353403D01*
X68006938Y-55353413D01*
X68068094Y-55581655D01*
X68068096Y-55581659D01*
X68068097Y-55581663D01*
X68112785Y-55677496D01*
X68167965Y-55795830D01*
X68167967Y-55795834D01*
X68230919Y-55885738D01*
X68303501Y-55989396D01*
X68303506Y-55989402D01*
X68470597Y-56156493D01*
X68470603Y-56156498D01*
X68656158Y-56286425D01*
X68699783Y-56341002D01*
X68706977Y-56410500D01*
X68675454Y-56472855D01*
X68656158Y-56489575D01*
X68470597Y-56619505D01*
X68303505Y-56786597D01*
X68167965Y-56980169D01*
X68167964Y-56980171D01*
X68068098Y-57194335D01*
X68068094Y-57194344D01*
X68006938Y-57422586D01*
X68006936Y-57422596D01*
X67986341Y-57657999D01*
X67986341Y-57658000D01*
X68006936Y-57893403D01*
X68006938Y-57893413D01*
X68068094Y-58121655D01*
X68068096Y-58121659D01*
X68068097Y-58121663D01*
X68072000Y-58130032D01*
X68167965Y-58335830D01*
X68167967Y-58335834D01*
X68276281Y-58490521D01*
X68303501Y-58529396D01*
X68303506Y-58529402D01*
X68470597Y-58696493D01*
X68470603Y-58696498D01*
X68656158Y-58826425D01*
X68699783Y-58881002D01*
X68706977Y-58950500D01*
X68675454Y-59012855D01*
X68656158Y-59029575D01*
X68470597Y-59159505D01*
X68303505Y-59326597D01*
X68167965Y-59520169D01*
X68167964Y-59520171D01*
X68068098Y-59734335D01*
X68068094Y-59734344D01*
X68006938Y-59962586D01*
X68006936Y-59962596D01*
X67986341Y-60197999D01*
X67986341Y-60198000D01*
X68006936Y-60433403D01*
X68006938Y-60433413D01*
X68068094Y-60661655D01*
X68068096Y-60661659D01*
X68068097Y-60661663D01*
X68089473Y-60707503D01*
X68167965Y-60875830D01*
X68167967Y-60875834D01*
X68276281Y-61030521D01*
X68303501Y-61069396D01*
X68303506Y-61069402D01*
X68470597Y-61236493D01*
X68470603Y-61236498D01*
X68656158Y-61366425D01*
X68699783Y-61421002D01*
X68706977Y-61490500D01*
X68675454Y-61552855D01*
X68656158Y-61569575D01*
X68470597Y-61699505D01*
X68303505Y-61866597D01*
X68167965Y-62060169D01*
X68167964Y-62060171D01*
X68068098Y-62274335D01*
X68068094Y-62274344D01*
X68006938Y-62502586D01*
X68006936Y-62502596D01*
X67986341Y-62737999D01*
X67986341Y-62738000D01*
X68006936Y-62973403D01*
X68006938Y-62973413D01*
X68068094Y-63201655D01*
X68068096Y-63201659D01*
X68068097Y-63201663D01*
X68072979Y-63212132D01*
X68167965Y-63415830D01*
X68167967Y-63415834D01*
X68276281Y-63570521D01*
X68303501Y-63609396D01*
X68303506Y-63609402D01*
X68470597Y-63776493D01*
X68470603Y-63776498D01*
X68656158Y-63906425D01*
X68699783Y-63961002D01*
X68706977Y-64030500D01*
X68675454Y-64092855D01*
X68656158Y-64109575D01*
X68470597Y-64239505D01*
X68303505Y-64406597D01*
X68167965Y-64600169D01*
X68167964Y-64600171D01*
X68068098Y-64814335D01*
X68068094Y-64814344D01*
X68006938Y-65042586D01*
X68006936Y-65042596D01*
X67986341Y-65277999D01*
X67986341Y-65278000D01*
X68006936Y-65513403D01*
X68006938Y-65513413D01*
X68068094Y-65741655D01*
X68068096Y-65741659D01*
X68068097Y-65741663D01*
X68072000Y-65750032D01*
X68167965Y-65955830D01*
X68167967Y-65955834D01*
X68276281Y-66110521D01*
X68303501Y-66149396D01*
X68303506Y-66149402D01*
X68470597Y-66316493D01*
X68470603Y-66316498D01*
X68656158Y-66446425D01*
X68699783Y-66501002D01*
X68706977Y-66570500D01*
X68675454Y-66632855D01*
X68656158Y-66649575D01*
X68470597Y-66779505D01*
X68303505Y-66946597D01*
X68167965Y-67140169D01*
X68167964Y-67140171D01*
X68068098Y-67354335D01*
X68068094Y-67354344D01*
X68006938Y-67582586D01*
X68006936Y-67582596D01*
X67986341Y-67817999D01*
X67986341Y-67818000D01*
X68006936Y-68053403D01*
X68006938Y-68053413D01*
X68068094Y-68281655D01*
X68068096Y-68281659D01*
X68068097Y-68281663D01*
X68072000Y-68290032D01*
X68167965Y-68495830D01*
X68167967Y-68495834D01*
X68276281Y-68650521D01*
X68303501Y-68689396D01*
X68303506Y-68689402D01*
X68470597Y-68856493D01*
X68470603Y-68856498D01*
X68656158Y-68986425D01*
X68699783Y-69041002D01*
X68706977Y-69110500D01*
X68675454Y-69172855D01*
X68656158Y-69189575D01*
X68470597Y-69319505D01*
X68303505Y-69486597D01*
X68167965Y-69680169D01*
X68167964Y-69680171D01*
X68068098Y-69894335D01*
X68068094Y-69894344D01*
X68006938Y-70122586D01*
X68006936Y-70122596D01*
X67986341Y-70357999D01*
X67986341Y-70358000D01*
X68006936Y-70593403D01*
X68006938Y-70593413D01*
X68068094Y-70821655D01*
X68068096Y-70821659D01*
X68068097Y-70821663D01*
X68072000Y-70830032D01*
X68167965Y-71035830D01*
X68167967Y-71035834D01*
X68249842Y-71152762D01*
X68303501Y-71229396D01*
X68303506Y-71229402D01*
X68470597Y-71396493D01*
X68470603Y-71396498D01*
X68656158Y-71526425D01*
X68699783Y-71581002D01*
X68706977Y-71650500D01*
X68675454Y-71712855D01*
X68656158Y-71729575D01*
X68470597Y-71859505D01*
X68303505Y-72026597D01*
X68167965Y-72220169D01*
X68167964Y-72220171D01*
X68068098Y-72434335D01*
X68068094Y-72434344D01*
X68006938Y-72662586D01*
X68006936Y-72662596D01*
X67986341Y-72897999D01*
X67986341Y-72898000D01*
X68006936Y-73133403D01*
X68006938Y-73133413D01*
X68068094Y-73361655D01*
X68068096Y-73361659D01*
X68068097Y-73361663D01*
X68072000Y-73370032D01*
X68167965Y-73575830D01*
X68167967Y-73575834D01*
X68276281Y-73730521D01*
X68303501Y-73769396D01*
X68303506Y-73769402D01*
X68470597Y-73936493D01*
X68470603Y-73936498D01*
X68656158Y-74066425D01*
X68699783Y-74121002D01*
X68706977Y-74190500D01*
X68675454Y-74252855D01*
X68656158Y-74269575D01*
X68470597Y-74399505D01*
X68303505Y-74566597D01*
X68167965Y-74760169D01*
X68167964Y-74760171D01*
X68068098Y-74974335D01*
X68068094Y-74974344D01*
X68006938Y-75202586D01*
X68006936Y-75202596D01*
X67986341Y-75437999D01*
X67986341Y-75438000D01*
X68006936Y-75673403D01*
X68006938Y-75673413D01*
X68068094Y-75901655D01*
X68068096Y-75901659D01*
X68068097Y-75901663D01*
X68148004Y-76073023D01*
X68167965Y-76115830D01*
X68167967Y-76115834D01*
X68255458Y-76240783D01*
X68303501Y-76309396D01*
X68303506Y-76309402D01*
X68470597Y-76476493D01*
X68470603Y-76476498D01*
X68656158Y-76606425D01*
X68699783Y-76661002D01*
X68706977Y-76730500D01*
X68675454Y-76792855D01*
X68656158Y-76809575D01*
X68470597Y-76939505D01*
X68303505Y-77106597D01*
X68167965Y-77300169D01*
X68167964Y-77300171D01*
X68068098Y-77514335D01*
X68068094Y-77514344D01*
X68006938Y-77742586D01*
X68006936Y-77742596D01*
X67986341Y-77977999D01*
X67986341Y-77978000D01*
X68006936Y-78213403D01*
X68006938Y-78213413D01*
X68068094Y-78441655D01*
X68068096Y-78441659D01*
X68068097Y-78441663D01*
X68072000Y-78450032D01*
X68167965Y-78655830D01*
X68167967Y-78655834D01*
X68218241Y-78727632D01*
X68303501Y-78849396D01*
X68303506Y-78849402D01*
X68470597Y-79016493D01*
X68470603Y-79016498D01*
X68656158Y-79146425D01*
X68699783Y-79201002D01*
X68706977Y-79270500D01*
X68675454Y-79332855D01*
X68656158Y-79349575D01*
X68470597Y-79479505D01*
X68303505Y-79646597D01*
X68167965Y-79840169D01*
X68167964Y-79840171D01*
X68068098Y-80054335D01*
X68068094Y-80054344D01*
X68006938Y-80282586D01*
X68006936Y-80282596D01*
X67986341Y-80517999D01*
X67986341Y-80518000D01*
X68006936Y-80753403D01*
X68006938Y-80753413D01*
X68068094Y-80981655D01*
X68068096Y-80981659D01*
X68068097Y-80981663D01*
X68119892Y-81092737D01*
X68167965Y-81195830D01*
X68167967Y-81195834D01*
X68276281Y-81350521D01*
X68303501Y-81389396D01*
X68303506Y-81389402D01*
X68470597Y-81556493D01*
X68470603Y-81556498D01*
X68656158Y-81686425D01*
X68699783Y-81741002D01*
X68706977Y-81810500D01*
X68675454Y-81872855D01*
X68656158Y-81889575D01*
X68470597Y-82019505D01*
X68303505Y-82186597D01*
X68167965Y-82380169D01*
X68167964Y-82380171D01*
X68068098Y-82594335D01*
X68068094Y-82594344D01*
X68006938Y-82822586D01*
X68006936Y-82822596D01*
X67986341Y-83057999D01*
X67986341Y-83058000D01*
X68006936Y-83293403D01*
X68006938Y-83293413D01*
X68068094Y-83521655D01*
X68068096Y-83521659D01*
X68068097Y-83521663D01*
X68072000Y-83530032D01*
X68167965Y-83735830D01*
X68167967Y-83735834D01*
X68276281Y-83890521D01*
X68303501Y-83929396D01*
X68303506Y-83929402D01*
X68470597Y-84096493D01*
X68470603Y-84096498D01*
X68656158Y-84226425D01*
X68699783Y-84281002D01*
X68706977Y-84350500D01*
X68675454Y-84412855D01*
X68656158Y-84429575D01*
X68470597Y-84559505D01*
X68303505Y-84726597D01*
X68167965Y-84920169D01*
X68167964Y-84920171D01*
X68068098Y-85134335D01*
X68068094Y-85134344D01*
X68006938Y-85362586D01*
X68006936Y-85362596D01*
X67986341Y-85597999D01*
X67986341Y-85598000D01*
X68006936Y-85833403D01*
X68006938Y-85833413D01*
X68068094Y-86061655D01*
X68068096Y-86061659D01*
X68068097Y-86061663D01*
X68072000Y-86070032D01*
X68167965Y-86275830D01*
X68167967Y-86275834D01*
X68276281Y-86430521D01*
X68303501Y-86469396D01*
X68303506Y-86469402D01*
X68470597Y-86636493D01*
X68470603Y-86636498D01*
X68656158Y-86766425D01*
X68699783Y-86821002D01*
X68706977Y-86890500D01*
X68675454Y-86952855D01*
X68656158Y-86969575D01*
X68470597Y-87099505D01*
X68303505Y-87266597D01*
X68167965Y-87460169D01*
X68167964Y-87460171D01*
X68068098Y-87674335D01*
X68068094Y-87674344D01*
X68006938Y-87902586D01*
X68006936Y-87902596D01*
X67986341Y-88137999D01*
X67986341Y-88138000D01*
X68006936Y-88373403D01*
X68006938Y-88373413D01*
X68068094Y-88601655D01*
X68068096Y-88601659D01*
X68068097Y-88601663D01*
X68072000Y-88610032D01*
X68167965Y-88815830D01*
X68167967Y-88815834D01*
X68238630Y-88916750D01*
X68303501Y-89009396D01*
X68303506Y-89009402D01*
X68470597Y-89176493D01*
X68470603Y-89176498D01*
X68656158Y-89306425D01*
X68699783Y-89361002D01*
X68706977Y-89430500D01*
X68675454Y-89492855D01*
X68656158Y-89509575D01*
X68470597Y-89639505D01*
X68303505Y-89806597D01*
X68167965Y-90000169D01*
X68167964Y-90000171D01*
X68068098Y-90214335D01*
X68068094Y-90214344D01*
X68006938Y-90442586D01*
X68006936Y-90442596D01*
X67986341Y-90677999D01*
X67986341Y-90678000D01*
X68006936Y-90913403D01*
X68006938Y-90913413D01*
X68068094Y-91141655D01*
X68068096Y-91141659D01*
X68068097Y-91141663D01*
X68148004Y-91313023D01*
X68167965Y-91355830D01*
X68167967Y-91355834D01*
X68230919Y-91445738D01*
X68303501Y-91549396D01*
X68303506Y-91549402D01*
X68470597Y-91716493D01*
X68470603Y-91716498D01*
X68656158Y-91846425D01*
X68699783Y-91901002D01*
X68706977Y-91970500D01*
X68675454Y-92032855D01*
X68656158Y-92049575D01*
X68470597Y-92179505D01*
X68303505Y-92346597D01*
X68167965Y-92540169D01*
X68167964Y-92540171D01*
X68068098Y-92754335D01*
X68068094Y-92754344D01*
X68006938Y-92982586D01*
X68006936Y-92982596D01*
X67986341Y-93217999D01*
X67986341Y-93218000D01*
X68006936Y-93453403D01*
X68006938Y-93453413D01*
X68068094Y-93681655D01*
X68068096Y-93681659D01*
X68068097Y-93681663D01*
X68072000Y-93690032D01*
X68167965Y-93895830D01*
X68167967Y-93895834D01*
X68228153Y-93981788D01*
X68303501Y-94089396D01*
X68303506Y-94089402D01*
X68470597Y-94256493D01*
X68470603Y-94256498D01*
X68656158Y-94386425D01*
X68699783Y-94441002D01*
X68706977Y-94510500D01*
X68675454Y-94572855D01*
X68656158Y-94589575D01*
X68470597Y-94719505D01*
X68303505Y-94886597D01*
X68167965Y-95080169D01*
X68167964Y-95080171D01*
X68068098Y-95294335D01*
X68068094Y-95294344D01*
X68006938Y-95522586D01*
X68006936Y-95522596D01*
X67986341Y-95757999D01*
X67986341Y-95758000D01*
X68006936Y-95993403D01*
X68006938Y-95993413D01*
X68068094Y-96221655D01*
X68068096Y-96221659D01*
X68068097Y-96221663D01*
X68148004Y-96393023D01*
X68167965Y-96435830D01*
X68167967Y-96435834D01*
X68187588Y-96463855D01*
X68303501Y-96629396D01*
X68303506Y-96629402D01*
X68470597Y-96796493D01*
X68470603Y-96796498D01*
X68656158Y-96926425D01*
X68699783Y-96981002D01*
X68706977Y-97050500D01*
X68675454Y-97112855D01*
X68656158Y-97129575D01*
X68470597Y-97259505D01*
X68303505Y-97426597D01*
X68167965Y-97620169D01*
X68167964Y-97620171D01*
X68068098Y-97834335D01*
X68068094Y-97834344D01*
X68006938Y-98062586D01*
X68006936Y-98062596D01*
X67986341Y-98297999D01*
X67986341Y-98298000D01*
X68006936Y-98533403D01*
X68006938Y-98533413D01*
X68068094Y-98761655D01*
X68068096Y-98761659D01*
X68068097Y-98761663D01*
X68072000Y-98770032D01*
X68167965Y-98975830D01*
X68167967Y-98975834D01*
X68276281Y-99130521D01*
X68303505Y-99169401D01*
X68470599Y-99336495D01*
X68567384Y-99404265D01*
X68664165Y-99472032D01*
X68664167Y-99472033D01*
X68664170Y-99472035D01*
X68878337Y-99571903D01*
X69106592Y-99633063D01*
X69294918Y-99649539D01*
X69341999Y-99653659D01*
X69342000Y-99653659D01*
X69342001Y-99653659D01*
X69381234Y-99650226D01*
X69577408Y-99633063D01*
X69805663Y-99571903D01*
X70019830Y-99472035D01*
X70213401Y-99336495D01*
X70380495Y-99169401D01*
X70510425Y-98983842D01*
X70565002Y-98940217D01*
X70634500Y-98933023D01*
X70696855Y-98964546D01*
X70713575Y-98983842D01*
X70843500Y-99169395D01*
X70843505Y-99169401D01*
X71010599Y-99336495D01*
X71107384Y-99404265D01*
X71204165Y-99472032D01*
X71204167Y-99472033D01*
X71204170Y-99472035D01*
X71418337Y-99571903D01*
X71646592Y-99633063D01*
X71834918Y-99649539D01*
X71881999Y-99653659D01*
X71882000Y-99653659D01*
X71882001Y-99653659D01*
X71921234Y-99650226D01*
X72117408Y-99633063D01*
X72345663Y-99571903D01*
X72559830Y-99472035D01*
X72753401Y-99336495D01*
X72920495Y-99169401D01*
X73056035Y-98975830D01*
X73155903Y-98761663D01*
X73217063Y-98533408D01*
X73237659Y-98298000D01*
X73217063Y-98062592D01*
X73155903Y-97834337D01*
X73056035Y-97620171D01*
X73050425Y-97612158D01*
X72939679Y-97453996D01*
X96125835Y-97453996D01*
X96125835Y-97454003D01*
X96146030Y-97633249D01*
X96146031Y-97633254D01*
X96205611Y-97803523D01*
X96301584Y-97956262D01*
X96429138Y-98083816D01*
X96581878Y-98179789D01*
X96752145Y-98239368D01*
X96752150Y-98239369D01*
X96931396Y-98259565D01*
X96931400Y-98259565D01*
X96931404Y-98259565D01*
X97110649Y-98239369D01*
X97110652Y-98239368D01*
X97110655Y-98239368D01*
X97280922Y-98179789D01*
X97433662Y-98083816D01*
X97561216Y-97956262D01*
X97657189Y-97803522D01*
X97716768Y-97633255D01*
X97716971Y-97631454D01*
X97736965Y-97454003D01*
X97736965Y-97453996D01*
X97716769Y-97274750D01*
X97716768Y-97274745D01*
X97657188Y-97104476D01*
X97561215Y-96951737D01*
X97433662Y-96824184D01*
X97280923Y-96728211D01*
X97110654Y-96668631D01*
X97110649Y-96668630D01*
X96931404Y-96648435D01*
X96931396Y-96648435D01*
X96752150Y-96668630D01*
X96752145Y-96668631D01*
X96581876Y-96728211D01*
X96429137Y-96824184D01*
X96301584Y-96951737D01*
X96205611Y-97104476D01*
X96146031Y-97274745D01*
X96146030Y-97274750D01*
X96125835Y-97453996D01*
X72939679Y-97453996D01*
X72920494Y-97426597D01*
X72753402Y-97259506D01*
X72753396Y-97259501D01*
X72567842Y-97129575D01*
X72524217Y-97074998D01*
X72517023Y-97005500D01*
X72548546Y-96943145D01*
X72567842Y-96926425D01*
X72713857Y-96824184D01*
X72753401Y-96796495D01*
X72920495Y-96629401D01*
X73056035Y-96435830D01*
X73155903Y-96221663D01*
X73217063Y-95993408D01*
X73237659Y-95758000D01*
X73217063Y-95522592D01*
X73193485Y-95434596D01*
X104655235Y-95434596D01*
X104655235Y-95434603D01*
X104675430Y-95613849D01*
X104675431Y-95613854D01*
X104735012Y-95784125D01*
X104740985Y-95793632D01*
X104759983Y-95860869D01*
X104740985Y-95925568D01*
X104735012Y-95935074D01*
X104675431Y-96105345D01*
X104675430Y-96105350D01*
X104655235Y-96284596D01*
X104655235Y-96284603D01*
X104675430Y-96463849D01*
X104675431Y-96463854D01*
X104735011Y-96634123D01*
X104756694Y-96668631D01*
X104830984Y-96786862D01*
X104958538Y-96914416D01*
X105111278Y-97010389D01*
X105225909Y-97050500D01*
X105281545Y-97069968D01*
X105281550Y-97069969D01*
X105460796Y-97090165D01*
X105460800Y-97090165D01*
X105460804Y-97090165D01*
X105640049Y-97069969D01*
X105640052Y-97069968D01*
X105640055Y-97069968D01*
X105810322Y-97010389D01*
X105963062Y-96914416D01*
X106090616Y-96786862D01*
X106186589Y-96634122D01*
X106246168Y-96463855D01*
X106248423Y-96443842D01*
X106266365Y-96284603D01*
X106266365Y-96284596D01*
X106246169Y-96105350D01*
X106246166Y-96105337D01*
X106186589Y-95935079D01*
X106186589Y-95935078D01*
X106180615Y-95925571D01*
X106161615Y-95858337D01*
X106180616Y-95793627D01*
X106186589Y-95784122D01*
X106246168Y-95613855D01*
X106246169Y-95613849D01*
X106266365Y-95434603D01*
X106266365Y-95434596D01*
X106246169Y-95255350D01*
X106246168Y-95255345D01*
X106186588Y-95085076D01*
X106090615Y-94932337D01*
X105963062Y-94804784D01*
X105810323Y-94708811D01*
X105640054Y-94649231D01*
X105640049Y-94649230D01*
X105460804Y-94629035D01*
X105460796Y-94629035D01*
X105281550Y-94649230D01*
X105281545Y-94649231D01*
X105111276Y-94708811D01*
X104958537Y-94804784D01*
X104830984Y-94932337D01*
X104735011Y-95085076D01*
X104675431Y-95255345D01*
X104675430Y-95255350D01*
X104655235Y-95434596D01*
X73193485Y-95434596D01*
X73155903Y-95294337D01*
X73056035Y-95080171D01*
X73050425Y-95072158D01*
X72920494Y-94886597D01*
X72753402Y-94719506D01*
X72753396Y-94719501D01*
X72567842Y-94589575D01*
X72524217Y-94534998D01*
X72517023Y-94465500D01*
X72548546Y-94403145D01*
X72567842Y-94386425D01*
X72590026Y-94370891D01*
X72753401Y-94256495D01*
X72920495Y-94089401D01*
X73056035Y-93895830D01*
X73155903Y-93681663D01*
X73217063Y-93453408D01*
X73234335Y-93255996D01*
X96136935Y-93255996D01*
X96136935Y-93256003D01*
X96157130Y-93435249D01*
X96157131Y-93435254D01*
X96216711Y-93605523D01*
X96264554Y-93681664D01*
X96312684Y-93758262D01*
X96440238Y-93885816D01*
X96592978Y-93981789D01*
X96763245Y-94041368D01*
X96763250Y-94041369D01*
X96942496Y-94061565D01*
X96942500Y-94061565D01*
X96942504Y-94061565D01*
X97121749Y-94041369D01*
X97121752Y-94041368D01*
X97121755Y-94041368D01*
X97292022Y-93981789D01*
X97444762Y-93885816D01*
X97572316Y-93758262D01*
X97668289Y-93605522D01*
X97727868Y-93435255D01*
X97748065Y-93256000D01*
X97743783Y-93218000D01*
X97727869Y-93076750D01*
X97727868Y-93076745D01*
X97668288Y-92906476D01*
X97629082Y-92844080D01*
X97572316Y-92753738D01*
X97444762Y-92626184D01*
X97367785Y-92577816D01*
X97292023Y-92530211D01*
X97121754Y-92470631D01*
X97121749Y-92470630D01*
X96942504Y-92450435D01*
X96942496Y-92450435D01*
X96763250Y-92470630D01*
X96763245Y-92470631D01*
X96592976Y-92530211D01*
X96440237Y-92626184D01*
X96312684Y-92753737D01*
X96216711Y-92906476D01*
X96157131Y-93076745D01*
X96157130Y-93076750D01*
X96136935Y-93255996D01*
X73234335Y-93255996D01*
X73237659Y-93218000D01*
X73217063Y-92982592D01*
X73155903Y-92754337D01*
X73056035Y-92540171D01*
X73050425Y-92532158D01*
X72920494Y-92346597D01*
X72753402Y-92179506D01*
X72753396Y-92179501D01*
X72567842Y-92049575D01*
X72524217Y-91994998D01*
X72517023Y-91925500D01*
X72548546Y-91863145D01*
X72567842Y-91846425D01*
X72649106Y-91789523D01*
X72753401Y-91716495D01*
X72920495Y-91549401D01*
X72997101Y-91439996D01*
X97594435Y-91439996D01*
X97594435Y-91440003D01*
X97614630Y-91619249D01*
X97614631Y-91619254D01*
X97674211Y-91789523D01*
X97759652Y-91925500D01*
X97770184Y-91942262D01*
X97897738Y-92069816D01*
X98050478Y-92165789D01*
X98220745Y-92225368D01*
X98220750Y-92225369D01*
X98399996Y-92245565D01*
X98400000Y-92245565D01*
X98400004Y-92245565D01*
X98579249Y-92225369D01*
X98579252Y-92225368D01*
X98579255Y-92225368D01*
X98749522Y-92165789D01*
X98902262Y-92069816D01*
X99024082Y-91947996D01*
X106068935Y-91947996D01*
X106068935Y-91948003D01*
X106089130Y-92127249D01*
X106089131Y-92127254D01*
X106148711Y-92297523D01*
X106179548Y-92346599D01*
X106244684Y-92450262D01*
X106372238Y-92577816D01*
X106524978Y-92673789D01*
X106695245Y-92733368D01*
X106695250Y-92733369D01*
X106874496Y-92753565D01*
X106874500Y-92753565D01*
X106874504Y-92753565D01*
X107053749Y-92733369D01*
X107053752Y-92733368D01*
X107053755Y-92733368D01*
X107224022Y-92673789D01*
X107376762Y-92577816D01*
X107504316Y-92450262D01*
X107600289Y-92297522D01*
X107659868Y-92127255D01*
X107666340Y-92069815D01*
X107680065Y-91948003D01*
X107680065Y-91947996D01*
X107659869Y-91768750D01*
X107659868Y-91768745D01*
X107600288Y-91598476D01*
X107504315Y-91445737D01*
X107376762Y-91318184D01*
X107224023Y-91222211D01*
X107053754Y-91162631D01*
X107053749Y-91162630D01*
X106874504Y-91142435D01*
X106874496Y-91142435D01*
X106695250Y-91162630D01*
X106695245Y-91162631D01*
X106524976Y-91222211D01*
X106372237Y-91318184D01*
X106244684Y-91445737D01*
X106148711Y-91598476D01*
X106089131Y-91768745D01*
X106089130Y-91768750D01*
X106068935Y-91947996D01*
X99024082Y-91947996D01*
X99029816Y-91942262D01*
X99125789Y-91789522D01*
X99185368Y-91619255D01*
X99187709Y-91598478D01*
X99205565Y-91440003D01*
X99205565Y-91439996D01*
X99185369Y-91260750D01*
X99185368Y-91260745D01*
X99146628Y-91150032D01*
X99125789Y-91090478D01*
X99029816Y-90937738D01*
X98902262Y-90810184D01*
X98749523Y-90714211D01*
X98579254Y-90654631D01*
X98579249Y-90654630D01*
X98400004Y-90634435D01*
X98399996Y-90634435D01*
X98220750Y-90654630D01*
X98220745Y-90654631D01*
X98050476Y-90714211D01*
X97897737Y-90810184D01*
X97770184Y-90937737D01*
X97674211Y-91090476D01*
X97614631Y-91260745D01*
X97614630Y-91260750D01*
X97594435Y-91439996D01*
X72997101Y-91439996D01*
X73056035Y-91355830D01*
X73155903Y-91141663D01*
X73217063Y-90913408D01*
X73237659Y-90678000D01*
X73217063Y-90442592D01*
X73155903Y-90214337D01*
X73056035Y-90000171D01*
X73050425Y-89992158D01*
X72920494Y-89806597D01*
X72753402Y-89639506D01*
X72753396Y-89639501D01*
X72567842Y-89509575D01*
X72524217Y-89454998D01*
X72517023Y-89385500D01*
X72548546Y-89323145D01*
X72567842Y-89306425D01*
X72612366Y-89275249D01*
X72753401Y-89176495D01*
X72833900Y-89095996D01*
X96136935Y-89095996D01*
X96136935Y-89096003D01*
X96157130Y-89275249D01*
X96157131Y-89275254D01*
X96216711Y-89445523D01*
X96222665Y-89454998D01*
X96312684Y-89598262D01*
X96440238Y-89725816D01*
X96592978Y-89821789D01*
X96763245Y-89881368D01*
X96763250Y-89881369D01*
X96942496Y-89901565D01*
X96942500Y-89901565D01*
X96942504Y-89901565D01*
X97121749Y-89881369D01*
X97121752Y-89881368D01*
X97121755Y-89881368D01*
X97292022Y-89821789D01*
X97444762Y-89725816D01*
X97572316Y-89598262D01*
X97668289Y-89445522D01*
X97727868Y-89275255D01*
X97738995Y-89176498D01*
X97748065Y-89096003D01*
X97748065Y-89095996D01*
X97727869Y-88916750D01*
X97727868Y-88916745D01*
X97668288Y-88746476D01*
X97577296Y-88601664D01*
X97572316Y-88593738D01*
X97444762Y-88466184D01*
X97292023Y-88370211D01*
X97121754Y-88310631D01*
X97121749Y-88310630D01*
X96942504Y-88290435D01*
X96942496Y-88290435D01*
X96763250Y-88310630D01*
X96763245Y-88310631D01*
X96592976Y-88370211D01*
X96440237Y-88466184D01*
X96312684Y-88593737D01*
X96216711Y-88746476D01*
X96157131Y-88916745D01*
X96157130Y-88916750D01*
X96136935Y-89095996D01*
X72833900Y-89095996D01*
X72920495Y-89009401D01*
X73056035Y-88815830D01*
X73155903Y-88601663D01*
X73217063Y-88373408D01*
X73237659Y-88138000D01*
X73217063Y-87902592D01*
X73155903Y-87674337D01*
X73056035Y-87460171D01*
X73050425Y-87452158D01*
X72920494Y-87266597D01*
X72753402Y-87099506D01*
X72753396Y-87099501D01*
X72567842Y-86969575D01*
X72524217Y-86914998D01*
X72517023Y-86845500D01*
X72548546Y-86783145D01*
X72567842Y-86766425D01*
X72590026Y-86750891D01*
X72753401Y-86636495D01*
X72920495Y-86469401D01*
X73056035Y-86275830D01*
X73155903Y-86061663D01*
X73217063Y-85833408D01*
X73237659Y-85598000D01*
X73217063Y-85362592D01*
X73155903Y-85134337D01*
X73062482Y-84933996D01*
X96145835Y-84933996D01*
X96145835Y-84934003D01*
X96166030Y-85113249D01*
X96166031Y-85113254D01*
X96225611Y-85283523D01*
X96321584Y-85436262D01*
X96449138Y-85563816D01*
X96601878Y-85659789D01*
X96772145Y-85719368D01*
X96772150Y-85719369D01*
X96951396Y-85739565D01*
X96951400Y-85739565D01*
X96951404Y-85739565D01*
X97130649Y-85719369D01*
X97130652Y-85719368D01*
X97130655Y-85719368D01*
X97300922Y-85659789D01*
X97453662Y-85563816D01*
X97581216Y-85436262D01*
X97677189Y-85283522D01*
X97736768Y-85113255D01*
X97756965Y-84934000D01*
X97756678Y-84931454D01*
X97736769Y-84754750D01*
X97736768Y-84754745D01*
X97677188Y-84584476D01*
X97581215Y-84431737D01*
X97453662Y-84304184D01*
X97300923Y-84208211D01*
X97130654Y-84148631D01*
X97130649Y-84148630D01*
X96951404Y-84128435D01*
X96951396Y-84128435D01*
X96772150Y-84148630D01*
X96772145Y-84148631D01*
X96601876Y-84208211D01*
X96449137Y-84304184D01*
X96321584Y-84431737D01*
X96225611Y-84584476D01*
X96166031Y-84754745D01*
X96166030Y-84754750D01*
X96145835Y-84933996D01*
X73062482Y-84933996D01*
X73056035Y-84920171D01*
X73050425Y-84912158D01*
X72920494Y-84726597D01*
X72753402Y-84559506D01*
X72753396Y-84559501D01*
X72567842Y-84429575D01*
X72524217Y-84374998D01*
X72517023Y-84305500D01*
X72548546Y-84243145D01*
X72567842Y-84226425D01*
X72593854Y-84208211D01*
X72753401Y-84096495D01*
X72920495Y-83929401D01*
X73056035Y-83735830D01*
X73155903Y-83521663D01*
X73217063Y-83293408D01*
X73237659Y-83058000D01*
X73217063Y-82822592D01*
X73155903Y-82594337D01*
X73056035Y-82380171D01*
X73050425Y-82372158D01*
X72920494Y-82186597D01*
X72753402Y-82019506D01*
X72753396Y-82019501D01*
X72567842Y-81889575D01*
X72524217Y-81834998D01*
X72517023Y-81765500D01*
X72548546Y-81703145D01*
X72567842Y-81686425D01*
X72746440Y-81561369D01*
X72753401Y-81556495D01*
X72920495Y-81389401D01*
X73056035Y-81195830D01*
X73155903Y-80981663D01*
X73211011Y-80775996D01*
X96136935Y-80775996D01*
X96136935Y-80776003D01*
X96157130Y-80955249D01*
X96157131Y-80955254D01*
X96216711Y-81125523D01*
X96293851Y-81248289D01*
X96312684Y-81278262D01*
X96440238Y-81405816D01*
X96592978Y-81501789D01*
X96749313Y-81556493D01*
X96763245Y-81561368D01*
X96763250Y-81561369D01*
X96942496Y-81581565D01*
X96942500Y-81581565D01*
X96942504Y-81581565D01*
X97121749Y-81561369D01*
X97121752Y-81561368D01*
X97121755Y-81561368D01*
X97292022Y-81501789D01*
X97444762Y-81405816D01*
X97572316Y-81278262D01*
X97668289Y-81125522D01*
X97727868Y-80955255D01*
X97748065Y-80776000D01*
X97745520Y-80753413D01*
X97727869Y-80596750D01*
X97727868Y-80596745D01*
X97700314Y-80518000D01*
X97668289Y-80426478D01*
X97572316Y-80273738D01*
X97444762Y-80146184D01*
X97392582Y-80113397D01*
X97292023Y-80050211D01*
X97121754Y-79990631D01*
X97121749Y-79990630D01*
X96942504Y-79970435D01*
X96942496Y-79970435D01*
X96763250Y-79990630D01*
X96763245Y-79990631D01*
X96592976Y-80050211D01*
X96440237Y-80146184D01*
X96312684Y-80273737D01*
X96216711Y-80426476D01*
X96157131Y-80596745D01*
X96157130Y-80596750D01*
X96136935Y-80775996D01*
X73211011Y-80775996D01*
X73217063Y-80753408D01*
X73237659Y-80518000D01*
X73235357Y-80491694D01*
X73229652Y-80426478D01*
X73217063Y-80282592D01*
X73155903Y-80054337D01*
X73066156Y-79861875D01*
X100189114Y-79861875D01*
X100189114Y-79861882D01*
X100209309Y-80041128D01*
X100209310Y-80041133D01*
X100268890Y-80211402D01*
X100364863Y-80364141D01*
X100492417Y-80491695D01*
X100645157Y-80587668D01*
X100755302Y-80626209D01*
X100812078Y-80666931D01*
X100831390Y-80702296D01*
X100869932Y-80812444D01*
X100959663Y-80955249D01*
X100965905Y-80965183D01*
X101093459Y-81092737D01*
X101145636Y-81125522D01*
X101189403Y-81153023D01*
X101246199Y-81188710D01*
X101289444Y-81203842D01*
X101416466Y-81248289D01*
X101416471Y-81248290D01*
X101595717Y-81268486D01*
X101595721Y-81268486D01*
X101595725Y-81268486D01*
X101774970Y-81248290D01*
X101774973Y-81248289D01*
X101774976Y-81248289D01*
X101945243Y-81188710D01*
X102097983Y-81092737D01*
X102225537Y-80965183D01*
X102321510Y-80812443D01*
X102381089Y-80642176D01*
X102382888Y-80626209D01*
X102401286Y-80462924D01*
X102401286Y-80462917D01*
X102381090Y-80283671D01*
X102381089Y-80283666D01*
X102365386Y-80238789D01*
X102321510Y-80113399D01*
X102225537Y-79960659D01*
X102097983Y-79833105D01*
X102096476Y-79832158D01*
X101945244Y-79737132D01*
X101884845Y-79715998D01*
X101835095Y-79698589D01*
X101778320Y-79657868D01*
X101759009Y-79622502D01*
X101720693Y-79513000D01*
X101720692Y-79512996D01*
X105767835Y-79512996D01*
X105767835Y-79513003D01*
X105788030Y-79692249D01*
X105788031Y-79692254D01*
X105847611Y-79862523D01*
X105915417Y-79970435D01*
X105943584Y-80015262D01*
X106071138Y-80142816D01*
X106223878Y-80238789D01*
X106394145Y-80298368D01*
X106394150Y-80298369D01*
X106573396Y-80318565D01*
X106573400Y-80318565D01*
X106573404Y-80318565D01*
X106752649Y-80298369D01*
X106752652Y-80298368D01*
X106752655Y-80298368D01*
X106922922Y-80238789D01*
X107075662Y-80142816D01*
X107203216Y-80015262D01*
X107299189Y-79862522D01*
X107358768Y-79692255D01*
X107359853Y-79682624D01*
X107378965Y-79513003D01*
X107378965Y-79512996D01*
X107358769Y-79333750D01*
X107358768Y-79333745D01*
X107336638Y-79270500D01*
X107299189Y-79163478D01*
X107203216Y-79010738D01*
X107075662Y-78883184D01*
X106922923Y-78787211D01*
X106752654Y-78727631D01*
X106752649Y-78727630D01*
X106573404Y-78707435D01*
X106573396Y-78707435D01*
X106394150Y-78727630D01*
X106394145Y-78727631D01*
X106223876Y-78787211D01*
X106071137Y-78883184D01*
X105943584Y-79010737D01*
X105847611Y-79163476D01*
X105788031Y-79333745D01*
X105788030Y-79333750D01*
X105767835Y-79512996D01*
X101720692Y-79512996D01*
X101720468Y-79512357D01*
X101624495Y-79359617D01*
X101496941Y-79232063D01*
X101387259Y-79163145D01*
X101344202Y-79136090D01*
X101173933Y-79076510D01*
X101173928Y-79076509D01*
X100994683Y-79056314D01*
X100994675Y-79056314D01*
X100815429Y-79076509D01*
X100815424Y-79076510D01*
X100645155Y-79136090D01*
X100492416Y-79232063D01*
X100364863Y-79359616D01*
X100268890Y-79512355D01*
X100209310Y-79682624D01*
X100209309Y-79682629D01*
X100189114Y-79861875D01*
X73066156Y-79861875D01*
X73056035Y-79840171D01*
X73051088Y-79833105D01*
X72920494Y-79646597D01*
X72753402Y-79479506D01*
X72753396Y-79479501D01*
X72567842Y-79349575D01*
X72524217Y-79294998D01*
X72517023Y-79225500D01*
X72548546Y-79163145D01*
X72567842Y-79146425D01*
X72667689Y-79076511D01*
X72753401Y-79016495D01*
X72920495Y-78849401D01*
X73056035Y-78655830D01*
X73155903Y-78441663D01*
X73217063Y-78213408D01*
X73237659Y-77978000D01*
X73217063Y-77742592D01*
X73155903Y-77514337D01*
X73056035Y-77300171D01*
X73050425Y-77292158D01*
X72920494Y-77106597D01*
X72753402Y-76939506D01*
X72753396Y-76939501D01*
X72567842Y-76809575D01*
X72524217Y-76754998D01*
X72517023Y-76685500D01*
X72548546Y-76623145D01*
X72559105Y-76613996D01*
X96135835Y-76613996D01*
X96135835Y-76614003D01*
X96156030Y-76793249D01*
X96156031Y-76793254D01*
X96215611Y-76963523D01*
X96305511Y-77106597D01*
X96311584Y-77116262D01*
X96439138Y-77243816D01*
X96591878Y-77339789D01*
X96762145Y-77399368D01*
X96762150Y-77399369D01*
X96941396Y-77419565D01*
X96941400Y-77419565D01*
X96941404Y-77419565D01*
X97120649Y-77399369D01*
X97120652Y-77399368D01*
X97120655Y-77399368D01*
X97290922Y-77339789D01*
X97443662Y-77243816D01*
X97571216Y-77116262D01*
X97667189Y-76963522D01*
X97726768Y-76793255D01*
X97726813Y-76792855D01*
X97746965Y-76614003D01*
X97746965Y-76613996D01*
X97726769Y-76434750D01*
X97726768Y-76434745D01*
X97703530Y-76368336D01*
X97667189Y-76264478D01*
X97652300Y-76240783D01*
X97578821Y-76123842D01*
X97571216Y-76111738D01*
X97443662Y-75984184D01*
X97377372Y-75942531D01*
X97290923Y-75888211D01*
X97120654Y-75828631D01*
X97120649Y-75828630D01*
X96941404Y-75808435D01*
X96941396Y-75808435D01*
X96762150Y-75828630D01*
X96762145Y-75828631D01*
X96591876Y-75888211D01*
X96439137Y-75984184D01*
X96311584Y-76111737D01*
X96215611Y-76264476D01*
X96156031Y-76434745D01*
X96156030Y-76434750D01*
X96135835Y-76613996D01*
X72559105Y-76613996D01*
X72567842Y-76606425D01*
X72685715Y-76523889D01*
X72753401Y-76476495D01*
X72920495Y-76309401D01*
X73056035Y-76115830D01*
X73155903Y-75901663D01*
X73217063Y-75673408D01*
X73237659Y-75438000D01*
X73217063Y-75202592D01*
X73199615Y-75137475D01*
X101408314Y-75137475D01*
X101408314Y-75137482D01*
X101428509Y-75316728D01*
X101428510Y-75316733D01*
X101488090Y-75487002D01*
X101582382Y-75637065D01*
X101584063Y-75639741D01*
X101711617Y-75767295D01*
X101864357Y-75863268D01*
X101974502Y-75901809D01*
X102031278Y-75942531D01*
X102050590Y-75977896D01*
X102089132Y-76088044D01*
X102106594Y-76115834D01*
X102185105Y-76240783D01*
X102312659Y-76368337D01*
X102403001Y-76425103D01*
X102418354Y-76434750D01*
X102465399Y-76464310D01*
X102635666Y-76523889D01*
X102635671Y-76523890D01*
X102814917Y-76544086D01*
X102814921Y-76544086D01*
X102814925Y-76544086D01*
X102994170Y-76523890D01*
X102994173Y-76523889D01*
X102994176Y-76523889D01*
X103164443Y-76464310D01*
X103317183Y-76368337D01*
X103444737Y-76240783D01*
X103540710Y-76088043D01*
X103600289Y-75917776D01*
X103602088Y-75901809D01*
X103620486Y-75738524D01*
X103620486Y-75738517D01*
X103600290Y-75559271D01*
X103600289Y-75559266D01*
X103540709Y-75388997D01*
X103444736Y-75236258D01*
X103317183Y-75108705D01*
X103164444Y-75012732D01*
X103104045Y-74991598D01*
X103054295Y-74974189D01*
X102997520Y-74933468D01*
X102978209Y-74898102D01*
X102954903Y-74831496D01*
X105786435Y-74831496D01*
X105786435Y-74831503D01*
X105806630Y-75010749D01*
X105806631Y-75010754D01*
X105866211Y-75181023D01*
X105951481Y-75316728D01*
X105962184Y-75333762D01*
X106089738Y-75461316D01*
X106242478Y-75557289D01*
X106412745Y-75616868D01*
X106412750Y-75616869D01*
X106591996Y-75637065D01*
X106592000Y-75637065D01*
X106592004Y-75637065D01*
X106771249Y-75616869D01*
X106771252Y-75616868D01*
X106771255Y-75616868D01*
X106941522Y-75557289D01*
X107094262Y-75461316D01*
X107221816Y-75333762D01*
X107317789Y-75181022D01*
X107377368Y-75010755D01*
X107377369Y-75010749D01*
X107397565Y-74831503D01*
X107397565Y-74831496D01*
X107377369Y-74652250D01*
X107377368Y-74652245D01*
X107347398Y-74566597D01*
X107317789Y-74481978D01*
X107221816Y-74329238D01*
X107094262Y-74201684D01*
X107076463Y-74190500D01*
X106941523Y-74105711D01*
X106771254Y-74046131D01*
X106771249Y-74046130D01*
X106592004Y-74025935D01*
X106591996Y-74025935D01*
X106412750Y-74046130D01*
X106412745Y-74046131D01*
X106242476Y-74105711D01*
X106089737Y-74201684D01*
X105962184Y-74329237D01*
X105866211Y-74481976D01*
X105806631Y-74652245D01*
X105806630Y-74652250D01*
X105786435Y-74831496D01*
X102954903Y-74831496D01*
X102939668Y-74787957D01*
X102929298Y-74771454D01*
X102900461Y-74725559D01*
X102843695Y-74635217D01*
X102716141Y-74507663D01*
X102675264Y-74481978D01*
X102563402Y-74411690D01*
X102393133Y-74352110D01*
X102393128Y-74352109D01*
X102213883Y-74331914D01*
X102213875Y-74331914D01*
X102034629Y-74352109D01*
X102034624Y-74352110D01*
X101864355Y-74411690D01*
X101711616Y-74507663D01*
X101584063Y-74635216D01*
X101488090Y-74787955D01*
X101428510Y-74958224D01*
X101428509Y-74958229D01*
X101408314Y-75137475D01*
X73199615Y-75137475D01*
X73155903Y-74974337D01*
X73056035Y-74760171D01*
X73050425Y-74752158D01*
X72920494Y-74566597D01*
X72753402Y-74399506D01*
X72753396Y-74399501D01*
X72567842Y-74269575D01*
X72524217Y-74214998D01*
X72517023Y-74145500D01*
X72548546Y-74083145D01*
X72567842Y-74066425D01*
X72596826Y-74046130D01*
X72753401Y-73936495D01*
X72920495Y-73769401D01*
X73056035Y-73575830D01*
X73155903Y-73361663D01*
X73217063Y-73133408D01*
X73237659Y-72898000D01*
X73217063Y-72662592D01*
X73165994Y-72471996D01*
X96134735Y-72471996D01*
X96134735Y-72472003D01*
X96154930Y-72651249D01*
X96154931Y-72651254D01*
X96214511Y-72821523D01*
X96262565Y-72898000D01*
X96310484Y-72974262D01*
X96438038Y-73101816D01*
X96590778Y-73197789D01*
X96761045Y-73257368D01*
X96761050Y-73257369D01*
X96940296Y-73277565D01*
X96940300Y-73277565D01*
X96940304Y-73277565D01*
X97119549Y-73257369D01*
X97119552Y-73257368D01*
X97119555Y-73257368D01*
X97289822Y-73197789D01*
X97442562Y-73101816D01*
X97570116Y-72974262D01*
X97666089Y-72821522D01*
X97725668Y-72651255D01*
X97745865Y-72472000D01*
X97741622Y-72434344D01*
X97725669Y-72292750D01*
X97725668Y-72292745D01*
X97700273Y-72220171D01*
X97666089Y-72122478D01*
X97570116Y-71969738D01*
X97442562Y-71842184D01*
X97289823Y-71746211D01*
X97119554Y-71686631D01*
X97119549Y-71686630D01*
X96940304Y-71666435D01*
X96940296Y-71666435D01*
X96761050Y-71686630D01*
X96761045Y-71686631D01*
X96590776Y-71746211D01*
X96438037Y-71842184D01*
X96310484Y-71969737D01*
X96214511Y-72122476D01*
X96154931Y-72292745D01*
X96154930Y-72292750D01*
X96134735Y-72471996D01*
X73165994Y-72471996D01*
X73155903Y-72434337D01*
X73056035Y-72220171D01*
X73050425Y-72212158D01*
X72920494Y-72026597D01*
X72753402Y-71859506D01*
X72753396Y-71859501D01*
X72567842Y-71729575D01*
X72524217Y-71674998D01*
X72517023Y-71605500D01*
X72548546Y-71543145D01*
X72567842Y-71526425D01*
X72697169Y-71435869D01*
X72753401Y-71396495D01*
X72920495Y-71229401D01*
X73056035Y-71035830D01*
X73155903Y-70821663D01*
X73217063Y-70593408D01*
X73237659Y-70358000D01*
X73217063Y-70122592D01*
X73155903Y-69894337D01*
X73112144Y-69800496D01*
X101962434Y-69800496D01*
X101962434Y-69800503D01*
X101982629Y-69979749D01*
X101982630Y-69979754D01*
X102042211Y-70150025D01*
X102048184Y-70159532D01*
X102067182Y-70226769D01*
X102048184Y-70291468D01*
X102042211Y-70300974D01*
X101982630Y-70471245D01*
X101982629Y-70471250D01*
X101962434Y-70650496D01*
X101962434Y-70650503D01*
X101982629Y-70829749D01*
X101982630Y-70829754D01*
X102042210Y-71000023D01*
X102064712Y-71035834D01*
X102138183Y-71152762D01*
X102265737Y-71280316D01*
X102418477Y-71376289D01*
X102588744Y-71435868D01*
X102588749Y-71435869D01*
X102767995Y-71456065D01*
X102767999Y-71456065D01*
X102768003Y-71456065D01*
X102947248Y-71435869D01*
X102947251Y-71435868D01*
X102947254Y-71435868D01*
X103117521Y-71376289D01*
X103270261Y-71280316D01*
X103397815Y-71152762D01*
X103493788Y-71000022D01*
X103553367Y-70829755D01*
X103560960Y-70762368D01*
X103573564Y-70650503D01*
X103573564Y-70650496D01*
X103553368Y-70471250D01*
X103553365Y-70471237D01*
X103511927Y-70352818D01*
X103493788Y-70300978D01*
X103487814Y-70291471D01*
X103468814Y-70224237D01*
X103487815Y-70159527D01*
X103489871Y-70156255D01*
X103493788Y-70150022D01*
X103553367Y-69979755D01*
X103553677Y-69977003D01*
X103553678Y-69976996D01*
X105796235Y-69976996D01*
X105796235Y-69977003D01*
X105816430Y-70156249D01*
X105816431Y-70156254D01*
X105876011Y-70326523D01*
X105966942Y-70471237D01*
X105971984Y-70479262D01*
X106099538Y-70606816D01*
X106252278Y-70702789D01*
X106422545Y-70762368D01*
X106422550Y-70762369D01*
X106601796Y-70782565D01*
X106601800Y-70782565D01*
X106601804Y-70782565D01*
X106781049Y-70762369D01*
X106781052Y-70762368D01*
X106781055Y-70762368D01*
X106951322Y-70702789D01*
X107104062Y-70606816D01*
X107231616Y-70479262D01*
X107327589Y-70326522D01*
X107387168Y-70156255D01*
X107387870Y-70150025D01*
X107407365Y-69977003D01*
X107407365Y-69976996D01*
X107387169Y-69797750D01*
X107387168Y-69797745D01*
X107327589Y-69627478D01*
X107231616Y-69474738D01*
X107104062Y-69347184D01*
X107026165Y-69298238D01*
X106951323Y-69251211D01*
X106781054Y-69191631D01*
X106781049Y-69191630D01*
X106601804Y-69171435D01*
X106601796Y-69171435D01*
X106422550Y-69191630D01*
X106422545Y-69191631D01*
X106252276Y-69251211D01*
X106099537Y-69347184D01*
X105971984Y-69474737D01*
X105876011Y-69627476D01*
X105816431Y-69797745D01*
X105816430Y-69797750D01*
X105796235Y-69976996D01*
X103553678Y-69976996D01*
X103573564Y-69800503D01*
X103573564Y-69800496D01*
X103553368Y-69621250D01*
X103553367Y-69621245D01*
X103506252Y-69486599D01*
X103493788Y-69450978D01*
X103397815Y-69298238D01*
X103270261Y-69170684D01*
X103174479Y-69110500D01*
X103117522Y-69074711D01*
X102947253Y-69015131D01*
X102947248Y-69015130D01*
X102768003Y-68994935D01*
X102767995Y-68994935D01*
X102588749Y-69015130D01*
X102588744Y-69015131D01*
X102418475Y-69074711D01*
X102265736Y-69170684D01*
X102138183Y-69298237D01*
X102042210Y-69450976D01*
X101982630Y-69621245D01*
X101982629Y-69621250D01*
X101962434Y-69800496D01*
X73112144Y-69800496D01*
X73056035Y-69680171D01*
X73050425Y-69672158D01*
X72920494Y-69486597D01*
X72753402Y-69319506D01*
X72753396Y-69319501D01*
X72567842Y-69189575D01*
X72524217Y-69134998D01*
X72517023Y-69065500D01*
X72548546Y-69003145D01*
X72567842Y-68986425D01*
X72617270Y-68951815D01*
X72753401Y-68856495D01*
X72920495Y-68689401D01*
X73056035Y-68495830D01*
X73137095Y-68321996D01*
X96144735Y-68321996D01*
X96144735Y-68322003D01*
X96164930Y-68501249D01*
X96164931Y-68501254D01*
X96224511Y-68671523D01*
X96320484Y-68824262D01*
X96448038Y-68951816D01*
X96529728Y-69003145D01*
X96589976Y-69041002D01*
X96600778Y-69047789D01*
X96771045Y-69107368D01*
X96771050Y-69107369D01*
X96950296Y-69127565D01*
X96950300Y-69127565D01*
X96950304Y-69127565D01*
X97129549Y-69107369D01*
X97129552Y-69107368D01*
X97129555Y-69107368D01*
X97299822Y-69047789D01*
X97452562Y-68951816D01*
X97580116Y-68824262D01*
X97676089Y-68671522D01*
X97735668Y-68501255D01*
X97736279Y-68495834D01*
X97755865Y-68322003D01*
X97755865Y-68321996D01*
X97735669Y-68142750D01*
X97735668Y-68142745D01*
X97704409Y-68053413D01*
X97676089Y-67972478D01*
X97580116Y-67819738D01*
X97452562Y-67692184D01*
X97299823Y-67596211D01*
X97129554Y-67536631D01*
X97129549Y-67536630D01*
X96950304Y-67516435D01*
X96950296Y-67516435D01*
X96771050Y-67536630D01*
X96771045Y-67536631D01*
X96600776Y-67596211D01*
X96448037Y-67692184D01*
X96320484Y-67819737D01*
X96224511Y-67972476D01*
X96164931Y-68142745D01*
X96164930Y-68142750D01*
X96144735Y-68321996D01*
X73137095Y-68321996D01*
X73155903Y-68281663D01*
X73217063Y-68053408D01*
X73237659Y-67818000D01*
X73217063Y-67582592D01*
X73155903Y-67354337D01*
X73056035Y-67140171D01*
X73050425Y-67132158D01*
X72920494Y-66946597D01*
X72753402Y-66779506D01*
X72753396Y-66779501D01*
X72567842Y-66649575D01*
X72524217Y-66594998D01*
X72517023Y-66525500D01*
X72548546Y-66463145D01*
X72567842Y-66446425D01*
X72590026Y-66430891D01*
X72753401Y-66316495D01*
X72920495Y-66149401D01*
X73056035Y-65955830D01*
X73155903Y-65741663D01*
X73217063Y-65513408D01*
X73237659Y-65278000D01*
X73217063Y-65042592D01*
X73155903Y-64814337D01*
X73056035Y-64600171D01*
X73050425Y-64592158D01*
X72920494Y-64406597D01*
X72753402Y-64239506D01*
X72753396Y-64239501D01*
X72567842Y-64109575D01*
X72524217Y-64054998D01*
X72518265Y-63997496D01*
X97771835Y-63997496D01*
X97771835Y-63997503D01*
X97792030Y-64176749D01*
X97792031Y-64176754D01*
X97851612Y-64347025D01*
X97857585Y-64356532D01*
X97876583Y-64423769D01*
X97857585Y-64488468D01*
X97851612Y-64497974D01*
X97792031Y-64668245D01*
X97792030Y-64668250D01*
X97771835Y-64847496D01*
X97771835Y-64847503D01*
X97792030Y-65026749D01*
X97792031Y-65026754D01*
X97851611Y-65197023D01*
X97902492Y-65277999D01*
X97947584Y-65349762D01*
X98075138Y-65477316D01*
X98227878Y-65573289D01*
X98398145Y-65632868D01*
X98398150Y-65632869D01*
X98577396Y-65653065D01*
X98577400Y-65653065D01*
X98577404Y-65653065D01*
X98756649Y-65632869D01*
X98756652Y-65632868D01*
X98756655Y-65632868D01*
X98926922Y-65573289D01*
X99079662Y-65477316D01*
X99207216Y-65349762D01*
X99303189Y-65197022D01*
X99362768Y-65026755D01*
X99370361Y-64959368D01*
X99382965Y-64847503D01*
X99382965Y-64847496D01*
X99362769Y-64668250D01*
X99362766Y-64668237D01*
X99321328Y-64549818D01*
X99303189Y-64497978D01*
X99297215Y-64488471D01*
X99278215Y-64421237D01*
X99297216Y-64356527D01*
X99299272Y-64353255D01*
X99303189Y-64347022D01*
X99339468Y-64243340D01*
X99362766Y-64176762D01*
X99362769Y-64176749D01*
X99363079Y-64173996D01*
X102892535Y-64173996D01*
X102892535Y-64174003D01*
X102912730Y-64353249D01*
X102912731Y-64353254D01*
X102972311Y-64523523D01*
X103063242Y-64668237D01*
X103068284Y-64676262D01*
X103195838Y-64803816D01*
X103348578Y-64899789D01*
X103518845Y-64959368D01*
X103518850Y-64959369D01*
X103698096Y-64979565D01*
X103698100Y-64979565D01*
X103698104Y-64979565D01*
X103877349Y-64959369D01*
X103877352Y-64959368D01*
X103877355Y-64959368D01*
X104047622Y-64899789D01*
X104200362Y-64803816D01*
X104327916Y-64676262D01*
X104423889Y-64523522D01*
X104483468Y-64353255D01*
X104484170Y-64347025D01*
X104503665Y-64174003D01*
X104503665Y-64173996D01*
X104483469Y-63994750D01*
X104483468Y-63994745D01*
X104458414Y-63923145D01*
X104423889Y-63824478D01*
X104327916Y-63671738D01*
X104200362Y-63544184D01*
X104122465Y-63495238D01*
X104047623Y-63448211D01*
X103877354Y-63388631D01*
X103877349Y-63388630D01*
X103698104Y-63368435D01*
X103698096Y-63368435D01*
X103518850Y-63388630D01*
X103518845Y-63388631D01*
X103348576Y-63448211D01*
X103195837Y-63544184D01*
X103068284Y-63671737D01*
X102972311Y-63824476D01*
X102912731Y-63994745D01*
X102912730Y-63994750D01*
X102892535Y-64173996D01*
X99363079Y-64173996D01*
X99382965Y-63997503D01*
X99382965Y-63997496D01*
X99362769Y-63818250D01*
X99362768Y-63818245D01*
X99311503Y-63671738D01*
X99303189Y-63647978D01*
X99278949Y-63609401D01*
X99207215Y-63495237D01*
X99079662Y-63367684D01*
X98926923Y-63271711D01*
X98756654Y-63212131D01*
X98756649Y-63212130D01*
X98577404Y-63191935D01*
X98577396Y-63191935D01*
X98398150Y-63212130D01*
X98398145Y-63212131D01*
X98227876Y-63271711D01*
X98075137Y-63367684D01*
X97947584Y-63495237D01*
X97851611Y-63647976D01*
X97792031Y-63818245D01*
X97792030Y-63818250D01*
X97771835Y-63997496D01*
X72518265Y-63997496D01*
X72517023Y-63985500D01*
X72548546Y-63923145D01*
X72567842Y-63906425D01*
X72684877Y-63824476D01*
X72753401Y-63776495D01*
X72920495Y-63609401D01*
X73056035Y-63415830D01*
X73155903Y-63201663D01*
X73217063Y-62973408D01*
X73237659Y-62738000D01*
X73217063Y-62502592D01*
X73155903Y-62274337D01*
X73056035Y-62060171D01*
X73050425Y-62052158D01*
X72920494Y-61866597D01*
X72753402Y-61699506D01*
X72753396Y-61699501D01*
X72567842Y-61569575D01*
X72524217Y-61514998D01*
X72517023Y-61445500D01*
X72548546Y-61383145D01*
X72567842Y-61366425D01*
X72609415Y-61337315D01*
X72753401Y-61236495D01*
X72920495Y-61069401D01*
X73056035Y-60875830D01*
X73155903Y-60661663D01*
X73217063Y-60433408D01*
X73237659Y-60198000D01*
X73217063Y-59962592D01*
X73188903Y-59857496D01*
X97695635Y-59857496D01*
X97695635Y-59857503D01*
X97715830Y-60036749D01*
X97715831Y-60036754D01*
X97775412Y-60207025D01*
X97781385Y-60216532D01*
X97800383Y-60283769D01*
X97781385Y-60348468D01*
X97775412Y-60357974D01*
X97715831Y-60528245D01*
X97715830Y-60528250D01*
X97695635Y-60707496D01*
X97695635Y-60707503D01*
X97715830Y-60886749D01*
X97715831Y-60886754D01*
X97775411Y-61057023D01*
X97871384Y-61209762D01*
X97998938Y-61337316D01*
X98151678Y-61433289D01*
X98315178Y-61490500D01*
X98321945Y-61492868D01*
X98321950Y-61492869D01*
X98501196Y-61513065D01*
X98501200Y-61513065D01*
X98501204Y-61513065D01*
X98680449Y-61492869D01*
X98680452Y-61492868D01*
X98680455Y-61492868D01*
X98850722Y-61433289D01*
X99003462Y-61337316D01*
X99131016Y-61209762D01*
X99226989Y-61057022D01*
X99286568Y-60886755D01*
X99286569Y-60886749D01*
X99306765Y-60707503D01*
X99306765Y-60707496D01*
X99286569Y-60528250D01*
X99286566Y-60528237D01*
X99245128Y-60409818D01*
X99226989Y-60357978D01*
X99221015Y-60348471D01*
X99202015Y-60281237D01*
X99221016Y-60216527D01*
X99223072Y-60213255D01*
X99226989Y-60207022D01*
X99286568Y-60036755D01*
X99286878Y-60034003D01*
X99286879Y-60033996D01*
X102901835Y-60033996D01*
X102901835Y-60034003D01*
X102922030Y-60213249D01*
X102922031Y-60213254D01*
X102981611Y-60383523D01*
X103072542Y-60528237D01*
X103077584Y-60536262D01*
X103205138Y-60663816D01*
X103357878Y-60759789D01*
X103528145Y-60819368D01*
X103528150Y-60819369D01*
X103707396Y-60839565D01*
X103707400Y-60839565D01*
X103707404Y-60839565D01*
X103886649Y-60819369D01*
X103886652Y-60819368D01*
X103886655Y-60819368D01*
X104056922Y-60759789D01*
X104209662Y-60663816D01*
X104337216Y-60536262D01*
X104433189Y-60383522D01*
X104492768Y-60213255D01*
X104493470Y-60207025D01*
X104512965Y-60034003D01*
X104512965Y-60033996D01*
X104492769Y-59854750D01*
X104492768Y-59854745D01*
X104450635Y-59734335D01*
X104433189Y-59684478D01*
X104337216Y-59531738D01*
X104209662Y-59404184D01*
X104131765Y-59355238D01*
X104056923Y-59308211D01*
X103886654Y-59248631D01*
X103886649Y-59248630D01*
X103707404Y-59228435D01*
X103707396Y-59228435D01*
X103528150Y-59248630D01*
X103528145Y-59248631D01*
X103357876Y-59308211D01*
X103205137Y-59404184D01*
X103077584Y-59531737D01*
X102981611Y-59684476D01*
X102922031Y-59854745D01*
X102922030Y-59854750D01*
X102901835Y-60033996D01*
X99286879Y-60033996D01*
X99306765Y-59857503D01*
X99306765Y-59857496D01*
X99286569Y-59678250D01*
X99286568Y-59678245D01*
X99246234Y-59562977D01*
X99226989Y-59507978D01*
X99131016Y-59355238D01*
X99003462Y-59227684D01*
X98850723Y-59131711D01*
X98680454Y-59072131D01*
X98680449Y-59072130D01*
X98501204Y-59051935D01*
X98501196Y-59051935D01*
X98321950Y-59072130D01*
X98321945Y-59072131D01*
X98151676Y-59131711D01*
X97998937Y-59227684D01*
X97871384Y-59355237D01*
X97775411Y-59507976D01*
X97715831Y-59678245D01*
X97715830Y-59678250D01*
X97695635Y-59857496D01*
X73188903Y-59857496D01*
X73155903Y-59734337D01*
X73056035Y-59520171D01*
X73050425Y-59512158D01*
X72920494Y-59326597D01*
X72753402Y-59159506D01*
X72753396Y-59159501D01*
X72567842Y-59029575D01*
X72524217Y-58974998D01*
X72517023Y-58905500D01*
X72548546Y-58843145D01*
X72567842Y-58826425D01*
X72590026Y-58810891D01*
X72753401Y-58696495D01*
X72920495Y-58529401D01*
X73056035Y-58335830D01*
X73155903Y-58121663D01*
X73217063Y-57893408D01*
X73237659Y-57658000D01*
X73217063Y-57422592D01*
X73155903Y-57194337D01*
X73056035Y-56980171D01*
X73050425Y-56972158D01*
X72920494Y-56786597D01*
X72753402Y-56619506D01*
X72753396Y-56619501D01*
X72567842Y-56489575D01*
X72524217Y-56434998D01*
X72517023Y-56365500D01*
X72548546Y-56303145D01*
X72567842Y-56286425D01*
X72686238Y-56203523D01*
X72753401Y-56156495D01*
X72920495Y-55989401D01*
X73056035Y-55795830D01*
X73111215Y-55677496D01*
X97797235Y-55677496D01*
X97797235Y-55677503D01*
X97817430Y-55856749D01*
X97817431Y-55856754D01*
X97877012Y-56027025D01*
X97882985Y-56036532D01*
X97901983Y-56103769D01*
X97882985Y-56168468D01*
X97877012Y-56177974D01*
X97817431Y-56348245D01*
X97817430Y-56348250D01*
X97797235Y-56527496D01*
X97797235Y-56527503D01*
X97817430Y-56706749D01*
X97817431Y-56706754D01*
X97877011Y-56877023D01*
X97941824Y-56980171D01*
X97972984Y-57029762D01*
X98100538Y-57157316D01*
X98253278Y-57253289D01*
X98423545Y-57312868D01*
X98423550Y-57312869D01*
X98602796Y-57333065D01*
X98602800Y-57333065D01*
X98602804Y-57333065D01*
X98782049Y-57312869D01*
X98782052Y-57312868D01*
X98782055Y-57312868D01*
X98952322Y-57253289D01*
X99105062Y-57157316D01*
X99232616Y-57029762D01*
X99328589Y-56877022D01*
X99388168Y-56706755D01*
X99397999Y-56619501D01*
X99408365Y-56527503D01*
X99408365Y-56527496D01*
X99388169Y-56348250D01*
X99388166Y-56348237D01*
X99346728Y-56229818D01*
X99328589Y-56177978D01*
X99322615Y-56168471D01*
X99303615Y-56101237D01*
X99322616Y-56036527D01*
X99324672Y-56033255D01*
X99328589Y-56027022D01*
X99364868Y-55923340D01*
X99388166Y-55856762D01*
X99388169Y-55856749D01*
X99388479Y-55853996D01*
X102901835Y-55853996D01*
X102901835Y-55854003D01*
X102922030Y-56033249D01*
X102922031Y-56033254D01*
X102981611Y-56203523D01*
X103033702Y-56286425D01*
X103077584Y-56356262D01*
X103205138Y-56483816D01*
X103295480Y-56540582D01*
X103337928Y-56567254D01*
X103357878Y-56579789D01*
X103471380Y-56619505D01*
X103528145Y-56639368D01*
X103528150Y-56639369D01*
X103707396Y-56659565D01*
X103707400Y-56659565D01*
X103707404Y-56659565D01*
X103886649Y-56639369D01*
X103886652Y-56639368D01*
X103886655Y-56639368D01*
X104056922Y-56579789D01*
X104209662Y-56483816D01*
X104305482Y-56387996D01*
X107652435Y-56387996D01*
X107652435Y-56388003D01*
X107672630Y-56567249D01*
X107672631Y-56567254D01*
X107732211Y-56737523D01*
X107763048Y-56786599D01*
X107828184Y-56890262D01*
X107955738Y-57017816D01*
X108108478Y-57113789D01*
X108232868Y-57157315D01*
X108278745Y-57173368D01*
X108278750Y-57173369D01*
X108457996Y-57193565D01*
X108458000Y-57193565D01*
X108458004Y-57193565D01*
X108637249Y-57173369D01*
X108637252Y-57173368D01*
X108637255Y-57173368D01*
X108807522Y-57113789D01*
X108960262Y-57017816D01*
X109087816Y-56890262D01*
X109183789Y-56737522D01*
X109243368Y-56567255D01*
X109247847Y-56527503D01*
X109263565Y-56388003D01*
X109263565Y-56387996D01*
X109243369Y-56208750D01*
X109243368Y-56208745D01*
X109241540Y-56203522D01*
X109183789Y-56038478D01*
X109180503Y-56033249D01*
X109087815Y-55885737D01*
X108960262Y-55758184D01*
X108807523Y-55662211D01*
X108637254Y-55602631D01*
X108637249Y-55602630D01*
X108458004Y-55582435D01*
X108457996Y-55582435D01*
X108278750Y-55602630D01*
X108278745Y-55602631D01*
X108108476Y-55662211D01*
X107955737Y-55758184D01*
X107828184Y-55885737D01*
X107732211Y-56038476D01*
X107672631Y-56208745D01*
X107672630Y-56208750D01*
X107652435Y-56387996D01*
X104305482Y-56387996D01*
X104337216Y-56356262D01*
X104433189Y-56203522D01*
X104492768Y-56033255D01*
X104493470Y-56027025D01*
X104512965Y-55854003D01*
X104512965Y-55853996D01*
X104492769Y-55674750D01*
X104492768Y-55674745D01*
X104488382Y-55662211D01*
X104433189Y-55504478D01*
X104337216Y-55351738D01*
X104209662Y-55224184D01*
X104131765Y-55175238D01*
X104056923Y-55128211D01*
X103886654Y-55068631D01*
X103886649Y-55068630D01*
X103707404Y-55048435D01*
X103707396Y-55048435D01*
X103528150Y-55068630D01*
X103528145Y-55068631D01*
X103357876Y-55128211D01*
X103205137Y-55224184D01*
X103077584Y-55351737D01*
X102981611Y-55504476D01*
X102922031Y-55674745D01*
X102922030Y-55674750D01*
X102901835Y-55853996D01*
X99388479Y-55853996D01*
X99408365Y-55677503D01*
X99408365Y-55677496D01*
X99388169Y-55498250D01*
X99388168Y-55498245D01*
X99337487Y-55353408D01*
X99328589Y-55327978D01*
X99232616Y-55175238D01*
X99105062Y-55047684D01*
X98952323Y-54951711D01*
X98782054Y-54892131D01*
X98782049Y-54892130D01*
X98602804Y-54871935D01*
X98602796Y-54871935D01*
X98423550Y-54892130D01*
X98423545Y-54892131D01*
X98253276Y-54951711D01*
X98100537Y-55047684D01*
X97972984Y-55175237D01*
X97877011Y-55327976D01*
X97817431Y-55498245D01*
X97817430Y-55498250D01*
X97797235Y-55677496D01*
X73111215Y-55677496D01*
X73155903Y-55581663D01*
X73217063Y-55353408D01*
X73237659Y-55118000D01*
X73217063Y-54882592D01*
X73155903Y-54654337D01*
X73056035Y-54440171D01*
X73050425Y-54432158D01*
X72920494Y-54246597D01*
X72753402Y-54079506D01*
X72753396Y-54079501D01*
X72567842Y-53949575D01*
X72524217Y-53894998D01*
X72517023Y-53825500D01*
X72548546Y-53763145D01*
X72567842Y-53746425D01*
X72590026Y-53730891D01*
X72753401Y-53616495D01*
X72920495Y-53449401D01*
X73056035Y-53255830D01*
X73155903Y-53041663D01*
X73217063Y-52813408D01*
X73237659Y-52578000D01*
X73217063Y-52342592D01*
X73155903Y-52114337D01*
X73056035Y-51900171D01*
X73050425Y-51892158D01*
X72920494Y-51706597D01*
X72753402Y-51539506D01*
X72753396Y-51539501D01*
X72567842Y-51409575D01*
X72524217Y-51354998D01*
X72517023Y-51285500D01*
X72548546Y-51223145D01*
X72567842Y-51206425D01*
X72649193Y-51149462D01*
X72753401Y-51076495D01*
X72920495Y-50909401D01*
X73056035Y-50715830D01*
X73155903Y-50501663D01*
X73217063Y-50273408D01*
X73237659Y-50038000D01*
X73217063Y-49802592D01*
X73155903Y-49574337D01*
X73056035Y-49360171D01*
X73015622Y-49302454D01*
X72920494Y-49166597D01*
X72753402Y-48999506D01*
X72753395Y-48999501D01*
X72559834Y-48863967D01*
X72559830Y-48863965D01*
X72559828Y-48863964D01*
X72345663Y-48764097D01*
X72345659Y-48764096D01*
X72345655Y-48764094D01*
X72117413Y-48702938D01*
X72117403Y-48702936D01*
X71882001Y-48682341D01*
X71881999Y-48682341D01*
X71646596Y-48702936D01*
X71646586Y-48702938D01*
X71418344Y-48764094D01*
X71418335Y-48764098D01*
X71204171Y-48863964D01*
X71204169Y-48863965D01*
X71010600Y-48999503D01*
X70888673Y-49121430D01*
X70827350Y-49154914D01*
X70757658Y-49149930D01*
X70701725Y-49108058D01*
X70684810Y-49077081D01*
X70635797Y-48945671D01*
X70635793Y-48945664D01*
X70549547Y-48830455D01*
X70549544Y-48830452D01*
X70434335Y-48744206D01*
X70434328Y-48744202D01*
X70299482Y-48693908D01*
X70299483Y-48693908D01*
X70239883Y-48687501D01*
X70239881Y-48687500D01*
X70239873Y-48687500D01*
X70239864Y-48687500D01*
X68444129Y-48687500D01*
X68444123Y-48687501D01*
X68384516Y-48693908D01*
X68249671Y-48744202D01*
X68249664Y-48744206D01*
X68134455Y-48830452D01*
X68134452Y-48830455D01*
X68048206Y-48945664D01*
X68048202Y-48945671D01*
X67997908Y-49080517D01*
X67991501Y-49140116D01*
X67991500Y-49140135D01*
X67991500Y-50935870D01*
X67991501Y-50935876D01*
X67997908Y-50995483D01*
X68048202Y-51130328D01*
X68048206Y-51130335D01*
X68134452Y-51245544D01*
X68134455Y-51245547D01*
X68249664Y-51331793D01*
X68249671Y-51331797D01*
X68381081Y-51380810D01*
X68437015Y-51422681D01*
X68461432Y-51488145D01*
X68446580Y-51556418D01*
X68425430Y-51584673D01*
X68303503Y-51706600D01*
X68167965Y-51900169D01*
X68167964Y-51900171D01*
X68068098Y-52114335D01*
X68068094Y-52114344D01*
X68006938Y-52342586D01*
X68006936Y-52342596D01*
X67986341Y-52577999D01*
X58920500Y-52577999D01*
X58920500Y-37074998D01*
X68619518Y-37074998D01*
X68619518Y-37075001D01*
X68639422Y-37353299D01*
X68698727Y-37625916D01*
X68698729Y-37625923D01*
X68759266Y-37788230D01*
X68796231Y-37887338D01*
X68796233Y-37887342D01*
X68929940Y-38132207D01*
X68929945Y-38132215D01*
X69097138Y-38355560D01*
X69097154Y-38355578D01*
X69294421Y-38552845D01*
X69294439Y-38552861D01*
X69517784Y-38720054D01*
X69517792Y-38720059D01*
X69762657Y-38853766D01*
X69762661Y-38853768D01*
X69762663Y-38853769D01*
X70024077Y-38951271D01*
X70160391Y-38980924D01*
X70296700Y-39010577D01*
X70296702Y-39010577D01*
X70296706Y-39010578D01*
X70544014Y-39028265D01*
X70574999Y-39030482D01*
X70575000Y-39030482D01*
X70575001Y-39030482D01*
X70602881Y-39028487D01*
X70853294Y-39010578D01*
X71125923Y-38951271D01*
X71387337Y-38853769D01*
X71632213Y-38720056D01*
X71855568Y-38552855D01*
X72052855Y-38355568D01*
X72220056Y-38132213D01*
X72353769Y-37887337D01*
X72451271Y-37625923D01*
X72510578Y-37353294D01*
X72530482Y-37075000D01*
X72510578Y-36796706D01*
X72492073Y-36711642D01*
X72451272Y-36524083D01*
X72451271Y-36524077D01*
X72353769Y-36262663D01*
X72323252Y-36206776D01*
X72220059Y-36017792D01*
X72220054Y-36017784D01*
X72052861Y-35794439D01*
X72052845Y-35794421D01*
X71855578Y-35597154D01*
X71855560Y-35597138D01*
X71632215Y-35429945D01*
X71632207Y-35429940D01*
X71387342Y-35296233D01*
X71387338Y-35296231D01*
X71288230Y-35259266D01*
X71125923Y-35198729D01*
X71125919Y-35198728D01*
X71125916Y-35198727D01*
X70853299Y-35139422D01*
X70575001Y-35119518D01*
X70574999Y-35119518D01*
X70296700Y-35139422D01*
X70024083Y-35198727D01*
X70024078Y-35198728D01*
X70024077Y-35198729D01*
X69960875Y-35222301D01*
X69762661Y-35296231D01*
X69762657Y-35296233D01*
X69517792Y-35429940D01*
X69517784Y-35429945D01*
X69294439Y-35597138D01*
X69294421Y-35597154D01*
X69097154Y-35794421D01*
X69097138Y-35794439D01*
X68929945Y-36017784D01*
X68929940Y-36017792D01*
X68796233Y-36262657D01*
X68796231Y-36262661D01*
X68698727Y-36524083D01*
X68639422Y-36796700D01*
X68619518Y-37074998D01*
X58920500Y-37074998D01*
X58920500Y-33124000D01*
X74494500Y-33124000D01*
X74494500Y-37083998D01*
X74494500Y-53876000D01*
X74494501Y-53876009D01*
X74506052Y-53983450D01*
X74506054Y-53983462D01*
X74517260Y-54034972D01*
X74551383Y-54137497D01*
X74551386Y-54137503D01*
X74629171Y-54258537D01*
X74629179Y-54258548D01*
X74674923Y-54311340D01*
X74674926Y-54311343D01*
X74674930Y-54311347D01*
X74783664Y-54405567D01*
X74783667Y-54405568D01*
X74783668Y-54405569D01*
X74877925Y-54448616D01*
X74914541Y-54465338D01*
X74981580Y-54485023D01*
X74981584Y-54485024D01*
X75124000Y-54505500D01*
X75124003Y-54505500D01*
X80875990Y-54505500D01*
X80876000Y-54505500D01*
X80983456Y-54493947D01*
X81034967Y-54482741D01*
X81069197Y-54471347D01*
X81137497Y-54448616D01*
X81137501Y-54448613D01*
X81137504Y-54448613D01*
X81258543Y-54370825D01*
X81311347Y-54325070D01*
X81405567Y-54216336D01*
X81465338Y-54085459D01*
X81485023Y-54018420D01*
X81485024Y-54018416D01*
X81505500Y-53876000D01*
X81505500Y-51507496D01*
X97949635Y-51507496D01*
X97949635Y-51507503D01*
X97969830Y-51686749D01*
X97969831Y-51686754D01*
X98029412Y-51857025D01*
X98035385Y-51866532D01*
X98054383Y-51933769D01*
X98035385Y-51998468D01*
X98029412Y-52007974D01*
X97969831Y-52178245D01*
X97969830Y-52178250D01*
X97949635Y-52357496D01*
X97949635Y-52357503D01*
X97969830Y-52536749D01*
X97969831Y-52536754D01*
X98029411Y-52707023D01*
X98096258Y-52813408D01*
X98125384Y-52859762D01*
X98252938Y-52987316D01*
X98405678Y-53083289D01*
X98575945Y-53142868D01*
X98575950Y-53142869D01*
X98755196Y-53163065D01*
X98755200Y-53163065D01*
X98755204Y-53163065D01*
X98934449Y-53142869D01*
X98934452Y-53142868D01*
X98934455Y-53142868D01*
X99104722Y-53083289D01*
X99257462Y-52987316D01*
X99385016Y-52859762D01*
X99480989Y-52707022D01*
X99540568Y-52536755D01*
X99548161Y-52469368D01*
X99560765Y-52357503D01*
X99560765Y-52357496D01*
X99540569Y-52178250D01*
X99540566Y-52178237D01*
X99499128Y-52059818D01*
X99480989Y-52007978D01*
X99475015Y-51998471D01*
X99456015Y-51931237D01*
X99475016Y-51866527D01*
X99477072Y-51863255D01*
X99480989Y-51857022D01*
X99533624Y-51706600D01*
X99540566Y-51686762D01*
X99540569Y-51686749D01*
X99540879Y-51683996D01*
X102901835Y-51683996D01*
X102901835Y-51684003D01*
X102922030Y-51863249D01*
X102922031Y-51863254D01*
X102981611Y-52033523D01*
X103027131Y-52105967D01*
X103077584Y-52186262D01*
X103205138Y-52313816D01*
X103357878Y-52409789D01*
X103528145Y-52469368D01*
X103528150Y-52469369D01*
X103707396Y-52489565D01*
X103707400Y-52489565D01*
X103707404Y-52489565D01*
X103886649Y-52469369D01*
X103886652Y-52469368D01*
X103886655Y-52469368D01*
X104056922Y-52409789D01*
X104209662Y-52313816D01*
X104337216Y-52186262D01*
X104433189Y-52033522D01*
X104492768Y-51863255D01*
X104493470Y-51857025D01*
X104512965Y-51684003D01*
X104512965Y-51683996D01*
X104492769Y-51504750D01*
X104492768Y-51504745D01*
X104474579Y-51452765D01*
X104433189Y-51334478D01*
X104431504Y-51331797D01*
X104337215Y-51181737D01*
X104209662Y-51054184D01*
X104056923Y-50958211D01*
X103886654Y-50898631D01*
X103886649Y-50898630D01*
X103707404Y-50878435D01*
X103707396Y-50878435D01*
X103528150Y-50898630D01*
X103528145Y-50898631D01*
X103357876Y-50958211D01*
X103205137Y-51054184D01*
X103077584Y-51181737D01*
X102981611Y-51334476D01*
X102922031Y-51504745D01*
X102922030Y-51504750D01*
X102901835Y-51683996D01*
X99540879Y-51683996D01*
X99560765Y-51507503D01*
X99560765Y-51507496D01*
X99540569Y-51328250D01*
X99540568Y-51328245D01*
X99489303Y-51181738D01*
X99480989Y-51157978D01*
X99385016Y-51005238D01*
X99257462Y-50877684D01*
X99175932Y-50826455D01*
X99104723Y-50781711D01*
X98934454Y-50722131D01*
X98934449Y-50722130D01*
X98755204Y-50701935D01*
X98755196Y-50701935D01*
X98575950Y-50722130D01*
X98575945Y-50722131D01*
X98405676Y-50781711D01*
X98252937Y-50877684D01*
X98125384Y-51005237D01*
X98029411Y-51157976D01*
X97969831Y-51328245D01*
X97969830Y-51328250D01*
X97949635Y-51507496D01*
X81505500Y-51507496D01*
X81505500Y-50647196D01*
X83751035Y-50647196D01*
X83751035Y-50647203D01*
X83771230Y-50826449D01*
X83771231Y-50826454D01*
X83830811Y-50996723D01*
X83914761Y-51130328D01*
X83926784Y-51149462D01*
X84054338Y-51277016D01*
X84103649Y-51308000D01*
X84178445Y-51354998D01*
X84207078Y-51372989D01*
X84311635Y-51409575D01*
X84377345Y-51432568D01*
X84377350Y-51432569D01*
X84556596Y-51452765D01*
X84556600Y-51452765D01*
X84556604Y-51452765D01*
X84735849Y-51432569D01*
X84735852Y-51432568D01*
X84735855Y-51432568D01*
X84906122Y-51372989D01*
X85058862Y-51277016D01*
X85186416Y-51149462D01*
X85282389Y-50996722D01*
X85341968Y-50826455D01*
X85341969Y-50826449D01*
X85362165Y-50647203D01*
X85362165Y-50647196D01*
X85341969Y-50467950D01*
X85341968Y-50467945D01*
X85282388Y-50297676D01*
X85186415Y-50144937D01*
X85058862Y-50017384D01*
X84906123Y-49921411D01*
X84735854Y-49861831D01*
X84735849Y-49861830D01*
X84556604Y-49841635D01*
X84556596Y-49841635D01*
X84377350Y-49861830D01*
X84377345Y-49861831D01*
X84207076Y-49921411D01*
X84054337Y-50017384D01*
X83926784Y-50144937D01*
X83830811Y-50297676D01*
X83771231Y-50467945D01*
X83771230Y-50467950D01*
X83751035Y-50647196D01*
X81505500Y-50647196D01*
X81505500Y-49123196D01*
X85021035Y-49123196D01*
X85021035Y-49123203D01*
X85041230Y-49302449D01*
X85041231Y-49302454D01*
X85100811Y-49472723D01*
X85164659Y-49574335D01*
X85196784Y-49625462D01*
X85324338Y-49753016D01*
X85477078Y-49848989D01*
X85647345Y-49908568D01*
X85647350Y-49908569D01*
X85826596Y-49928765D01*
X85826600Y-49928765D01*
X85826604Y-49928765D01*
X86005849Y-49908569D01*
X86005852Y-49908568D01*
X86005855Y-49908568D01*
X86176122Y-49848989D01*
X86328862Y-49753016D01*
X86456416Y-49625462D01*
X86552389Y-49472722D01*
X86611968Y-49302455D01*
X86627275Y-49166599D01*
X86632165Y-49123203D01*
X86632165Y-49123196D01*
X86611969Y-48943950D01*
X86611968Y-48943945D01*
X86552388Y-48773676D01*
X86456415Y-48620937D01*
X86328862Y-48493384D01*
X86176123Y-48397411D01*
X86005854Y-48337831D01*
X86005849Y-48337830D01*
X85826604Y-48317635D01*
X85826596Y-48317635D01*
X85647350Y-48337830D01*
X85647345Y-48337831D01*
X85477076Y-48397411D01*
X85324337Y-48493384D01*
X85196784Y-48620937D01*
X85100811Y-48773676D01*
X85041231Y-48943945D01*
X85041230Y-48943950D01*
X85021035Y-49123196D01*
X81505500Y-49123196D01*
X81505500Y-48701481D01*
X81525185Y-48634442D01*
X81577989Y-48588687D01*
X81588547Y-48584439D01*
X81592620Y-48583013D01*
X81604122Y-48578989D01*
X81756862Y-48483016D01*
X81884416Y-48355462D01*
X81980389Y-48202722D01*
X82039968Y-48032455D01*
X82060165Y-47853200D01*
X82039968Y-47673945D01*
X81980389Y-47503678D01*
X81884416Y-47350938D01*
X81756862Y-47223384D01*
X81604124Y-47127412D01*
X81604123Y-47127411D01*
X81588544Y-47121960D01*
X81531768Y-47081237D01*
X81506022Y-47016284D01*
X81505500Y-47004919D01*
X81505500Y-45629500D01*
X81525185Y-45562461D01*
X81577989Y-45516706D01*
X81629500Y-45505500D01*
X106370500Y-45505500D01*
X106437539Y-45525185D01*
X106483294Y-45577989D01*
X106494500Y-45629500D01*
X106494500Y-50643306D01*
X106494500Y-52831999D01*
X106494500Y-53876000D01*
X106494501Y-53876009D01*
X106506052Y-53983450D01*
X106506054Y-53983462D01*
X106517260Y-54034972D01*
X106551383Y-54137497D01*
X106551386Y-54137503D01*
X106629171Y-54258537D01*
X106629179Y-54258548D01*
X106674923Y-54311340D01*
X106674926Y-54311343D01*
X106674930Y-54311347D01*
X106783664Y-54405567D01*
X106783667Y-54405568D01*
X106783668Y-54405569D01*
X106877925Y-54448616D01*
X106914541Y-54465338D01*
X106981580Y-54485023D01*
X106981584Y-54485024D01*
X107124000Y-54505500D01*
X109474377Y-54505500D01*
X109541416Y-54525185D01*
X109587171Y-54577989D01*
X109597115Y-54647147D01*
X109594152Y-54661593D01*
X109534938Y-54882586D01*
X109534936Y-54882596D01*
X109514341Y-55117999D01*
X109514341Y-55118000D01*
X109534936Y-55353403D01*
X109534938Y-55353413D01*
X109596094Y-55581655D01*
X109596096Y-55581659D01*
X109596097Y-55581663D01*
X109640785Y-55677496D01*
X109695965Y-55795830D01*
X109695967Y-55795834D01*
X109758919Y-55885738D01*
X109831501Y-55989396D01*
X109831506Y-55989402D01*
X109998597Y-56156493D01*
X109998603Y-56156498D01*
X110184158Y-56286425D01*
X110227783Y-56341002D01*
X110234977Y-56410500D01*
X110203454Y-56472855D01*
X110184158Y-56489575D01*
X109998597Y-56619505D01*
X109831505Y-56786597D01*
X109695965Y-56980169D01*
X109695964Y-56980171D01*
X109596098Y-57194335D01*
X109596094Y-57194344D01*
X109534938Y-57422586D01*
X109534936Y-57422596D01*
X109514341Y-57657999D01*
X109514341Y-57658000D01*
X109534936Y-57893403D01*
X109534938Y-57893413D01*
X109596094Y-58121655D01*
X109596096Y-58121659D01*
X109596097Y-58121663D01*
X109600000Y-58130032D01*
X109695965Y-58335830D01*
X109695967Y-58335834D01*
X109804281Y-58490521D01*
X109831501Y-58529396D01*
X109831506Y-58529402D01*
X109998597Y-58696493D01*
X109998603Y-58696498D01*
X110184158Y-58826425D01*
X110227783Y-58881002D01*
X110234977Y-58950500D01*
X110203454Y-59012855D01*
X110184158Y-59029575D01*
X109998597Y-59159505D01*
X109831505Y-59326597D01*
X109695965Y-59520169D01*
X109695964Y-59520171D01*
X109596098Y-59734335D01*
X109596094Y-59734344D01*
X109534938Y-59962586D01*
X109534936Y-59962596D01*
X109514341Y-60197999D01*
X109514341Y-60198000D01*
X109534936Y-60433403D01*
X109534938Y-60433413D01*
X109596094Y-60661655D01*
X109596096Y-60661659D01*
X109596097Y-60661663D01*
X109617473Y-60707503D01*
X109695965Y-60875830D01*
X109695967Y-60875834D01*
X109804281Y-61030521D01*
X109831501Y-61069396D01*
X109831506Y-61069402D01*
X109998597Y-61236493D01*
X109998603Y-61236498D01*
X110184158Y-61366425D01*
X110227783Y-61421002D01*
X110234977Y-61490500D01*
X110203454Y-61552855D01*
X110184158Y-61569575D01*
X109998597Y-61699505D01*
X109831505Y-61866597D01*
X109695965Y-62060169D01*
X109695964Y-62060171D01*
X109596098Y-62274335D01*
X109596094Y-62274344D01*
X109534938Y-62502586D01*
X109534936Y-62502596D01*
X109514341Y-62737999D01*
X109514341Y-62738000D01*
X109534936Y-62973403D01*
X109534938Y-62973413D01*
X109596094Y-63201655D01*
X109596096Y-63201659D01*
X109596097Y-63201663D01*
X109600979Y-63212132D01*
X109695965Y-63415830D01*
X109695967Y-63415834D01*
X109804281Y-63570521D01*
X109831501Y-63609396D01*
X109831506Y-63609402D01*
X109998597Y-63776493D01*
X109998603Y-63776498D01*
X110184158Y-63906425D01*
X110227783Y-63961002D01*
X110234977Y-64030500D01*
X110203454Y-64092855D01*
X110184158Y-64109575D01*
X109998597Y-64239505D01*
X109831505Y-64406597D01*
X109695965Y-64600169D01*
X109695964Y-64600171D01*
X109596098Y-64814335D01*
X109596094Y-64814344D01*
X109534938Y-65042586D01*
X109534936Y-65042596D01*
X109514341Y-65277999D01*
X109514341Y-65278000D01*
X109534936Y-65513403D01*
X109534938Y-65513413D01*
X109596094Y-65741655D01*
X109596096Y-65741659D01*
X109596097Y-65741663D01*
X109600000Y-65750032D01*
X109695965Y-65955830D01*
X109695967Y-65955834D01*
X109804281Y-66110521D01*
X109831501Y-66149396D01*
X109831506Y-66149402D01*
X109998597Y-66316493D01*
X109998603Y-66316498D01*
X110184158Y-66446425D01*
X110227783Y-66501002D01*
X110234977Y-66570500D01*
X110203454Y-66632855D01*
X110184158Y-66649575D01*
X109998597Y-66779505D01*
X109831505Y-66946597D01*
X109695965Y-67140169D01*
X109695964Y-67140171D01*
X109596098Y-67354335D01*
X109596094Y-67354344D01*
X109534938Y-67582586D01*
X109534936Y-67582596D01*
X109514341Y-67817999D01*
X109514341Y-67818000D01*
X109534936Y-68053403D01*
X109534938Y-68053413D01*
X109596094Y-68281655D01*
X109596096Y-68281659D01*
X109596097Y-68281663D01*
X109600000Y-68290032D01*
X109695965Y-68495830D01*
X109695967Y-68495834D01*
X109804281Y-68650521D01*
X109831501Y-68689396D01*
X109831506Y-68689402D01*
X109998597Y-68856493D01*
X109998603Y-68856498D01*
X110184158Y-68986425D01*
X110227783Y-69041002D01*
X110234977Y-69110500D01*
X110203454Y-69172855D01*
X110184158Y-69189575D01*
X109998597Y-69319505D01*
X109831505Y-69486597D01*
X109695965Y-69680169D01*
X109695964Y-69680171D01*
X109596098Y-69894335D01*
X109596094Y-69894344D01*
X109534938Y-70122586D01*
X109534936Y-70122596D01*
X109514341Y-70357999D01*
X109514341Y-70358000D01*
X109534936Y-70593403D01*
X109534938Y-70593413D01*
X109596094Y-70821655D01*
X109596096Y-70821659D01*
X109596097Y-70821663D01*
X109600000Y-70830032D01*
X109695965Y-71035830D01*
X109695967Y-71035834D01*
X109777842Y-71152762D01*
X109831501Y-71229396D01*
X109831506Y-71229402D01*
X109998597Y-71396493D01*
X109998603Y-71396498D01*
X110184158Y-71526425D01*
X110227783Y-71581002D01*
X110234977Y-71650500D01*
X110203454Y-71712855D01*
X110184158Y-71729575D01*
X109998597Y-71859505D01*
X109831505Y-72026597D01*
X109695965Y-72220169D01*
X109695964Y-72220171D01*
X109596098Y-72434335D01*
X109596094Y-72434344D01*
X109534938Y-72662586D01*
X109534936Y-72662596D01*
X109514341Y-72897999D01*
X109514341Y-72898000D01*
X109534936Y-73133403D01*
X109534938Y-73133413D01*
X109596094Y-73361655D01*
X109596096Y-73361659D01*
X109596097Y-73361663D01*
X109600000Y-73370032D01*
X109695965Y-73575830D01*
X109695967Y-73575834D01*
X109804281Y-73730521D01*
X109831501Y-73769396D01*
X109831506Y-73769402D01*
X109998597Y-73936493D01*
X109998603Y-73936498D01*
X110184158Y-74066425D01*
X110227783Y-74121002D01*
X110234977Y-74190500D01*
X110203454Y-74252855D01*
X110184158Y-74269575D01*
X109998597Y-74399505D01*
X109831505Y-74566597D01*
X109695965Y-74760169D01*
X109695964Y-74760171D01*
X109596098Y-74974335D01*
X109596094Y-74974344D01*
X109534938Y-75202586D01*
X109534936Y-75202596D01*
X109514341Y-75437999D01*
X109514341Y-75438000D01*
X109534936Y-75673403D01*
X109534938Y-75673413D01*
X109596094Y-75901655D01*
X109596096Y-75901659D01*
X109596097Y-75901663D01*
X109676004Y-76073023D01*
X109695965Y-76115830D01*
X109695967Y-76115834D01*
X109783458Y-76240783D01*
X109831501Y-76309396D01*
X109831506Y-76309402D01*
X109998597Y-76476493D01*
X109998603Y-76476498D01*
X110184158Y-76606425D01*
X110227783Y-76661002D01*
X110234977Y-76730500D01*
X110203454Y-76792855D01*
X110184158Y-76809575D01*
X109998597Y-76939505D01*
X109831505Y-77106597D01*
X109695965Y-77300169D01*
X109695964Y-77300171D01*
X109596098Y-77514335D01*
X109596094Y-77514344D01*
X109534938Y-77742586D01*
X109534936Y-77742596D01*
X109514341Y-77977999D01*
X109514341Y-77978000D01*
X109534936Y-78213403D01*
X109534938Y-78213413D01*
X109596094Y-78441655D01*
X109596096Y-78441659D01*
X109596097Y-78441663D01*
X109600000Y-78450032D01*
X109695965Y-78655830D01*
X109695967Y-78655834D01*
X109746241Y-78727632D01*
X109831501Y-78849396D01*
X109831506Y-78849402D01*
X109998597Y-79016493D01*
X109998603Y-79016498D01*
X110184158Y-79146425D01*
X110227783Y-79201002D01*
X110234977Y-79270500D01*
X110203454Y-79332855D01*
X110184158Y-79349575D01*
X109998597Y-79479505D01*
X109831505Y-79646597D01*
X109695965Y-79840169D01*
X109695964Y-79840171D01*
X109596098Y-80054335D01*
X109596094Y-80054344D01*
X109534938Y-80282586D01*
X109534936Y-80282596D01*
X109514341Y-80517999D01*
X109514341Y-80518000D01*
X109534936Y-80753403D01*
X109534938Y-80753413D01*
X109596094Y-80981655D01*
X109596096Y-80981659D01*
X109596097Y-80981663D01*
X109647892Y-81092737D01*
X109695965Y-81195830D01*
X109695967Y-81195834D01*
X109804281Y-81350521D01*
X109831501Y-81389396D01*
X109831506Y-81389402D01*
X109998597Y-81556493D01*
X109998603Y-81556498D01*
X110184158Y-81686425D01*
X110227783Y-81741002D01*
X110234977Y-81810500D01*
X110203454Y-81872855D01*
X110184158Y-81889575D01*
X109998597Y-82019505D01*
X109831505Y-82186597D01*
X109695965Y-82380169D01*
X109695964Y-82380171D01*
X109596098Y-82594335D01*
X109596094Y-82594344D01*
X109534938Y-82822586D01*
X109534936Y-82822596D01*
X109514341Y-83057999D01*
X109514341Y-83058000D01*
X109534936Y-83293403D01*
X109534938Y-83293413D01*
X109596094Y-83521655D01*
X109596096Y-83521659D01*
X109596097Y-83521663D01*
X109600000Y-83530032D01*
X109695965Y-83735830D01*
X109695967Y-83735834D01*
X109804281Y-83890521D01*
X109831501Y-83929396D01*
X109831506Y-83929402D01*
X109998597Y-84096493D01*
X109998603Y-84096498D01*
X110184158Y-84226425D01*
X110227783Y-84281002D01*
X110234977Y-84350500D01*
X110203454Y-84412855D01*
X110184158Y-84429575D01*
X109998597Y-84559505D01*
X109831505Y-84726597D01*
X109695965Y-84920169D01*
X109695964Y-84920171D01*
X109596098Y-85134335D01*
X109596094Y-85134344D01*
X109534938Y-85362586D01*
X109534936Y-85362596D01*
X109514341Y-85597999D01*
X109514341Y-85598000D01*
X109534936Y-85833403D01*
X109534938Y-85833413D01*
X109596094Y-86061655D01*
X109596096Y-86061659D01*
X109596097Y-86061663D01*
X109600000Y-86070032D01*
X109695965Y-86275830D01*
X109695967Y-86275834D01*
X109804281Y-86430521D01*
X109831501Y-86469396D01*
X109831506Y-86469402D01*
X109998597Y-86636493D01*
X109998603Y-86636498D01*
X110184158Y-86766425D01*
X110227783Y-86821002D01*
X110234977Y-86890500D01*
X110203454Y-86952855D01*
X110184158Y-86969575D01*
X109998597Y-87099505D01*
X109831505Y-87266597D01*
X109695965Y-87460169D01*
X109695964Y-87460171D01*
X109596098Y-87674335D01*
X109596094Y-87674344D01*
X109534938Y-87902586D01*
X109534936Y-87902596D01*
X109514341Y-88137999D01*
X109514341Y-88138000D01*
X109534936Y-88373403D01*
X109534938Y-88373413D01*
X109596094Y-88601655D01*
X109596096Y-88601659D01*
X109596097Y-88601663D01*
X109600000Y-88610032D01*
X109695965Y-88815830D01*
X109695967Y-88815834D01*
X109766630Y-88916750D01*
X109831501Y-89009396D01*
X109831506Y-89009402D01*
X109998597Y-89176493D01*
X109998603Y-89176498D01*
X110184158Y-89306425D01*
X110227783Y-89361002D01*
X110234977Y-89430500D01*
X110203454Y-89492855D01*
X110184158Y-89509575D01*
X109998597Y-89639505D01*
X109831505Y-89806597D01*
X109695965Y-90000169D01*
X109695964Y-90000171D01*
X109596098Y-90214335D01*
X109596094Y-90214344D01*
X109534938Y-90442586D01*
X109534936Y-90442596D01*
X109514341Y-90677999D01*
X109514341Y-90678000D01*
X109534936Y-90913403D01*
X109534938Y-90913413D01*
X109596094Y-91141655D01*
X109596096Y-91141659D01*
X109596097Y-91141663D01*
X109676004Y-91313023D01*
X109695965Y-91355830D01*
X109695967Y-91355834D01*
X109758919Y-91445738D01*
X109831501Y-91549396D01*
X109831506Y-91549402D01*
X109998597Y-91716493D01*
X109998603Y-91716498D01*
X110184158Y-91846425D01*
X110227783Y-91901002D01*
X110234977Y-91970500D01*
X110203454Y-92032855D01*
X110184158Y-92049575D01*
X109998597Y-92179505D01*
X109831505Y-92346597D01*
X109695965Y-92540169D01*
X109695964Y-92540171D01*
X109596098Y-92754335D01*
X109596094Y-92754344D01*
X109534938Y-92982586D01*
X109534936Y-92982596D01*
X109514341Y-93217999D01*
X109514341Y-93218000D01*
X109534936Y-93453403D01*
X109534938Y-93453413D01*
X109596094Y-93681655D01*
X109596096Y-93681659D01*
X109596097Y-93681663D01*
X109600000Y-93690032D01*
X109695965Y-93895830D01*
X109695967Y-93895834D01*
X109756153Y-93981788D01*
X109831501Y-94089396D01*
X109831506Y-94089402D01*
X109998597Y-94256493D01*
X109998603Y-94256498D01*
X110184158Y-94386425D01*
X110227783Y-94441002D01*
X110234977Y-94510500D01*
X110203454Y-94572855D01*
X110184158Y-94589575D01*
X109998597Y-94719505D01*
X109831505Y-94886597D01*
X109695965Y-95080169D01*
X109695964Y-95080171D01*
X109596098Y-95294335D01*
X109596094Y-95294344D01*
X109534938Y-95522586D01*
X109534936Y-95522596D01*
X109514341Y-95757999D01*
X109514341Y-95758000D01*
X109534936Y-95993403D01*
X109534938Y-95993413D01*
X109596094Y-96221655D01*
X109596096Y-96221659D01*
X109596097Y-96221663D01*
X109676004Y-96393023D01*
X109695965Y-96435830D01*
X109695967Y-96435834D01*
X109715588Y-96463855D01*
X109831501Y-96629396D01*
X109831506Y-96629402D01*
X109998597Y-96796493D01*
X109998603Y-96796498D01*
X110184158Y-96926425D01*
X110227783Y-96981002D01*
X110234977Y-97050500D01*
X110203454Y-97112855D01*
X110184158Y-97129575D01*
X109998597Y-97259505D01*
X109831505Y-97426597D01*
X109695965Y-97620169D01*
X109695964Y-97620171D01*
X109596098Y-97834335D01*
X109596094Y-97834344D01*
X109534938Y-98062586D01*
X109534936Y-98062596D01*
X109514341Y-98297999D01*
X109514341Y-98298000D01*
X109534936Y-98533403D01*
X109534938Y-98533413D01*
X109596094Y-98761655D01*
X109596096Y-98761659D01*
X109596097Y-98761663D01*
X109600000Y-98770032D01*
X109695965Y-98975830D01*
X109695967Y-98975834D01*
X109804281Y-99130521D01*
X109831505Y-99169401D01*
X109998599Y-99336495D01*
X110095384Y-99404265D01*
X110192165Y-99472032D01*
X110192167Y-99472033D01*
X110192170Y-99472035D01*
X110406337Y-99571903D01*
X110634592Y-99633063D01*
X110822918Y-99649539D01*
X110869999Y-99653659D01*
X110870000Y-99653659D01*
X110870001Y-99653659D01*
X110909234Y-99650226D01*
X111105408Y-99633063D01*
X111333663Y-99571903D01*
X111547830Y-99472035D01*
X111741401Y-99336495D01*
X111908495Y-99169401D01*
X112038425Y-98983842D01*
X112093002Y-98940217D01*
X112162500Y-98933023D01*
X112224855Y-98964546D01*
X112241575Y-98983842D01*
X112371500Y-99169395D01*
X112371505Y-99169401D01*
X112538599Y-99336495D01*
X112635384Y-99404265D01*
X112732165Y-99472032D01*
X112732167Y-99472033D01*
X112732170Y-99472035D01*
X112946337Y-99571903D01*
X113174592Y-99633063D01*
X113362918Y-99649539D01*
X113409999Y-99653659D01*
X113410000Y-99653659D01*
X113410001Y-99653659D01*
X113449234Y-99650226D01*
X113645408Y-99633063D01*
X113873663Y-99571903D01*
X114087830Y-99472035D01*
X114281401Y-99336495D01*
X114448495Y-99169401D01*
X114584035Y-98975830D01*
X114683903Y-98761663D01*
X114745063Y-98533408D01*
X114765659Y-98298000D01*
X114745063Y-98062592D01*
X114683903Y-97834337D01*
X114584035Y-97620171D01*
X114578425Y-97612158D01*
X114448494Y-97426597D01*
X114281402Y-97259506D01*
X114281396Y-97259501D01*
X114095842Y-97129575D01*
X114052217Y-97074998D01*
X114045023Y-97005500D01*
X114076546Y-96943145D01*
X114095842Y-96926425D01*
X114241857Y-96824184D01*
X114281401Y-96796495D01*
X114448495Y-96629401D01*
X114584035Y-96435830D01*
X114683903Y-96221663D01*
X114745063Y-95993408D01*
X114765659Y-95758000D01*
X114745063Y-95522592D01*
X114683903Y-95294337D01*
X114584035Y-95080171D01*
X114578425Y-95072158D01*
X114448494Y-94886597D01*
X114281402Y-94719506D01*
X114281396Y-94719501D01*
X114095842Y-94589575D01*
X114052217Y-94534998D01*
X114045023Y-94465500D01*
X114076546Y-94403145D01*
X114095842Y-94386425D01*
X114118026Y-94370891D01*
X114281401Y-94256495D01*
X114448495Y-94089401D01*
X114584035Y-93895830D01*
X114683903Y-93681663D01*
X114745063Y-93453408D01*
X114765659Y-93218000D01*
X114745063Y-92982592D01*
X114683903Y-92754337D01*
X114584035Y-92540171D01*
X114578425Y-92532158D01*
X114448494Y-92346597D01*
X114281402Y-92179506D01*
X114281396Y-92179501D01*
X114095842Y-92049575D01*
X114052217Y-91994998D01*
X114045023Y-91925500D01*
X114076546Y-91863145D01*
X114095842Y-91846425D01*
X114177106Y-91789523D01*
X114281401Y-91716495D01*
X114448495Y-91549401D01*
X114584035Y-91355830D01*
X114683903Y-91141663D01*
X114745063Y-90913408D01*
X114765659Y-90678000D01*
X114745063Y-90442592D01*
X114683903Y-90214337D01*
X114584035Y-90000171D01*
X114578425Y-89992158D01*
X114448494Y-89806597D01*
X114281402Y-89639506D01*
X114281396Y-89639501D01*
X114095842Y-89509575D01*
X114052217Y-89454998D01*
X114045023Y-89385500D01*
X114076546Y-89323145D01*
X114095842Y-89306425D01*
X114140366Y-89275249D01*
X114281401Y-89176495D01*
X114448495Y-89009401D01*
X114584035Y-88815830D01*
X114683903Y-88601663D01*
X114745063Y-88373408D01*
X114765659Y-88138000D01*
X114745063Y-87902592D01*
X114683903Y-87674337D01*
X114584035Y-87460171D01*
X114578425Y-87452158D01*
X114448494Y-87266597D01*
X114281402Y-87099506D01*
X114281396Y-87099501D01*
X114095842Y-86969575D01*
X114052217Y-86914998D01*
X114045023Y-86845500D01*
X114076546Y-86783145D01*
X114095842Y-86766425D01*
X114118026Y-86750891D01*
X114281401Y-86636495D01*
X114448495Y-86469401D01*
X114584035Y-86275830D01*
X114683903Y-86061663D01*
X114745063Y-85833408D01*
X114765659Y-85598000D01*
X114745063Y-85362592D01*
X114683903Y-85134337D01*
X114584035Y-84920171D01*
X114578425Y-84912158D01*
X114448494Y-84726597D01*
X114281402Y-84559506D01*
X114281396Y-84559501D01*
X114095842Y-84429575D01*
X114052217Y-84374998D01*
X114045023Y-84305500D01*
X114076546Y-84243145D01*
X114095842Y-84226425D01*
X114121854Y-84208211D01*
X114281401Y-84096495D01*
X114448495Y-83929401D01*
X114584035Y-83735830D01*
X114683903Y-83521663D01*
X114745063Y-83293408D01*
X114765659Y-83058000D01*
X114745063Y-82822592D01*
X114683903Y-82594337D01*
X114584035Y-82380171D01*
X114578425Y-82372158D01*
X114448494Y-82186597D01*
X114281402Y-82019506D01*
X114281396Y-82019501D01*
X114095842Y-81889575D01*
X114052217Y-81834998D01*
X114045023Y-81765500D01*
X114076546Y-81703145D01*
X114095842Y-81686425D01*
X114274440Y-81561369D01*
X114281401Y-81556495D01*
X114448495Y-81389401D01*
X114584035Y-81195830D01*
X114683903Y-80981663D01*
X114745063Y-80753408D01*
X114765659Y-80518000D01*
X114763357Y-80491694D01*
X114757652Y-80426478D01*
X114745063Y-80282592D01*
X114683903Y-80054337D01*
X114584035Y-79840171D01*
X114579088Y-79833105D01*
X114448494Y-79646597D01*
X114281402Y-79479506D01*
X114281396Y-79479501D01*
X114095842Y-79349575D01*
X114052217Y-79294998D01*
X114045023Y-79225500D01*
X114076546Y-79163145D01*
X114095842Y-79146425D01*
X114195689Y-79076511D01*
X114281401Y-79016495D01*
X114448495Y-78849401D01*
X114584035Y-78655830D01*
X114683903Y-78441663D01*
X114745063Y-78213408D01*
X114765659Y-77978000D01*
X114745063Y-77742592D01*
X114683903Y-77514337D01*
X114584035Y-77300171D01*
X114578425Y-77292158D01*
X114448494Y-77106597D01*
X114281402Y-76939506D01*
X114281396Y-76939501D01*
X114095842Y-76809575D01*
X114052217Y-76754998D01*
X114045023Y-76685500D01*
X114076546Y-76623145D01*
X114095842Y-76606425D01*
X114213715Y-76523889D01*
X114281401Y-76476495D01*
X114448495Y-76309401D01*
X114584035Y-76115830D01*
X114683903Y-75901663D01*
X114745063Y-75673408D01*
X114765659Y-75438000D01*
X114745063Y-75202592D01*
X114683903Y-74974337D01*
X114584035Y-74760171D01*
X114578425Y-74752158D01*
X114448494Y-74566597D01*
X114281402Y-74399506D01*
X114281396Y-74399501D01*
X114095842Y-74269575D01*
X114052217Y-74214998D01*
X114045023Y-74145500D01*
X114076546Y-74083145D01*
X114095842Y-74066425D01*
X114124826Y-74046130D01*
X114281401Y-73936495D01*
X114448495Y-73769401D01*
X114584035Y-73575830D01*
X114683903Y-73361663D01*
X114745063Y-73133408D01*
X114765659Y-72898000D01*
X114745063Y-72662592D01*
X114683903Y-72434337D01*
X114584035Y-72220171D01*
X114578425Y-72212158D01*
X114448494Y-72026597D01*
X114281402Y-71859506D01*
X114281396Y-71859501D01*
X114095842Y-71729575D01*
X114052217Y-71674998D01*
X114045023Y-71605500D01*
X114076546Y-71543145D01*
X114095842Y-71526425D01*
X114225169Y-71435869D01*
X114281401Y-71396495D01*
X114448495Y-71229401D01*
X114584035Y-71035830D01*
X114683903Y-70821663D01*
X114745063Y-70593408D01*
X114765659Y-70358000D01*
X114745063Y-70122592D01*
X114683903Y-69894337D01*
X114584035Y-69680171D01*
X114578425Y-69672158D01*
X114448494Y-69486597D01*
X114281402Y-69319506D01*
X114281396Y-69319501D01*
X114095842Y-69189575D01*
X114052217Y-69134998D01*
X114045023Y-69065500D01*
X114076546Y-69003145D01*
X114095842Y-68986425D01*
X114145270Y-68951815D01*
X114281401Y-68856495D01*
X114448495Y-68689401D01*
X114584035Y-68495830D01*
X114683903Y-68281663D01*
X114745063Y-68053408D01*
X114765659Y-67818000D01*
X114745063Y-67582592D01*
X114683903Y-67354337D01*
X114584035Y-67140171D01*
X114578425Y-67132158D01*
X114448494Y-66946597D01*
X114281402Y-66779506D01*
X114281396Y-66779501D01*
X114095842Y-66649575D01*
X114052217Y-66594998D01*
X114045023Y-66525500D01*
X114076546Y-66463145D01*
X114095842Y-66446425D01*
X114118026Y-66430891D01*
X114281401Y-66316495D01*
X114448495Y-66149401D01*
X114584035Y-65955830D01*
X114683903Y-65741663D01*
X114745063Y-65513408D01*
X114765659Y-65278000D01*
X114745063Y-65042592D01*
X114683903Y-64814337D01*
X114584035Y-64600171D01*
X114578425Y-64592158D01*
X114448494Y-64406597D01*
X114281402Y-64239506D01*
X114281396Y-64239501D01*
X114095842Y-64109575D01*
X114052217Y-64054998D01*
X114045023Y-63985500D01*
X114076546Y-63923145D01*
X114095842Y-63906425D01*
X114212877Y-63824476D01*
X114281401Y-63776495D01*
X114448495Y-63609401D01*
X114584035Y-63415830D01*
X114683903Y-63201663D01*
X114745063Y-62973408D01*
X114765659Y-62738000D01*
X114745063Y-62502592D01*
X114683903Y-62274337D01*
X114584035Y-62060171D01*
X114578425Y-62052158D01*
X114448494Y-61866597D01*
X114281402Y-61699506D01*
X114281396Y-61699501D01*
X114095842Y-61569575D01*
X114052217Y-61514998D01*
X114045023Y-61445500D01*
X114076546Y-61383145D01*
X114095842Y-61366425D01*
X114137415Y-61337315D01*
X114281401Y-61236495D01*
X114448495Y-61069401D01*
X114584035Y-60875830D01*
X114683903Y-60661663D01*
X114745063Y-60433408D01*
X114765659Y-60198000D01*
X114745063Y-59962592D01*
X114683903Y-59734337D01*
X114584035Y-59520171D01*
X114578425Y-59512158D01*
X114448494Y-59326597D01*
X114281402Y-59159506D01*
X114281396Y-59159501D01*
X114095842Y-59029575D01*
X114052217Y-58974998D01*
X114045023Y-58905500D01*
X114076546Y-58843145D01*
X114095842Y-58826425D01*
X114118026Y-58810891D01*
X114281401Y-58696495D01*
X114448495Y-58529401D01*
X114584035Y-58335830D01*
X114683903Y-58121663D01*
X114745063Y-57893408D01*
X114765659Y-57658000D01*
X114745063Y-57422592D01*
X114683903Y-57194337D01*
X114584035Y-56980171D01*
X114578425Y-56972158D01*
X114448494Y-56786597D01*
X114281402Y-56619506D01*
X114281396Y-56619501D01*
X114095842Y-56489575D01*
X114052217Y-56434998D01*
X114045023Y-56365500D01*
X114076546Y-56303145D01*
X114095842Y-56286425D01*
X114214238Y-56203523D01*
X114281401Y-56156495D01*
X114448495Y-55989401D01*
X114584035Y-55795830D01*
X114683903Y-55581663D01*
X114745063Y-55353408D01*
X114765659Y-55118000D01*
X114745063Y-54882592D01*
X114725317Y-54808898D01*
X114685848Y-54661593D01*
X114687511Y-54591743D01*
X114726674Y-54533881D01*
X114790903Y-54506377D01*
X114805623Y-54505500D01*
X119875990Y-54505500D01*
X119876000Y-54505500D01*
X119983456Y-54493947D01*
X120034967Y-54482741D01*
X120069197Y-54471347D01*
X120137497Y-54448616D01*
X120137501Y-54448613D01*
X120137504Y-54448613D01*
X120258543Y-54370825D01*
X120311347Y-54325070D01*
X120405567Y-54216336D01*
X120465338Y-54085459D01*
X120485023Y-54018420D01*
X120485024Y-54018416D01*
X120505500Y-53876000D01*
X120505500Y-34875347D01*
X120525185Y-34808308D01*
X120577989Y-34762553D01*
X120647147Y-34752609D01*
X120676946Y-34760784D01*
X120758919Y-34794738D01*
X120758922Y-34794738D01*
X120758926Y-34794740D01*
X120918592Y-34826499D01*
X120918595Y-34826500D01*
X120918597Y-34826500D01*
X121081405Y-34826500D01*
X121081406Y-34826499D01*
X121134629Y-34815912D01*
X121241073Y-34794740D01*
X121241076Y-34794738D01*
X121241081Y-34794738D01*
X121391495Y-34732435D01*
X121526863Y-34641984D01*
X121641984Y-34526863D01*
X121732435Y-34391495D01*
X121794738Y-34241081D01*
X121826500Y-34081403D01*
X121826500Y-33918597D01*
X121826500Y-33918594D01*
X121826499Y-33918592D01*
X121794740Y-33758926D01*
X121794737Y-33758917D01*
X121732437Y-33608509D01*
X121732436Y-33608507D01*
X121641984Y-33473137D01*
X121641981Y-33473133D01*
X121526866Y-33358018D01*
X121526862Y-33358015D01*
X121391492Y-33267563D01*
X121391490Y-33267562D01*
X121241082Y-33205262D01*
X121241073Y-33205259D01*
X121081406Y-33173500D01*
X121081403Y-33173500D01*
X120918597Y-33173500D01*
X120918594Y-33173500D01*
X120758926Y-33205259D01*
X120758926Y-33205260D01*
X120758923Y-33205261D01*
X120758919Y-33205262D01*
X120676950Y-33239214D01*
X120607482Y-33246682D01*
X120545003Y-33215406D01*
X120509351Y-33155317D01*
X120505834Y-33127317D01*
X120505678Y-33127326D01*
X120505560Y-33125131D01*
X120505500Y-33124652D01*
X120505500Y-33124010D01*
X120505500Y-33124000D01*
X120493947Y-33016544D01*
X120482741Y-32965033D01*
X120482637Y-32964722D01*
X120448616Y-32862502D01*
X120448613Y-32862496D01*
X120370828Y-32741462D01*
X120370825Y-32741457D01*
X120370820Y-32741451D01*
X120325076Y-32688659D01*
X120325072Y-32688656D01*
X120325070Y-32688653D01*
X120216336Y-32594433D01*
X120216333Y-32594431D01*
X120216331Y-32594430D01*
X120085465Y-32534664D01*
X120085460Y-32534662D01*
X120085459Y-32534662D01*
X120018420Y-32514977D01*
X120018422Y-32514977D01*
X120018417Y-32514976D01*
X119956347Y-32506052D01*
X119876000Y-32494500D01*
X75124000Y-32494500D01*
X75123991Y-32494500D01*
X75123990Y-32494501D01*
X75016549Y-32506052D01*
X75016537Y-32506054D01*
X74965027Y-32517260D01*
X74862502Y-32551383D01*
X74862496Y-32551386D01*
X74741462Y-32629171D01*
X74741451Y-32629179D01*
X74688659Y-32674923D01*
X74594433Y-32783664D01*
X74594430Y-32783668D01*
X74534664Y-32914534D01*
X74514976Y-32981582D01*
X74509949Y-33016549D01*
X74494500Y-33124000D01*
X58920500Y-33124000D01*
X58920500Y-31104500D01*
X58940185Y-31037461D01*
X58992989Y-30991706D01*
X59044500Y-30980500D01*
X123835500Y-30980500D01*
X123902539Y-31000185D01*
G37*
%TD.AperFunction*%
%TD*%
%TA.AperFunction,Conductor*%
%TO.N,+5V*%
G36*
X119943039Y-33019685D02*
G01*
X119988794Y-33072489D01*
X120000000Y-33124000D01*
X120000000Y-53876000D01*
X119980315Y-53943039D01*
X119927511Y-53988794D01*
X119876000Y-54000000D01*
X114114211Y-54000000D01*
X114047172Y-53980315D01*
X114001417Y-53927511D01*
X113991473Y-53858353D01*
X114020498Y-53794797D01*
X114061806Y-53763618D01*
X114087578Y-53751600D01*
X114281082Y-53616105D01*
X114448105Y-53449082D01*
X114583600Y-53255578D01*
X114683429Y-53041492D01*
X114683432Y-53041486D01*
X114740636Y-52828000D01*
X113843012Y-52828000D01*
X113875925Y-52770993D01*
X113910000Y-52643826D01*
X113910000Y-52512174D01*
X113875925Y-52385007D01*
X113843012Y-52328000D01*
X114740636Y-52328000D01*
X114740635Y-52327999D01*
X114683432Y-52114513D01*
X114683429Y-52114507D01*
X114583600Y-51900422D01*
X114583599Y-51900420D01*
X114448113Y-51706926D01*
X114448108Y-51706920D01*
X114281082Y-51539894D01*
X114087578Y-51404399D01*
X113873492Y-51304570D01*
X113873477Y-51304564D01*
X113834414Y-51294097D01*
X113774754Y-51257732D01*
X113744226Y-51194885D01*
X113752521Y-51125509D01*
X113797007Y-51071632D01*
X113821710Y-51058698D01*
X113902637Y-51027348D01*
X114076041Y-50919981D01*
X114204122Y-50803219D01*
X114226762Y-50782581D01*
X114226764Y-50782579D01*
X114349673Y-50619821D01*
X114440582Y-50437250D01*
X114496397Y-50241083D01*
X114515215Y-50038000D01*
X114496397Y-49834917D01*
X114440582Y-49638750D01*
X114349673Y-49456179D01*
X114226764Y-49293421D01*
X114226762Y-49293418D01*
X114076041Y-49156019D01*
X114076039Y-49156017D01*
X113902642Y-49048655D01*
X113902635Y-49048651D01*
X113796150Y-49007399D01*
X113712456Y-48974976D01*
X113511976Y-48937500D01*
X113308024Y-48937500D01*
X113107544Y-48974976D01*
X113107541Y-48974976D01*
X113107541Y-48974977D01*
X112917364Y-49048651D01*
X112917357Y-49048655D01*
X112743960Y-49156017D01*
X112743958Y-49156019D01*
X112593237Y-49293418D01*
X112470327Y-49456178D01*
X112379422Y-49638739D01*
X112379417Y-49638752D01*
X112323602Y-49834917D01*
X112304785Y-50037999D01*
X112304785Y-50038000D01*
X112323602Y-50241082D01*
X112379417Y-50437247D01*
X112379422Y-50437260D01*
X112470327Y-50619821D01*
X112593237Y-50782581D01*
X112743958Y-50919980D01*
X112743960Y-50919982D01*
X112751782Y-50924825D01*
X112917363Y-51027348D01*
X112998283Y-51058696D01*
X113053685Y-51101269D01*
X113077276Y-51167035D01*
X113061565Y-51235116D01*
X113011542Y-51283895D01*
X112985586Y-51294097D01*
X112946519Y-51304565D01*
X112946507Y-51304570D01*
X112732422Y-51404399D01*
X112732420Y-51404400D01*
X112538926Y-51539886D01*
X112538920Y-51539891D01*
X112371891Y-51706920D01*
X112371890Y-51706922D01*
X112241575Y-51893031D01*
X112186998Y-51936655D01*
X112117499Y-51943848D01*
X112055145Y-51912326D01*
X112038425Y-51893031D01*
X111908109Y-51706922D01*
X111908108Y-51706920D01*
X111741082Y-51539894D01*
X111547578Y-51404399D01*
X111484277Y-51374882D01*
X111431838Y-51328710D01*
X111412686Y-51261516D01*
X111432902Y-51194635D01*
X111486067Y-51149300D01*
X111536682Y-51138500D01*
X111744676Y-51138500D01*
X111744677Y-51138499D01*
X111817740Y-51123966D01*
X111900601Y-51068601D01*
X111955966Y-50985740D01*
X111970500Y-50912674D01*
X111970500Y-49163326D01*
X111970500Y-49163323D01*
X111970499Y-49163321D01*
X111955967Y-49090264D01*
X111955966Y-49090260D01*
X111900601Y-49007399D01*
X111817740Y-48952034D01*
X111817739Y-48952033D01*
X111817735Y-48952032D01*
X111744677Y-48937500D01*
X111744674Y-48937500D01*
X109995326Y-48937500D01*
X109995323Y-48937500D01*
X109922264Y-48952032D01*
X109922260Y-48952033D01*
X109839399Y-49007399D01*
X109784033Y-49090260D01*
X109784032Y-49090264D01*
X109769500Y-49163321D01*
X109769500Y-50912678D01*
X109784032Y-50985735D01*
X109784033Y-50985739D01*
X109784034Y-50985740D01*
X109839399Y-51068601D01*
X109908660Y-51114879D01*
X109922260Y-51123966D01*
X109922264Y-51123967D01*
X109995321Y-51138499D01*
X109995324Y-51138500D01*
X110203318Y-51138500D01*
X110270357Y-51158185D01*
X110316112Y-51210989D01*
X110326056Y-51280147D01*
X110297031Y-51343703D01*
X110255723Y-51374882D01*
X110192422Y-51404399D01*
X110192420Y-51404400D01*
X109998926Y-51539886D01*
X109998920Y-51539891D01*
X109831891Y-51706920D01*
X109831886Y-51706926D01*
X109696400Y-51900420D01*
X109696399Y-51900422D01*
X109596570Y-52114507D01*
X109596567Y-52114513D01*
X109539364Y-52327999D01*
X109539364Y-52328000D01*
X110436988Y-52328000D01*
X110404075Y-52385007D01*
X110370000Y-52512174D01*
X110370000Y-52643826D01*
X110404075Y-52770993D01*
X110436988Y-52828000D01*
X109539364Y-52828000D01*
X109596567Y-53041486D01*
X109596570Y-53041492D01*
X109696399Y-53255578D01*
X109831894Y-53449082D01*
X109998917Y-53616105D01*
X110192421Y-53751600D01*
X110218194Y-53763618D01*
X110270633Y-53809791D01*
X110289785Y-53876984D01*
X110269569Y-53943865D01*
X110216404Y-53989200D01*
X110165789Y-54000000D01*
X107124000Y-54000000D01*
X107056961Y-53980315D01*
X107011206Y-53927511D01*
X107000000Y-53876000D01*
X107000000Y-52831999D01*
X107902750Y-52831999D01*
X107902750Y-52832000D01*
X107921670Y-52975708D01*
X107921671Y-52975712D01*
X107977137Y-53109622D01*
X107977138Y-53109624D01*
X107977139Y-53109625D01*
X108065379Y-53224621D01*
X108180375Y-53312861D01*
X108314291Y-53368330D01*
X108441280Y-53385048D01*
X108457999Y-53387250D01*
X108458000Y-53387250D01*
X108458001Y-53387250D01*
X108472977Y-53385278D01*
X108601709Y-53368330D01*
X108735625Y-53312861D01*
X108850621Y-53224621D01*
X108938861Y-53109625D01*
X108994330Y-52975709D01*
X109013250Y-52832000D01*
X108994330Y-52688291D01*
X108938861Y-52554375D01*
X108850621Y-52439379D01*
X108735625Y-52351139D01*
X108735624Y-52351138D01*
X108735622Y-52351137D01*
X108601712Y-52295671D01*
X108601710Y-52295670D01*
X108601709Y-52295670D01*
X108529854Y-52286210D01*
X108458001Y-52276750D01*
X108457999Y-52276750D01*
X108314291Y-52295670D01*
X108314287Y-52295671D01*
X108180377Y-52351137D01*
X108065379Y-52439379D01*
X107977137Y-52554377D01*
X107921671Y-52688287D01*
X107921670Y-52688291D01*
X107902750Y-52831999D01*
X107000000Y-52831999D01*
X107000000Y-45000000D01*
X81000000Y-45000000D01*
X81000000Y-47293521D01*
X80980315Y-47360560D01*
X80951487Y-47391896D01*
X80861981Y-47460577D01*
X80773737Y-47575577D01*
X80718271Y-47709487D01*
X80718270Y-47709491D01*
X80699350Y-47853199D01*
X80699350Y-47853200D01*
X80718270Y-47996908D01*
X80718271Y-47996912D01*
X80773737Y-48130822D01*
X80773738Y-48130824D01*
X80773739Y-48130825D01*
X80861979Y-48245821D01*
X80951489Y-48314504D01*
X80992689Y-48370930D01*
X81000000Y-48412878D01*
X81000000Y-53876000D01*
X80980315Y-53943039D01*
X80927511Y-53988794D01*
X80876000Y-54000000D01*
X75124000Y-54000000D01*
X75056961Y-53980315D01*
X75011206Y-53927511D01*
X75000000Y-53876000D01*
X75000000Y-37083998D01*
X110464918Y-37083998D01*
X110464918Y-37084001D01*
X110484822Y-37362299D01*
X110544127Y-37634916D01*
X110544129Y-37634923D01*
X110589064Y-37755398D01*
X110641631Y-37896338D01*
X110641633Y-37896342D01*
X110775340Y-38141207D01*
X110775345Y-38141215D01*
X110942538Y-38364560D01*
X110942554Y-38364578D01*
X111139821Y-38561845D01*
X111139839Y-38561861D01*
X111363184Y-38729054D01*
X111363192Y-38729059D01*
X111608057Y-38862766D01*
X111608061Y-38862768D01*
X111608063Y-38862769D01*
X111869477Y-38960271D01*
X112005791Y-38989924D01*
X112142100Y-39019577D01*
X112142102Y-39019577D01*
X112142106Y-39019578D01*
X112389414Y-39037265D01*
X112420399Y-39039482D01*
X112420400Y-39039482D01*
X112420401Y-39039482D01*
X112448281Y-39037487D01*
X112698694Y-39019578D01*
X112971323Y-38960271D01*
X113232737Y-38862769D01*
X113477613Y-38729056D01*
X113700968Y-38561855D01*
X113898255Y-38364568D01*
X114065456Y-38141213D01*
X114199169Y-37896337D01*
X114296671Y-37634923D01*
X114355978Y-37362294D01*
X114375882Y-37084000D01*
X114355978Y-36805706D01*
X114337473Y-36720642D01*
X114296672Y-36533083D01*
X114296671Y-36533077D01*
X114199169Y-36271663D01*
X114065456Y-36026787D01*
X114065454Y-36026784D01*
X113898261Y-35803439D01*
X113898245Y-35803421D01*
X113700978Y-35606154D01*
X113700960Y-35606138D01*
X113477615Y-35438945D01*
X113477607Y-35438940D01*
X113232742Y-35305233D01*
X113232738Y-35305231D01*
X113133630Y-35268266D01*
X112971323Y-35207729D01*
X112971319Y-35207728D01*
X112971316Y-35207727D01*
X112698699Y-35148422D01*
X112420401Y-35128518D01*
X112420399Y-35128518D01*
X112142100Y-35148422D01*
X111869483Y-35207727D01*
X111869478Y-35207728D01*
X111869477Y-35207729D01*
X111806275Y-35231301D01*
X111608061Y-35305231D01*
X111608057Y-35305233D01*
X111363192Y-35438940D01*
X111363184Y-35438945D01*
X111139839Y-35606138D01*
X111139821Y-35606154D01*
X110942554Y-35803421D01*
X110942538Y-35803439D01*
X110775345Y-36026784D01*
X110775340Y-36026792D01*
X110641633Y-36271657D01*
X110641631Y-36271661D01*
X110544127Y-36533083D01*
X110484822Y-36805700D01*
X110464918Y-37083998D01*
X75000000Y-37083998D01*
X75000000Y-33124000D01*
X75019685Y-33056961D01*
X75072489Y-33011206D01*
X75124000Y-33000000D01*
X119876000Y-33000000D01*
X119943039Y-33019685D01*
G37*
%TD.AperFunction*%
%TA.AperFunction,Conductor*%
G36*
X112944075Y-52385007D02*
G01*
X112910000Y-52512174D01*
X112910000Y-52643826D01*
X112944075Y-52770993D01*
X112976988Y-52828000D01*
X111303012Y-52828000D01*
X111335925Y-52770993D01*
X111370000Y-52643826D01*
X111370000Y-52512174D01*
X111335925Y-52385007D01*
X111303012Y-52328000D01*
X112976988Y-52328000D01*
X112944075Y-52385007D01*
G37*
%TD.AperFunction*%
%TD*%
M02*
