%TF.GenerationSoftware,KiCad,Pcbnew,8.0.4*%
%TF.CreationDate,2024-12-14T22:45:00+01:00*%
%TF.ProjectId,SpicyLightFX3,53706963-794c-4696-9768-744658332e6b,rev?*%
%TF.SameCoordinates,Original*%
%TF.FileFunction,Legend,Top*%
%TF.FilePolarity,Positive*%
%FSLAX46Y46*%
G04 Gerber Fmt 4.6, Leading zero omitted, Abs format (unit mm)*
G04 Created by KiCad (PCBNEW 8.0.4) date 2024-12-14 22:45:00*
%MOMM*%
%LPD*%
G01*
G04 APERTURE LIST*
%ADD10C,0.100000*%
%ADD11C,0.150000*%
%ADD12C,0.120000*%
%ADD13C,0.250000*%
%ADD14C,0.200000*%
G04 APERTURE END LIST*
D10*
G36*
X121505212Y-91213991D02*
G01*
X121505212Y-91408164D01*
X122490000Y-91408164D01*
X122490000Y-91745219D01*
X119535638Y-91745219D01*
X119535638Y-91408164D01*
X121317634Y-91408164D01*
X121259748Y-91235240D01*
X120379741Y-90580913D01*
X120379741Y-90188171D01*
X121212121Y-90833705D01*
X121348408Y-91006629D01*
X121519867Y-90795603D01*
X122490000Y-90091451D01*
X122490000Y-90509106D01*
X121505212Y-91213991D01*
G37*
G36*
X120379741Y-89663537D02*
G01*
X120379741Y-89325749D01*
X122490000Y-89325749D01*
X122490000Y-89663537D01*
X120379741Y-89663537D01*
G37*
G36*
X119729811Y-89734612D02*
G01*
X119587450Y-89691561D01*
X119559818Y-89669399D01*
X119491242Y-89539726D01*
X119488743Y-89503070D01*
X119532124Y-89362964D01*
X119559818Y-89330146D01*
X119693696Y-89260863D01*
X119729811Y-89258338D01*
X119872219Y-89309459D01*
X119893210Y-89330146D01*
X119955423Y-89466181D01*
X119957690Y-89503070D01*
X119915123Y-89643682D01*
X119893210Y-89669399D01*
X119759882Y-89733020D01*
X119729811Y-89734612D01*
G37*
G36*
X120379741Y-88888310D02*
G01*
X120379741Y-88558583D01*
X119961353Y-88558583D01*
X119863900Y-88221527D01*
X120379741Y-88221527D01*
X120379741Y-87647068D01*
X120661109Y-87647068D01*
X120661109Y-88221527D01*
X121848129Y-88221527D01*
X121996850Y-88213799D01*
X122144746Y-88176394D01*
X122163203Y-88166573D01*
X122249756Y-88041688D01*
X122255526Y-87981193D01*
X122241101Y-87835288D01*
X122229881Y-87795079D01*
X122174606Y-87655010D01*
X122161737Y-87626552D01*
X122396210Y-87550348D01*
X122459451Y-87685073D01*
X122498060Y-87799476D01*
X122528361Y-87948721D01*
X122536894Y-88090369D01*
X122522583Y-88236299D01*
X122467628Y-88372312D01*
X122390348Y-88453070D01*
X122252721Y-88517367D01*
X122095686Y-88548279D01*
X121942339Y-88558170D01*
X121900153Y-88558583D01*
X120661109Y-88558583D01*
X120661109Y-88888310D01*
X120379741Y-88888310D01*
G37*
G36*
X120379741Y-87466817D02*
G01*
X120379741Y-87137089D01*
X119961353Y-87137089D01*
X119863900Y-86800034D01*
X120379741Y-86800034D01*
X120379741Y-86225575D01*
X120661109Y-86225575D01*
X120661109Y-86800034D01*
X121848129Y-86800034D01*
X121996850Y-86792306D01*
X122144746Y-86754900D01*
X122163203Y-86745079D01*
X122249756Y-86620195D01*
X122255526Y-86559699D01*
X122241101Y-86413795D01*
X122229881Y-86373586D01*
X122174606Y-86233516D01*
X122161737Y-86205059D01*
X122396210Y-86128855D01*
X122459451Y-86263579D01*
X122498060Y-86377982D01*
X122528361Y-86527228D01*
X122536894Y-86668876D01*
X122522583Y-86814806D01*
X122467628Y-86950819D01*
X122390348Y-87031576D01*
X122252721Y-87095873D01*
X122095686Y-87126785D01*
X121942339Y-87136677D01*
X121900153Y-87137089D01*
X120661109Y-87137089D01*
X120661109Y-87466817D01*
X120379741Y-87466817D01*
G37*
G36*
X121339066Y-84204526D02*
G01*
X121494388Y-84222183D01*
X121505212Y-84223761D01*
X121505212Y-85578576D01*
X121654437Y-85571283D01*
X121805746Y-85545088D01*
X121823217Y-85540474D01*
X121965566Y-85484394D01*
X122057690Y-85422504D01*
X122155918Y-85310001D01*
X122204968Y-85213677D01*
X122242887Y-85070428D01*
X122255329Y-84921644D01*
X122255526Y-84898604D01*
X122235674Y-84746585D01*
X122185184Y-84612107D01*
X122108981Y-84486444D01*
X122021053Y-84396684D01*
X122302421Y-84269922D01*
X122388614Y-84393321D01*
X122453078Y-84530259D01*
X122473879Y-84588659D01*
X122512279Y-84735938D01*
X122532956Y-84889811D01*
X122536894Y-84996056D01*
X122527716Y-85153841D01*
X122496770Y-85308984D01*
X122459225Y-85413712D01*
X122384993Y-85547385D01*
X122288511Y-85660258D01*
X122236475Y-85705338D01*
X122109165Y-85787941D01*
X121974904Y-85847018D01*
X121889162Y-85873865D01*
X121744239Y-85905153D01*
X121587541Y-85923453D01*
X121434870Y-85928820D01*
X121272851Y-85922952D01*
X121123389Y-85905350D01*
X120960612Y-85868736D01*
X120815918Y-85815224D01*
X120669964Y-85731435D01*
X120614947Y-85688485D01*
X120505027Y-85573165D01*
X120422105Y-85438141D01*
X120366181Y-85283411D01*
X120339734Y-85135102D01*
X120332847Y-85000453D01*
X120333115Y-84996056D01*
X120614214Y-84996056D01*
X120627738Y-85142101D01*
X120679671Y-85291853D01*
X120752700Y-85395393D01*
X120870523Y-85483959D01*
X121017755Y-85539830D01*
X121163053Y-85567628D01*
X121223845Y-85574179D01*
X121223845Y-84527110D01*
X121067270Y-84534758D01*
X120921449Y-84561645D01*
X120786829Y-84620796D01*
X120749769Y-84649476D01*
X120657105Y-84776040D01*
X120617524Y-84928476D01*
X120614214Y-84996056D01*
X120333115Y-84996056D01*
X120342152Y-84847862D01*
X120365819Y-84713223D01*
X120416825Y-84569111D01*
X120489651Y-84456035D01*
X120599560Y-84352354D01*
X120726986Y-84279064D01*
X120747571Y-84269922D01*
X120887808Y-84226165D01*
X121042609Y-84203795D01*
X121187941Y-84198115D01*
X121339066Y-84204526D01*
G37*
G36*
X122490000Y-82322330D02*
G01*
X121280265Y-82322330D01*
X121125201Y-82328283D01*
X120975059Y-82349213D01*
X120826500Y-82395259D01*
X120782009Y-82417585D01*
X120673369Y-82520625D01*
X120622244Y-82662322D01*
X120614214Y-82765631D01*
X120631216Y-82922320D01*
X120688006Y-83067416D01*
X120735115Y-83134926D01*
X120843504Y-83238655D01*
X120972210Y-83314087D01*
X121038464Y-83339357D01*
X122490000Y-83339357D01*
X122490000Y-83676412D01*
X120379741Y-83676412D01*
X120379741Y-83440474D01*
X120640593Y-83377459D01*
X120640593Y-83360606D01*
X120531880Y-83258305D01*
X120441680Y-83129637D01*
X120419309Y-83088031D01*
X120366621Y-82950713D01*
X120338251Y-82794848D01*
X120332847Y-82680634D01*
X120341702Y-82527856D01*
X120373147Y-82377285D01*
X120437135Y-82243874D01*
X120513831Y-82159664D01*
X120640913Y-82079793D01*
X120785673Y-82029239D01*
X120939262Y-82000299D01*
X121092457Y-81987336D01*
X121217250Y-81984542D01*
X122490000Y-81984542D01*
X122490000Y-82322330D01*
G37*
G36*
X121980020Y-81006350D02*
G01*
X122126689Y-80988526D01*
X122192512Y-80955791D01*
X122255465Y-80817951D01*
X122255526Y-80812176D01*
X122247466Y-80694207D01*
X122209364Y-80550592D01*
X122464354Y-80512490D01*
X122508521Y-80657345D01*
X122516378Y-80700802D01*
X122534891Y-80851140D01*
X122536894Y-80909629D01*
X122516418Y-81062781D01*
X122449034Y-81198236D01*
X122429916Y-81221772D01*
X122307058Y-81305420D01*
X122156207Y-81339835D01*
X122065017Y-81344137D01*
X119535638Y-81344137D01*
X119535638Y-81006350D01*
X121980020Y-81006350D01*
G37*
G36*
X122490000Y-78915875D02*
G01*
X122210830Y-79004535D01*
X122210830Y-79025784D01*
X122325179Y-79117486D01*
X122328799Y-79121039D01*
X122420562Y-79238287D01*
X122432114Y-79258059D01*
X122493008Y-79398505D01*
X122506852Y-79443440D01*
X122533344Y-79594548D01*
X122536894Y-79683775D01*
X122521654Y-79837418D01*
X122493663Y-79935100D01*
X122426229Y-80067793D01*
X122372030Y-80135868D01*
X122253635Y-80231002D01*
X122180788Y-80268492D01*
X122037681Y-80308871D01*
X121927264Y-80316852D01*
X121773912Y-80302406D01*
X121628191Y-80250520D01*
X121612191Y-80241381D01*
X121492189Y-80143250D01*
X121410690Y-80028157D01*
X121349435Y-79887625D01*
X121309404Y-79734674D01*
X121302979Y-79699162D01*
X121283333Y-79549513D01*
X121273289Y-79402379D01*
X121270900Y-79282972D01*
X121552107Y-79282972D01*
X121557532Y-79436398D01*
X121567494Y-79538694D01*
X121598089Y-79688916D01*
X121623182Y-79757780D01*
X121704934Y-79883360D01*
X121734556Y-79910188D01*
X121873532Y-79964624D01*
X121912609Y-79966608D01*
X122057111Y-79936829D01*
X122159539Y-79861095D01*
X122234435Y-79732444D01*
X122255526Y-79591451D01*
X122240288Y-79440703D01*
X122223286Y-79380425D01*
X122159771Y-79246138D01*
X122141953Y-79219957D01*
X122040244Y-79114170D01*
X122032777Y-79108583D01*
X121917006Y-79042637D01*
X121560900Y-79042637D01*
X121554305Y-79163537D01*
X121552107Y-79282972D01*
X121270900Y-79282972D01*
X121270739Y-79274912D01*
X121270739Y-79159141D01*
X121278799Y-79042637D01*
X121126415Y-79031932D01*
X121044326Y-79030181D01*
X120897073Y-79041177D01*
X120750971Y-79091612D01*
X120710202Y-79123237D01*
X120638211Y-79253846D01*
X120615714Y-79402052D01*
X120614214Y-79461025D01*
X120627280Y-79609735D01*
X120628136Y-79614898D01*
X120659632Y-79761879D01*
X120665505Y-79783426D01*
X120713419Y-79923592D01*
X120724124Y-79948290D01*
X120796423Y-80077819D01*
X120801793Y-80085310D01*
X120520425Y-80190823D01*
X120450779Y-80051736D01*
X120401303Y-79907892D01*
X120379009Y-79817131D01*
X120352727Y-79668288D01*
X120337355Y-79514944D01*
X120332847Y-79371632D01*
X120341193Y-79219476D01*
X120372028Y-79072696D01*
X120392198Y-79019922D01*
X120470328Y-78890066D01*
X120546803Y-78816957D01*
X120679384Y-78745144D01*
X120755631Y-78723900D01*
X120905657Y-78703223D01*
X120984242Y-78700453D01*
X121141478Y-78701741D01*
X121296282Y-78705605D01*
X121448652Y-78712045D01*
X121478834Y-78713642D01*
X121627069Y-78720211D01*
X121784506Y-78724626D01*
X121936057Y-78726098D01*
X122088098Y-78722984D01*
X122232079Y-78713642D01*
X122382208Y-78692313D01*
X122490000Y-78666747D01*
X122490000Y-78915875D01*
G37*
G36*
X121573851Y-76335212D02*
G01*
X121727653Y-76355015D01*
X121895024Y-76396205D01*
X122043642Y-76456406D01*
X122173507Y-76535618D01*
X122249665Y-76598987D01*
X122361583Y-76727475D01*
X122435634Y-76854352D01*
X122489490Y-76996684D01*
X122523150Y-77154473D01*
X122536614Y-77327717D01*
X122536894Y-77358094D01*
X122530920Y-77515524D01*
X122512997Y-77662391D01*
X122486336Y-77786740D01*
X122443332Y-77926999D01*
X122383081Y-78062973D01*
X122375694Y-78075435D01*
X119535638Y-78075435D01*
X119535638Y-77738380D01*
X120590767Y-77738380D01*
X120590767Y-77721527D01*
X120482140Y-77611069D01*
X120405257Y-77483889D01*
X120400990Y-77474598D01*
X120352079Y-77327981D01*
X120336702Y-77206419D01*
X120614214Y-77206419D01*
X120631216Y-77353457D01*
X120694027Y-77496611D01*
X120735115Y-77548604D01*
X120849197Y-77642844D01*
X120983699Y-77709013D01*
X121075101Y-77738380D01*
X122161004Y-77738380D01*
X122218569Y-77599208D01*
X122232079Y-77544207D01*
X122252229Y-77398177D01*
X122255526Y-77307536D01*
X122239182Y-77155539D01*
X122182681Y-77008135D01*
X122085824Y-76883342D01*
X122048897Y-76850313D01*
X121914237Y-76767430D01*
X121763592Y-76716529D01*
X121607886Y-76689571D01*
X121456675Y-76679525D01*
X121402630Y-76678855D01*
X121249992Y-76685456D01*
X121097470Y-76707048D01*
X121088290Y-76708897D01*
X120944786Y-76749550D01*
X120838429Y-76801220D01*
X120721447Y-76899705D01*
X120675031Y-76963886D01*
X120622767Y-77104994D01*
X120614214Y-77206419D01*
X120336702Y-77206419D01*
X120333446Y-77180679D01*
X120332847Y-77147801D01*
X120342069Y-77001416D01*
X120376139Y-76848865D01*
X120445817Y-76698564D01*
X120548285Y-76573909D01*
X120595163Y-76533775D01*
X120723671Y-76453833D01*
X120879668Y-76393526D01*
X121035259Y-76357462D01*
X121211045Y-76335823D01*
X121372961Y-76328811D01*
X121407027Y-76328611D01*
X121573851Y-76335212D01*
G37*
G36*
X121929462Y-74881472D02*
G01*
X121782147Y-74917490D01*
X121732358Y-74957675D01*
X121645713Y-75078765D01*
X121613656Y-75145254D01*
X121557520Y-75285614D01*
X121520600Y-75389985D01*
X121462202Y-75532696D01*
X121405561Y-75634717D01*
X121313675Y-75749477D01*
X121224577Y-75823028D01*
X121084735Y-75881916D01*
X120937273Y-75898425D01*
X120925624Y-75898499D01*
X120765912Y-75884820D01*
X120618908Y-75837536D01*
X120494230Y-75746515D01*
X120475729Y-75725575D01*
X120394381Y-75590759D01*
X120349730Y-75440549D01*
X120333405Y-75282847D01*
X120332847Y-75244905D01*
X120337782Y-75096983D01*
X120356340Y-74944715D01*
X120374612Y-74863153D01*
X120420225Y-74718806D01*
X120473531Y-74594975D01*
X120754898Y-74674842D01*
X120691071Y-74812114D01*
X120657445Y-74909315D01*
X120623713Y-75060276D01*
X120614214Y-75202407D01*
X120628382Y-75354992D01*
X120678695Y-75474982D01*
X120804032Y-75551227D01*
X120902177Y-75561444D01*
X121046236Y-75515380D01*
X121075833Y-75485973D01*
X121158929Y-75357882D01*
X121187941Y-75297661D01*
X121245205Y-75157301D01*
X121283196Y-75052930D01*
X121340721Y-74917236D01*
X121405561Y-74807466D01*
X121503217Y-74692937D01*
X121596803Y-74619888D01*
X121740490Y-74560428D01*
X121889875Y-74543758D01*
X121901618Y-74543684D01*
X122047961Y-74557826D01*
X122154410Y-74588380D01*
X122288076Y-74662512D01*
X122355910Y-74725400D01*
X122443316Y-74851051D01*
X122488534Y-74955477D01*
X122524804Y-75104587D01*
X122536705Y-75254894D01*
X122536894Y-75277878D01*
X122531959Y-75435040D01*
X122515318Y-75586938D01*
X122495129Y-75687473D01*
X122452592Y-75833554D01*
X122396210Y-75970306D01*
X122114842Y-75869190D01*
X122174038Y-75732799D01*
X122211563Y-75615666D01*
X122243119Y-75468383D01*
X122255355Y-75319168D01*
X122255526Y-75299127D01*
X122241922Y-75152827D01*
X122188824Y-75007608D01*
X122184452Y-75000174D01*
X122068789Y-74904192D01*
X121929462Y-74881472D01*
G37*
G36*
X122302421Y-74161199D02*
G01*
X122160455Y-74121397D01*
X122130963Y-74095987D01*
X122070163Y-73960286D01*
X122067948Y-73920865D01*
X122103394Y-73775784D01*
X122130963Y-73739148D01*
X122263128Y-73674107D01*
X122302421Y-73671737D01*
X122446568Y-73716239D01*
X122472414Y-73739148D01*
X122533809Y-73873100D01*
X122536894Y-73920865D01*
X122497539Y-74065067D01*
X122472414Y-74095987D01*
X122334199Y-74159607D01*
X122302421Y-74161199D01*
G37*
G36*
X122490000Y-71710955D02*
G01*
X122193977Y-71795219D01*
X122193977Y-71812072D01*
X122313810Y-71900388D01*
X122414288Y-72017877D01*
X122439441Y-72056803D01*
X122502538Y-72196253D01*
X122532231Y-72341075D01*
X122536894Y-72432693D01*
X122527543Y-72583337D01*
X122492997Y-72739815D01*
X122432996Y-72875536D01*
X122333253Y-73005229D01*
X122270914Y-73059908D01*
X122139851Y-73139565D01*
X121980038Y-73199656D01*
X121820171Y-73235592D01*
X121670813Y-73254557D01*
X121506787Y-73263541D01*
X121437069Y-73264340D01*
X121274205Y-73258114D01*
X121124042Y-73239438D01*
X120960612Y-73200592D01*
X120815471Y-73143817D01*
X120688621Y-73069113D01*
X120614214Y-73009350D01*
X120504580Y-72888285D01*
X120421873Y-72748848D01*
X120366094Y-72591038D01*
X120339716Y-72441149D01*
X120332847Y-72305931D01*
X120333249Y-72293474D01*
X120614214Y-72293474D01*
X120629748Y-72447133D01*
X120683443Y-72594480D01*
X120775492Y-72717212D01*
X120810586Y-72749232D01*
X120939238Y-72828927D01*
X121084833Y-72877871D01*
X121236347Y-72903792D01*
X121384132Y-72913452D01*
X121437069Y-72914096D01*
X121586674Y-72908906D01*
X121736071Y-72891830D01*
X121764598Y-72886985D01*
X121912773Y-72847474D01*
X122023251Y-72796126D01*
X122140145Y-72700986D01*
X122193244Y-72629064D01*
X122245247Y-72490621D01*
X122255526Y-72377738D01*
X122239452Y-72228639D01*
X122180067Y-72086207D01*
X122141221Y-72035554D01*
X122018623Y-71940065D01*
X121877596Y-71882774D01*
X121794640Y-71862630D01*
X120726322Y-71862630D01*
X120653460Y-71994668D01*
X120640593Y-72036287D01*
X120617924Y-72182088D01*
X120614214Y-72293474D01*
X120333249Y-72293474D01*
X120337603Y-72158510D01*
X120349699Y-72059001D01*
X120386931Y-71914471D01*
X120404654Y-71862630D01*
X119535638Y-71862630D01*
X119535638Y-71525575D01*
X121758004Y-71525575D01*
X121913354Y-71524957D01*
X122068859Y-71522892D01*
X122147083Y-71521179D01*
X122298551Y-71511722D01*
X122447776Y-71491045D01*
X122490000Y-71483077D01*
X122490000Y-71710955D01*
G37*
G36*
X121339066Y-69280311D02*
G01*
X121494388Y-69297968D01*
X121505212Y-69299546D01*
X121505212Y-70654361D01*
X121654437Y-70647068D01*
X121805746Y-70620873D01*
X121823217Y-70616259D01*
X121965566Y-70560179D01*
X122057690Y-70498290D01*
X122155918Y-70385786D01*
X122204968Y-70289462D01*
X122242887Y-70146213D01*
X122255329Y-69997429D01*
X122255526Y-69974389D01*
X122235674Y-69822370D01*
X122185184Y-69687892D01*
X122108981Y-69562229D01*
X122021053Y-69472470D01*
X122302421Y-69345708D01*
X122388614Y-69469106D01*
X122453078Y-69606044D01*
X122473879Y-69664444D01*
X122512279Y-69811723D01*
X122532956Y-69965596D01*
X122536894Y-70071841D01*
X122527716Y-70229626D01*
X122496770Y-70384770D01*
X122459225Y-70489497D01*
X122384993Y-70623170D01*
X122288511Y-70736043D01*
X122236475Y-70781123D01*
X122109165Y-70863726D01*
X121974904Y-70922803D01*
X121889162Y-70949650D01*
X121744239Y-70980938D01*
X121587541Y-70999238D01*
X121434870Y-71004605D01*
X121272851Y-70998737D01*
X121123389Y-70981135D01*
X120960612Y-70944521D01*
X120815918Y-70891009D01*
X120669964Y-70807220D01*
X120614947Y-70764270D01*
X120505027Y-70648950D01*
X120422105Y-70513926D01*
X120366181Y-70359196D01*
X120339734Y-70210887D01*
X120332847Y-70076238D01*
X120333115Y-70071841D01*
X120614214Y-70071841D01*
X120627738Y-70217886D01*
X120679671Y-70367638D01*
X120752700Y-70471179D01*
X120870523Y-70559744D01*
X121017755Y-70615615D01*
X121163053Y-70643413D01*
X121223845Y-70649964D01*
X121223845Y-69602895D01*
X121067270Y-69610543D01*
X120921449Y-69637430D01*
X120786829Y-69696581D01*
X120749769Y-69725261D01*
X120657105Y-69851825D01*
X120617524Y-70004261D01*
X120614214Y-70071841D01*
X120333115Y-70071841D01*
X120342152Y-69923647D01*
X120365819Y-69789008D01*
X120416825Y-69644896D01*
X120489651Y-69531821D01*
X120599560Y-69428139D01*
X120726986Y-69354849D01*
X120747571Y-69345708D01*
X120887808Y-69301950D01*
X121042609Y-69279580D01*
X121187941Y-69273900D01*
X121339066Y-69280311D01*
G37*
G36*
X121083161Y-68045847D02*
G01*
X121083161Y-67024423D01*
X121411423Y-67024423D01*
X121411423Y-68045847D01*
X121083161Y-68045847D01*
G37*
G36*
X122490000Y-64062735D02*
G01*
X121176950Y-64877529D01*
X121116866Y-65290788D01*
X122490000Y-65290788D01*
X122490000Y-65641032D01*
X119552491Y-65641032D01*
X119528729Y-65491366D01*
X119511185Y-65335815D01*
X119505596Y-65271737D01*
X119495327Y-65120165D01*
X119489550Y-64967358D01*
X119488743Y-64889985D01*
X119489135Y-64881193D01*
X119817006Y-64881193D01*
X119817006Y-64995498D01*
X119821402Y-65109071D01*
X119829462Y-65213119D01*
X119841186Y-65290788D01*
X120895582Y-65290788D01*
X120895582Y-64961793D01*
X120884628Y-64805809D01*
X120846761Y-64651393D01*
X120781845Y-64516868D01*
X120757096Y-64480390D01*
X120643028Y-64372343D01*
X120507474Y-64313038D01*
X120359534Y-64291355D01*
X120323321Y-64290613D01*
X120168830Y-64312561D01*
X120036183Y-64378403D01*
X119959888Y-64446684D01*
X119872819Y-64580946D01*
X119828308Y-64734251D01*
X119817006Y-64881193D01*
X119489135Y-64881193D01*
X119495636Y-64735364D01*
X119516315Y-64587031D01*
X119530509Y-64520690D01*
X119576931Y-64375593D01*
X119650015Y-64238185D01*
X119667529Y-64212944D01*
X119769710Y-64099675D01*
X119897652Y-64009912D01*
X119916657Y-63999720D01*
X120064058Y-63944622D01*
X120210719Y-63921954D01*
X120291081Y-63919120D01*
X120453426Y-63930981D01*
X120599743Y-63966564D01*
X120745190Y-64034950D01*
X120844291Y-64108897D01*
X120952219Y-64223702D01*
X121037774Y-64354621D01*
X121100957Y-64501653D01*
X121126392Y-64590299D01*
X121286859Y-64388066D01*
X122490000Y-63653139D01*
X122490000Y-64062735D01*
G37*
G36*
X121339066Y-61771309D02*
G01*
X121494388Y-61788966D01*
X121505212Y-61790544D01*
X121505212Y-63145359D01*
X121654437Y-63138066D01*
X121805746Y-63111871D01*
X121823217Y-63107257D01*
X121965566Y-63051177D01*
X122057690Y-62989287D01*
X122155918Y-62876784D01*
X122204968Y-62780460D01*
X122242887Y-62637211D01*
X122255329Y-62488427D01*
X122255526Y-62465387D01*
X122235674Y-62313368D01*
X122185184Y-62178890D01*
X122108981Y-62053227D01*
X122021053Y-61963467D01*
X122302421Y-61836705D01*
X122388614Y-61960104D01*
X122453078Y-62097042D01*
X122473879Y-62155442D01*
X122512279Y-62302721D01*
X122532956Y-62456594D01*
X122536894Y-62562839D01*
X122527716Y-62720624D01*
X122496770Y-62875767D01*
X122459225Y-62980495D01*
X122384993Y-63114168D01*
X122288511Y-63227041D01*
X122236475Y-63272121D01*
X122109165Y-63354724D01*
X121974904Y-63413801D01*
X121889162Y-63440648D01*
X121744239Y-63471936D01*
X121587541Y-63490236D01*
X121434870Y-63495603D01*
X121272851Y-63489735D01*
X121123389Y-63472133D01*
X120960612Y-63435519D01*
X120815918Y-63382007D01*
X120669964Y-63298218D01*
X120614947Y-63255268D01*
X120505027Y-63139948D01*
X120422105Y-63004924D01*
X120366181Y-62850194D01*
X120339734Y-62701885D01*
X120332847Y-62567236D01*
X120333115Y-62562839D01*
X120614214Y-62562839D01*
X120627738Y-62708884D01*
X120679671Y-62858636D01*
X120752700Y-62962176D01*
X120870523Y-63050742D01*
X121017755Y-63106613D01*
X121163053Y-63134411D01*
X121223845Y-63140962D01*
X121223845Y-62093893D01*
X121067270Y-62101541D01*
X120921449Y-62128428D01*
X120786829Y-62187579D01*
X120749769Y-62216259D01*
X120657105Y-62342823D01*
X120617524Y-62495259D01*
X120614214Y-62562839D01*
X120333115Y-62562839D01*
X120342152Y-62414645D01*
X120365819Y-62280006D01*
X120416825Y-62135894D01*
X120489651Y-62022818D01*
X120599560Y-61919137D01*
X120726986Y-61845847D01*
X120747571Y-61836705D01*
X120887808Y-61792948D01*
X121042609Y-61770578D01*
X121187941Y-61764898D01*
X121339066Y-61771309D01*
G37*
G36*
X121616587Y-60729553D02*
G01*
X122017390Y-60611583D01*
X122017390Y-60607187D01*
X121607794Y-60501674D01*
X120379741Y-60029064D01*
X120379741Y-59666363D01*
X122536894Y-60564689D01*
X122536894Y-60708303D01*
X120379741Y-61624214D01*
X120379741Y-61235868D01*
X121616587Y-60729553D01*
G37*
G36*
X122302421Y-59735240D02*
G01*
X122160455Y-59695437D01*
X122130963Y-59670027D01*
X122070163Y-59534326D01*
X122067948Y-59494905D01*
X122103394Y-59349825D01*
X122130963Y-59313188D01*
X122263128Y-59248147D01*
X122302421Y-59245777D01*
X122446568Y-59290279D01*
X122472414Y-59313188D01*
X122533809Y-59447140D01*
X122536894Y-59494905D01*
X122497539Y-59639107D01*
X122472414Y-59670027D01*
X122334199Y-59733648D01*
X122302421Y-59735240D01*
G37*
G36*
X122490000Y-56317794D02*
G01*
X121692791Y-56621144D01*
X121692791Y-57709978D01*
X122490000Y-58006001D01*
X122490000Y-58351848D01*
X119488743Y-57233705D01*
X119488743Y-57161897D01*
X120020704Y-57161897D01*
X120020704Y-57165561D01*
X120475729Y-57271074D01*
X121364528Y-57596405D01*
X121364528Y-56726657D01*
X120466936Y-57056384D01*
X120020704Y-57161897D01*
X119488743Y-57161897D01*
X119488743Y-57073237D01*
X122490000Y-55949964D01*
X122490000Y-56317794D01*
G37*
G36*
X64161737Y-96544242D02*
G01*
X64161737Y-95953663D01*
X62138674Y-95953663D01*
X61891744Y-95911165D01*
X62091046Y-96080425D01*
X62426636Y-96544242D01*
X62211214Y-96704710D01*
X61488743Y-95776343D01*
X61488743Y-95623935D01*
X64161737Y-95623935D01*
X64161737Y-95045812D01*
X64490000Y-95045812D01*
X64490000Y-96544242D01*
X64161737Y-96544242D01*
G37*
G36*
X63760283Y-92644198D02*
G01*
X63904784Y-92673584D01*
X63969030Y-92693754D01*
X64108497Y-92755704D01*
X64231976Y-92838971D01*
X64264319Y-92866678D01*
X64364998Y-92976713D01*
X64445200Y-93108066D01*
X64464354Y-93149511D01*
X64511321Y-93294179D01*
X64533423Y-93441458D01*
X64536894Y-93533461D01*
X64527414Y-93685754D01*
X64495750Y-93837250D01*
X64469483Y-93913014D01*
X64398016Y-94051640D01*
X64301585Y-94172595D01*
X64269448Y-94203907D01*
X64151654Y-94294018D01*
X64013786Y-94365506D01*
X63943384Y-94392219D01*
X63789958Y-94431958D01*
X63634653Y-94452273D01*
X63497152Y-94457431D01*
X63343099Y-94453645D01*
X63193631Y-94442285D01*
X63025047Y-94419459D01*
X62862704Y-94386325D01*
X62728520Y-94349720D01*
X62578995Y-94298670D01*
X62438165Y-94239765D01*
X62306031Y-94173007D01*
X62165667Y-94087094D01*
X62115959Y-94052233D01*
X61991716Y-93952994D01*
X61879837Y-93845054D01*
X61780324Y-93728412D01*
X61693175Y-93603070D01*
X61619398Y-93470584D01*
X61560734Y-93332510D01*
X61517182Y-93188849D01*
X61488743Y-93039602D01*
X61770111Y-92967794D01*
X61804114Y-93111564D01*
X61858708Y-93260123D01*
X61931311Y-93398639D01*
X62018909Y-93526418D01*
X62119494Y-93642769D01*
X62222205Y-93738625D01*
X62346198Y-93832220D01*
X62480408Y-93913521D01*
X62611284Y-93976762D01*
X62760858Y-94033725D01*
X62913377Y-94076662D01*
X63054584Y-94103524D01*
X62940640Y-94005636D01*
X62854567Y-93885583D01*
X62848688Y-93875645D01*
X62787963Y-93733414D01*
X62759386Y-93581087D01*
X62758180Y-93554710D01*
X63036266Y-93554710D01*
X63050589Y-93701748D01*
X63098430Y-93843132D01*
X63138115Y-93911549D01*
X63231641Y-94024950D01*
X63350893Y-94111961D01*
X63366727Y-94119644D01*
X63464180Y-94128436D01*
X63548443Y-94128436D01*
X63694837Y-94117076D01*
X63807096Y-94092533D01*
X63948069Y-94035948D01*
X64033510Y-93981158D01*
X64137801Y-93878008D01*
X64193977Y-93792847D01*
X64243745Y-93654206D01*
X64255526Y-93529064D01*
X64235646Y-93378557D01*
X64209364Y-93307780D01*
X64128953Y-93183921D01*
X64081870Y-93136322D01*
X63955113Y-93052825D01*
X63886964Y-93024947D01*
X63737499Y-92990314D01*
X63641500Y-92984647D01*
X63484222Y-92995659D01*
X63336932Y-93033727D01*
X63208303Y-93107007D01*
X63188674Y-93123866D01*
X63095800Y-93249712D01*
X63048322Y-93402726D01*
X63036266Y-93554710D01*
X62758180Y-93554710D01*
X62754898Y-93482903D01*
X62765662Y-93317359D01*
X62797955Y-93168224D01*
X62861221Y-93017877D01*
X62952606Y-92888963D01*
X62979846Y-92860083D01*
X63103494Y-92761348D01*
X63249490Y-92690823D01*
X63395569Y-92652255D01*
X63558759Y-92635284D01*
X63608527Y-92634403D01*
X63760283Y-92644198D01*
G37*
G36*
X63573851Y-90356356D02*
G01*
X63727653Y-90376159D01*
X63895024Y-90417349D01*
X64043642Y-90477551D01*
X64173507Y-90556763D01*
X64249665Y-90620132D01*
X64361583Y-90748620D01*
X64435634Y-90875497D01*
X64489490Y-91017829D01*
X64523150Y-91175618D01*
X64536614Y-91348862D01*
X64536894Y-91379239D01*
X64530920Y-91536669D01*
X64512997Y-91683536D01*
X64486336Y-91807885D01*
X64443332Y-91948144D01*
X64383081Y-92084118D01*
X64375694Y-92096580D01*
X61535638Y-92096580D01*
X61535638Y-91759525D01*
X62590767Y-91759525D01*
X62590767Y-91742672D01*
X62482140Y-91632213D01*
X62405257Y-91505034D01*
X62400990Y-91495743D01*
X62352079Y-91349125D01*
X62336702Y-91227564D01*
X62614214Y-91227564D01*
X62631216Y-91374602D01*
X62694027Y-91517756D01*
X62735115Y-91569748D01*
X62849197Y-91663989D01*
X62983699Y-91730158D01*
X63075101Y-91759525D01*
X64161004Y-91759525D01*
X64218569Y-91620352D01*
X64232079Y-91565352D01*
X64252229Y-91419321D01*
X64255526Y-91328681D01*
X64239182Y-91176684D01*
X64182681Y-91029279D01*
X64085824Y-90904487D01*
X64048897Y-90871458D01*
X63914237Y-90788575D01*
X63763592Y-90737673D01*
X63607886Y-90710716D01*
X63456675Y-90700669D01*
X63402630Y-90700000D01*
X63249992Y-90706600D01*
X63097470Y-90728193D01*
X63088290Y-90730041D01*
X62944786Y-90770695D01*
X62838429Y-90822365D01*
X62721447Y-90920850D01*
X62675031Y-90985031D01*
X62622767Y-91126138D01*
X62614214Y-91227564D01*
X62336702Y-91227564D01*
X62333446Y-91201824D01*
X62332847Y-91168946D01*
X62342069Y-91022560D01*
X62376139Y-90870010D01*
X62445817Y-90719709D01*
X62548285Y-90595053D01*
X62595163Y-90554919D01*
X62723671Y-90474977D01*
X62879668Y-90414670D01*
X63035259Y-90378606D01*
X63211045Y-90356968D01*
X63372961Y-90349956D01*
X63407027Y-90349755D01*
X63573851Y-90356356D01*
G37*
G36*
X62379741Y-89759909D02*
G01*
X62379741Y-89422121D01*
X64490000Y-89422121D01*
X64490000Y-89759909D01*
X62379741Y-89759909D01*
G37*
G36*
X61729811Y-89830983D02*
G01*
X61587450Y-89787933D01*
X61559818Y-89765771D01*
X61491242Y-89636098D01*
X61488743Y-89599441D01*
X61532124Y-89459336D01*
X61559818Y-89426517D01*
X61693696Y-89357234D01*
X61729811Y-89354710D01*
X61872219Y-89405831D01*
X61893210Y-89426517D01*
X61955423Y-89562553D01*
X61957690Y-89599441D01*
X61915123Y-89740054D01*
X61893210Y-89765771D01*
X61759882Y-89829391D01*
X61729811Y-89830983D01*
G37*
G36*
X62379741Y-88984682D02*
G01*
X62379741Y-88654954D01*
X61961353Y-88654954D01*
X61863900Y-88317899D01*
X62379741Y-88317899D01*
X62379741Y-87743440D01*
X62661109Y-87743440D01*
X62661109Y-88317899D01*
X63848129Y-88317899D01*
X63996850Y-88310171D01*
X64144746Y-88272765D01*
X64163203Y-88262944D01*
X64249756Y-88138060D01*
X64255526Y-88077564D01*
X64241101Y-87931659D01*
X64229881Y-87891451D01*
X64174606Y-87751381D01*
X64161737Y-87722923D01*
X64396210Y-87646720D01*
X64459451Y-87781444D01*
X64498060Y-87895847D01*
X64528361Y-88045093D01*
X64536894Y-88186741D01*
X64522583Y-88332671D01*
X64467628Y-88468684D01*
X64390348Y-88549441D01*
X64252721Y-88613738D01*
X64095686Y-88644650D01*
X63942339Y-88654542D01*
X63900153Y-88654954D01*
X62661109Y-88654954D01*
X62661109Y-88984682D01*
X62379741Y-88984682D01*
G37*
G36*
X64490000Y-84383879D02*
G01*
X64490000Y-86130704D01*
X61535638Y-86130704D01*
X61535638Y-85780460D01*
X64161737Y-85780460D01*
X64161737Y-84383879D01*
X64490000Y-84383879D01*
G37*
G36*
X63566029Y-83630635D02*
G01*
X64013726Y-83529518D01*
X64013726Y-83525122D01*
X63557969Y-83415212D01*
X61535638Y-82702267D01*
X61535638Y-82352023D01*
X64536894Y-83470167D01*
X64536894Y-83626238D01*
X61535638Y-84766364D01*
X61535638Y-84381681D01*
X63566029Y-83630635D01*
G37*
G36*
X63138848Y-79853190D02*
G01*
X63285394Y-79867890D01*
X63446754Y-79896143D01*
X63569692Y-79926692D01*
X63721271Y-79977626D01*
X63862764Y-80043050D01*
X63994172Y-80122964D01*
X64062819Y-80173621D01*
X64176858Y-80276474D01*
X64277451Y-80395441D01*
X64364597Y-80530519D01*
X64407201Y-80612526D01*
X64463942Y-80754492D01*
X64504471Y-80910746D01*
X64526635Y-81059190D01*
X64536388Y-81218572D01*
X64536894Y-81266120D01*
X64535211Y-81414944D01*
X64534696Y-81441242D01*
X64529595Y-81592461D01*
X64525903Y-81663258D01*
X64518536Y-81811456D01*
X64515645Y-81873551D01*
X64503189Y-82012770D01*
X61522449Y-82012770D01*
X61506124Y-81864431D01*
X61504131Y-81833984D01*
X61496922Y-81686572D01*
X61495338Y-81626622D01*
X61492178Y-81474058D01*
X61490942Y-81415596D01*
X61488881Y-81268867D01*
X61488743Y-81223621D01*
X61489053Y-81214829D01*
X61817006Y-81214829D01*
X61817006Y-81335729D01*
X61821402Y-81464689D01*
X61829462Y-81580460D01*
X61838255Y-81662526D01*
X64191779Y-81662526D01*
X64198374Y-81582658D01*
X64202770Y-81460293D01*
X64206434Y-81337927D01*
X64208632Y-81257327D01*
X64200691Y-81098761D01*
X64173243Y-80940251D01*
X64126188Y-80800346D01*
X64108248Y-80762002D01*
X64030592Y-80633499D01*
X63927311Y-80515037D01*
X63837138Y-80441067D01*
X63702087Y-80360284D01*
X63565980Y-80303612D01*
X63445861Y-80269609D01*
X63292414Y-80240824D01*
X63135330Y-80223988D01*
X62989371Y-80219050D01*
X62834640Y-80225645D01*
X62679290Y-80245429D01*
X62575380Y-80265945D01*
X62424976Y-80310149D01*
X62285906Y-80373519D01*
X62199490Y-80426413D01*
X62082196Y-80522618D01*
X61982007Y-80640873D01*
X61924717Y-80731960D01*
X61863393Y-80875632D01*
X61829733Y-81026528D01*
X61817427Y-81178853D01*
X61817006Y-81214829D01*
X61489053Y-81214829D01*
X61494038Y-81073310D01*
X61513054Y-80912602D01*
X61545901Y-80763709D01*
X61599385Y-80610327D01*
X61668519Y-80471256D01*
X61751447Y-80346674D01*
X61859767Y-80225244D01*
X61907864Y-80181681D01*
X62038854Y-80084795D01*
X62170081Y-80012036D01*
X62313945Y-79952955D01*
X62381939Y-79931088D01*
X62541671Y-79891064D01*
X62690953Y-79866483D01*
X62847104Y-79852252D01*
X62989371Y-79848290D01*
X63138848Y-79853190D01*
G37*
G36*
X63727962Y-77932937D02*
G01*
X63579166Y-77956121D01*
X63451327Y-78031959D01*
X63444396Y-78038450D01*
X63346830Y-78148961D01*
X63265646Y-78273021D01*
X63249490Y-78302233D01*
X63182002Y-78435422D01*
X63117659Y-78577801D01*
X63089023Y-78646615D01*
X63027542Y-78781838D01*
X62951171Y-78919725D01*
X62905840Y-78990265D01*
X62810102Y-79110152D01*
X62697917Y-79212625D01*
X62640593Y-79254047D01*
X62497850Y-79322362D01*
X62340972Y-79354511D01*
X62238325Y-79359560D01*
X62074697Y-79344539D01*
X61928930Y-79299476D01*
X61801023Y-79224371D01*
X61690976Y-79119225D01*
X61602500Y-78986097D01*
X61545819Y-78848949D01*
X61508493Y-78692516D01*
X61491903Y-78543083D01*
X61488743Y-78435589D01*
X61492607Y-78278968D01*
X61504199Y-78131507D01*
X61525876Y-77979878D01*
X61528311Y-77966643D01*
X61561077Y-77821460D01*
X61610730Y-77676785D01*
X61629427Y-77637648D01*
X61957690Y-77743161D01*
X61903027Y-77880951D01*
X61862435Y-78028192D01*
X61834752Y-78175780D01*
X61820599Y-78323198D01*
X61817006Y-78452442D01*
X61828956Y-78612869D01*
X61869704Y-78757934D01*
X61939371Y-78870097D01*
X62054215Y-78965266D01*
X62195938Y-79008092D01*
X62226601Y-79009316D01*
X62374429Y-78982937D01*
X62495512Y-78903803D01*
X62597545Y-78785101D01*
X62677507Y-78659598D01*
X62688220Y-78640020D01*
X62756684Y-78506952D01*
X62825149Y-78364935D01*
X62856748Y-78296371D01*
X62923758Y-78160701D01*
X62998393Y-78032863D01*
X63052386Y-77951988D01*
X63150255Y-77832101D01*
X63262877Y-77729628D01*
X63319832Y-77688206D01*
X63459096Y-77619891D01*
X63609757Y-77587742D01*
X63707445Y-77582693D01*
X63854876Y-77593819D01*
X63999853Y-77630684D01*
X64048164Y-77650104D01*
X64181182Y-77727309D01*
X64295846Y-77832528D01*
X64309748Y-77848674D01*
X64395741Y-77973455D01*
X64458512Y-78108412D01*
X64478276Y-78165212D01*
X64513996Y-78311460D01*
X64532257Y-78458194D01*
X64536894Y-78587264D01*
X64534146Y-78738664D01*
X64524486Y-78892567D01*
X64505596Y-79043177D01*
X64492930Y-79110432D01*
X64456112Y-79263082D01*
X64406149Y-79409124D01*
X64396210Y-79431367D01*
X64067948Y-79313398D01*
X64121657Y-79174552D01*
X64162470Y-79026168D01*
X64190600Y-78877241D01*
X64204980Y-78729139D01*
X64208632Y-78599720D01*
X64200054Y-78448432D01*
X64181521Y-78338136D01*
X64135038Y-78198345D01*
X64095059Y-78127110D01*
X63992790Y-78018209D01*
X63944117Y-77985694D01*
X63802594Y-77938089D01*
X63727962Y-77932937D01*
G37*
G36*
X61535638Y-75916468D02*
G01*
X61535638Y-74308862D01*
X61863900Y-74308862D01*
X61863900Y-75566224D01*
X62848688Y-75566224D01*
X62848688Y-74393126D01*
X63176950Y-74393126D01*
X63176950Y-75566224D01*
X64490000Y-75566224D01*
X64490000Y-75916468D01*
X61535638Y-75916468D01*
G37*
G36*
X62987173Y-73013398D02*
G01*
X61535638Y-73912456D01*
X61535638Y-73490404D01*
X62535812Y-72891032D01*
X62776147Y-72785519D01*
X62535812Y-72684403D01*
X61535638Y-72051325D01*
X61535638Y-71662979D01*
X62957864Y-72591346D01*
X64490000Y-71620481D01*
X64490000Y-72030076D01*
X63431207Y-72696859D01*
X63177683Y-72810432D01*
X63431207Y-72920341D01*
X64490000Y-73604710D01*
X64490000Y-73996720D01*
X62987173Y-73013398D01*
G37*
G36*
X64255526Y-70525052D02*
G01*
X64243325Y-70378458D01*
X64212295Y-70259071D01*
X64146751Y-70125645D01*
X64085533Y-70048046D01*
X63967896Y-69952104D01*
X63885498Y-69908827D01*
X63739401Y-69866613D01*
X63630509Y-69858269D01*
X63473341Y-69872121D01*
X63327396Y-69920006D01*
X63201734Y-70012185D01*
X63182812Y-70033391D01*
X63099378Y-70169545D01*
X63053583Y-70320671D01*
X63036839Y-70478953D01*
X63036266Y-70516992D01*
X63036266Y-70829134D01*
X62915366Y-70829134D01*
X62003852Y-70220969D01*
X61822135Y-70026796D01*
X61863900Y-70300837D01*
X61863900Y-71136880D01*
X61535638Y-71136880D01*
X61535638Y-69630390D01*
X61674124Y-69630390D01*
X62655980Y-70300837D01*
X62776147Y-70448848D01*
X62784207Y-70448848D01*
X62754898Y-70305233D01*
X62770612Y-70152713D01*
X62809509Y-70011140D01*
X62816448Y-69993091D01*
X62886423Y-69859002D01*
X62982044Y-69743963D01*
X63100563Y-69650174D01*
X63231306Y-69583541D01*
X63240697Y-69579832D01*
X63390900Y-69537231D01*
X63546776Y-69521003D01*
X63582149Y-69520481D01*
X63733762Y-69530005D01*
X63885334Y-69562119D01*
X63989546Y-69601081D01*
X64124782Y-69675406D01*
X64241152Y-69768595D01*
X64288499Y-69817969D01*
X64377298Y-69937400D01*
X64447232Y-70073036D01*
X64473147Y-70141102D01*
X64511993Y-70283125D01*
X64532910Y-70431125D01*
X64536894Y-70533112D01*
X64532299Y-70681492D01*
X64515576Y-70836771D01*
X64509050Y-70875296D01*
X64475902Y-71025904D01*
X64439441Y-71141277D01*
X64161737Y-71052616D01*
X64208305Y-70910209D01*
X64228415Y-70823272D01*
X64249569Y-70672689D01*
X64255526Y-70525052D01*
G37*
G36*
X61535638Y-67665212D02*
G01*
X61535638Y-67314968D01*
X64490000Y-67314968D01*
X64490000Y-67665212D01*
X61535638Y-67665212D01*
G37*
G36*
X64490000Y-65202512D02*
G01*
X63280265Y-65202512D01*
X63125201Y-65208465D01*
X62975059Y-65229395D01*
X62826500Y-65275441D01*
X62782009Y-65297766D01*
X62673369Y-65400807D01*
X62622244Y-65542504D01*
X62614214Y-65645812D01*
X62631216Y-65802502D01*
X62688006Y-65947598D01*
X62735115Y-66015108D01*
X62843504Y-66118837D01*
X62972210Y-66194268D01*
X63038464Y-66219539D01*
X64490000Y-66219539D01*
X64490000Y-66556594D01*
X62379741Y-66556594D01*
X62379741Y-66320655D01*
X62640593Y-66257641D01*
X62640593Y-66240788D01*
X62531880Y-66138487D01*
X62441680Y-66009818D01*
X62419309Y-65968213D01*
X62366621Y-65830895D01*
X62338251Y-65675030D01*
X62332847Y-65560816D01*
X62341702Y-65408038D01*
X62373147Y-65257466D01*
X62437135Y-65124055D01*
X62513831Y-65039846D01*
X62640913Y-64959974D01*
X62785673Y-64909420D01*
X62939262Y-64880481D01*
X63092457Y-64867517D01*
X63217250Y-64864724D01*
X64490000Y-64864724D01*
X64490000Y-65202512D01*
G37*
G36*
X62379741Y-64540858D02*
G01*
X62379741Y-64211130D01*
X61961353Y-64211130D01*
X61863900Y-63874075D01*
X62379741Y-63874075D01*
X62379741Y-63299616D01*
X62661109Y-63299616D01*
X62661109Y-63874075D01*
X63848129Y-63874075D01*
X63996850Y-63866347D01*
X64144746Y-63828941D01*
X64163203Y-63819120D01*
X64249756Y-63694236D01*
X64255526Y-63633740D01*
X64241101Y-63487835D01*
X64229881Y-63447627D01*
X64174606Y-63307557D01*
X64161737Y-63279099D01*
X64396210Y-63202896D01*
X64459451Y-63337620D01*
X64498060Y-63452023D01*
X64528361Y-63601269D01*
X64536894Y-63742916D01*
X64522583Y-63888847D01*
X64467628Y-64024860D01*
X64390348Y-64105617D01*
X64252721Y-64169914D01*
X64095686Y-64200826D01*
X63942339Y-64210718D01*
X63900153Y-64211130D01*
X62661109Y-64211130D01*
X62661109Y-64540858D01*
X62379741Y-64540858D01*
G37*
G36*
X63339066Y-61278567D02*
G01*
X63494388Y-61296224D01*
X63505212Y-61297801D01*
X63505212Y-62652616D01*
X63654437Y-62645323D01*
X63805746Y-62619128D01*
X63823217Y-62614515D01*
X63965566Y-62558435D01*
X64057690Y-62496545D01*
X64155918Y-62384042D01*
X64204968Y-62287718D01*
X64242887Y-62144469D01*
X64255329Y-61995685D01*
X64255526Y-61972644D01*
X64235674Y-61820625D01*
X64185184Y-61686147D01*
X64108981Y-61560484D01*
X64021053Y-61470725D01*
X64302421Y-61343963D01*
X64388614Y-61467362D01*
X64453078Y-61604300D01*
X64473879Y-61662700D01*
X64512279Y-61809979D01*
X64532956Y-61963852D01*
X64536894Y-62070097D01*
X64527716Y-62227881D01*
X64496770Y-62383025D01*
X64459225Y-62487752D01*
X64384993Y-62621425D01*
X64288511Y-62734298D01*
X64236475Y-62779378D01*
X64109165Y-62861982D01*
X63974904Y-62921058D01*
X63889162Y-62947906D01*
X63744239Y-62979194D01*
X63587541Y-62997494D01*
X63434870Y-63002861D01*
X63272851Y-62996993D01*
X63123389Y-62979390D01*
X62960612Y-62942777D01*
X62815918Y-62889265D01*
X62669964Y-62805476D01*
X62614947Y-62762526D01*
X62505027Y-62647206D01*
X62422105Y-62512182D01*
X62366181Y-62357452D01*
X62339734Y-62209143D01*
X62332847Y-62074494D01*
X62333115Y-62070097D01*
X62614214Y-62070097D01*
X62627738Y-62216142D01*
X62679671Y-62365893D01*
X62752700Y-62469434D01*
X62870523Y-62558000D01*
X63017755Y-62613871D01*
X63163053Y-62641668D01*
X63223845Y-62648220D01*
X63223845Y-61601151D01*
X63067270Y-61608799D01*
X62921449Y-61635686D01*
X62786829Y-61694837D01*
X62749769Y-61723517D01*
X62657105Y-61850081D01*
X62617524Y-62002517D01*
X62614214Y-62070097D01*
X62333115Y-62070097D01*
X62342152Y-61921903D01*
X62365819Y-61787264D01*
X62416825Y-61643152D01*
X62489651Y-61530076D01*
X62599560Y-61426395D01*
X62726986Y-61353105D01*
X62747571Y-61343963D01*
X62887808Y-61300206D01*
X63042609Y-61277836D01*
X63187941Y-61272156D01*
X63339066Y-61278567D01*
G37*
G36*
X62703607Y-59754675D02*
G01*
X62668123Y-59900555D01*
X62661109Y-59995010D01*
X62683005Y-60148625D01*
X62760760Y-60282240D01*
X62880750Y-60371806D01*
X63011353Y-60413398D01*
X64490000Y-60413398D01*
X64490000Y-60750453D01*
X62379741Y-60750453D01*
X62379741Y-60514515D01*
X62633265Y-60451500D01*
X62633265Y-60434647D01*
X62505954Y-60346353D01*
X62411249Y-60242672D01*
X62350074Y-60106394D01*
X62332847Y-59957641D01*
X62346293Y-59810113D01*
X62375345Y-59682868D01*
X62703607Y-59754675D01*
G37*
G36*
X62379741Y-59555373D02*
G01*
X62379741Y-59226378D01*
X62258841Y-59226378D01*
X62105615Y-59221178D01*
X61960077Y-59203947D01*
X61912993Y-59194870D01*
X61771813Y-59150020D01*
X61672658Y-59091556D01*
X61571033Y-58979322D01*
X61534173Y-58906175D01*
X61497439Y-58760194D01*
X61488743Y-58622609D01*
X61494168Y-58473616D01*
X61504131Y-58384473D01*
X61537756Y-58237220D01*
X61561284Y-58166852D01*
X61817006Y-58243056D01*
X61783732Y-58387920D01*
X61778904Y-58426238D01*
X61770188Y-58574526D01*
X61770111Y-58588904D01*
X61793813Y-58735581D01*
X61806015Y-58760362D01*
X61911528Y-58849023D01*
X62057467Y-58880759D01*
X62082254Y-58882728D01*
X62236212Y-58888017D01*
X62316727Y-58888590D01*
X62379741Y-58888590D01*
X62379741Y-58327320D01*
X62661109Y-58327320D01*
X62661109Y-58888590D01*
X64490000Y-58888590D01*
X64490000Y-59226378D01*
X62661109Y-59226378D01*
X62661109Y-59555373D01*
X62379741Y-59555373D01*
G37*
G36*
X64490000Y-56743161D02*
G01*
X64210830Y-56831821D01*
X64210830Y-56853070D01*
X64325179Y-56944771D01*
X64328799Y-56948325D01*
X64420562Y-57065573D01*
X64432114Y-57085345D01*
X64493008Y-57225791D01*
X64506852Y-57270725D01*
X64533344Y-57421833D01*
X64536894Y-57511060D01*
X64521654Y-57664704D01*
X64493663Y-57762386D01*
X64426229Y-57895079D01*
X64372030Y-57963154D01*
X64253635Y-58058288D01*
X64180788Y-58095778D01*
X64037681Y-58136156D01*
X63927264Y-58144138D01*
X63773912Y-58129692D01*
X63628191Y-58077806D01*
X63612191Y-58068667D01*
X63492189Y-57970536D01*
X63410690Y-57855443D01*
X63349435Y-57714911D01*
X63309404Y-57561960D01*
X63302979Y-57526448D01*
X63283333Y-57376799D01*
X63273289Y-57229665D01*
X63270900Y-57110258D01*
X63552107Y-57110258D01*
X63557532Y-57263683D01*
X63567494Y-57365980D01*
X63598089Y-57516201D01*
X63623182Y-57585066D01*
X63704934Y-57710646D01*
X63734556Y-57737473D01*
X63873532Y-57791910D01*
X63912609Y-57793893D01*
X64057111Y-57764115D01*
X64159539Y-57688381D01*
X64234435Y-57559729D01*
X64255526Y-57418736D01*
X64240288Y-57267989D01*
X64223286Y-57207711D01*
X64159771Y-57073424D01*
X64141953Y-57047243D01*
X64040244Y-56941455D01*
X64032777Y-56935868D01*
X63917006Y-56869923D01*
X63560900Y-56869923D01*
X63554305Y-56990823D01*
X63552107Y-57110258D01*
X63270900Y-57110258D01*
X63270739Y-57102198D01*
X63270739Y-56986427D01*
X63278799Y-56869923D01*
X63126415Y-56859218D01*
X63044326Y-56857466D01*
X62897073Y-56868462D01*
X62750971Y-56918898D01*
X62710202Y-56950523D01*
X62638211Y-57081132D01*
X62615714Y-57229338D01*
X62614214Y-57288311D01*
X62627280Y-57437020D01*
X62628136Y-57442184D01*
X62659632Y-57589164D01*
X62665505Y-57610711D01*
X62713419Y-57750878D01*
X62724124Y-57775575D01*
X62796423Y-57905105D01*
X62801793Y-57912595D01*
X62520425Y-58018108D01*
X62450779Y-57879022D01*
X62401303Y-57735178D01*
X62379009Y-57644417D01*
X62352727Y-57495574D01*
X62337355Y-57342229D01*
X62332847Y-57198918D01*
X62341193Y-57046762D01*
X62372028Y-56899982D01*
X62392198Y-56847208D01*
X62470328Y-56717352D01*
X62546803Y-56644242D01*
X62679384Y-56572430D01*
X62755631Y-56551186D01*
X62905657Y-56530509D01*
X62984242Y-56527739D01*
X63141478Y-56529027D01*
X63296282Y-56532891D01*
X63448652Y-56539331D01*
X63478834Y-56540928D01*
X63627069Y-56547496D01*
X63784506Y-56551912D01*
X63936057Y-56553384D01*
X64088098Y-56550270D01*
X64232079Y-56540928D01*
X64382208Y-56519598D01*
X64490000Y-56494033D01*
X64490000Y-56743161D01*
G37*
G36*
X64349316Y-54463642D02*
G01*
X64425683Y-54592625D01*
X64479819Y-54731311D01*
X64489267Y-54763328D01*
X64520104Y-54906731D01*
X64535220Y-55055939D01*
X64536894Y-55126762D01*
X64527716Y-55286096D01*
X64496770Y-55439574D01*
X64459225Y-55540753D01*
X64384993Y-55667645D01*
X64280167Y-55781847D01*
X64236475Y-55816992D01*
X64108923Y-55894358D01*
X63962023Y-55952618D01*
X63887697Y-55973063D01*
X63741955Y-56000596D01*
X63585824Y-56016700D01*
X63434870Y-56021423D01*
X63274064Y-56015663D01*
X63125493Y-55998382D01*
X62963360Y-55962438D01*
X62818846Y-55909905D01*
X62672516Y-55827649D01*
X62617145Y-55785484D01*
X62506369Y-55672053D01*
X62422801Y-55538847D01*
X62366441Y-55385866D01*
X62339788Y-55238999D01*
X62332847Y-55105512D01*
X62338893Y-54950882D01*
X62360896Y-54798007D01*
X62369483Y-54761863D01*
X62416730Y-54619259D01*
X62473531Y-54506140D01*
X62754898Y-54603593D01*
X62684259Y-54733080D01*
X62652316Y-54819016D01*
X62620503Y-54965045D01*
X62614214Y-55071807D01*
X62634250Y-55244478D01*
X62694357Y-55387882D01*
X62794534Y-55502020D01*
X62934783Y-55586892D01*
X63075833Y-55633718D01*
X63242529Y-55661814D01*
X63434870Y-55671179D01*
X63583989Y-55664256D01*
X63735595Y-55641610D01*
X63744815Y-55639672D01*
X63891785Y-55594201D01*
X64005666Y-55534159D01*
X64118701Y-55436296D01*
X64187383Y-55339986D01*
X64240553Y-55195606D01*
X64255526Y-55041765D01*
X64243532Y-54889503D01*
X64213028Y-54769923D01*
X64151238Y-54631137D01*
X64114842Y-54573551D01*
X64349316Y-54463642D01*
G37*
G36*
X63339066Y-52500479D02*
G01*
X63494388Y-52518136D01*
X63505212Y-52519713D01*
X63505212Y-53874528D01*
X63654437Y-53867236D01*
X63805746Y-53841040D01*
X63823217Y-53836427D01*
X63965566Y-53780347D01*
X64057690Y-53718457D01*
X64155918Y-53605954D01*
X64204968Y-53509630D01*
X64242887Y-53366381D01*
X64255329Y-53217597D01*
X64255526Y-53194556D01*
X64235674Y-53042537D01*
X64185184Y-52908060D01*
X64108981Y-52782397D01*
X64021053Y-52692637D01*
X64302421Y-52565875D01*
X64388614Y-52689274D01*
X64453078Y-52826212D01*
X64473879Y-52884612D01*
X64512279Y-53031891D01*
X64532956Y-53185764D01*
X64536894Y-53292009D01*
X64527716Y-53449793D01*
X64496770Y-53604937D01*
X64459225Y-53709665D01*
X64384993Y-53843337D01*
X64288511Y-53956211D01*
X64236475Y-54001290D01*
X64109165Y-54083894D01*
X63974904Y-54142970D01*
X63889162Y-54169818D01*
X63744239Y-54201106D01*
X63587541Y-54219406D01*
X63434870Y-54224773D01*
X63272851Y-54218905D01*
X63123389Y-54201302D01*
X62960612Y-54164689D01*
X62815918Y-54111177D01*
X62669964Y-54027388D01*
X62614947Y-53984438D01*
X62505027Y-53869118D01*
X62422105Y-53734094D01*
X62366181Y-53579364D01*
X62339734Y-53431055D01*
X62332847Y-53296406D01*
X62333115Y-53292009D01*
X62614214Y-53292009D01*
X62627738Y-53438054D01*
X62679671Y-53587805D01*
X62752700Y-53691346D01*
X62870523Y-53779912D01*
X63017755Y-53835783D01*
X63163053Y-53863580D01*
X63223845Y-53870132D01*
X63223845Y-52823063D01*
X63067270Y-52830711D01*
X62921449Y-52857598D01*
X62786829Y-52916749D01*
X62749769Y-52945429D01*
X62657105Y-53071993D01*
X62617524Y-53224429D01*
X62614214Y-53292009D01*
X62333115Y-53292009D01*
X62342152Y-53143815D01*
X62365819Y-53009176D01*
X62416825Y-52865064D01*
X62489651Y-52751988D01*
X62599560Y-52648307D01*
X62726986Y-52575017D01*
X62747571Y-52565875D01*
X62887808Y-52522118D01*
X63042609Y-52499748D01*
X63187941Y-52494068D01*
X63339066Y-52500479D01*
G37*
X77603884Y-46591466D02*
X78365789Y-46591466D01*
X77984836Y-46972419D02*
X77984836Y-46210514D01*
X84503884Y-44691466D02*
X85265789Y-44691466D01*
X84884836Y-45072419D02*
X84884836Y-44310514D01*
X87003884Y-44691466D02*
X87765789Y-44691466D01*
X87384836Y-45072419D02*
X87384836Y-44310514D01*
D11*
X55523809Y-130788152D02*
X55904761Y-130788152D01*
X55666666Y-130454819D02*
X55666666Y-131311961D01*
X55666666Y-131311961D02*
X55714285Y-131407200D01*
X55714285Y-131407200D02*
X55809523Y-131454819D01*
X55809523Y-131454819D02*
X55904761Y-131454819D01*
X56380952Y-131454819D02*
X56285714Y-131407200D01*
X56285714Y-131407200D02*
X56238095Y-131359580D01*
X56238095Y-131359580D02*
X56190476Y-131264342D01*
X56190476Y-131264342D02*
X56190476Y-130978628D01*
X56190476Y-130978628D02*
X56238095Y-130883390D01*
X56238095Y-130883390D02*
X56285714Y-130835771D01*
X56285714Y-130835771D02*
X56380952Y-130788152D01*
X56380952Y-130788152D02*
X56523809Y-130788152D01*
X56523809Y-130788152D02*
X56619047Y-130835771D01*
X56619047Y-130835771D02*
X56666666Y-130883390D01*
X56666666Y-130883390D02*
X56714285Y-130978628D01*
X56714285Y-130978628D02*
X56714285Y-131264342D01*
X56714285Y-131264342D02*
X56666666Y-131359580D01*
X56666666Y-131359580D02*
X56619047Y-131407200D01*
X56619047Y-131407200D02*
X56523809Y-131454819D01*
X56523809Y-131454819D02*
X56380952Y-131454819D01*
X57285714Y-131454819D02*
X57190476Y-131407200D01*
X57190476Y-131407200D02*
X57142857Y-131359580D01*
X57142857Y-131359580D02*
X57095238Y-131264342D01*
X57095238Y-131264342D02*
X57095238Y-130978628D01*
X57095238Y-130978628D02*
X57142857Y-130883390D01*
X57142857Y-130883390D02*
X57190476Y-130835771D01*
X57190476Y-130835771D02*
X57285714Y-130788152D01*
X57285714Y-130788152D02*
X57428571Y-130788152D01*
X57428571Y-130788152D02*
X57523809Y-130835771D01*
X57523809Y-130835771D02*
X57571428Y-130883390D01*
X57571428Y-130883390D02*
X57619047Y-130978628D01*
X57619047Y-130978628D02*
X57619047Y-131264342D01*
X57619047Y-131264342D02*
X57571428Y-131359580D01*
X57571428Y-131359580D02*
X57523809Y-131407200D01*
X57523809Y-131407200D02*
X57428571Y-131454819D01*
X57428571Y-131454819D02*
X57285714Y-131454819D01*
X58190476Y-131454819D02*
X58095238Y-131407200D01*
X58095238Y-131407200D02*
X58047619Y-131311961D01*
X58047619Y-131311961D02*
X58047619Y-130454819D01*
X58571429Y-131454819D02*
X58571429Y-130788152D01*
X58571429Y-130454819D02*
X58523810Y-130502438D01*
X58523810Y-130502438D02*
X58571429Y-130550057D01*
X58571429Y-130550057D02*
X58619048Y-130502438D01*
X58619048Y-130502438D02*
X58571429Y-130454819D01*
X58571429Y-130454819D02*
X58571429Y-130550057D01*
X59047619Y-130788152D02*
X59047619Y-131454819D01*
X59047619Y-130883390D02*
X59095238Y-130835771D01*
X59095238Y-130835771D02*
X59190476Y-130788152D01*
X59190476Y-130788152D02*
X59333333Y-130788152D01*
X59333333Y-130788152D02*
X59428571Y-130835771D01*
X59428571Y-130835771D02*
X59476190Y-130931009D01*
X59476190Y-130931009D02*
X59476190Y-131454819D01*
X60380952Y-130788152D02*
X60380952Y-131597676D01*
X60380952Y-131597676D02*
X60333333Y-131692914D01*
X60333333Y-131692914D02*
X60285714Y-131740533D01*
X60285714Y-131740533D02*
X60190476Y-131788152D01*
X60190476Y-131788152D02*
X60047619Y-131788152D01*
X60047619Y-131788152D02*
X59952381Y-131740533D01*
X60380952Y-131407200D02*
X60285714Y-131454819D01*
X60285714Y-131454819D02*
X60095238Y-131454819D01*
X60095238Y-131454819D02*
X60000000Y-131407200D01*
X60000000Y-131407200D02*
X59952381Y-131359580D01*
X59952381Y-131359580D02*
X59904762Y-131264342D01*
X59904762Y-131264342D02*
X59904762Y-130978628D01*
X59904762Y-130978628D02*
X59952381Y-130883390D01*
X59952381Y-130883390D02*
X60000000Y-130835771D01*
X60000000Y-130835771D02*
X60095238Y-130788152D01*
X60095238Y-130788152D02*
X60285714Y-130788152D01*
X60285714Y-130788152D02*
X60380952Y-130835771D01*
X61619048Y-131454819D02*
X61619048Y-130454819D01*
X62047619Y-131454819D02*
X62047619Y-130931009D01*
X62047619Y-130931009D02*
X62000000Y-130835771D01*
X62000000Y-130835771D02*
X61904762Y-130788152D01*
X61904762Y-130788152D02*
X61761905Y-130788152D01*
X61761905Y-130788152D02*
X61666667Y-130835771D01*
X61666667Y-130835771D02*
X61619048Y-130883390D01*
X62666667Y-131454819D02*
X62571429Y-131407200D01*
X62571429Y-131407200D02*
X62523810Y-131359580D01*
X62523810Y-131359580D02*
X62476191Y-131264342D01*
X62476191Y-131264342D02*
X62476191Y-130978628D01*
X62476191Y-130978628D02*
X62523810Y-130883390D01*
X62523810Y-130883390D02*
X62571429Y-130835771D01*
X62571429Y-130835771D02*
X62666667Y-130788152D01*
X62666667Y-130788152D02*
X62809524Y-130788152D01*
X62809524Y-130788152D02*
X62904762Y-130835771D01*
X62904762Y-130835771D02*
X62952381Y-130883390D01*
X62952381Y-130883390D02*
X63000000Y-130978628D01*
X63000000Y-130978628D02*
X63000000Y-131264342D01*
X63000000Y-131264342D02*
X62952381Y-131359580D01*
X62952381Y-131359580D02*
X62904762Y-131407200D01*
X62904762Y-131407200D02*
X62809524Y-131454819D01*
X62809524Y-131454819D02*
X62666667Y-131454819D01*
X63571429Y-131454819D02*
X63476191Y-131407200D01*
X63476191Y-131407200D02*
X63428572Y-131311961D01*
X63428572Y-131311961D02*
X63428572Y-130454819D01*
X64333334Y-131407200D02*
X64238096Y-131454819D01*
X64238096Y-131454819D02*
X64047620Y-131454819D01*
X64047620Y-131454819D02*
X63952382Y-131407200D01*
X63952382Y-131407200D02*
X63904763Y-131311961D01*
X63904763Y-131311961D02*
X63904763Y-130931009D01*
X63904763Y-130931009D02*
X63952382Y-130835771D01*
X63952382Y-130835771D02*
X64047620Y-130788152D01*
X64047620Y-130788152D02*
X64238096Y-130788152D01*
X64238096Y-130788152D02*
X64333334Y-130835771D01*
X64333334Y-130835771D02*
X64380953Y-130931009D01*
X64380953Y-130931009D02*
X64380953Y-131026247D01*
X64380953Y-131026247D02*
X63904763Y-131121485D01*
X116523809Y-28788152D02*
X116904761Y-28788152D01*
X116666666Y-28454819D02*
X116666666Y-29311961D01*
X116666666Y-29311961D02*
X116714285Y-29407200D01*
X116714285Y-29407200D02*
X116809523Y-29454819D01*
X116809523Y-29454819D02*
X116904761Y-29454819D01*
X117380952Y-29454819D02*
X117285714Y-29407200D01*
X117285714Y-29407200D02*
X117238095Y-29359580D01*
X117238095Y-29359580D02*
X117190476Y-29264342D01*
X117190476Y-29264342D02*
X117190476Y-28978628D01*
X117190476Y-28978628D02*
X117238095Y-28883390D01*
X117238095Y-28883390D02*
X117285714Y-28835771D01*
X117285714Y-28835771D02*
X117380952Y-28788152D01*
X117380952Y-28788152D02*
X117523809Y-28788152D01*
X117523809Y-28788152D02*
X117619047Y-28835771D01*
X117619047Y-28835771D02*
X117666666Y-28883390D01*
X117666666Y-28883390D02*
X117714285Y-28978628D01*
X117714285Y-28978628D02*
X117714285Y-29264342D01*
X117714285Y-29264342D02*
X117666666Y-29359580D01*
X117666666Y-29359580D02*
X117619047Y-29407200D01*
X117619047Y-29407200D02*
X117523809Y-29454819D01*
X117523809Y-29454819D02*
X117380952Y-29454819D01*
X118285714Y-29454819D02*
X118190476Y-29407200D01*
X118190476Y-29407200D02*
X118142857Y-29359580D01*
X118142857Y-29359580D02*
X118095238Y-29264342D01*
X118095238Y-29264342D02*
X118095238Y-28978628D01*
X118095238Y-28978628D02*
X118142857Y-28883390D01*
X118142857Y-28883390D02*
X118190476Y-28835771D01*
X118190476Y-28835771D02*
X118285714Y-28788152D01*
X118285714Y-28788152D02*
X118428571Y-28788152D01*
X118428571Y-28788152D02*
X118523809Y-28835771D01*
X118523809Y-28835771D02*
X118571428Y-28883390D01*
X118571428Y-28883390D02*
X118619047Y-28978628D01*
X118619047Y-28978628D02*
X118619047Y-29264342D01*
X118619047Y-29264342D02*
X118571428Y-29359580D01*
X118571428Y-29359580D02*
X118523809Y-29407200D01*
X118523809Y-29407200D02*
X118428571Y-29454819D01*
X118428571Y-29454819D02*
X118285714Y-29454819D01*
X119190476Y-29454819D02*
X119095238Y-29407200D01*
X119095238Y-29407200D02*
X119047619Y-29311961D01*
X119047619Y-29311961D02*
X119047619Y-28454819D01*
X119571429Y-29454819D02*
X119571429Y-28788152D01*
X119571429Y-28454819D02*
X119523810Y-28502438D01*
X119523810Y-28502438D02*
X119571429Y-28550057D01*
X119571429Y-28550057D02*
X119619048Y-28502438D01*
X119619048Y-28502438D02*
X119571429Y-28454819D01*
X119571429Y-28454819D02*
X119571429Y-28550057D01*
X120047619Y-28788152D02*
X120047619Y-29454819D01*
X120047619Y-28883390D02*
X120095238Y-28835771D01*
X120095238Y-28835771D02*
X120190476Y-28788152D01*
X120190476Y-28788152D02*
X120333333Y-28788152D01*
X120333333Y-28788152D02*
X120428571Y-28835771D01*
X120428571Y-28835771D02*
X120476190Y-28931009D01*
X120476190Y-28931009D02*
X120476190Y-29454819D01*
X121380952Y-28788152D02*
X121380952Y-29597676D01*
X121380952Y-29597676D02*
X121333333Y-29692914D01*
X121333333Y-29692914D02*
X121285714Y-29740533D01*
X121285714Y-29740533D02*
X121190476Y-29788152D01*
X121190476Y-29788152D02*
X121047619Y-29788152D01*
X121047619Y-29788152D02*
X120952381Y-29740533D01*
X121380952Y-29407200D02*
X121285714Y-29454819D01*
X121285714Y-29454819D02*
X121095238Y-29454819D01*
X121095238Y-29454819D02*
X121000000Y-29407200D01*
X121000000Y-29407200D02*
X120952381Y-29359580D01*
X120952381Y-29359580D02*
X120904762Y-29264342D01*
X120904762Y-29264342D02*
X120904762Y-28978628D01*
X120904762Y-28978628D02*
X120952381Y-28883390D01*
X120952381Y-28883390D02*
X121000000Y-28835771D01*
X121000000Y-28835771D02*
X121095238Y-28788152D01*
X121095238Y-28788152D02*
X121285714Y-28788152D01*
X121285714Y-28788152D02*
X121380952Y-28835771D01*
X122619048Y-29454819D02*
X122619048Y-28454819D01*
X123047619Y-29454819D02*
X123047619Y-28931009D01*
X123047619Y-28931009D02*
X123000000Y-28835771D01*
X123000000Y-28835771D02*
X122904762Y-28788152D01*
X122904762Y-28788152D02*
X122761905Y-28788152D01*
X122761905Y-28788152D02*
X122666667Y-28835771D01*
X122666667Y-28835771D02*
X122619048Y-28883390D01*
X123666667Y-29454819D02*
X123571429Y-29407200D01*
X123571429Y-29407200D02*
X123523810Y-29359580D01*
X123523810Y-29359580D02*
X123476191Y-29264342D01*
X123476191Y-29264342D02*
X123476191Y-28978628D01*
X123476191Y-28978628D02*
X123523810Y-28883390D01*
X123523810Y-28883390D02*
X123571429Y-28835771D01*
X123571429Y-28835771D02*
X123666667Y-28788152D01*
X123666667Y-28788152D02*
X123809524Y-28788152D01*
X123809524Y-28788152D02*
X123904762Y-28835771D01*
X123904762Y-28835771D02*
X123952381Y-28883390D01*
X123952381Y-28883390D02*
X124000000Y-28978628D01*
X124000000Y-28978628D02*
X124000000Y-29264342D01*
X124000000Y-29264342D02*
X123952381Y-29359580D01*
X123952381Y-29359580D02*
X123904762Y-29407200D01*
X123904762Y-29407200D02*
X123809524Y-29454819D01*
X123809524Y-29454819D02*
X123666667Y-29454819D01*
X124571429Y-29454819D02*
X124476191Y-29407200D01*
X124476191Y-29407200D02*
X124428572Y-29311961D01*
X124428572Y-29311961D02*
X124428572Y-28454819D01*
X125333334Y-29407200D02*
X125238096Y-29454819D01*
X125238096Y-29454819D02*
X125047620Y-29454819D01*
X125047620Y-29454819D02*
X124952382Y-29407200D01*
X124952382Y-29407200D02*
X124904763Y-29311961D01*
X124904763Y-29311961D02*
X124904763Y-28931009D01*
X124904763Y-28931009D02*
X124952382Y-28835771D01*
X124952382Y-28835771D02*
X125047620Y-28788152D01*
X125047620Y-28788152D02*
X125238096Y-28788152D01*
X125238096Y-28788152D02*
X125333334Y-28835771D01*
X125333334Y-28835771D02*
X125380953Y-28931009D01*
X125380953Y-28931009D02*
X125380953Y-29026247D01*
X125380953Y-29026247D02*
X124904763Y-29121485D01*
D12*
%TO.C,C25*%
X78770600Y-45648200D02*
X78770600Y-47518200D01*
X78770600Y-47518200D02*
X82680600Y-47518200D01*
X82680600Y-45648200D02*
X78770600Y-45648200D01*
%TO.C,C7*%
X97344500Y-92632166D02*
X97344500Y-92863836D01*
X98064500Y-92632166D02*
X98064500Y-92863836D01*
%TO.C,U6*%
X93634000Y-97702500D02*
X93634000Y-96902500D01*
X93634000Y-97702500D02*
X93634000Y-98502500D01*
X96754000Y-97702500D02*
X96754000Y-96902500D01*
X96754000Y-97702500D02*
X96754000Y-98502500D01*
X97034000Y-96642500D02*
X96704000Y-96402500D01*
X97034000Y-96162500D01*
X97034000Y-96642500D01*
G36*
X97034000Y-96642500D02*
G01*
X96704000Y-96402500D01*
X97034000Y-96162500D01*
X97034000Y-96642500D01*
G37*
%TO.C,C4*%
X97333600Y-105166366D02*
X97333600Y-105398036D01*
X98053600Y-105166366D02*
X98053600Y-105398036D01*
%TO.C,U16*%
X100410000Y-56102500D02*
X100410000Y-55302500D01*
X100410000Y-56102500D02*
X100410000Y-56902500D01*
X103530000Y-56102500D02*
X103530000Y-55302500D01*
X103530000Y-56102500D02*
X103530000Y-56902500D01*
X103810000Y-55042500D02*
X103480000Y-54802500D01*
X103810000Y-54562500D01*
X103810000Y-55042500D01*
G36*
X103810000Y-55042500D02*
G01*
X103480000Y-54802500D01*
X103810000Y-54562500D01*
X103810000Y-55042500D01*
G37*
%TO.C,C24*%
X83875600Y-45543200D02*
X83875600Y-49453200D01*
X85745600Y-45543200D02*
X83875600Y-45543200D01*
X85745600Y-49453200D02*
X85745600Y-45543200D01*
%TO.C,C6*%
X97333400Y-96830166D02*
X97333400Y-97061836D01*
X98053400Y-96830166D02*
X98053400Y-97061836D01*
%TO.C,C18*%
X106994000Y-74207666D02*
X106994000Y-74439336D01*
X107714000Y-74207666D02*
X107714000Y-74439336D01*
%TO.C,C3*%
X97334600Y-109346366D02*
X97334600Y-109578036D01*
X98054600Y-109346366D02*
X98054600Y-109578036D01*
%TO.C,U14*%
X100400700Y-64422500D02*
X100400700Y-63622500D01*
X100400700Y-64422500D02*
X100400700Y-65222500D01*
X103520700Y-64422500D02*
X103520700Y-63622500D01*
X103520700Y-64422500D02*
X103520700Y-65222500D01*
X103800700Y-63362500D02*
X103470700Y-63122500D01*
X103800700Y-62882500D01*
X103800700Y-63362500D01*
G36*
X103800700Y-63362500D02*
G01*
X103470700Y-63122500D01*
X103800700Y-62882500D01*
X103800700Y-63362500D01*
G37*
%TO.C,R18*%
X107530559Y-75848500D02*
X107837841Y-75848500D01*
X107530559Y-76608500D02*
X107837841Y-76608500D01*
%TO.C,R20*%
X107540359Y-70994000D02*
X107847641Y-70994000D01*
X107540359Y-71754000D02*
X107847641Y-71754000D01*
%TO.C,R19*%
X107511959Y-80530000D02*
X107819241Y-80530000D01*
X107511959Y-81290000D02*
X107819241Y-81290000D01*
%TO.C,U17*%
X100410000Y-51932500D02*
X100410000Y-51132500D01*
X100410000Y-51932500D02*
X100410000Y-52732500D01*
X103530000Y-51932500D02*
X103530000Y-51132500D01*
X103530000Y-51932500D02*
X103530000Y-52732500D01*
X103810000Y-50872500D02*
X103480000Y-50632500D01*
X103810000Y-50392500D01*
X103810000Y-50872500D01*
G36*
X103810000Y-50872500D02*
G01*
X103480000Y-50632500D01*
X103810000Y-50392500D01*
X103810000Y-50872500D01*
G37*
%TO.C,R12*%
X97878859Y-73489000D02*
X98186141Y-73489000D01*
X97878859Y-74249000D02*
X98186141Y-74249000D01*
%TO.C,J2*%
X109540000Y-48708000D02*
X110870000Y-48708000D01*
X109540000Y-50038000D02*
X109540000Y-48708000D01*
X109540000Y-51308000D02*
X109540000Y-99628000D01*
X109540000Y-51308000D02*
X112140000Y-51308000D01*
X109540000Y-99628000D02*
X114740000Y-99628000D01*
X112140000Y-48708000D02*
X114740000Y-48708000D01*
X112140000Y-51308000D02*
X112140000Y-48708000D01*
X114740000Y-48708000D02*
X114740000Y-99628000D01*
%TO.C,U10*%
X93645100Y-81024500D02*
X93645100Y-80224500D01*
X93645100Y-81024500D02*
X93645100Y-81824500D01*
X96765100Y-81024500D02*
X96765100Y-80224500D01*
X96765100Y-81024500D02*
X96765100Y-81824500D01*
X97045100Y-79964500D02*
X96715100Y-79724500D01*
X97045100Y-79484500D01*
X97045100Y-79964500D01*
G36*
X97045100Y-79964500D02*
G01*
X96715100Y-79724500D01*
X97045100Y-79484500D01*
X97045100Y-79964500D01*
G37*
%TO.C,R8*%
X97881059Y-90113000D02*
X98188341Y-90113000D01*
X97881059Y-90873000D02*
X98188341Y-90873000D01*
%TO.C,U13*%
X93652900Y-68570500D02*
X93652900Y-67770500D01*
X93652900Y-68570500D02*
X93652900Y-69370500D01*
X96772900Y-68570500D02*
X96772900Y-67770500D01*
X96772900Y-68570500D02*
X96772900Y-69370500D01*
X97052900Y-67510500D02*
X96722900Y-67270500D01*
X97052900Y-67030500D01*
X97052900Y-67510500D01*
G36*
X97052900Y-67510500D02*
G01*
X96722900Y-67270500D01*
X97052900Y-67030500D01*
X97052900Y-67510500D01*
G37*
%TO.C,J1*%
X68012000Y-48708000D02*
X69342000Y-48708000D01*
X68012000Y-50038000D02*
X68012000Y-48708000D01*
X68012000Y-51308000D02*
X68012000Y-99628000D01*
X68012000Y-51308000D02*
X70612000Y-51308000D01*
X68012000Y-99628000D02*
X73212000Y-99628000D01*
X70612000Y-48708000D02*
X73212000Y-48708000D01*
X70612000Y-51308000D02*
X70612000Y-48708000D01*
X73212000Y-48708000D02*
X73212000Y-99628000D01*
%TO.C,C22*%
X80317265Y-48763200D02*
X80548935Y-48763200D01*
X80317265Y-49483200D02*
X80548935Y-49483200D01*
%TO.C,C2*%
X119365248Y-113916050D02*
X120787752Y-113916050D01*
X119365248Y-115736050D02*
X120787752Y-115736050D01*
%TO.C,U4*%
X93634200Y-106038700D02*
X93634200Y-105238700D01*
X93634200Y-106038700D02*
X93634200Y-106838700D01*
X96754200Y-106038700D02*
X96754200Y-105238700D01*
X96754200Y-106038700D02*
X96754200Y-106838700D01*
X97034200Y-104978700D02*
X96704200Y-104738700D01*
X97034200Y-104498700D01*
X97034200Y-104978700D01*
G36*
X97034200Y-104978700D02*
G01*
X96704200Y-104738700D01*
X97034200Y-104498700D01*
X97034200Y-104978700D01*
G37*
%TO.C,R6*%
X97869959Y-98471000D02*
X98177241Y-98471000D01*
X97869959Y-99231000D02*
X98177241Y-99231000D01*
%TO.C,U8*%
X93645100Y-89344500D02*
X93645100Y-88544500D01*
X93645100Y-89344500D02*
X93645100Y-90144500D01*
X96765100Y-89344500D02*
X96765100Y-88544500D01*
X96765100Y-89344500D02*
X96765100Y-90144500D01*
X97045100Y-88284500D02*
X96715100Y-88044500D01*
X97045100Y-87804500D01*
X97045100Y-88284500D01*
G36*
X97045100Y-88284500D02*
G01*
X96715100Y-88044500D01*
X97045100Y-87804500D01*
X97045100Y-88284500D01*
G37*
%TO.C,R10*%
X97881059Y-81793000D02*
X98188341Y-81793000D01*
X97881059Y-82553000D02*
X98188341Y-82553000D01*
%TO.C,U21*%
X103577100Y-92196500D02*
X103577100Y-91396500D01*
X103577100Y-92196500D02*
X103577100Y-92996500D01*
X106697100Y-92196500D02*
X106697100Y-91396500D01*
X106697100Y-92196500D02*
X106697100Y-92996500D01*
X106977100Y-91136500D02*
X106647100Y-90896500D01*
X106977100Y-90656500D01*
X106977100Y-91136500D01*
G36*
X106977100Y-91136500D02*
G01*
X106647100Y-90896500D01*
X106977100Y-90656500D01*
X106977100Y-91136500D01*
G37*
%TO.C,C1*%
X97336600Y-113613565D02*
X97336600Y-113845235D01*
X98056600Y-113613565D02*
X98056600Y-113845235D01*
%TO.C,R13*%
X97888859Y-69339000D02*
X98196141Y-69339000D01*
X97888859Y-70099000D02*
X98196141Y-70099000D01*
%TO.C,C15*%
X104109400Y-59410166D02*
X104109400Y-59641836D01*
X104829400Y-59410166D02*
X104829400Y-59641836D01*
%TO.C,R11*%
X97879959Y-77631000D02*
X98187241Y-77631000D01*
X97879959Y-78391000D02*
X98187241Y-78391000D01*
%TO.C,U5*%
X93624000Y-101867500D02*
X93624000Y-101067500D01*
X93624000Y-101867500D02*
X93624000Y-102667500D01*
X96744000Y-101867500D02*
X96744000Y-101067500D01*
X96744000Y-101867500D02*
X96744000Y-102667500D01*
X97024000Y-100807500D02*
X96694000Y-100567500D01*
X97024000Y-100327500D01*
X97024000Y-100807500D01*
G36*
X97024000Y-100807500D02*
G01*
X96694000Y-100567500D01*
X97024000Y-100327500D01*
X97024000Y-100807500D01*
G37*
D13*
%TO.C,U1*%
X65393200Y-119360000D02*
X117893200Y-119360000D01*
X65393200Y-131110000D02*
X65393200Y-119360000D01*
X67313200Y-134730000D02*
X68453200Y-134730000D01*
X67313200Y-135360000D02*
X67313200Y-134730000D01*
X68203200Y-136250000D02*
X67313200Y-135360000D01*
X68453200Y-134730000D02*
X68453200Y-131300000D01*
X69343200Y-131300000D02*
X69343200Y-136250000D01*
X69343200Y-136250000D02*
X68203200Y-136250000D01*
X74313200Y-131110000D02*
X65393200Y-131110000D01*
X74313200Y-131110000D02*
X74313200Y-136260000D01*
X74313200Y-136260000D02*
X108993200Y-136260000D01*
X108963200Y-131110000D02*
X74313200Y-131110000D01*
X108963200Y-131110000D02*
X117893200Y-131110000D01*
X108993200Y-131110000D02*
X108963200Y-131110000D01*
X108993200Y-136260000D02*
X108993200Y-131110000D01*
X113553200Y-131300000D02*
X113553200Y-136250000D01*
X113553200Y-136250000D02*
X114703200Y-136250000D01*
X114443200Y-134730000D02*
X114443200Y-131300000D01*
X114703200Y-136250000D02*
X115593200Y-135360000D01*
X115593200Y-134730000D02*
X114443200Y-134730000D01*
X115593200Y-135360000D02*
X115593200Y-134730000D01*
X117893200Y-131110000D02*
X117893200Y-119360000D01*
D14*
X107003200Y-118460000D02*
G75*
G02*
X106803200Y-118460000I-100000J0D01*
G01*
X106803200Y-118460000D02*
G75*
G02*
X107003200Y-118460000I100000J0D01*
G01*
D12*
%TO.C,C9*%
X97353400Y-84310166D02*
X97353400Y-84541836D01*
X98073400Y-84310166D02*
X98073400Y-84541836D01*
%TO.C,U22*%
X78860600Y-53623200D02*
X78860600Y-57383200D01*
X78860600Y-57383200D02*
X80120600Y-57383200D01*
X85680600Y-53623200D02*
X85680600Y-57383200D01*
X85680600Y-57383200D02*
X84420600Y-57383200D01*
X85910600Y-52583200D02*
X85580600Y-52343200D01*
X85910600Y-52103200D01*
X85910600Y-52583200D01*
G36*
X85910600Y-52583200D02*
G01*
X85580600Y-52343200D01*
X85910600Y-52103200D01*
X85910600Y-52583200D01*
G37*
%TO.C,C8*%
X97344500Y-88472166D02*
X97344500Y-88703836D01*
X98064500Y-88472166D02*
X98064500Y-88703836D01*
%TO.C,R17*%
X104645959Y-52701000D02*
X104953241Y-52701000D01*
X104645959Y-53461000D02*
X104953241Y-53461000D01*
%TO.C,R21*%
X107813059Y-92965000D02*
X108120341Y-92965000D01*
X107813059Y-93725000D02*
X108120341Y-93725000D01*
%TO.C,C13*%
X97352300Y-67698166D02*
X97352300Y-67929836D01*
X98072300Y-67698166D02*
X98072300Y-67929836D01*
%TO.C,C17*%
X104109400Y-51060166D02*
X104109400Y-51291836D01*
X104829400Y-51060166D02*
X104829400Y-51291836D01*
%TO.C,U7*%
X93645100Y-93504500D02*
X93645100Y-92704500D01*
X93645100Y-93504500D02*
X93645100Y-94304500D01*
X96765100Y-93504500D02*
X96765100Y-92704500D01*
X96765100Y-93504500D02*
X96765100Y-94304500D01*
X97045100Y-92444500D02*
X96715100Y-92204500D01*
X97045100Y-91964500D01*
X97045100Y-92444500D01*
G36*
X97045100Y-92444500D02*
G01*
X96715100Y-92204500D01*
X97045100Y-91964500D01*
X97045100Y-92444500D01*
G37*
%TO.C,R5*%
X97859959Y-102636000D02*
X98167241Y-102636000D01*
X97859959Y-103396000D02*
X98167241Y-103396000D01*
%TO.C,R1*%
X119349436Y-111249050D02*
X120803564Y-111249050D01*
X119349436Y-113069050D02*
X120803564Y-113069050D01*
%TO.C,C14*%
X104100100Y-63550166D02*
X104100100Y-63781836D01*
X104820100Y-63550166D02*
X104820100Y-63781836D01*
%TO.C,C16*%
X104109400Y-55230166D02*
X104109400Y-55461836D01*
X104829400Y-55230166D02*
X104829400Y-55461836D01*
%TO.C,C23*%
X86415600Y-45543200D02*
X86415600Y-49453200D01*
X88285600Y-45543200D02*
X86415600Y-45543200D01*
X88285600Y-49453200D02*
X88285600Y-45543200D01*
%TO.C,U2*%
X93637200Y-114485900D02*
X93637200Y-113685900D01*
X93637200Y-114485900D02*
X93637200Y-115285900D01*
X96757200Y-114485900D02*
X96757200Y-113685900D01*
X96757200Y-114485900D02*
X96757200Y-115285900D01*
X97037200Y-113425900D02*
X96707200Y-113185900D01*
X97037200Y-112945900D01*
X97037200Y-113425900D01*
G36*
X97037200Y-113425900D02*
G01*
X96707200Y-113185900D01*
X97037200Y-112945900D01*
X97037200Y-113425900D01*
G37*
%TO.C,R15*%
X104645959Y-61051000D02*
X104953241Y-61051000D01*
X104645959Y-61811000D02*
X104953241Y-61811000D01*
%TO.C,U18*%
X103294600Y-75080000D02*
X103294600Y-74280000D01*
X103294600Y-75080000D02*
X103294600Y-75880000D01*
X106414600Y-75080000D02*
X106414600Y-74280000D01*
X106414600Y-75080000D02*
X106414600Y-75880000D01*
X106694600Y-74020000D02*
X106364600Y-73780000D01*
X106694600Y-73540000D01*
X106694600Y-74020000D01*
G36*
X106694600Y-74020000D02*
G01*
X106364600Y-73780000D01*
X106694600Y-73540000D01*
X106694600Y-74020000D01*
G37*
%TO.C,R7*%
X97881059Y-94273000D02*
X98188341Y-94273000D01*
X97881059Y-95033000D02*
X98188341Y-95033000D01*
%TO.C,C11*%
X97343400Y-75990166D02*
X97343400Y-76221836D01*
X98063400Y-75990166D02*
X98063400Y-76221836D01*
%TO.C,U11*%
X93644000Y-76862500D02*
X93644000Y-76062500D01*
X93644000Y-76862500D02*
X93644000Y-77662500D01*
X96764000Y-76862500D02*
X96764000Y-76062500D01*
X96764000Y-76862500D02*
X96764000Y-77662500D01*
X97044000Y-75802500D02*
X96714000Y-75562500D01*
X97044000Y-75322500D01*
X97044000Y-75802500D01*
G36*
X97044000Y-75802500D02*
G01*
X96714000Y-75562500D01*
X97044000Y-75322500D01*
X97044000Y-75802500D01*
G37*
%TO.C,C20*%
X107003800Y-69353166D02*
X107003800Y-69584836D01*
X107723800Y-69353166D02*
X107723800Y-69584836D01*
%TO.C,R9*%
X97889959Y-85951000D02*
X98197241Y-85951000D01*
X97889959Y-86711000D02*
X98197241Y-86711000D01*
%TO.C,C12*%
X97342300Y-71848166D02*
X97342300Y-72079836D01*
X98062300Y-71848166D02*
X98062300Y-72079836D01*
%TO.C,C10*%
X97344500Y-80152166D02*
X97344500Y-80383836D01*
X98064500Y-80152166D02*
X98064500Y-80383836D01*
%TO.C,U9*%
X93654000Y-85182500D02*
X93654000Y-84382500D01*
X93654000Y-85182500D02*
X93654000Y-85982500D01*
X96774000Y-85182500D02*
X96774000Y-84382500D01*
X96774000Y-85182500D02*
X96774000Y-85982500D01*
X97054000Y-84122500D02*
X96724000Y-83882500D01*
X97054000Y-83642500D01*
X97054000Y-84122500D01*
G36*
X97054000Y-84122500D02*
G01*
X96724000Y-83882500D01*
X97054000Y-83642500D01*
X97054000Y-84122500D01*
G37*
%TO.C,C19*%
X106975400Y-78889166D02*
X106975400Y-79120836D01*
X107695400Y-78889166D02*
X107695400Y-79120836D01*
%TO.C,R14*%
X104636659Y-65191000D02*
X104943941Y-65191000D01*
X104636659Y-65951000D02*
X104943941Y-65951000D01*
%TO.C,R16*%
X104645959Y-56871000D02*
X104953241Y-56871000D01*
X104645959Y-57631000D02*
X104953241Y-57631000D01*
%TO.C,R4*%
X97870159Y-106807200D02*
X98177441Y-106807200D01*
X97870159Y-107567200D02*
X98177441Y-107567200D01*
%TO.C,R2*%
X97873159Y-115254400D02*
X98180441Y-115254400D01*
X97873159Y-116014400D02*
X98180441Y-116014400D01*
%TO.C,U3*%
X93635200Y-110218700D02*
X93635200Y-109418700D01*
X93635200Y-110218700D02*
X93635200Y-111018700D01*
X96755200Y-110218700D02*
X96755200Y-109418700D01*
X96755200Y-110218700D02*
X96755200Y-111018700D01*
X97035200Y-109158700D02*
X96705200Y-108918700D01*
X97035200Y-108678700D01*
X97035200Y-109158700D01*
G36*
X97035200Y-109158700D02*
G01*
X96705200Y-108918700D01*
X97035200Y-108678700D01*
X97035200Y-109158700D01*
G37*
%TO.C,U19*%
X103276000Y-79761500D02*
X103276000Y-78961500D01*
X103276000Y-79761500D02*
X103276000Y-80561500D01*
X106396000Y-79761500D02*
X106396000Y-78961500D01*
X106396000Y-79761500D02*
X106396000Y-80561500D01*
X106676000Y-78701500D02*
X106346000Y-78461500D01*
X106676000Y-78221500D01*
X106676000Y-78701500D01*
G36*
X106676000Y-78701500D02*
G01*
X106346000Y-78461500D01*
X106676000Y-78221500D01*
X106676000Y-78701500D01*
G37*
%TO.C,C21*%
X107276500Y-91324166D02*
X107276500Y-91555836D01*
X107996500Y-91324166D02*
X107996500Y-91555836D01*
%TO.C,R3*%
X97871159Y-110987200D02*
X98178441Y-110987200D01*
X97871159Y-111747200D02*
X98178441Y-111747200D01*
%TO.C,U15*%
X100410000Y-60282500D02*
X100410000Y-59482500D01*
X100410000Y-60282500D02*
X100410000Y-61082500D01*
X103530000Y-60282500D02*
X103530000Y-59482500D01*
X103530000Y-60282500D02*
X103530000Y-61082500D01*
X103810000Y-59222500D02*
X103480000Y-58982500D01*
X103810000Y-58742500D01*
X103810000Y-59222500D01*
G36*
X103810000Y-59222500D02*
G01*
X103480000Y-58982500D01*
X103810000Y-58742500D01*
X103810000Y-59222500D01*
G37*
%TO.C,U20*%
X103304400Y-70225500D02*
X103304400Y-69425500D01*
X103304400Y-70225500D02*
X103304400Y-71025500D01*
X106424400Y-70225500D02*
X106424400Y-69425500D01*
X106424400Y-70225500D02*
X106424400Y-71025500D01*
X106704400Y-69165500D02*
X106374400Y-68925500D01*
X106704400Y-68685500D01*
X106704400Y-69165500D01*
G36*
X106704400Y-69165500D02*
G01*
X106374400Y-68925500D01*
X106704400Y-68685500D01*
X106704400Y-69165500D01*
G37*
%TO.C,U12*%
X93642900Y-72720500D02*
X93642900Y-71920500D01*
X93642900Y-72720500D02*
X93642900Y-73520500D01*
X96762900Y-72720500D02*
X96762900Y-71920500D01*
X96762900Y-72720500D02*
X96762900Y-73520500D01*
X97042900Y-71660500D02*
X96712900Y-71420500D01*
X97042900Y-71180500D01*
X97042900Y-71660500D01*
G36*
X97042900Y-71660500D02*
G01*
X96712900Y-71420500D01*
X97042900Y-71180500D01*
X97042900Y-71660500D01*
G37*
%TO.C,C5*%
X97323400Y-100995166D02*
X97323400Y-101226836D01*
X98043400Y-100995166D02*
X98043400Y-101226836D01*
%TD*%
M02*
