%TF.GenerationSoftware,KiCad,Pcbnew,8.0.4*%
%TF.CreationDate,2024-12-14T22:45:06+01:00*%
%TF.ProjectId,SpicyLightFX3,53706963-794c-4696-9768-744658332e6b,rev?*%
%TF.SameCoordinates,Original*%
%TF.FileFunction,Drillmap*%
%TF.FilePolarity,Positive*%
%FSLAX45Y45*%
G04 Gerber Fmt 4.5, Leading zero omitted, Abs format (unit mm)*
G04 Created by KiCad (PCBNEW 8.0.4) date 2024-12-14 22:45:06*
%MOMM*%
%LPD*%
G01*
G04 APERTURE LIST*
%ADD10C,0.050000*%
%ADD11C,0.200000*%
%ADD12C,0.100000*%
%ADD13C,0.282000*%
G04 APERTURE END LIST*
D10*
X5842000Y-3048000D02*
X12446000Y-3048000D01*
X12446000Y-12954000D01*
X5842000Y-12954000D01*
X5842000Y-3048000D01*
X11387040Y-11135360D02*
G75*
G02*
X11097040Y-11135360I-145000J0D01*
G01*
X11097040Y-11135360D02*
G75*
G02*
X11387040Y-11135360I145000J0D01*
G01*
X11387040Y-3708400D02*
G75*
G02*
X11097040Y-3708400I-145000J0D01*
G01*
X11097040Y-3708400D02*
G75*
G02*
X11387040Y-3708400I145000J0D01*
G01*
X7202500Y-3707500D02*
G75*
G02*
X6912500Y-3707500I-145000J0D01*
G01*
X6912500Y-3707500D02*
G75*
G02*
X7202500Y-3707500I145000J0D01*
G01*
X7201120Y-11135360D02*
G75*
G02*
X6911120Y-11135360I-145000J0D01*
G01*
X6911120Y-11135360D02*
G75*
G02*
X7201120Y-11135360I145000J0D01*
G01*
D11*
D12*
X7552340Y-10802860D02*
X7582340Y-10832860D01*
X7582340Y-10802860D02*
X7552340Y-10832860D01*
X7637340Y-10802860D02*
X7667340Y-10832860D01*
X7667340Y-10802860D02*
X7637340Y-10832860D01*
X7946040Y-10807940D02*
X7976040Y-10837940D01*
X7976040Y-10807940D02*
X7946040Y-10837940D01*
X7960000Y-4785000D02*
X7990000Y-4815000D01*
X7990000Y-4785000D02*
X7960000Y-4815000D01*
X7960000Y-4985000D02*
X7990000Y-5015000D01*
X7990000Y-4985000D02*
X7960000Y-5015000D01*
X7960000Y-5060000D02*
X7990000Y-5090000D01*
X7990000Y-5060000D02*
X7960000Y-5090000D01*
X8031040Y-10807940D02*
X8061040Y-10837940D01*
X8061040Y-10807940D02*
X8031040Y-10837940D01*
X8110460Y-4770320D02*
X8140460Y-4800320D01*
X8140460Y-4770320D02*
X8110460Y-4800320D01*
X8212060Y-5405320D02*
X8242060Y-5435320D01*
X8242060Y-5405320D02*
X8212060Y-5435320D01*
X8212060Y-5506920D02*
X8242060Y-5536920D01*
X8242060Y-5506920D02*
X8212060Y-5536920D01*
X8212060Y-5608520D02*
X8242060Y-5638520D01*
X8242060Y-5608520D02*
X8212060Y-5638520D01*
X8212060Y-5710120D02*
X8242060Y-5740120D01*
X8242060Y-5710120D02*
X8212060Y-5740120D01*
X8262860Y-5049720D02*
X8292860Y-5079720D01*
X8292860Y-5049720D02*
X8262860Y-5079720D01*
X8313660Y-4897320D02*
X8343660Y-4927320D01*
X8343660Y-4897320D02*
X8313660Y-4927320D01*
X8364460Y-4744920D02*
X8394460Y-4774920D01*
X8394460Y-4744920D02*
X8364460Y-4774920D01*
X8440660Y-5049720D02*
X8470660Y-5079720D01*
X8470660Y-5049720D02*
X8440660Y-5079720D01*
X8514748Y-11105548D02*
X8544748Y-11135548D01*
X8544748Y-11105548D02*
X8514748Y-11135548D01*
X8567660Y-4643320D02*
X8597660Y-4673320D01*
X8597660Y-4643320D02*
X8567660Y-4673320D01*
X8567660Y-4897320D02*
X8597660Y-4927320D01*
X8597660Y-4897320D02*
X8567660Y-4927320D01*
X8574852Y-11165652D02*
X8604852Y-11195652D01*
X8604852Y-11165652D02*
X8574852Y-11195652D01*
X8819548Y-11334148D02*
X8849548Y-11364148D01*
X8849548Y-11334148D02*
X8819548Y-11364148D01*
X8879652Y-11394252D02*
X8909652Y-11424252D01*
X8909652Y-11394252D02*
X8879652Y-11424252D01*
X9149748Y-11207148D02*
X9179748Y-11237148D01*
X9179748Y-11207148D02*
X9149748Y-11237148D01*
X9209852Y-11267252D02*
X9239852Y-11297252D01*
X9239852Y-11267252D02*
X9209852Y-11297252D01*
X9677140Y-10032600D02*
X9707140Y-10062600D01*
X9707140Y-10032600D02*
X9677140Y-10062600D01*
X9677140Y-10146900D02*
X9707140Y-10176900D01*
X9707140Y-10146900D02*
X9677140Y-10176900D01*
X9677640Y-6705840D02*
X9707640Y-6735840D01*
X9707640Y-6705840D02*
X9677640Y-6735840D01*
X9678140Y-9616100D02*
X9708140Y-9646100D01*
X9708140Y-9616100D02*
X9678140Y-9646100D01*
X9678140Y-9730400D02*
X9708140Y-9760400D01*
X9708140Y-9730400D02*
X9678140Y-9760400D01*
X9678160Y-10449720D02*
X9708160Y-10479720D01*
X9708160Y-10449720D02*
X9678160Y-10479720D01*
X9678160Y-10564020D02*
X9708160Y-10594020D01*
X9708160Y-10564020D02*
X9678160Y-10594020D01*
X9678260Y-10867720D02*
X9708260Y-10897720D01*
X9708260Y-10867720D02*
X9678260Y-10897720D01*
X9678260Y-10982020D02*
X9708260Y-11012020D01*
X9708260Y-10982020D02*
X9678260Y-11012020D01*
X9678460Y-11294440D02*
X9708460Y-11324440D01*
X9708460Y-11294440D02*
X9678460Y-11324440D01*
X9678460Y-11408740D02*
X9708460Y-11438740D01*
X9708460Y-11408740D02*
X9678460Y-11438740D01*
X9679030Y-7117900D02*
X9709030Y-7147900D01*
X9709030Y-7117900D02*
X9679030Y-7147900D01*
X9679030Y-7232200D02*
X9709030Y-7262200D01*
X9709030Y-7232200D02*
X9679030Y-7262200D01*
X9679140Y-7532100D02*
X9709140Y-7562100D01*
X9709140Y-7532100D02*
X9679140Y-7562100D01*
X9679140Y-7646400D02*
X9709140Y-7676400D01*
X9709140Y-7646400D02*
X9679140Y-7676400D01*
X9679250Y-7948300D02*
X9709250Y-7978300D01*
X9709250Y-7948300D02*
X9679250Y-7978300D01*
X9679250Y-8062600D02*
X9709250Y-8092600D01*
X9709250Y-8062600D02*
X9679250Y-8092600D01*
X9679250Y-8780300D02*
X9709250Y-8810300D01*
X9709250Y-8780300D02*
X9679250Y-8810300D01*
X9679250Y-8894600D02*
X9709250Y-8924600D01*
X9709250Y-8894600D02*
X9679250Y-8924600D01*
X9679250Y-9196300D02*
X9709250Y-9226300D01*
X9709250Y-9196300D02*
X9679250Y-9226300D01*
X9679250Y-9310600D02*
X9709250Y-9340600D01*
X9709250Y-9310600D02*
X9679250Y-9340600D01*
X9680030Y-6817200D02*
X9710030Y-6847200D01*
X9710030Y-6817200D02*
X9680030Y-6847200D01*
X9680140Y-8364100D02*
X9710140Y-8394100D01*
X9710140Y-8364100D02*
X9680140Y-8394100D01*
X9680140Y-8478400D02*
X9710140Y-8508400D01*
X9710140Y-8478400D02*
X9680140Y-8508400D01*
X9825000Y-9129000D02*
X9855000Y-9159000D01*
X9855000Y-9129000D02*
X9825000Y-9159000D01*
X9835120Y-5970750D02*
X9865120Y-6000750D01*
X9865120Y-5970750D02*
X9835120Y-6000750D01*
X9835120Y-6055750D02*
X9865120Y-6085750D01*
X9865120Y-6055750D02*
X9835120Y-6085750D01*
X9842740Y-6384750D02*
X9872740Y-6414750D01*
X9872740Y-6384750D02*
X9842740Y-6414750D01*
X9842740Y-6469750D02*
X9872740Y-6499750D01*
X9872740Y-6469750D02*
X9842740Y-6499750D01*
X9845280Y-5552750D02*
X9875280Y-5582750D01*
X9875280Y-5552750D02*
X9845280Y-5582750D01*
X9845280Y-5637750D02*
X9875280Y-5667750D01*
X9875280Y-5637750D02*
X9845280Y-5667750D01*
X9860520Y-5135750D02*
X9890520Y-5165750D01*
X9890520Y-5135750D02*
X9860520Y-5165750D01*
X9860520Y-5220750D02*
X9890520Y-5250750D01*
X9890520Y-5220750D02*
X9860520Y-5250750D01*
X10084468Y-7971188D02*
X10114468Y-8001188D01*
X10114468Y-7971188D02*
X10084468Y-8001188D01*
X10144572Y-8031292D02*
X10174572Y-8061292D01*
X10174572Y-8031292D02*
X10144572Y-8061292D01*
X10206388Y-7498748D02*
X10236388Y-7528748D01*
X10236388Y-7498748D02*
X10206388Y-7528748D01*
X10261800Y-6965050D02*
X10291800Y-6995050D01*
X10291800Y-6965050D02*
X10261800Y-6995050D01*
X10261800Y-7050050D02*
X10291800Y-7080050D01*
X10291800Y-7050050D02*
X10261800Y-7080050D01*
X10266492Y-7558852D02*
X10296492Y-7588852D01*
X10296492Y-7558852D02*
X10266492Y-7588852D01*
X10354810Y-6288100D02*
X10384810Y-6318100D01*
X10384810Y-6288100D02*
X10354810Y-6318100D01*
X10354810Y-6402400D02*
X10384810Y-6432400D01*
X10384810Y-6402400D02*
X10354810Y-6432400D01*
X10355740Y-5039100D02*
X10385740Y-5069100D01*
X10385740Y-5039100D02*
X10355740Y-5069100D01*
X10355740Y-5153400D02*
X10385740Y-5183400D01*
X10385740Y-5153400D02*
X10355740Y-5183400D01*
X10355740Y-5456100D02*
X10385740Y-5486100D01*
X10385740Y-5456100D02*
X10355740Y-5486100D01*
X10355740Y-5570400D02*
X10385740Y-5600400D01*
X10385740Y-5570400D02*
X10355740Y-5600400D01*
X10355740Y-5874100D02*
X10385740Y-5904100D01*
X10385740Y-5874100D02*
X10355740Y-5904100D01*
X10355740Y-5988400D02*
X10385740Y-6018400D01*
X10385740Y-5988400D02*
X10355740Y-6018400D01*
X10419748Y-11871772D02*
X10449748Y-11901772D01*
X10449748Y-11871772D02*
X10419748Y-11901772D01*
X10479852Y-11811668D02*
X10509852Y-11841668D01*
X10509852Y-11811668D02*
X10479852Y-11841668D01*
X10531080Y-9528460D02*
X10561080Y-9558460D01*
X10561080Y-9528460D02*
X10531080Y-9558460D01*
X10531080Y-9613460D02*
X10561080Y-9643460D01*
X10561080Y-9613460D02*
X10531080Y-9643460D01*
X10642340Y-7822000D02*
X10672340Y-7852000D01*
X10672340Y-7822000D02*
X10642340Y-7852000D01*
X10642340Y-7936300D02*
X10672340Y-7966300D01*
X10672340Y-7936300D02*
X10642340Y-7966300D01*
X10644200Y-7353850D02*
X10674200Y-7383850D01*
X10674200Y-7353850D02*
X10644200Y-7383850D01*
X10644200Y-7468150D02*
X10674200Y-7498150D01*
X10674200Y-7468150D02*
X10644200Y-7498150D01*
X10645180Y-6868400D02*
X10675180Y-6898400D01*
X10675180Y-6868400D02*
X10645180Y-6898400D01*
X10645180Y-6982700D02*
X10675180Y-7012700D01*
X10675180Y-6982700D02*
X10645180Y-7012700D01*
X10672450Y-9065500D02*
X10702450Y-9095500D01*
X10702450Y-9065500D02*
X10672450Y-9095500D01*
X10672450Y-9179800D02*
X10702450Y-9209800D01*
X10702450Y-9179800D02*
X10672450Y-9209800D01*
X10793380Y-10556480D02*
X10823380Y-10586480D01*
X10823380Y-10556480D02*
X10793380Y-10586480D01*
X10830800Y-5268200D02*
X10860800Y-5298200D01*
X10860800Y-5268200D02*
X10830800Y-5298200D01*
X10830800Y-5623800D02*
X10860800Y-5653800D01*
X10860800Y-5623800D02*
X10830800Y-5653800D01*
X10878380Y-10556480D02*
X10908380Y-10586480D01*
X10908380Y-10556480D02*
X10878380Y-10586480D01*
X11008784Y-10557942D02*
X11038784Y-10587942D01*
X11038784Y-10557942D02*
X11008784Y-10587942D01*
X11093784Y-10557942D02*
X11123784Y-10587942D01*
X11123784Y-10557942D02*
X11093784Y-10587942D01*
X11245500Y-10556480D02*
X11275500Y-10586480D01*
X11275500Y-10556480D02*
X11245500Y-10586480D01*
X11330500Y-10556480D02*
X11360500Y-10586480D01*
X11360500Y-10556480D02*
X11330500Y-10586480D01*
X11479180Y-10561560D02*
X11509180Y-10591560D01*
X11509180Y-10561560D02*
X11479180Y-10591560D01*
X11564180Y-10561560D02*
X11594180Y-10591560D01*
X11594180Y-10561560D02*
X11564180Y-10591560D01*
X12145000Y-11195000D02*
X12175000Y-11225000D01*
X12175000Y-11195000D02*
X12145000Y-11225000D01*
X12145000Y-11335000D02*
X12175000Y-11365000D01*
X12175000Y-11335000D02*
X12145000Y-11365000D01*
X12145000Y-11465000D02*
X12175000Y-11495000D01*
X12175000Y-11465000D02*
X12145000Y-11495000D01*
X7683320Y-12066000D02*
G75*
G02*
X7597320Y-12066000I-43000J0D01*
G01*
X7597320Y-12066000D02*
G75*
G02*
X7683320Y-12066000I43000J0D01*
G01*
X7683320Y-12446000D02*
G75*
G02*
X7597320Y-12446000I-43000J0D01*
G01*
X7597320Y-12446000D02*
G75*
G02*
X7683320Y-12446000I43000J0D01*
G01*
X7810320Y-12256000D02*
G75*
G02*
X7724320Y-12256000I-43000J0D01*
G01*
X7724320Y-12256000D02*
G75*
G02*
X7810320Y-12256000I43000J0D01*
G01*
X7810320Y-12636000D02*
G75*
G02*
X7724320Y-12636000I-43000J0D01*
G01*
X7724320Y-12636000D02*
G75*
G02*
X7810320Y-12636000I43000J0D01*
G01*
X7937320Y-12066000D02*
G75*
G02*
X7851320Y-12066000I-43000J0D01*
G01*
X7851320Y-12066000D02*
G75*
G02*
X7937320Y-12066000I43000J0D01*
G01*
X7937320Y-12446000D02*
G75*
G02*
X7851320Y-12446000I-43000J0D01*
G01*
X7851320Y-12446000D02*
G75*
G02*
X7937320Y-12446000I43000J0D01*
G01*
X8064320Y-12256000D02*
G75*
G02*
X7978320Y-12256000I-43000J0D01*
G01*
X7978320Y-12256000D02*
G75*
G02*
X8064320Y-12256000I43000J0D01*
G01*
X8064320Y-12636000D02*
G75*
G02*
X7978320Y-12636000I-43000J0D01*
G01*
X7978320Y-12636000D02*
G75*
G02*
X8064320Y-12636000I43000J0D01*
G01*
X8191320Y-12066000D02*
G75*
G02*
X8105320Y-12066000I-43000J0D01*
G01*
X8105320Y-12066000D02*
G75*
G02*
X8191320Y-12066000I43000J0D01*
G01*
X8191320Y-12446000D02*
G75*
G02*
X8105320Y-12446000I-43000J0D01*
G01*
X8105320Y-12446000D02*
G75*
G02*
X8191320Y-12446000I43000J0D01*
G01*
X8318320Y-12256000D02*
G75*
G02*
X8232320Y-12256000I-43000J0D01*
G01*
X8232320Y-12256000D02*
G75*
G02*
X8318320Y-12256000I43000J0D01*
G01*
X8318320Y-12636000D02*
G75*
G02*
X8232320Y-12636000I-43000J0D01*
G01*
X8232320Y-12636000D02*
G75*
G02*
X8318320Y-12636000I43000J0D01*
G01*
X8445320Y-12066000D02*
G75*
G02*
X8359320Y-12066000I-43000J0D01*
G01*
X8359320Y-12066000D02*
G75*
G02*
X8445320Y-12066000I43000J0D01*
G01*
X8445320Y-12446000D02*
G75*
G02*
X8359320Y-12446000I-43000J0D01*
G01*
X8359320Y-12446000D02*
G75*
G02*
X8445320Y-12446000I43000J0D01*
G01*
X8572320Y-12256000D02*
G75*
G02*
X8486320Y-12256000I-43000J0D01*
G01*
X8486320Y-12256000D02*
G75*
G02*
X8572320Y-12256000I43000J0D01*
G01*
X8572320Y-12636000D02*
G75*
G02*
X8486320Y-12636000I-43000J0D01*
G01*
X8486320Y-12636000D02*
G75*
G02*
X8572320Y-12636000I43000J0D01*
G01*
X8699320Y-12066000D02*
G75*
G02*
X8613320Y-12066000I-43000J0D01*
G01*
X8613320Y-12066000D02*
G75*
G02*
X8699320Y-12066000I43000J0D01*
G01*
X8699320Y-12446000D02*
G75*
G02*
X8613320Y-12446000I-43000J0D01*
G01*
X8613320Y-12446000D02*
G75*
G02*
X8699320Y-12446000I43000J0D01*
G01*
X8826320Y-12256000D02*
G75*
G02*
X8740320Y-12256000I-43000J0D01*
G01*
X8740320Y-12256000D02*
G75*
G02*
X8826320Y-12256000I43000J0D01*
G01*
X8826320Y-12636000D02*
G75*
G02*
X8740320Y-12636000I-43000J0D01*
G01*
X8740320Y-12636000D02*
G75*
G02*
X8826320Y-12636000I43000J0D01*
G01*
X8953320Y-12066000D02*
G75*
G02*
X8867320Y-12066000I-43000J0D01*
G01*
X8867320Y-12066000D02*
G75*
G02*
X8953320Y-12066000I43000J0D01*
G01*
X8953320Y-12446000D02*
G75*
G02*
X8867320Y-12446000I-43000J0D01*
G01*
X8867320Y-12446000D02*
G75*
G02*
X8953320Y-12446000I43000J0D01*
G01*
X9080320Y-12256000D02*
G75*
G02*
X8994320Y-12256000I-43000J0D01*
G01*
X8994320Y-12256000D02*
G75*
G02*
X9080320Y-12256000I43000J0D01*
G01*
X9080320Y-12636000D02*
G75*
G02*
X8994320Y-12636000I-43000J0D01*
G01*
X8994320Y-12636000D02*
G75*
G02*
X9080320Y-12636000I43000J0D01*
G01*
X9207320Y-12066000D02*
G75*
G02*
X9121320Y-12066000I-43000J0D01*
G01*
X9121320Y-12066000D02*
G75*
G02*
X9207320Y-12066000I43000J0D01*
G01*
X9207320Y-12446000D02*
G75*
G02*
X9121320Y-12446000I-43000J0D01*
G01*
X9121320Y-12446000D02*
G75*
G02*
X9207320Y-12446000I43000J0D01*
G01*
X9334320Y-12256000D02*
G75*
G02*
X9248320Y-12256000I-43000J0D01*
G01*
X9248320Y-12256000D02*
G75*
G02*
X9334320Y-12256000I43000J0D01*
G01*
X9334320Y-12636000D02*
G75*
G02*
X9248320Y-12636000I-43000J0D01*
G01*
X9248320Y-12636000D02*
G75*
G02*
X9334320Y-12636000I43000J0D01*
G01*
X9461320Y-12066000D02*
G75*
G02*
X9375320Y-12066000I-43000J0D01*
G01*
X9375320Y-12066000D02*
G75*
G02*
X9461320Y-12066000I43000J0D01*
G01*
X9461320Y-12446000D02*
G75*
G02*
X9375320Y-12446000I-43000J0D01*
G01*
X9375320Y-12446000D02*
G75*
G02*
X9461320Y-12446000I43000J0D01*
G01*
X9588320Y-12256000D02*
G75*
G02*
X9502320Y-12256000I-43000J0D01*
G01*
X9502320Y-12256000D02*
G75*
G02*
X9588320Y-12256000I43000J0D01*
G01*
X9588320Y-12636000D02*
G75*
G02*
X9502320Y-12636000I-43000J0D01*
G01*
X9502320Y-12636000D02*
G75*
G02*
X9588320Y-12636000I43000J0D01*
G01*
X9715320Y-12066000D02*
G75*
G02*
X9629320Y-12066000I-43000J0D01*
G01*
X9629320Y-12066000D02*
G75*
G02*
X9715320Y-12066000I43000J0D01*
G01*
X9715320Y-12446000D02*
G75*
G02*
X9629320Y-12446000I-43000J0D01*
G01*
X9629320Y-12446000D02*
G75*
G02*
X9715320Y-12446000I43000J0D01*
G01*
X9842320Y-12256000D02*
G75*
G02*
X9756320Y-12256000I-43000J0D01*
G01*
X9756320Y-12256000D02*
G75*
G02*
X9842320Y-12256000I43000J0D01*
G01*
X9842320Y-12636000D02*
G75*
G02*
X9756320Y-12636000I-43000J0D01*
G01*
X9756320Y-12636000D02*
G75*
G02*
X9842320Y-12636000I43000J0D01*
G01*
X9969320Y-12066000D02*
G75*
G02*
X9883320Y-12066000I-43000J0D01*
G01*
X9883320Y-12066000D02*
G75*
G02*
X9969320Y-12066000I43000J0D01*
G01*
X9969320Y-12446000D02*
G75*
G02*
X9883320Y-12446000I-43000J0D01*
G01*
X9883320Y-12446000D02*
G75*
G02*
X9969320Y-12446000I43000J0D01*
G01*
X10096320Y-12256000D02*
G75*
G02*
X10010320Y-12256000I-43000J0D01*
G01*
X10010320Y-12256000D02*
G75*
G02*
X10096320Y-12256000I43000J0D01*
G01*
X10096320Y-12636000D02*
G75*
G02*
X10010320Y-12636000I-43000J0D01*
G01*
X10010320Y-12636000D02*
G75*
G02*
X10096320Y-12636000I43000J0D01*
G01*
X10223320Y-12066000D02*
G75*
G02*
X10137320Y-12066000I-43000J0D01*
G01*
X10137320Y-12066000D02*
G75*
G02*
X10223320Y-12066000I43000J0D01*
G01*
X10223320Y-12446000D02*
G75*
G02*
X10137320Y-12446000I-43000J0D01*
G01*
X10137320Y-12446000D02*
G75*
G02*
X10223320Y-12446000I43000J0D01*
G01*
X10350320Y-12256000D02*
G75*
G02*
X10264320Y-12256000I-43000J0D01*
G01*
X10264320Y-12256000D02*
G75*
G02*
X10350320Y-12256000I43000J0D01*
G01*
X10350320Y-12636000D02*
G75*
G02*
X10264320Y-12636000I-43000J0D01*
G01*
X10264320Y-12636000D02*
G75*
G02*
X10350320Y-12636000I43000J0D01*
G01*
X10477320Y-12066000D02*
G75*
G02*
X10391320Y-12066000I-43000J0D01*
G01*
X10391320Y-12066000D02*
G75*
G02*
X10477320Y-12066000I43000J0D01*
G01*
X10477320Y-12446000D02*
G75*
G02*
X10391320Y-12446000I-43000J0D01*
G01*
X10391320Y-12446000D02*
G75*
G02*
X10477320Y-12446000I43000J0D01*
G01*
X10604320Y-12256000D02*
G75*
G02*
X10518320Y-12256000I-43000J0D01*
G01*
X10518320Y-12256000D02*
G75*
G02*
X10604320Y-12256000I43000J0D01*
G01*
X10604320Y-12636000D02*
G75*
G02*
X10518320Y-12636000I-43000J0D01*
G01*
X10518320Y-12636000D02*
G75*
G02*
X10604320Y-12636000I43000J0D01*
G01*
X10731320Y-12066000D02*
G75*
G02*
X10645320Y-12066000I-43000J0D01*
G01*
X10645320Y-12066000D02*
G75*
G02*
X10731320Y-12066000I43000J0D01*
G01*
X10731320Y-12446000D02*
G75*
G02*
X10645320Y-12446000I-43000J0D01*
G01*
X10645320Y-12446000D02*
G75*
G02*
X10731320Y-12446000I43000J0D01*
G01*
X6934200Y-4953800D02*
X6934200Y-5053800D01*
X6884200Y-5003800D02*
X6984200Y-5003800D01*
X6934200Y-5207800D02*
X6934200Y-5307800D01*
X6884200Y-5257800D02*
X6984200Y-5257800D01*
X6934200Y-5461800D02*
X6934200Y-5561800D01*
X6884200Y-5511800D02*
X6984200Y-5511800D01*
X6934200Y-5715800D02*
X6934200Y-5815800D01*
X6884200Y-5765800D02*
X6984200Y-5765800D01*
X6934200Y-5969800D02*
X6934200Y-6069800D01*
X6884200Y-6019800D02*
X6984200Y-6019800D01*
X6934200Y-6223800D02*
X6934200Y-6323800D01*
X6884200Y-6273800D02*
X6984200Y-6273800D01*
X6934200Y-6477800D02*
X6934200Y-6577800D01*
X6884200Y-6527800D02*
X6984200Y-6527800D01*
X6934200Y-6731800D02*
X6934200Y-6831800D01*
X6884200Y-6781800D02*
X6984200Y-6781800D01*
X6934200Y-6985800D02*
X6934200Y-7085800D01*
X6884200Y-7035800D02*
X6984200Y-7035800D01*
X6934200Y-7239800D02*
X6934200Y-7339800D01*
X6884200Y-7289800D02*
X6984200Y-7289800D01*
X6934200Y-7493800D02*
X6934200Y-7593800D01*
X6884200Y-7543800D02*
X6984200Y-7543800D01*
X6934200Y-7747800D02*
X6934200Y-7847800D01*
X6884200Y-7797800D02*
X6984200Y-7797800D01*
X6934200Y-8001800D02*
X6934200Y-8101800D01*
X6884200Y-8051800D02*
X6984200Y-8051800D01*
X6934200Y-8255800D02*
X6934200Y-8355800D01*
X6884200Y-8305800D02*
X6984200Y-8305800D01*
X6934200Y-8509800D02*
X6934200Y-8609800D01*
X6884200Y-8559800D02*
X6984200Y-8559800D01*
X6934200Y-8763800D02*
X6934200Y-8863800D01*
X6884200Y-8813800D02*
X6984200Y-8813800D01*
X6934200Y-9017800D02*
X6934200Y-9117800D01*
X6884200Y-9067800D02*
X6984200Y-9067800D01*
X6934200Y-9271800D02*
X6934200Y-9371800D01*
X6884200Y-9321800D02*
X6984200Y-9321800D01*
X6934200Y-9525800D02*
X6934200Y-9625800D01*
X6884200Y-9575800D02*
X6984200Y-9575800D01*
X6934200Y-9779800D02*
X6934200Y-9879800D01*
X6884200Y-9829800D02*
X6984200Y-9829800D01*
X7188200Y-4953800D02*
X7188200Y-5053800D01*
X7138200Y-5003800D02*
X7238200Y-5003800D01*
X7188200Y-5207800D02*
X7188200Y-5307800D01*
X7138200Y-5257800D02*
X7238200Y-5257800D01*
X7188200Y-5461800D02*
X7188200Y-5561800D01*
X7138200Y-5511800D02*
X7238200Y-5511800D01*
X7188200Y-5715800D02*
X7188200Y-5815800D01*
X7138200Y-5765800D02*
X7238200Y-5765800D01*
X7188200Y-5969800D02*
X7188200Y-6069800D01*
X7138200Y-6019800D02*
X7238200Y-6019800D01*
X7188200Y-6223800D02*
X7188200Y-6323800D01*
X7138200Y-6273800D02*
X7238200Y-6273800D01*
X7188200Y-6477800D02*
X7188200Y-6577800D01*
X7138200Y-6527800D02*
X7238200Y-6527800D01*
X7188200Y-6731800D02*
X7188200Y-6831800D01*
X7138200Y-6781800D02*
X7238200Y-6781800D01*
X7188200Y-6985800D02*
X7188200Y-7085800D01*
X7138200Y-7035800D02*
X7238200Y-7035800D01*
X7188200Y-7239800D02*
X7188200Y-7339800D01*
X7138200Y-7289800D02*
X7238200Y-7289800D01*
X7188200Y-7493800D02*
X7188200Y-7593800D01*
X7138200Y-7543800D02*
X7238200Y-7543800D01*
X7188200Y-7747800D02*
X7188200Y-7847800D01*
X7138200Y-7797800D02*
X7238200Y-7797800D01*
X7188200Y-8001800D02*
X7188200Y-8101800D01*
X7138200Y-8051800D02*
X7238200Y-8051800D01*
X7188200Y-8255800D02*
X7188200Y-8355800D01*
X7138200Y-8305800D02*
X7238200Y-8305800D01*
X7188200Y-8509800D02*
X7188200Y-8609800D01*
X7138200Y-8559800D02*
X7238200Y-8559800D01*
X7188200Y-8763800D02*
X7188200Y-8863800D01*
X7138200Y-8813800D02*
X7238200Y-8813800D01*
X7188200Y-9017800D02*
X7188200Y-9117800D01*
X7138200Y-9067800D02*
X7238200Y-9067800D01*
X7188200Y-9271800D02*
X7188200Y-9371800D01*
X7138200Y-9321800D02*
X7238200Y-9321800D01*
X7188200Y-9525800D02*
X7188200Y-9625800D01*
X7138200Y-9575800D02*
X7238200Y-9575800D01*
X7188200Y-9779800D02*
X7188200Y-9879800D01*
X7138200Y-9829800D02*
X7238200Y-9829800D01*
X11087000Y-4953800D02*
X11087000Y-5053800D01*
X11037000Y-5003800D02*
X11137000Y-5003800D01*
X11087000Y-5207800D02*
X11087000Y-5307800D01*
X11037000Y-5257800D02*
X11137000Y-5257800D01*
X11087000Y-5461800D02*
X11087000Y-5561800D01*
X11037000Y-5511800D02*
X11137000Y-5511800D01*
X11087000Y-5715800D02*
X11087000Y-5815800D01*
X11037000Y-5765800D02*
X11137000Y-5765800D01*
X11087000Y-5969800D02*
X11087000Y-6069800D01*
X11037000Y-6019800D02*
X11137000Y-6019800D01*
X11087000Y-6223800D02*
X11087000Y-6323800D01*
X11037000Y-6273800D02*
X11137000Y-6273800D01*
X11087000Y-6477800D02*
X11087000Y-6577800D01*
X11037000Y-6527800D02*
X11137000Y-6527800D01*
X11087000Y-6731800D02*
X11087000Y-6831800D01*
X11037000Y-6781800D02*
X11137000Y-6781800D01*
X11087000Y-6985800D02*
X11087000Y-7085800D01*
X11037000Y-7035800D02*
X11137000Y-7035800D01*
X11087000Y-7239800D02*
X11087000Y-7339800D01*
X11037000Y-7289800D02*
X11137000Y-7289800D01*
X11087000Y-7493800D02*
X11087000Y-7593800D01*
X11037000Y-7543800D02*
X11137000Y-7543800D01*
X11087000Y-7747800D02*
X11087000Y-7847800D01*
X11037000Y-7797800D02*
X11137000Y-7797800D01*
X11087000Y-8001800D02*
X11087000Y-8101800D01*
X11037000Y-8051800D02*
X11137000Y-8051800D01*
X11087000Y-8255800D02*
X11087000Y-8355800D01*
X11037000Y-8305800D02*
X11137000Y-8305800D01*
X11087000Y-8509800D02*
X11087000Y-8609800D01*
X11037000Y-8559800D02*
X11137000Y-8559800D01*
X11087000Y-8763800D02*
X11087000Y-8863800D01*
X11037000Y-8813800D02*
X11137000Y-8813800D01*
X11087000Y-9017800D02*
X11087000Y-9117800D01*
X11037000Y-9067800D02*
X11137000Y-9067800D01*
X11087000Y-9271800D02*
X11087000Y-9371800D01*
X11037000Y-9321800D02*
X11137000Y-9321800D01*
X11087000Y-9525800D02*
X11087000Y-9625800D01*
X11037000Y-9575800D02*
X11137000Y-9575800D01*
X11087000Y-9779800D02*
X11087000Y-9879800D01*
X11037000Y-9829800D02*
X11137000Y-9829800D01*
X11341000Y-4953800D02*
X11341000Y-5053800D01*
X11291000Y-5003800D02*
X11391000Y-5003800D01*
X11341000Y-5207800D02*
X11341000Y-5307800D01*
X11291000Y-5257800D02*
X11391000Y-5257800D01*
X11341000Y-5461800D02*
X11341000Y-5561800D01*
X11291000Y-5511800D02*
X11391000Y-5511800D01*
X11341000Y-5715800D02*
X11341000Y-5815800D01*
X11291000Y-5765800D02*
X11391000Y-5765800D01*
X11341000Y-5969800D02*
X11341000Y-6069800D01*
X11291000Y-6019800D02*
X11391000Y-6019800D01*
X11341000Y-6223800D02*
X11341000Y-6323800D01*
X11291000Y-6273800D02*
X11391000Y-6273800D01*
X11341000Y-6477800D02*
X11341000Y-6577800D01*
X11291000Y-6527800D02*
X11391000Y-6527800D01*
X11341000Y-6731800D02*
X11341000Y-6831800D01*
X11291000Y-6781800D02*
X11391000Y-6781800D01*
X11341000Y-6985800D02*
X11341000Y-7085800D01*
X11291000Y-7035800D02*
X11391000Y-7035800D01*
X11341000Y-7239800D02*
X11341000Y-7339800D01*
X11291000Y-7289800D02*
X11391000Y-7289800D01*
X11341000Y-7493800D02*
X11341000Y-7593800D01*
X11291000Y-7543800D02*
X11391000Y-7543800D01*
X11341000Y-7747800D02*
X11341000Y-7847800D01*
X11291000Y-7797800D02*
X11391000Y-7797800D01*
X11341000Y-8001800D02*
X11341000Y-8101800D01*
X11291000Y-8051800D02*
X11391000Y-8051800D01*
X11341000Y-8255800D02*
X11341000Y-8355800D01*
X11291000Y-8305800D02*
X11391000Y-8305800D01*
X11341000Y-8509800D02*
X11341000Y-8609800D01*
X11291000Y-8559800D02*
X11391000Y-8559800D01*
X11341000Y-8763800D02*
X11341000Y-8863800D01*
X11291000Y-8813800D02*
X11391000Y-8813800D01*
X11341000Y-9017800D02*
X11341000Y-9117800D01*
X11291000Y-9067800D02*
X11391000Y-9067800D01*
X11341000Y-9271800D02*
X11341000Y-9371800D01*
X11291000Y-9321800D02*
X11391000Y-9321800D01*
X11341000Y-9525800D02*
X11341000Y-9625800D01*
X11291000Y-9575800D02*
X11391000Y-9575800D01*
X11341000Y-9779800D02*
X11341000Y-9879800D01*
X11291000Y-9829800D02*
X11391000Y-9829800D01*
D13*
X6940023Y-12545703D02*
X6940023Y-12346297D01*
X6740617Y-12346297D01*
X6740617Y-12545703D01*
X6940023Y-12545703D01*
X11588023Y-12545703D02*
X11588023Y-12346297D01*
X11388617Y-12346297D01*
X11388617Y-12545703D01*
X11588023Y-12545703D01*
D11*
X6100277Y-13267984D02*
X6100277Y-13067984D01*
X6100277Y-13067984D02*
X6147896Y-13067984D01*
X6147896Y-13067984D02*
X6176467Y-13077508D01*
X6176467Y-13077508D02*
X6195515Y-13096555D01*
X6195515Y-13096555D02*
X6205039Y-13115603D01*
X6205039Y-13115603D02*
X6214562Y-13153698D01*
X6214562Y-13153698D02*
X6214562Y-13182269D01*
X6214562Y-13182269D02*
X6205039Y-13220365D01*
X6205039Y-13220365D02*
X6195515Y-13239412D01*
X6195515Y-13239412D02*
X6176467Y-13258460D01*
X6176467Y-13258460D02*
X6147896Y-13267984D01*
X6147896Y-13267984D02*
X6100277Y-13267984D01*
X6300277Y-13267984D02*
X6300277Y-13134650D01*
X6300277Y-13172746D02*
X6309801Y-13153698D01*
X6309801Y-13153698D02*
X6319324Y-13144174D01*
X6319324Y-13144174D02*
X6338372Y-13134650D01*
X6338372Y-13134650D02*
X6357420Y-13134650D01*
X6424086Y-13267984D02*
X6424086Y-13134650D01*
X6424086Y-13067984D02*
X6414562Y-13077508D01*
X6414562Y-13077508D02*
X6424086Y-13087031D01*
X6424086Y-13087031D02*
X6433610Y-13077508D01*
X6433610Y-13077508D02*
X6424086Y-13067984D01*
X6424086Y-13067984D02*
X6424086Y-13087031D01*
X6547896Y-13267984D02*
X6528848Y-13258460D01*
X6528848Y-13258460D02*
X6519324Y-13239412D01*
X6519324Y-13239412D02*
X6519324Y-13067984D01*
X6652658Y-13267984D02*
X6633610Y-13258460D01*
X6633610Y-13258460D02*
X6624086Y-13239412D01*
X6624086Y-13239412D02*
X6624086Y-13067984D01*
X6881229Y-13267984D02*
X6881229Y-13067984D01*
X6881229Y-13067984D02*
X6947896Y-13210841D01*
X6947896Y-13210841D02*
X7014562Y-13067984D01*
X7014562Y-13067984D02*
X7014562Y-13267984D01*
X7195515Y-13267984D02*
X7195515Y-13163222D01*
X7195515Y-13163222D02*
X7185991Y-13144174D01*
X7185991Y-13144174D02*
X7166943Y-13134650D01*
X7166943Y-13134650D02*
X7128848Y-13134650D01*
X7128848Y-13134650D02*
X7109801Y-13144174D01*
X7195515Y-13258460D02*
X7176467Y-13267984D01*
X7176467Y-13267984D02*
X7128848Y-13267984D01*
X7128848Y-13267984D02*
X7109801Y-13258460D01*
X7109801Y-13258460D02*
X7100277Y-13239412D01*
X7100277Y-13239412D02*
X7100277Y-13220365D01*
X7100277Y-13220365D02*
X7109801Y-13201317D01*
X7109801Y-13201317D02*
X7128848Y-13191793D01*
X7128848Y-13191793D02*
X7176467Y-13191793D01*
X7176467Y-13191793D02*
X7195515Y-13182269D01*
X7290753Y-13134650D02*
X7290753Y-13334650D01*
X7290753Y-13144174D02*
X7309801Y-13134650D01*
X7309801Y-13134650D02*
X7347896Y-13134650D01*
X7347896Y-13134650D02*
X7366943Y-13144174D01*
X7366943Y-13144174D02*
X7376467Y-13153698D01*
X7376467Y-13153698D02*
X7385991Y-13172746D01*
X7385991Y-13172746D02*
X7385991Y-13229888D01*
X7385991Y-13229888D02*
X7376467Y-13248936D01*
X7376467Y-13248936D02*
X7366943Y-13258460D01*
X7366943Y-13258460D02*
X7347896Y-13267984D01*
X7347896Y-13267984D02*
X7309801Y-13267984D01*
X7309801Y-13267984D02*
X7290753Y-13258460D01*
X7471705Y-13248936D02*
X7481229Y-13258460D01*
X7481229Y-13258460D02*
X7471705Y-13267984D01*
X7471705Y-13267984D02*
X7462182Y-13258460D01*
X7462182Y-13258460D02*
X7471705Y-13248936D01*
X7471705Y-13248936D02*
X7471705Y-13267984D01*
X7471705Y-13144174D02*
X7481229Y-13153698D01*
X7481229Y-13153698D02*
X7471705Y-13163222D01*
X7471705Y-13163222D02*
X7462182Y-13153698D01*
X7462182Y-13153698D02*
X7471705Y-13144174D01*
X7471705Y-13144174D02*
X7471705Y-13163222D01*
D12*
X5809500Y-13581500D02*
X5839500Y-13611500D01*
X5839500Y-13581500D02*
X5809500Y-13611500D01*
D11*
X6138372Y-13487984D02*
X6157420Y-13487984D01*
X6157420Y-13487984D02*
X6176467Y-13497508D01*
X6176467Y-13497508D02*
X6185991Y-13507031D01*
X6185991Y-13507031D02*
X6195515Y-13526079D01*
X6195515Y-13526079D02*
X6205039Y-13564174D01*
X6205039Y-13564174D02*
X6205039Y-13611793D01*
X6205039Y-13611793D02*
X6195515Y-13649888D01*
X6195515Y-13649888D02*
X6185991Y-13668936D01*
X6185991Y-13668936D02*
X6176467Y-13678460D01*
X6176467Y-13678460D02*
X6157420Y-13687984D01*
X6157420Y-13687984D02*
X6138372Y-13687984D01*
X6138372Y-13687984D02*
X6119324Y-13678460D01*
X6119324Y-13678460D02*
X6109801Y-13668936D01*
X6109801Y-13668936D02*
X6100277Y-13649888D01*
X6100277Y-13649888D02*
X6090753Y-13611793D01*
X6090753Y-13611793D02*
X6090753Y-13564174D01*
X6090753Y-13564174D02*
X6100277Y-13526079D01*
X6100277Y-13526079D02*
X6109801Y-13507031D01*
X6109801Y-13507031D02*
X6119324Y-13497508D01*
X6119324Y-13497508D02*
X6138372Y-13487984D01*
X6290753Y-13668936D02*
X6300277Y-13678460D01*
X6300277Y-13678460D02*
X6290753Y-13687984D01*
X6290753Y-13687984D02*
X6281229Y-13678460D01*
X6281229Y-13678460D02*
X6290753Y-13668936D01*
X6290753Y-13668936D02*
X6290753Y-13687984D01*
X6366943Y-13487984D02*
X6490753Y-13487984D01*
X6490753Y-13487984D02*
X6424086Y-13564174D01*
X6424086Y-13564174D02*
X6452658Y-13564174D01*
X6452658Y-13564174D02*
X6471705Y-13573698D01*
X6471705Y-13573698D02*
X6481229Y-13583222D01*
X6481229Y-13583222D02*
X6490753Y-13602269D01*
X6490753Y-13602269D02*
X6490753Y-13649888D01*
X6490753Y-13649888D02*
X6481229Y-13668936D01*
X6481229Y-13668936D02*
X6471705Y-13678460D01*
X6471705Y-13678460D02*
X6452658Y-13687984D01*
X6452658Y-13687984D02*
X6395515Y-13687984D01*
X6395515Y-13687984D02*
X6376467Y-13678460D01*
X6376467Y-13678460D02*
X6366943Y-13668936D01*
X6614562Y-13487984D02*
X6633610Y-13487984D01*
X6633610Y-13487984D02*
X6652658Y-13497508D01*
X6652658Y-13497508D02*
X6662182Y-13507031D01*
X6662182Y-13507031D02*
X6671705Y-13526079D01*
X6671705Y-13526079D02*
X6681229Y-13564174D01*
X6681229Y-13564174D02*
X6681229Y-13611793D01*
X6681229Y-13611793D02*
X6671705Y-13649888D01*
X6671705Y-13649888D02*
X6662182Y-13668936D01*
X6662182Y-13668936D02*
X6652658Y-13678460D01*
X6652658Y-13678460D02*
X6633610Y-13687984D01*
X6633610Y-13687984D02*
X6614562Y-13687984D01*
X6614562Y-13687984D02*
X6595515Y-13678460D01*
X6595515Y-13678460D02*
X6585991Y-13668936D01*
X6585991Y-13668936D02*
X6576467Y-13649888D01*
X6576467Y-13649888D02*
X6566943Y-13611793D01*
X6566943Y-13611793D02*
X6566943Y-13564174D01*
X6566943Y-13564174D02*
X6576467Y-13526079D01*
X6576467Y-13526079D02*
X6585991Y-13507031D01*
X6585991Y-13507031D02*
X6595515Y-13497508D01*
X6595515Y-13497508D02*
X6614562Y-13487984D01*
X6805039Y-13487984D02*
X6824086Y-13487984D01*
X6824086Y-13487984D02*
X6843134Y-13497508D01*
X6843134Y-13497508D02*
X6852658Y-13507031D01*
X6852658Y-13507031D02*
X6862182Y-13526079D01*
X6862182Y-13526079D02*
X6871705Y-13564174D01*
X6871705Y-13564174D02*
X6871705Y-13611793D01*
X6871705Y-13611793D02*
X6862182Y-13649888D01*
X6862182Y-13649888D02*
X6852658Y-13668936D01*
X6852658Y-13668936D02*
X6843134Y-13678460D01*
X6843134Y-13678460D02*
X6824086Y-13687984D01*
X6824086Y-13687984D02*
X6805039Y-13687984D01*
X6805039Y-13687984D02*
X6785991Y-13678460D01*
X6785991Y-13678460D02*
X6776467Y-13668936D01*
X6776467Y-13668936D02*
X6766943Y-13649888D01*
X6766943Y-13649888D02*
X6757420Y-13611793D01*
X6757420Y-13611793D02*
X6757420Y-13564174D01*
X6757420Y-13564174D02*
X6766943Y-13526079D01*
X6766943Y-13526079D02*
X6776467Y-13507031D01*
X6776467Y-13507031D02*
X6785991Y-13497508D01*
X6785991Y-13497508D02*
X6805039Y-13487984D01*
X6957420Y-13687984D02*
X6957420Y-13554650D01*
X6957420Y-13573698D02*
X6966943Y-13564174D01*
X6966943Y-13564174D02*
X6985991Y-13554650D01*
X6985991Y-13554650D02*
X7014563Y-13554650D01*
X7014563Y-13554650D02*
X7033610Y-13564174D01*
X7033610Y-13564174D02*
X7043134Y-13583222D01*
X7043134Y-13583222D02*
X7043134Y-13687984D01*
X7043134Y-13583222D02*
X7052658Y-13564174D01*
X7052658Y-13564174D02*
X7071705Y-13554650D01*
X7071705Y-13554650D02*
X7100277Y-13554650D01*
X7100277Y-13554650D02*
X7119324Y-13564174D01*
X7119324Y-13564174D02*
X7128848Y-13583222D01*
X7128848Y-13583222D02*
X7128848Y-13687984D01*
X7224086Y-13687984D02*
X7224086Y-13554650D01*
X7224086Y-13573698D02*
X7233610Y-13564174D01*
X7233610Y-13564174D02*
X7252658Y-13554650D01*
X7252658Y-13554650D02*
X7281229Y-13554650D01*
X7281229Y-13554650D02*
X7300277Y-13564174D01*
X7300277Y-13564174D02*
X7309801Y-13583222D01*
X7309801Y-13583222D02*
X7309801Y-13687984D01*
X7309801Y-13583222D02*
X7319324Y-13564174D01*
X7319324Y-13564174D02*
X7338372Y-13554650D01*
X7338372Y-13554650D02*
X7366943Y-13554650D01*
X7366943Y-13554650D02*
X7385991Y-13564174D01*
X7385991Y-13564174D02*
X7395515Y-13583222D01*
X7395515Y-13583222D02*
X7395515Y-13687984D01*
X7785991Y-13478460D02*
X7614563Y-13735603D01*
X8043134Y-13487984D02*
X8062182Y-13487984D01*
X8062182Y-13487984D02*
X8081229Y-13497508D01*
X8081229Y-13497508D02*
X8090753Y-13507031D01*
X8090753Y-13507031D02*
X8100277Y-13526079D01*
X8100277Y-13526079D02*
X8109801Y-13564174D01*
X8109801Y-13564174D02*
X8109801Y-13611793D01*
X8109801Y-13611793D02*
X8100277Y-13649888D01*
X8100277Y-13649888D02*
X8090753Y-13668936D01*
X8090753Y-13668936D02*
X8081229Y-13678460D01*
X8081229Y-13678460D02*
X8062182Y-13687984D01*
X8062182Y-13687984D02*
X8043134Y-13687984D01*
X8043134Y-13687984D02*
X8024086Y-13678460D01*
X8024086Y-13678460D02*
X8014563Y-13668936D01*
X8014563Y-13668936D02*
X8005039Y-13649888D01*
X8005039Y-13649888D02*
X7995515Y-13611793D01*
X7995515Y-13611793D02*
X7995515Y-13564174D01*
X7995515Y-13564174D02*
X8005039Y-13526079D01*
X8005039Y-13526079D02*
X8014563Y-13507031D01*
X8014563Y-13507031D02*
X8024086Y-13497508D01*
X8024086Y-13497508D02*
X8043134Y-13487984D01*
X8195515Y-13668936D02*
X8205039Y-13678460D01*
X8205039Y-13678460D02*
X8195515Y-13687984D01*
X8195515Y-13687984D02*
X8185991Y-13678460D01*
X8185991Y-13678460D02*
X8195515Y-13668936D01*
X8195515Y-13668936D02*
X8195515Y-13687984D01*
X8328848Y-13487984D02*
X8347896Y-13487984D01*
X8347896Y-13487984D02*
X8366944Y-13497508D01*
X8366944Y-13497508D02*
X8376467Y-13507031D01*
X8376467Y-13507031D02*
X8385991Y-13526079D01*
X8385991Y-13526079D02*
X8395515Y-13564174D01*
X8395515Y-13564174D02*
X8395515Y-13611793D01*
X8395515Y-13611793D02*
X8385991Y-13649888D01*
X8385991Y-13649888D02*
X8376467Y-13668936D01*
X8376467Y-13668936D02*
X8366944Y-13678460D01*
X8366944Y-13678460D02*
X8347896Y-13687984D01*
X8347896Y-13687984D02*
X8328848Y-13687984D01*
X8328848Y-13687984D02*
X8309801Y-13678460D01*
X8309801Y-13678460D02*
X8300277Y-13668936D01*
X8300277Y-13668936D02*
X8290753Y-13649888D01*
X8290753Y-13649888D02*
X8281229Y-13611793D01*
X8281229Y-13611793D02*
X8281229Y-13564174D01*
X8281229Y-13564174D02*
X8290753Y-13526079D01*
X8290753Y-13526079D02*
X8300277Y-13507031D01*
X8300277Y-13507031D02*
X8309801Y-13497508D01*
X8309801Y-13497508D02*
X8328848Y-13487984D01*
X8585991Y-13687984D02*
X8471706Y-13687984D01*
X8528848Y-13687984D02*
X8528848Y-13487984D01*
X8528848Y-13487984D02*
X8509801Y-13516555D01*
X8509801Y-13516555D02*
X8490753Y-13535603D01*
X8490753Y-13535603D02*
X8471706Y-13545127D01*
X8776468Y-13687984D02*
X8662182Y-13687984D01*
X8719325Y-13687984D02*
X8719325Y-13487984D01*
X8719325Y-13487984D02*
X8700277Y-13516555D01*
X8700277Y-13516555D02*
X8681229Y-13535603D01*
X8681229Y-13535603D02*
X8662182Y-13545127D01*
X8890753Y-13573698D02*
X8871706Y-13564174D01*
X8871706Y-13564174D02*
X8862182Y-13554650D01*
X8862182Y-13554650D02*
X8852658Y-13535603D01*
X8852658Y-13535603D02*
X8852658Y-13526079D01*
X8852658Y-13526079D02*
X8862182Y-13507031D01*
X8862182Y-13507031D02*
X8871706Y-13497508D01*
X8871706Y-13497508D02*
X8890753Y-13487984D01*
X8890753Y-13487984D02*
X8928849Y-13487984D01*
X8928849Y-13487984D02*
X8947896Y-13497508D01*
X8947896Y-13497508D02*
X8957420Y-13507031D01*
X8957420Y-13507031D02*
X8966944Y-13526079D01*
X8966944Y-13526079D02*
X8966944Y-13535603D01*
X8966944Y-13535603D02*
X8957420Y-13554650D01*
X8957420Y-13554650D02*
X8947896Y-13564174D01*
X8947896Y-13564174D02*
X8928849Y-13573698D01*
X8928849Y-13573698D02*
X8890753Y-13573698D01*
X8890753Y-13573698D02*
X8871706Y-13583222D01*
X8871706Y-13583222D02*
X8862182Y-13592746D01*
X8862182Y-13592746D02*
X8852658Y-13611793D01*
X8852658Y-13611793D02*
X8852658Y-13649888D01*
X8852658Y-13649888D02*
X8862182Y-13668936D01*
X8862182Y-13668936D02*
X8871706Y-13678460D01*
X8871706Y-13678460D02*
X8890753Y-13687984D01*
X8890753Y-13687984D02*
X8928849Y-13687984D01*
X8928849Y-13687984D02*
X8947896Y-13678460D01*
X8947896Y-13678460D02*
X8957420Y-13668936D01*
X8957420Y-13668936D02*
X8966944Y-13649888D01*
X8966944Y-13649888D02*
X8966944Y-13611793D01*
X8966944Y-13611793D02*
X8957420Y-13592746D01*
X8957420Y-13592746D02*
X8947896Y-13583222D01*
X8947896Y-13583222D02*
X8928849Y-13573698D01*
X9043134Y-13487984D02*
X9043134Y-13526079D01*
X9119325Y-13487984D02*
X9119325Y-13526079D01*
X9414563Y-13764174D02*
X9405039Y-13754650D01*
X9405039Y-13754650D02*
X9385991Y-13726079D01*
X9385991Y-13726079D02*
X9376468Y-13707031D01*
X9376468Y-13707031D02*
X9366944Y-13678460D01*
X9366944Y-13678460D02*
X9357420Y-13630841D01*
X9357420Y-13630841D02*
X9357420Y-13592746D01*
X9357420Y-13592746D02*
X9366944Y-13545127D01*
X9366944Y-13545127D02*
X9376468Y-13516555D01*
X9376468Y-13516555D02*
X9385991Y-13497508D01*
X9385991Y-13497508D02*
X9405039Y-13468936D01*
X9405039Y-13468936D02*
X9414563Y-13459412D01*
X9500277Y-13687984D02*
X9538372Y-13687984D01*
X9538372Y-13687984D02*
X9557420Y-13678460D01*
X9557420Y-13678460D02*
X9566944Y-13668936D01*
X9566944Y-13668936D02*
X9585991Y-13640365D01*
X9585991Y-13640365D02*
X9595515Y-13602269D01*
X9595515Y-13602269D02*
X9595515Y-13526079D01*
X9595515Y-13526079D02*
X9585991Y-13507031D01*
X9585991Y-13507031D02*
X9576468Y-13497508D01*
X9576468Y-13497508D02*
X9557420Y-13487984D01*
X9557420Y-13487984D02*
X9519325Y-13487984D01*
X9519325Y-13487984D02*
X9500277Y-13497508D01*
X9500277Y-13497508D02*
X9490753Y-13507031D01*
X9490753Y-13507031D02*
X9481230Y-13526079D01*
X9481230Y-13526079D02*
X9481230Y-13573698D01*
X9481230Y-13573698D02*
X9490753Y-13592746D01*
X9490753Y-13592746D02*
X9500277Y-13602269D01*
X9500277Y-13602269D02*
X9519325Y-13611793D01*
X9519325Y-13611793D02*
X9557420Y-13611793D01*
X9557420Y-13611793D02*
X9576468Y-13602269D01*
X9576468Y-13602269D02*
X9585991Y-13592746D01*
X9585991Y-13592746D02*
X9595515Y-13573698D01*
X9766944Y-13487984D02*
X9728849Y-13487984D01*
X9728849Y-13487984D02*
X9709801Y-13497508D01*
X9709801Y-13497508D02*
X9700277Y-13507031D01*
X9700277Y-13507031D02*
X9681230Y-13535603D01*
X9681230Y-13535603D02*
X9671706Y-13573698D01*
X9671706Y-13573698D02*
X9671706Y-13649888D01*
X9671706Y-13649888D02*
X9681230Y-13668936D01*
X9681230Y-13668936D02*
X9690753Y-13678460D01*
X9690753Y-13678460D02*
X9709801Y-13687984D01*
X9709801Y-13687984D02*
X9747896Y-13687984D01*
X9747896Y-13687984D02*
X9766944Y-13678460D01*
X9766944Y-13678460D02*
X9776468Y-13668936D01*
X9776468Y-13668936D02*
X9785991Y-13649888D01*
X9785991Y-13649888D02*
X9785991Y-13602269D01*
X9785991Y-13602269D02*
X9776468Y-13583222D01*
X9776468Y-13583222D02*
X9766944Y-13573698D01*
X9766944Y-13573698D02*
X9747896Y-13564174D01*
X9747896Y-13564174D02*
X9709801Y-13564174D01*
X9709801Y-13564174D02*
X9690753Y-13573698D01*
X9690753Y-13573698D02*
X9681230Y-13583222D01*
X9681230Y-13583222D02*
X9671706Y-13602269D01*
X10024087Y-13687984D02*
X10024087Y-13487984D01*
X10109801Y-13687984D02*
X10109801Y-13583222D01*
X10109801Y-13583222D02*
X10100277Y-13564174D01*
X10100277Y-13564174D02*
X10081230Y-13554650D01*
X10081230Y-13554650D02*
X10052658Y-13554650D01*
X10052658Y-13554650D02*
X10033611Y-13564174D01*
X10033611Y-13564174D02*
X10024087Y-13573698D01*
X10233611Y-13687984D02*
X10214563Y-13678460D01*
X10214563Y-13678460D02*
X10205039Y-13668936D01*
X10205039Y-13668936D02*
X10195515Y-13649888D01*
X10195515Y-13649888D02*
X10195515Y-13592746D01*
X10195515Y-13592746D02*
X10205039Y-13573698D01*
X10205039Y-13573698D02*
X10214563Y-13564174D01*
X10214563Y-13564174D02*
X10233611Y-13554650D01*
X10233611Y-13554650D02*
X10262182Y-13554650D01*
X10262182Y-13554650D02*
X10281230Y-13564174D01*
X10281230Y-13564174D02*
X10290753Y-13573698D01*
X10290753Y-13573698D02*
X10300277Y-13592746D01*
X10300277Y-13592746D02*
X10300277Y-13649888D01*
X10300277Y-13649888D02*
X10290753Y-13668936D01*
X10290753Y-13668936D02*
X10281230Y-13678460D01*
X10281230Y-13678460D02*
X10262182Y-13687984D01*
X10262182Y-13687984D02*
X10233611Y-13687984D01*
X10414563Y-13687984D02*
X10395515Y-13678460D01*
X10395515Y-13678460D02*
X10385992Y-13659412D01*
X10385992Y-13659412D02*
X10385992Y-13487984D01*
X10566944Y-13678460D02*
X10547896Y-13687984D01*
X10547896Y-13687984D02*
X10509801Y-13687984D01*
X10509801Y-13687984D02*
X10490753Y-13678460D01*
X10490753Y-13678460D02*
X10481230Y-13659412D01*
X10481230Y-13659412D02*
X10481230Y-13583222D01*
X10481230Y-13583222D02*
X10490753Y-13564174D01*
X10490753Y-13564174D02*
X10509801Y-13554650D01*
X10509801Y-13554650D02*
X10547896Y-13554650D01*
X10547896Y-13554650D02*
X10566944Y-13564174D01*
X10566944Y-13564174D02*
X10576468Y-13583222D01*
X10576468Y-13583222D02*
X10576468Y-13602269D01*
X10576468Y-13602269D02*
X10481230Y-13621317D01*
X10652658Y-13678460D02*
X10671706Y-13687984D01*
X10671706Y-13687984D02*
X10709801Y-13687984D01*
X10709801Y-13687984D02*
X10728849Y-13678460D01*
X10728849Y-13678460D02*
X10738373Y-13659412D01*
X10738373Y-13659412D02*
X10738373Y-13649888D01*
X10738373Y-13649888D02*
X10728849Y-13630841D01*
X10728849Y-13630841D02*
X10709801Y-13621317D01*
X10709801Y-13621317D02*
X10681230Y-13621317D01*
X10681230Y-13621317D02*
X10662182Y-13611793D01*
X10662182Y-13611793D02*
X10652658Y-13592746D01*
X10652658Y-13592746D02*
X10652658Y-13583222D01*
X10652658Y-13583222D02*
X10662182Y-13564174D01*
X10662182Y-13564174D02*
X10681230Y-13554650D01*
X10681230Y-13554650D02*
X10709801Y-13554650D01*
X10709801Y-13554650D02*
X10728849Y-13564174D01*
X10805039Y-13764174D02*
X10814563Y-13754650D01*
X10814563Y-13754650D02*
X10833611Y-13726079D01*
X10833611Y-13726079D02*
X10843134Y-13707031D01*
X10843134Y-13707031D02*
X10852658Y-13678460D01*
X10852658Y-13678460D02*
X10862182Y-13630841D01*
X10862182Y-13630841D02*
X10862182Y-13592746D01*
X10862182Y-13592746D02*
X10852658Y-13545127D01*
X10852658Y-13545127D02*
X10843134Y-13516555D01*
X10843134Y-13516555D02*
X10833611Y-13497508D01*
X10833611Y-13497508D02*
X10814563Y-13468936D01*
X10814563Y-13468936D02*
X10805039Y-13459412D01*
D12*
X5839500Y-13860500D02*
G75*
G02*
X5753500Y-13860500I-43000J0D01*
G01*
X5753500Y-13860500D02*
G75*
G02*
X5839500Y-13860500I43000J0D01*
G01*
D11*
X6138372Y-13751984D02*
X6157420Y-13751984D01*
X6157420Y-13751984D02*
X6176467Y-13761508D01*
X6176467Y-13761508D02*
X6185991Y-13771031D01*
X6185991Y-13771031D02*
X6195515Y-13790079D01*
X6195515Y-13790079D02*
X6205039Y-13828174D01*
X6205039Y-13828174D02*
X6205039Y-13875793D01*
X6205039Y-13875793D02*
X6195515Y-13913888D01*
X6195515Y-13913888D02*
X6185991Y-13932936D01*
X6185991Y-13932936D02*
X6176467Y-13942460D01*
X6176467Y-13942460D02*
X6157420Y-13951984D01*
X6157420Y-13951984D02*
X6138372Y-13951984D01*
X6138372Y-13951984D02*
X6119324Y-13942460D01*
X6119324Y-13942460D02*
X6109801Y-13932936D01*
X6109801Y-13932936D02*
X6100277Y-13913888D01*
X6100277Y-13913888D02*
X6090753Y-13875793D01*
X6090753Y-13875793D02*
X6090753Y-13828174D01*
X6090753Y-13828174D02*
X6100277Y-13790079D01*
X6100277Y-13790079D02*
X6109801Y-13771031D01*
X6109801Y-13771031D02*
X6119324Y-13761508D01*
X6119324Y-13761508D02*
X6138372Y-13751984D01*
X6290753Y-13932936D02*
X6300277Y-13942460D01*
X6300277Y-13942460D02*
X6290753Y-13951984D01*
X6290753Y-13951984D02*
X6281229Y-13942460D01*
X6281229Y-13942460D02*
X6290753Y-13932936D01*
X6290753Y-13932936D02*
X6290753Y-13951984D01*
X6414562Y-13837698D02*
X6395515Y-13828174D01*
X6395515Y-13828174D02*
X6385991Y-13818650D01*
X6385991Y-13818650D02*
X6376467Y-13799603D01*
X6376467Y-13799603D02*
X6376467Y-13790079D01*
X6376467Y-13790079D02*
X6385991Y-13771031D01*
X6385991Y-13771031D02*
X6395515Y-13761508D01*
X6395515Y-13761508D02*
X6414562Y-13751984D01*
X6414562Y-13751984D02*
X6452658Y-13751984D01*
X6452658Y-13751984D02*
X6471705Y-13761508D01*
X6471705Y-13761508D02*
X6481229Y-13771031D01*
X6481229Y-13771031D02*
X6490753Y-13790079D01*
X6490753Y-13790079D02*
X6490753Y-13799603D01*
X6490753Y-13799603D02*
X6481229Y-13818650D01*
X6481229Y-13818650D02*
X6471705Y-13828174D01*
X6471705Y-13828174D02*
X6452658Y-13837698D01*
X6452658Y-13837698D02*
X6414562Y-13837698D01*
X6414562Y-13837698D02*
X6395515Y-13847222D01*
X6395515Y-13847222D02*
X6385991Y-13856746D01*
X6385991Y-13856746D02*
X6376467Y-13875793D01*
X6376467Y-13875793D02*
X6376467Y-13913888D01*
X6376467Y-13913888D02*
X6385991Y-13932936D01*
X6385991Y-13932936D02*
X6395515Y-13942460D01*
X6395515Y-13942460D02*
X6414562Y-13951984D01*
X6414562Y-13951984D02*
X6452658Y-13951984D01*
X6452658Y-13951984D02*
X6471705Y-13942460D01*
X6471705Y-13942460D02*
X6481229Y-13932936D01*
X6481229Y-13932936D02*
X6490753Y-13913888D01*
X6490753Y-13913888D02*
X6490753Y-13875793D01*
X6490753Y-13875793D02*
X6481229Y-13856746D01*
X6481229Y-13856746D02*
X6471705Y-13847222D01*
X6471705Y-13847222D02*
X6452658Y-13837698D01*
X6662182Y-13751984D02*
X6624086Y-13751984D01*
X6624086Y-13751984D02*
X6605039Y-13761508D01*
X6605039Y-13761508D02*
X6595515Y-13771031D01*
X6595515Y-13771031D02*
X6576467Y-13799603D01*
X6576467Y-13799603D02*
X6566943Y-13837698D01*
X6566943Y-13837698D02*
X6566943Y-13913888D01*
X6566943Y-13913888D02*
X6576467Y-13932936D01*
X6576467Y-13932936D02*
X6585991Y-13942460D01*
X6585991Y-13942460D02*
X6605039Y-13951984D01*
X6605039Y-13951984D02*
X6643134Y-13951984D01*
X6643134Y-13951984D02*
X6662182Y-13942460D01*
X6662182Y-13942460D02*
X6671705Y-13932936D01*
X6671705Y-13932936D02*
X6681229Y-13913888D01*
X6681229Y-13913888D02*
X6681229Y-13866269D01*
X6681229Y-13866269D02*
X6671705Y-13847222D01*
X6671705Y-13847222D02*
X6662182Y-13837698D01*
X6662182Y-13837698D02*
X6643134Y-13828174D01*
X6643134Y-13828174D02*
X6605039Y-13828174D01*
X6605039Y-13828174D02*
X6585991Y-13837698D01*
X6585991Y-13837698D02*
X6576467Y-13847222D01*
X6576467Y-13847222D02*
X6566943Y-13866269D01*
X6805039Y-13751984D02*
X6824086Y-13751984D01*
X6824086Y-13751984D02*
X6843134Y-13761508D01*
X6843134Y-13761508D02*
X6852658Y-13771031D01*
X6852658Y-13771031D02*
X6862182Y-13790079D01*
X6862182Y-13790079D02*
X6871705Y-13828174D01*
X6871705Y-13828174D02*
X6871705Y-13875793D01*
X6871705Y-13875793D02*
X6862182Y-13913888D01*
X6862182Y-13913888D02*
X6852658Y-13932936D01*
X6852658Y-13932936D02*
X6843134Y-13942460D01*
X6843134Y-13942460D02*
X6824086Y-13951984D01*
X6824086Y-13951984D02*
X6805039Y-13951984D01*
X6805039Y-13951984D02*
X6785991Y-13942460D01*
X6785991Y-13942460D02*
X6776467Y-13932936D01*
X6776467Y-13932936D02*
X6766943Y-13913888D01*
X6766943Y-13913888D02*
X6757420Y-13875793D01*
X6757420Y-13875793D02*
X6757420Y-13828174D01*
X6757420Y-13828174D02*
X6766943Y-13790079D01*
X6766943Y-13790079D02*
X6776467Y-13771031D01*
X6776467Y-13771031D02*
X6785991Y-13761508D01*
X6785991Y-13761508D02*
X6805039Y-13751984D01*
X6957420Y-13951984D02*
X6957420Y-13818650D01*
X6957420Y-13837698D02*
X6966943Y-13828174D01*
X6966943Y-13828174D02*
X6985991Y-13818650D01*
X6985991Y-13818650D02*
X7014563Y-13818650D01*
X7014563Y-13818650D02*
X7033610Y-13828174D01*
X7033610Y-13828174D02*
X7043134Y-13847222D01*
X7043134Y-13847222D02*
X7043134Y-13951984D01*
X7043134Y-13847222D02*
X7052658Y-13828174D01*
X7052658Y-13828174D02*
X7071705Y-13818650D01*
X7071705Y-13818650D02*
X7100277Y-13818650D01*
X7100277Y-13818650D02*
X7119324Y-13828174D01*
X7119324Y-13828174D02*
X7128848Y-13847222D01*
X7128848Y-13847222D02*
X7128848Y-13951984D01*
X7224086Y-13951984D02*
X7224086Y-13818650D01*
X7224086Y-13837698D02*
X7233610Y-13828174D01*
X7233610Y-13828174D02*
X7252658Y-13818650D01*
X7252658Y-13818650D02*
X7281229Y-13818650D01*
X7281229Y-13818650D02*
X7300277Y-13828174D01*
X7300277Y-13828174D02*
X7309801Y-13847222D01*
X7309801Y-13847222D02*
X7309801Y-13951984D01*
X7309801Y-13847222D02*
X7319324Y-13828174D01*
X7319324Y-13828174D02*
X7338372Y-13818650D01*
X7338372Y-13818650D02*
X7366943Y-13818650D01*
X7366943Y-13818650D02*
X7385991Y-13828174D01*
X7385991Y-13828174D02*
X7395515Y-13847222D01*
X7395515Y-13847222D02*
X7395515Y-13951984D01*
X7785991Y-13742460D02*
X7614563Y-13999603D01*
X8043134Y-13751984D02*
X8062182Y-13751984D01*
X8062182Y-13751984D02*
X8081229Y-13761508D01*
X8081229Y-13761508D02*
X8090753Y-13771031D01*
X8090753Y-13771031D02*
X8100277Y-13790079D01*
X8100277Y-13790079D02*
X8109801Y-13828174D01*
X8109801Y-13828174D02*
X8109801Y-13875793D01*
X8109801Y-13875793D02*
X8100277Y-13913888D01*
X8100277Y-13913888D02*
X8090753Y-13932936D01*
X8090753Y-13932936D02*
X8081229Y-13942460D01*
X8081229Y-13942460D02*
X8062182Y-13951984D01*
X8062182Y-13951984D02*
X8043134Y-13951984D01*
X8043134Y-13951984D02*
X8024086Y-13942460D01*
X8024086Y-13942460D02*
X8014563Y-13932936D01*
X8014563Y-13932936D02*
X8005039Y-13913888D01*
X8005039Y-13913888D02*
X7995515Y-13875793D01*
X7995515Y-13875793D02*
X7995515Y-13828174D01*
X7995515Y-13828174D02*
X8005039Y-13790079D01*
X8005039Y-13790079D02*
X8014563Y-13771031D01*
X8014563Y-13771031D02*
X8024086Y-13761508D01*
X8024086Y-13761508D02*
X8043134Y-13751984D01*
X8195515Y-13932936D02*
X8205039Y-13942460D01*
X8205039Y-13942460D02*
X8195515Y-13951984D01*
X8195515Y-13951984D02*
X8185991Y-13942460D01*
X8185991Y-13942460D02*
X8195515Y-13932936D01*
X8195515Y-13932936D02*
X8195515Y-13951984D01*
X8328848Y-13751984D02*
X8347896Y-13751984D01*
X8347896Y-13751984D02*
X8366944Y-13761508D01*
X8366944Y-13761508D02*
X8376467Y-13771031D01*
X8376467Y-13771031D02*
X8385991Y-13790079D01*
X8385991Y-13790079D02*
X8395515Y-13828174D01*
X8395515Y-13828174D02*
X8395515Y-13875793D01*
X8395515Y-13875793D02*
X8385991Y-13913888D01*
X8385991Y-13913888D02*
X8376467Y-13932936D01*
X8376467Y-13932936D02*
X8366944Y-13942460D01*
X8366944Y-13942460D02*
X8347896Y-13951984D01*
X8347896Y-13951984D02*
X8328848Y-13951984D01*
X8328848Y-13951984D02*
X8309801Y-13942460D01*
X8309801Y-13942460D02*
X8300277Y-13932936D01*
X8300277Y-13932936D02*
X8290753Y-13913888D01*
X8290753Y-13913888D02*
X8281229Y-13875793D01*
X8281229Y-13875793D02*
X8281229Y-13828174D01*
X8281229Y-13828174D02*
X8290753Y-13790079D01*
X8290753Y-13790079D02*
X8300277Y-13771031D01*
X8300277Y-13771031D02*
X8309801Y-13761508D01*
X8309801Y-13761508D02*
X8328848Y-13751984D01*
X8462182Y-13751984D02*
X8585991Y-13751984D01*
X8585991Y-13751984D02*
X8519325Y-13828174D01*
X8519325Y-13828174D02*
X8547896Y-13828174D01*
X8547896Y-13828174D02*
X8566944Y-13837698D01*
X8566944Y-13837698D02*
X8576468Y-13847222D01*
X8576468Y-13847222D02*
X8585991Y-13866269D01*
X8585991Y-13866269D02*
X8585991Y-13913888D01*
X8585991Y-13913888D02*
X8576468Y-13932936D01*
X8576468Y-13932936D02*
X8566944Y-13942460D01*
X8566944Y-13942460D02*
X8547896Y-13951984D01*
X8547896Y-13951984D02*
X8490753Y-13951984D01*
X8490753Y-13951984D02*
X8471706Y-13942460D01*
X8471706Y-13942460D02*
X8462182Y-13932936D01*
X8652658Y-13751984D02*
X8776468Y-13751984D01*
X8776468Y-13751984D02*
X8709801Y-13828174D01*
X8709801Y-13828174D02*
X8738372Y-13828174D01*
X8738372Y-13828174D02*
X8757420Y-13837698D01*
X8757420Y-13837698D02*
X8766944Y-13847222D01*
X8766944Y-13847222D02*
X8776468Y-13866269D01*
X8776468Y-13866269D02*
X8776468Y-13913888D01*
X8776468Y-13913888D02*
X8766944Y-13932936D01*
X8766944Y-13932936D02*
X8757420Y-13942460D01*
X8757420Y-13942460D02*
X8738372Y-13951984D01*
X8738372Y-13951984D02*
X8681229Y-13951984D01*
X8681229Y-13951984D02*
X8662182Y-13942460D01*
X8662182Y-13942460D02*
X8652658Y-13932936D01*
X8871706Y-13951984D02*
X8909801Y-13951984D01*
X8909801Y-13951984D02*
X8928849Y-13942460D01*
X8928849Y-13942460D02*
X8938372Y-13932936D01*
X8938372Y-13932936D02*
X8957420Y-13904365D01*
X8957420Y-13904365D02*
X8966944Y-13866269D01*
X8966944Y-13866269D02*
X8966944Y-13790079D01*
X8966944Y-13790079D02*
X8957420Y-13771031D01*
X8957420Y-13771031D02*
X8947896Y-13761508D01*
X8947896Y-13761508D02*
X8928849Y-13751984D01*
X8928849Y-13751984D02*
X8890753Y-13751984D01*
X8890753Y-13751984D02*
X8871706Y-13761508D01*
X8871706Y-13761508D02*
X8862182Y-13771031D01*
X8862182Y-13771031D02*
X8852658Y-13790079D01*
X8852658Y-13790079D02*
X8852658Y-13837698D01*
X8852658Y-13837698D02*
X8862182Y-13856746D01*
X8862182Y-13856746D02*
X8871706Y-13866269D01*
X8871706Y-13866269D02*
X8890753Y-13875793D01*
X8890753Y-13875793D02*
X8928849Y-13875793D01*
X8928849Y-13875793D02*
X8947896Y-13866269D01*
X8947896Y-13866269D02*
X8957420Y-13856746D01*
X8957420Y-13856746D02*
X8966944Y-13837698D01*
X9043134Y-13751984D02*
X9043134Y-13790079D01*
X9119325Y-13751984D02*
X9119325Y-13790079D01*
X9414563Y-14028174D02*
X9405039Y-14018650D01*
X9405039Y-14018650D02*
X9385991Y-13990079D01*
X9385991Y-13990079D02*
X9376468Y-13971031D01*
X9376468Y-13971031D02*
X9366944Y-13942460D01*
X9366944Y-13942460D02*
X9357420Y-13894841D01*
X9357420Y-13894841D02*
X9357420Y-13856746D01*
X9357420Y-13856746D02*
X9366944Y-13809127D01*
X9366944Y-13809127D02*
X9376468Y-13780555D01*
X9376468Y-13780555D02*
X9385991Y-13761508D01*
X9385991Y-13761508D02*
X9405039Y-13732936D01*
X9405039Y-13732936D02*
X9414563Y-13723412D01*
X9585991Y-13751984D02*
X9490753Y-13751984D01*
X9490753Y-13751984D02*
X9481230Y-13847222D01*
X9481230Y-13847222D02*
X9490753Y-13837698D01*
X9490753Y-13837698D02*
X9509801Y-13828174D01*
X9509801Y-13828174D02*
X9557420Y-13828174D01*
X9557420Y-13828174D02*
X9576468Y-13837698D01*
X9576468Y-13837698D02*
X9585991Y-13847222D01*
X9585991Y-13847222D02*
X9595515Y-13866269D01*
X9595515Y-13866269D02*
X9595515Y-13913888D01*
X9595515Y-13913888D02*
X9585991Y-13932936D01*
X9585991Y-13932936D02*
X9576468Y-13942460D01*
X9576468Y-13942460D02*
X9557420Y-13951984D01*
X9557420Y-13951984D02*
X9509801Y-13951984D01*
X9509801Y-13951984D02*
X9490753Y-13942460D01*
X9490753Y-13942460D02*
X9481230Y-13932936D01*
X9719325Y-13751984D02*
X9738372Y-13751984D01*
X9738372Y-13751984D02*
X9757420Y-13761508D01*
X9757420Y-13761508D02*
X9766944Y-13771031D01*
X9766944Y-13771031D02*
X9776468Y-13790079D01*
X9776468Y-13790079D02*
X9785991Y-13828174D01*
X9785991Y-13828174D02*
X9785991Y-13875793D01*
X9785991Y-13875793D02*
X9776468Y-13913888D01*
X9776468Y-13913888D02*
X9766944Y-13932936D01*
X9766944Y-13932936D02*
X9757420Y-13942460D01*
X9757420Y-13942460D02*
X9738372Y-13951984D01*
X9738372Y-13951984D02*
X9719325Y-13951984D01*
X9719325Y-13951984D02*
X9700277Y-13942460D01*
X9700277Y-13942460D02*
X9690753Y-13932936D01*
X9690753Y-13932936D02*
X9681230Y-13913888D01*
X9681230Y-13913888D02*
X9671706Y-13875793D01*
X9671706Y-13875793D02*
X9671706Y-13828174D01*
X9671706Y-13828174D02*
X9681230Y-13790079D01*
X9681230Y-13790079D02*
X9690753Y-13771031D01*
X9690753Y-13771031D02*
X9700277Y-13761508D01*
X9700277Y-13761508D02*
X9719325Y-13751984D01*
X10024087Y-13951984D02*
X10024087Y-13751984D01*
X10109801Y-13951984D02*
X10109801Y-13847222D01*
X10109801Y-13847222D02*
X10100277Y-13828174D01*
X10100277Y-13828174D02*
X10081230Y-13818650D01*
X10081230Y-13818650D02*
X10052658Y-13818650D01*
X10052658Y-13818650D02*
X10033611Y-13828174D01*
X10033611Y-13828174D02*
X10024087Y-13837698D01*
X10233611Y-13951984D02*
X10214563Y-13942460D01*
X10214563Y-13942460D02*
X10205039Y-13932936D01*
X10205039Y-13932936D02*
X10195515Y-13913888D01*
X10195515Y-13913888D02*
X10195515Y-13856746D01*
X10195515Y-13856746D02*
X10205039Y-13837698D01*
X10205039Y-13837698D02*
X10214563Y-13828174D01*
X10214563Y-13828174D02*
X10233611Y-13818650D01*
X10233611Y-13818650D02*
X10262182Y-13818650D01*
X10262182Y-13818650D02*
X10281230Y-13828174D01*
X10281230Y-13828174D02*
X10290753Y-13837698D01*
X10290753Y-13837698D02*
X10300277Y-13856746D01*
X10300277Y-13856746D02*
X10300277Y-13913888D01*
X10300277Y-13913888D02*
X10290753Y-13932936D01*
X10290753Y-13932936D02*
X10281230Y-13942460D01*
X10281230Y-13942460D02*
X10262182Y-13951984D01*
X10262182Y-13951984D02*
X10233611Y-13951984D01*
X10414563Y-13951984D02*
X10395515Y-13942460D01*
X10395515Y-13942460D02*
X10385992Y-13923412D01*
X10385992Y-13923412D02*
X10385992Y-13751984D01*
X10566944Y-13942460D02*
X10547896Y-13951984D01*
X10547896Y-13951984D02*
X10509801Y-13951984D01*
X10509801Y-13951984D02*
X10490753Y-13942460D01*
X10490753Y-13942460D02*
X10481230Y-13923412D01*
X10481230Y-13923412D02*
X10481230Y-13847222D01*
X10481230Y-13847222D02*
X10490753Y-13828174D01*
X10490753Y-13828174D02*
X10509801Y-13818650D01*
X10509801Y-13818650D02*
X10547896Y-13818650D01*
X10547896Y-13818650D02*
X10566944Y-13828174D01*
X10566944Y-13828174D02*
X10576468Y-13847222D01*
X10576468Y-13847222D02*
X10576468Y-13866269D01*
X10576468Y-13866269D02*
X10481230Y-13885317D01*
X10652658Y-13942460D02*
X10671706Y-13951984D01*
X10671706Y-13951984D02*
X10709801Y-13951984D01*
X10709801Y-13951984D02*
X10728849Y-13942460D01*
X10728849Y-13942460D02*
X10738373Y-13923412D01*
X10738373Y-13923412D02*
X10738373Y-13913888D01*
X10738373Y-13913888D02*
X10728849Y-13894841D01*
X10728849Y-13894841D02*
X10709801Y-13885317D01*
X10709801Y-13885317D02*
X10681230Y-13885317D01*
X10681230Y-13885317D02*
X10662182Y-13875793D01*
X10662182Y-13875793D02*
X10652658Y-13856746D01*
X10652658Y-13856746D02*
X10652658Y-13847222D01*
X10652658Y-13847222D02*
X10662182Y-13828174D01*
X10662182Y-13828174D02*
X10681230Y-13818650D01*
X10681230Y-13818650D02*
X10709801Y-13818650D01*
X10709801Y-13818650D02*
X10728849Y-13828174D01*
X10805039Y-14028174D02*
X10814563Y-14018650D01*
X10814563Y-14018650D02*
X10833611Y-13990079D01*
X10833611Y-13990079D02*
X10843134Y-13971031D01*
X10843134Y-13971031D02*
X10852658Y-13942460D01*
X10852658Y-13942460D02*
X10862182Y-13894841D01*
X10862182Y-13894841D02*
X10862182Y-13856746D01*
X10862182Y-13856746D02*
X10852658Y-13809127D01*
X10852658Y-13809127D02*
X10843134Y-13780555D01*
X10843134Y-13780555D02*
X10833611Y-13761508D01*
X10833611Y-13761508D02*
X10814563Y-13732936D01*
X10814563Y-13732936D02*
X10805039Y-13723412D01*
D12*
X5789500Y-14074500D02*
X5789500Y-14174500D01*
X5739500Y-14124500D02*
X5839500Y-14124500D01*
D11*
X6205039Y-14215984D02*
X6090753Y-14215984D01*
X6147896Y-14215984D02*
X6147896Y-14015984D01*
X6147896Y-14015984D02*
X6128848Y-14044555D01*
X6128848Y-14044555D02*
X6109801Y-14063603D01*
X6109801Y-14063603D02*
X6090753Y-14073127D01*
X6290753Y-14196936D02*
X6300277Y-14206460D01*
X6300277Y-14206460D02*
X6290753Y-14215984D01*
X6290753Y-14215984D02*
X6281229Y-14206460D01*
X6281229Y-14206460D02*
X6290753Y-14196936D01*
X6290753Y-14196936D02*
X6290753Y-14215984D01*
X6424086Y-14015984D02*
X6443134Y-14015984D01*
X6443134Y-14015984D02*
X6462182Y-14025508D01*
X6462182Y-14025508D02*
X6471705Y-14035031D01*
X6471705Y-14035031D02*
X6481229Y-14054079D01*
X6481229Y-14054079D02*
X6490753Y-14092174D01*
X6490753Y-14092174D02*
X6490753Y-14139793D01*
X6490753Y-14139793D02*
X6481229Y-14177888D01*
X6481229Y-14177888D02*
X6471705Y-14196936D01*
X6471705Y-14196936D02*
X6462182Y-14206460D01*
X6462182Y-14206460D02*
X6443134Y-14215984D01*
X6443134Y-14215984D02*
X6424086Y-14215984D01*
X6424086Y-14215984D02*
X6405039Y-14206460D01*
X6405039Y-14206460D02*
X6395515Y-14196936D01*
X6395515Y-14196936D02*
X6385991Y-14177888D01*
X6385991Y-14177888D02*
X6376467Y-14139793D01*
X6376467Y-14139793D02*
X6376467Y-14092174D01*
X6376467Y-14092174D02*
X6385991Y-14054079D01*
X6385991Y-14054079D02*
X6395515Y-14035031D01*
X6395515Y-14035031D02*
X6405039Y-14025508D01*
X6405039Y-14025508D02*
X6424086Y-14015984D01*
X6614562Y-14015984D02*
X6633610Y-14015984D01*
X6633610Y-14015984D02*
X6652658Y-14025508D01*
X6652658Y-14025508D02*
X6662182Y-14035031D01*
X6662182Y-14035031D02*
X6671705Y-14054079D01*
X6671705Y-14054079D02*
X6681229Y-14092174D01*
X6681229Y-14092174D02*
X6681229Y-14139793D01*
X6681229Y-14139793D02*
X6671705Y-14177888D01*
X6671705Y-14177888D02*
X6662182Y-14196936D01*
X6662182Y-14196936D02*
X6652658Y-14206460D01*
X6652658Y-14206460D02*
X6633610Y-14215984D01*
X6633610Y-14215984D02*
X6614562Y-14215984D01*
X6614562Y-14215984D02*
X6595515Y-14206460D01*
X6595515Y-14206460D02*
X6585991Y-14196936D01*
X6585991Y-14196936D02*
X6576467Y-14177888D01*
X6576467Y-14177888D02*
X6566943Y-14139793D01*
X6566943Y-14139793D02*
X6566943Y-14092174D01*
X6566943Y-14092174D02*
X6576467Y-14054079D01*
X6576467Y-14054079D02*
X6585991Y-14035031D01*
X6585991Y-14035031D02*
X6595515Y-14025508D01*
X6595515Y-14025508D02*
X6614562Y-14015984D01*
X6805039Y-14015984D02*
X6824086Y-14015984D01*
X6824086Y-14015984D02*
X6843134Y-14025508D01*
X6843134Y-14025508D02*
X6852658Y-14035031D01*
X6852658Y-14035031D02*
X6862182Y-14054079D01*
X6862182Y-14054079D02*
X6871705Y-14092174D01*
X6871705Y-14092174D02*
X6871705Y-14139793D01*
X6871705Y-14139793D02*
X6862182Y-14177888D01*
X6862182Y-14177888D02*
X6852658Y-14196936D01*
X6852658Y-14196936D02*
X6843134Y-14206460D01*
X6843134Y-14206460D02*
X6824086Y-14215984D01*
X6824086Y-14215984D02*
X6805039Y-14215984D01*
X6805039Y-14215984D02*
X6785991Y-14206460D01*
X6785991Y-14206460D02*
X6776467Y-14196936D01*
X6776467Y-14196936D02*
X6766943Y-14177888D01*
X6766943Y-14177888D02*
X6757420Y-14139793D01*
X6757420Y-14139793D02*
X6757420Y-14092174D01*
X6757420Y-14092174D02*
X6766943Y-14054079D01*
X6766943Y-14054079D02*
X6776467Y-14035031D01*
X6776467Y-14035031D02*
X6785991Y-14025508D01*
X6785991Y-14025508D02*
X6805039Y-14015984D01*
X6957420Y-14215984D02*
X6957420Y-14082650D01*
X6957420Y-14101698D02*
X6966943Y-14092174D01*
X6966943Y-14092174D02*
X6985991Y-14082650D01*
X6985991Y-14082650D02*
X7014563Y-14082650D01*
X7014563Y-14082650D02*
X7033610Y-14092174D01*
X7033610Y-14092174D02*
X7043134Y-14111222D01*
X7043134Y-14111222D02*
X7043134Y-14215984D01*
X7043134Y-14111222D02*
X7052658Y-14092174D01*
X7052658Y-14092174D02*
X7071705Y-14082650D01*
X7071705Y-14082650D02*
X7100277Y-14082650D01*
X7100277Y-14082650D02*
X7119324Y-14092174D01*
X7119324Y-14092174D02*
X7128848Y-14111222D01*
X7128848Y-14111222D02*
X7128848Y-14215984D01*
X7224086Y-14215984D02*
X7224086Y-14082650D01*
X7224086Y-14101698D02*
X7233610Y-14092174D01*
X7233610Y-14092174D02*
X7252658Y-14082650D01*
X7252658Y-14082650D02*
X7281229Y-14082650D01*
X7281229Y-14082650D02*
X7300277Y-14092174D01*
X7300277Y-14092174D02*
X7309801Y-14111222D01*
X7309801Y-14111222D02*
X7309801Y-14215984D01*
X7309801Y-14111222D02*
X7319324Y-14092174D01*
X7319324Y-14092174D02*
X7338372Y-14082650D01*
X7338372Y-14082650D02*
X7366943Y-14082650D01*
X7366943Y-14082650D02*
X7385991Y-14092174D01*
X7385991Y-14092174D02*
X7395515Y-14111222D01*
X7395515Y-14111222D02*
X7395515Y-14215984D01*
X7785991Y-14006460D02*
X7614563Y-14263603D01*
X8043134Y-14015984D02*
X8062182Y-14015984D01*
X8062182Y-14015984D02*
X8081229Y-14025508D01*
X8081229Y-14025508D02*
X8090753Y-14035031D01*
X8090753Y-14035031D02*
X8100277Y-14054079D01*
X8100277Y-14054079D02*
X8109801Y-14092174D01*
X8109801Y-14092174D02*
X8109801Y-14139793D01*
X8109801Y-14139793D02*
X8100277Y-14177888D01*
X8100277Y-14177888D02*
X8090753Y-14196936D01*
X8090753Y-14196936D02*
X8081229Y-14206460D01*
X8081229Y-14206460D02*
X8062182Y-14215984D01*
X8062182Y-14215984D02*
X8043134Y-14215984D01*
X8043134Y-14215984D02*
X8024086Y-14206460D01*
X8024086Y-14206460D02*
X8014563Y-14196936D01*
X8014563Y-14196936D02*
X8005039Y-14177888D01*
X8005039Y-14177888D02*
X7995515Y-14139793D01*
X7995515Y-14139793D02*
X7995515Y-14092174D01*
X7995515Y-14092174D02*
X8005039Y-14054079D01*
X8005039Y-14054079D02*
X8014563Y-14035031D01*
X8014563Y-14035031D02*
X8024086Y-14025508D01*
X8024086Y-14025508D02*
X8043134Y-14015984D01*
X8195515Y-14196936D02*
X8205039Y-14206460D01*
X8205039Y-14206460D02*
X8195515Y-14215984D01*
X8195515Y-14215984D02*
X8185991Y-14206460D01*
X8185991Y-14206460D02*
X8195515Y-14196936D01*
X8195515Y-14196936D02*
X8195515Y-14215984D01*
X8328848Y-14015984D02*
X8347896Y-14015984D01*
X8347896Y-14015984D02*
X8366944Y-14025508D01*
X8366944Y-14025508D02*
X8376467Y-14035031D01*
X8376467Y-14035031D02*
X8385991Y-14054079D01*
X8385991Y-14054079D02*
X8395515Y-14092174D01*
X8395515Y-14092174D02*
X8395515Y-14139793D01*
X8395515Y-14139793D02*
X8385991Y-14177888D01*
X8385991Y-14177888D02*
X8376467Y-14196936D01*
X8376467Y-14196936D02*
X8366944Y-14206460D01*
X8366944Y-14206460D02*
X8347896Y-14215984D01*
X8347896Y-14215984D02*
X8328848Y-14215984D01*
X8328848Y-14215984D02*
X8309801Y-14206460D01*
X8309801Y-14206460D02*
X8300277Y-14196936D01*
X8300277Y-14196936D02*
X8290753Y-14177888D01*
X8290753Y-14177888D02*
X8281229Y-14139793D01*
X8281229Y-14139793D02*
X8281229Y-14092174D01*
X8281229Y-14092174D02*
X8290753Y-14054079D01*
X8290753Y-14054079D02*
X8300277Y-14035031D01*
X8300277Y-14035031D02*
X8309801Y-14025508D01*
X8309801Y-14025508D02*
X8328848Y-14015984D01*
X8462182Y-14015984D02*
X8585991Y-14015984D01*
X8585991Y-14015984D02*
X8519325Y-14092174D01*
X8519325Y-14092174D02*
X8547896Y-14092174D01*
X8547896Y-14092174D02*
X8566944Y-14101698D01*
X8566944Y-14101698D02*
X8576468Y-14111222D01*
X8576468Y-14111222D02*
X8585991Y-14130269D01*
X8585991Y-14130269D02*
X8585991Y-14177888D01*
X8585991Y-14177888D02*
X8576468Y-14196936D01*
X8576468Y-14196936D02*
X8566944Y-14206460D01*
X8566944Y-14206460D02*
X8547896Y-14215984D01*
X8547896Y-14215984D02*
X8490753Y-14215984D01*
X8490753Y-14215984D02*
X8471706Y-14206460D01*
X8471706Y-14206460D02*
X8462182Y-14196936D01*
X8681229Y-14215984D02*
X8719325Y-14215984D01*
X8719325Y-14215984D02*
X8738372Y-14206460D01*
X8738372Y-14206460D02*
X8747896Y-14196936D01*
X8747896Y-14196936D02*
X8766944Y-14168365D01*
X8766944Y-14168365D02*
X8776468Y-14130269D01*
X8776468Y-14130269D02*
X8776468Y-14054079D01*
X8776468Y-14054079D02*
X8766944Y-14035031D01*
X8766944Y-14035031D02*
X8757420Y-14025508D01*
X8757420Y-14025508D02*
X8738372Y-14015984D01*
X8738372Y-14015984D02*
X8700277Y-14015984D01*
X8700277Y-14015984D02*
X8681229Y-14025508D01*
X8681229Y-14025508D02*
X8671706Y-14035031D01*
X8671706Y-14035031D02*
X8662182Y-14054079D01*
X8662182Y-14054079D02*
X8662182Y-14101698D01*
X8662182Y-14101698D02*
X8671706Y-14120746D01*
X8671706Y-14120746D02*
X8681229Y-14130269D01*
X8681229Y-14130269D02*
X8700277Y-14139793D01*
X8700277Y-14139793D02*
X8738372Y-14139793D01*
X8738372Y-14139793D02*
X8757420Y-14130269D01*
X8757420Y-14130269D02*
X8766944Y-14120746D01*
X8766944Y-14120746D02*
X8776468Y-14101698D01*
X8947896Y-14082650D02*
X8947896Y-14215984D01*
X8900277Y-14006460D02*
X8852658Y-14149317D01*
X8852658Y-14149317D02*
X8976468Y-14149317D01*
X9043134Y-14015984D02*
X9043134Y-14054079D01*
X9119325Y-14015984D02*
X9119325Y-14054079D01*
X9414563Y-14292174D02*
X9405039Y-14282650D01*
X9405039Y-14282650D02*
X9385991Y-14254079D01*
X9385991Y-14254079D02*
X9376468Y-14235031D01*
X9376468Y-14235031D02*
X9366944Y-14206460D01*
X9366944Y-14206460D02*
X9357420Y-14158841D01*
X9357420Y-14158841D02*
X9357420Y-14120746D01*
X9357420Y-14120746D02*
X9366944Y-14073127D01*
X9366944Y-14073127D02*
X9376468Y-14044555D01*
X9376468Y-14044555D02*
X9385991Y-14025508D01*
X9385991Y-14025508D02*
X9405039Y-13996936D01*
X9405039Y-13996936D02*
X9414563Y-13987412D01*
X9519325Y-14101698D02*
X9500277Y-14092174D01*
X9500277Y-14092174D02*
X9490753Y-14082650D01*
X9490753Y-14082650D02*
X9481230Y-14063603D01*
X9481230Y-14063603D02*
X9481230Y-14054079D01*
X9481230Y-14054079D02*
X9490753Y-14035031D01*
X9490753Y-14035031D02*
X9500277Y-14025508D01*
X9500277Y-14025508D02*
X9519325Y-14015984D01*
X9519325Y-14015984D02*
X9557420Y-14015984D01*
X9557420Y-14015984D02*
X9576468Y-14025508D01*
X9576468Y-14025508D02*
X9585991Y-14035031D01*
X9585991Y-14035031D02*
X9595515Y-14054079D01*
X9595515Y-14054079D02*
X9595515Y-14063603D01*
X9595515Y-14063603D02*
X9585991Y-14082650D01*
X9585991Y-14082650D02*
X9576468Y-14092174D01*
X9576468Y-14092174D02*
X9557420Y-14101698D01*
X9557420Y-14101698D02*
X9519325Y-14101698D01*
X9519325Y-14101698D02*
X9500277Y-14111222D01*
X9500277Y-14111222D02*
X9490753Y-14120746D01*
X9490753Y-14120746D02*
X9481230Y-14139793D01*
X9481230Y-14139793D02*
X9481230Y-14177888D01*
X9481230Y-14177888D02*
X9490753Y-14196936D01*
X9490753Y-14196936D02*
X9500277Y-14206460D01*
X9500277Y-14206460D02*
X9519325Y-14215984D01*
X9519325Y-14215984D02*
X9557420Y-14215984D01*
X9557420Y-14215984D02*
X9576468Y-14206460D01*
X9576468Y-14206460D02*
X9585991Y-14196936D01*
X9585991Y-14196936D02*
X9595515Y-14177888D01*
X9595515Y-14177888D02*
X9595515Y-14139793D01*
X9595515Y-14139793D02*
X9585991Y-14120746D01*
X9585991Y-14120746D02*
X9576468Y-14111222D01*
X9576468Y-14111222D02*
X9557420Y-14101698D01*
X9719325Y-14015984D02*
X9738372Y-14015984D01*
X9738372Y-14015984D02*
X9757420Y-14025508D01*
X9757420Y-14025508D02*
X9766944Y-14035031D01*
X9766944Y-14035031D02*
X9776468Y-14054079D01*
X9776468Y-14054079D02*
X9785991Y-14092174D01*
X9785991Y-14092174D02*
X9785991Y-14139793D01*
X9785991Y-14139793D02*
X9776468Y-14177888D01*
X9776468Y-14177888D02*
X9766944Y-14196936D01*
X9766944Y-14196936D02*
X9757420Y-14206460D01*
X9757420Y-14206460D02*
X9738372Y-14215984D01*
X9738372Y-14215984D02*
X9719325Y-14215984D01*
X9719325Y-14215984D02*
X9700277Y-14206460D01*
X9700277Y-14206460D02*
X9690753Y-14196936D01*
X9690753Y-14196936D02*
X9681230Y-14177888D01*
X9681230Y-14177888D02*
X9671706Y-14139793D01*
X9671706Y-14139793D02*
X9671706Y-14092174D01*
X9671706Y-14092174D02*
X9681230Y-14054079D01*
X9681230Y-14054079D02*
X9690753Y-14035031D01*
X9690753Y-14035031D02*
X9700277Y-14025508D01*
X9700277Y-14025508D02*
X9719325Y-14015984D01*
X10024087Y-14215984D02*
X10024087Y-14015984D01*
X10109801Y-14215984D02*
X10109801Y-14111222D01*
X10109801Y-14111222D02*
X10100277Y-14092174D01*
X10100277Y-14092174D02*
X10081230Y-14082650D01*
X10081230Y-14082650D02*
X10052658Y-14082650D01*
X10052658Y-14082650D02*
X10033611Y-14092174D01*
X10033611Y-14092174D02*
X10024087Y-14101698D01*
X10233611Y-14215984D02*
X10214563Y-14206460D01*
X10214563Y-14206460D02*
X10205039Y-14196936D01*
X10205039Y-14196936D02*
X10195515Y-14177888D01*
X10195515Y-14177888D02*
X10195515Y-14120746D01*
X10195515Y-14120746D02*
X10205039Y-14101698D01*
X10205039Y-14101698D02*
X10214563Y-14092174D01*
X10214563Y-14092174D02*
X10233611Y-14082650D01*
X10233611Y-14082650D02*
X10262182Y-14082650D01*
X10262182Y-14082650D02*
X10281230Y-14092174D01*
X10281230Y-14092174D02*
X10290753Y-14101698D01*
X10290753Y-14101698D02*
X10300277Y-14120746D01*
X10300277Y-14120746D02*
X10300277Y-14177888D01*
X10300277Y-14177888D02*
X10290753Y-14196936D01*
X10290753Y-14196936D02*
X10281230Y-14206460D01*
X10281230Y-14206460D02*
X10262182Y-14215984D01*
X10262182Y-14215984D02*
X10233611Y-14215984D01*
X10414563Y-14215984D02*
X10395515Y-14206460D01*
X10395515Y-14206460D02*
X10385992Y-14187412D01*
X10385992Y-14187412D02*
X10385992Y-14015984D01*
X10566944Y-14206460D02*
X10547896Y-14215984D01*
X10547896Y-14215984D02*
X10509801Y-14215984D01*
X10509801Y-14215984D02*
X10490753Y-14206460D01*
X10490753Y-14206460D02*
X10481230Y-14187412D01*
X10481230Y-14187412D02*
X10481230Y-14111222D01*
X10481230Y-14111222D02*
X10490753Y-14092174D01*
X10490753Y-14092174D02*
X10509801Y-14082650D01*
X10509801Y-14082650D02*
X10547896Y-14082650D01*
X10547896Y-14082650D02*
X10566944Y-14092174D01*
X10566944Y-14092174D02*
X10576468Y-14111222D01*
X10576468Y-14111222D02*
X10576468Y-14130269D01*
X10576468Y-14130269D02*
X10481230Y-14149317D01*
X10652658Y-14206460D02*
X10671706Y-14215984D01*
X10671706Y-14215984D02*
X10709801Y-14215984D01*
X10709801Y-14215984D02*
X10728849Y-14206460D01*
X10728849Y-14206460D02*
X10738373Y-14187412D01*
X10738373Y-14187412D02*
X10738373Y-14177888D01*
X10738373Y-14177888D02*
X10728849Y-14158841D01*
X10728849Y-14158841D02*
X10709801Y-14149317D01*
X10709801Y-14149317D02*
X10681230Y-14149317D01*
X10681230Y-14149317D02*
X10662182Y-14139793D01*
X10662182Y-14139793D02*
X10652658Y-14120746D01*
X10652658Y-14120746D02*
X10652658Y-14111222D01*
X10652658Y-14111222D02*
X10662182Y-14092174D01*
X10662182Y-14092174D02*
X10681230Y-14082650D01*
X10681230Y-14082650D02*
X10709801Y-14082650D01*
X10709801Y-14082650D02*
X10728849Y-14092174D01*
X10805039Y-14292174D02*
X10814563Y-14282650D01*
X10814563Y-14282650D02*
X10833611Y-14254079D01*
X10833611Y-14254079D02*
X10843134Y-14235031D01*
X10843134Y-14235031D02*
X10852658Y-14206460D01*
X10852658Y-14206460D02*
X10862182Y-14158841D01*
X10862182Y-14158841D02*
X10862182Y-14120746D01*
X10862182Y-14120746D02*
X10852658Y-14073127D01*
X10852658Y-14073127D02*
X10843134Y-14044555D01*
X10843134Y-14044555D02*
X10833611Y-14025508D01*
X10833611Y-14025508D02*
X10814563Y-13996936D01*
X10814563Y-13996936D02*
X10805039Y-13987412D01*
X5810211Y-14459211D02*
X5810211Y-14317789D01*
X5668789Y-14317789D01*
X5668789Y-14459211D01*
X5810211Y-14459211D01*
X6090753Y-14299031D02*
X6100277Y-14289508D01*
X6100277Y-14289508D02*
X6119324Y-14279984D01*
X6119324Y-14279984D02*
X6166943Y-14279984D01*
X6166943Y-14279984D02*
X6185991Y-14289508D01*
X6185991Y-14289508D02*
X6195515Y-14299031D01*
X6195515Y-14299031D02*
X6205039Y-14318079D01*
X6205039Y-14318079D02*
X6205039Y-14337127D01*
X6205039Y-14337127D02*
X6195515Y-14365698D01*
X6195515Y-14365698D02*
X6081229Y-14479984D01*
X6081229Y-14479984D02*
X6205039Y-14479984D01*
X6290753Y-14460936D02*
X6300277Y-14470460D01*
X6300277Y-14470460D02*
X6290753Y-14479984D01*
X6290753Y-14479984D02*
X6281229Y-14470460D01*
X6281229Y-14470460D02*
X6290753Y-14460936D01*
X6290753Y-14460936D02*
X6290753Y-14479984D01*
X6414562Y-14365698D02*
X6395515Y-14356174D01*
X6395515Y-14356174D02*
X6385991Y-14346650D01*
X6385991Y-14346650D02*
X6376467Y-14327603D01*
X6376467Y-14327603D02*
X6376467Y-14318079D01*
X6376467Y-14318079D02*
X6385991Y-14299031D01*
X6385991Y-14299031D02*
X6395515Y-14289508D01*
X6395515Y-14289508D02*
X6414562Y-14279984D01*
X6414562Y-14279984D02*
X6452658Y-14279984D01*
X6452658Y-14279984D02*
X6471705Y-14289508D01*
X6471705Y-14289508D02*
X6481229Y-14299031D01*
X6481229Y-14299031D02*
X6490753Y-14318079D01*
X6490753Y-14318079D02*
X6490753Y-14327603D01*
X6490753Y-14327603D02*
X6481229Y-14346650D01*
X6481229Y-14346650D02*
X6471705Y-14356174D01*
X6471705Y-14356174D02*
X6452658Y-14365698D01*
X6452658Y-14365698D02*
X6414562Y-14365698D01*
X6414562Y-14365698D02*
X6395515Y-14375222D01*
X6395515Y-14375222D02*
X6385991Y-14384746D01*
X6385991Y-14384746D02*
X6376467Y-14403793D01*
X6376467Y-14403793D02*
X6376467Y-14441888D01*
X6376467Y-14441888D02*
X6385991Y-14460936D01*
X6385991Y-14460936D02*
X6395515Y-14470460D01*
X6395515Y-14470460D02*
X6414562Y-14479984D01*
X6414562Y-14479984D02*
X6452658Y-14479984D01*
X6452658Y-14479984D02*
X6471705Y-14470460D01*
X6471705Y-14470460D02*
X6481229Y-14460936D01*
X6481229Y-14460936D02*
X6490753Y-14441888D01*
X6490753Y-14441888D02*
X6490753Y-14403793D01*
X6490753Y-14403793D02*
X6481229Y-14384746D01*
X6481229Y-14384746D02*
X6471705Y-14375222D01*
X6471705Y-14375222D02*
X6452658Y-14365698D01*
X6566943Y-14299031D02*
X6576467Y-14289508D01*
X6576467Y-14289508D02*
X6595515Y-14279984D01*
X6595515Y-14279984D02*
X6643134Y-14279984D01*
X6643134Y-14279984D02*
X6662182Y-14289508D01*
X6662182Y-14289508D02*
X6671705Y-14299031D01*
X6671705Y-14299031D02*
X6681229Y-14318079D01*
X6681229Y-14318079D02*
X6681229Y-14337127D01*
X6681229Y-14337127D02*
X6671705Y-14365698D01*
X6671705Y-14365698D02*
X6557420Y-14479984D01*
X6557420Y-14479984D02*
X6681229Y-14479984D01*
X6805039Y-14279984D02*
X6824086Y-14279984D01*
X6824086Y-14279984D02*
X6843134Y-14289508D01*
X6843134Y-14289508D02*
X6852658Y-14299031D01*
X6852658Y-14299031D02*
X6862182Y-14318079D01*
X6862182Y-14318079D02*
X6871705Y-14356174D01*
X6871705Y-14356174D02*
X6871705Y-14403793D01*
X6871705Y-14403793D02*
X6862182Y-14441888D01*
X6862182Y-14441888D02*
X6852658Y-14460936D01*
X6852658Y-14460936D02*
X6843134Y-14470460D01*
X6843134Y-14470460D02*
X6824086Y-14479984D01*
X6824086Y-14479984D02*
X6805039Y-14479984D01*
X6805039Y-14479984D02*
X6785991Y-14470460D01*
X6785991Y-14470460D02*
X6776467Y-14460936D01*
X6776467Y-14460936D02*
X6766943Y-14441888D01*
X6766943Y-14441888D02*
X6757420Y-14403793D01*
X6757420Y-14403793D02*
X6757420Y-14356174D01*
X6757420Y-14356174D02*
X6766943Y-14318079D01*
X6766943Y-14318079D02*
X6776467Y-14299031D01*
X6776467Y-14299031D02*
X6785991Y-14289508D01*
X6785991Y-14289508D02*
X6805039Y-14279984D01*
X6957420Y-14479984D02*
X6957420Y-14346650D01*
X6957420Y-14365698D02*
X6966943Y-14356174D01*
X6966943Y-14356174D02*
X6985991Y-14346650D01*
X6985991Y-14346650D02*
X7014563Y-14346650D01*
X7014563Y-14346650D02*
X7033610Y-14356174D01*
X7033610Y-14356174D02*
X7043134Y-14375222D01*
X7043134Y-14375222D02*
X7043134Y-14479984D01*
X7043134Y-14375222D02*
X7052658Y-14356174D01*
X7052658Y-14356174D02*
X7071705Y-14346650D01*
X7071705Y-14346650D02*
X7100277Y-14346650D01*
X7100277Y-14346650D02*
X7119324Y-14356174D01*
X7119324Y-14356174D02*
X7128848Y-14375222D01*
X7128848Y-14375222D02*
X7128848Y-14479984D01*
X7224086Y-14479984D02*
X7224086Y-14346650D01*
X7224086Y-14365698D02*
X7233610Y-14356174D01*
X7233610Y-14356174D02*
X7252658Y-14346650D01*
X7252658Y-14346650D02*
X7281229Y-14346650D01*
X7281229Y-14346650D02*
X7300277Y-14356174D01*
X7300277Y-14356174D02*
X7309801Y-14375222D01*
X7309801Y-14375222D02*
X7309801Y-14479984D01*
X7309801Y-14375222D02*
X7319324Y-14356174D01*
X7319324Y-14356174D02*
X7338372Y-14346650D01*
X7338372Y-14346650D02*
X7366943Y-14346650D01*
X7366943Y-14346650D02*
X7385991Y-14356174D01*
X7385991Y-14356174D02*
X7395515Y-14375222D01*
X7395515Y-14375222D02*
X7395515Y-14479984D01*
X7785991Y-14270460D02*
X7614563Y-14527603D01*
X8043134Y-14279984D02*
X8062182Y-14279984D01*
X8062182Y-14279984D02*
X8081229Y-14289508D01*
X8081229Y-14289508D02*
X8090753Y-14299031D01*
X8090753Y-14299031D02*
X8100277Y-14318079D01*
X8100277Y-14318079D02*
X8109801Y-14356174D01*
X8109801Y-14356174D02*
X8109801Y-14403793D01*
X8109801Y-14403793D02*
X8100277Y-14441888D01*
X8100277Y-14441888D02*
X8090753Y-14460936D01*
X8090753Y-14460936D02*
X8081229Y-14470460D01*
X8081229Y-14470460D02*
X8062182Y-14479984D01*
X8062182Y-14479984D02*
X8043134Y-14479984D01*
X8043134Y-14479984D02*
X8024086Y-14470460D01*
X8024086Y-14470460D02*
X8014563Y-14460936D01*
X8014563Y-14460936D02*
X8005039Y-14441888D01*
X8005039Y-14441888D02*
X7995515Y-14403793D01*
X7995515Y-14403793D02*
X7995515Y-14356174D01*
X7995515Y-14356174D02*
X8005039Y-14318079D01*
X8005039Y-14318079D02*
X8014563Y-14299031D01*
X8014563Y-14299031D02*
X8024086Y-14289508D01*
X8024086Y-14289508D02*
X8043134Y-14279984D01*
X8195515Y-14460936D02*
X8205039Y-14470460D01*
X8205039Y-14470460D02*
X8195515Y-14479984D01*
X8195515Y-14479984D02*
X8185991Y-14470460D01*
X8185991Y-14470460D02*
X8195515Y-14460936D01*
X8195515Y-14460936D02*
X8195515Y-14479984D01*
X8395515Y-14479984D02*
X8281229Y-14479984D01*
X8338372Y-14479984D02*
X8338372Y-14279984D01*
X8338372Y-14279984D02*
X8319325Y-14308555D01*
X8319325Y-14308555D02*
X8300277Y-14327603D01*
X8300277Y-14327603D02*
X8281229Y-14337127D01*
X8585991Y-14479984D02*
X8471706Y-14479984D01*
X8528848Y-14479984D02*
X8528848Y-14279984D01*
X8528848Y-14279984D02*
X8509801Y-14308555D01*
X8509801Y-14308555D02*
X8490753Y-14327603D01*
X8490753Y-14327603D02*
X8471706Y-14337127D01*
X8776468Y-14479984D02*
X8662182Y-14479984D01*
X8719325Y-14479984D02*
X8719325Y-14279984D01*
X8719325Y-14279984D02*
X8700277Y-14308555D01*
X8700277Y-14308555D02*
X8681229Y-14327603D01*
X8681229Y-14327603D02*
X8662182Y-14337127D01*
X8900277Y-14279984D02*
X8919325Y-14279984D01*
X8919325Y-14279984D02*
X8938372Y-14289508D01*
X8938372Y-14289508D02*
X8947896Y-14299031D01*
X8947896Y-14299031D02*
X8957420Y-14318079D01*
X8957420Y-14318079D02*
X8966944Y-14356174D01*
X8966944Y-14356174D02*
X8966944Y-14403793D01*
X8966944Y-14403793D02*
X8957420Y-14441888D01*
X8957420Y-14441888D02*
X8947896Y-14460936D01*
X8947896Y-14460936D02*
X8938372Y-14470460D01*
X8938372Y-14470460D02*
X8919325Y-14479984D01*
X8919325Y-14479984D02*
X8900277Y-14479984D01*
X8900277Y-14479984D02*
X8881229Y-14470460D01*
X8881229Y-14470460D02*
X8871706Y-14460936D01*
X8871706Y-14460936D02*
X8862182Y-14441888D01*
X8862182Y-14441888D02*
X8852658Y-14403793D01*
X8852658Y-14403793D02*
X8852658Y-14356174D01*
X8852658Y-14356174D02*
X8862182Y-14318079D01*
X8862182Y-14318079D02*
X8871706Y-14299031D01*
X8871706Y-14299031D02*
X8881229Y-14289508D01*
X8881229Y-14289508D02*
X8900277Y-14279984D01*
X9043134Y-14279984D02*
X9043134Y-14318079D01*
X9119325Y-14279984D02*
X9119325Y-14318079D01*
X9414563Y-14556174D02*
X9405039Y-14546650D01*
X9405039Y-14546650D02*
X9385991Y-14518079D01*
X9385991Y-14518079D02*
X9376468Y-14499031D01*
X9376468Y-14499031D02*
X9366944Y-14470460D01*
X9366944Y-14470460D02*
X9357420Y-14422841D01*
X9357420Y-14422841D02*
X9357420Y-14384746D01*
X9357420Y-14384746D02*
X9366944Y-14337127D01*
X9366944Y-14337127D02*
X9376468Y-14308555D01*
X9376468Y-14308555D02*
X9385991Y-14289508D01*
X9385991Y-14289508D02*
X9405039Y-14260936D01*
X9405039Y-14260936D02*
X9414563Y-14251412D01*
X9481230Y-14299031D02*
X9490753Y-14289508D01*
X9490753Y-14289508D02*
X9509801Y-14279984D01*
X9509801Y-14279984D02*
X9557420Y-14279984D01*
X9557420Y-14279984D02*
X9576468Y-14289508D01*
X9576468Y-14289508D02*
X9585991Y-14299031D01*
X9585991Y-14299031D02*
X9595515Y-14318079D01*
X9595515Y-14318079D02*
X9595515Y-14337127D01*
X9595515Y-14337127D02*
X9585991Y-14365698D01*
X9585991Y-14365698D02*
X9471706Y-14479984D01*
X9471706Y-14479984D02*
X9595515Y-14479984D01*
X9833611Y-14479984D02*
X9833611Y-14279984D01*
X9919325Y-14479984D02*
X9919325Y-14375222D01*
X9919325Y-14375222D02*
X9909801Y-14356174D01*
X9909801Y-14356174D02*
X9890753Y-14346650D01*
X9890753Y-14346650D02*
X9862182Y-14346650D01*
X9862182Y-14346650D02*
X9843134Y-14356174D01*
X9843134Y-14356174D02*
X9833611Y-14365698D01*
X10043134Y-14479984D02*
X10024087Y-14470460D01*
X10024087Y-14470460D02*
X10014563Y-14460936D01*
X10014563Y-14460936D02*
X10005039Y-14441888D01*
X10005039Y-14441888D02*
X10005039Y-14384746D01*
X10005039Y-14384746D02*
X10014563Y-14365698D01*
X10014563Y-14365698D02*
X10024087Y-14356174D01*
X10024087Y-14356174D02*
X10043134Y-14346650D01*
X10043134Y-14346650D02*
X10071706Y-14346650D01*
X10071706Y-14346650D02*
X10090753Y-14356174D01*
X10090753Y-14356174D02*
X10100277Y-14365698D01*
X10100277Y-14365698D02*
X10109801Y-14384746D01*
X10109801Y-14384746D02*
X10109801Y-14441888D01*
X10109801Y-14441888D02*
X10100277Y-14460936D01*
X10100277Y-14460936D02*
X10090753Y-14470460D01*
X10090753Y-14470460D02*
X10071706Y-14479984D01*
X10071706Y-14479984D02*
X10043134Y-14479984D01*
X10224087Y-14479984D02*
X10205039Y-14470460D01*
X10205039Y-14470460D02*
X10195515Y-14451412D01*
X10195515Y-14451412D02*
X10195515Y-14279984D01*
X10376468Y-14470460D02*
X10357420Y-14479984D01*
X10357420Y-14479984D02*
X10319325Y-14479984D01*
X10319325Y-14479984D02*
X10300277Y-14470460D01*
X10300277Y-14470460D02*
X10290753Y-14451412D01*
X10290753Y-14451412D02*
X10290753Y-14375222D01*
X10290753Y-14375222D02*
X10300277Y-14356174D01*
X10300277Y-14356174D02*
X10319325Y-14346650D01*
X10319325Y-14346650D02*
X10357420Y-14346650D01*
X10357420Y-14346650D02*
X10376468Y-14356174D01*
X10376468Y-14356174D02*
X10385992Y-14375222D01*
X10385992Y-14375222D02*
X10385992Y-14394269D01*
X10385992Y-14394269D02*
X10290753Y-14413317D01*
X10462182Y-14470460D02*
X10481230Y-14479984D01*
X10481230Y-14479984D02*
X10519325Y-14479984D01*
X10519325Y-14479984D02*
X10538373Y-14470460D01*
X10538373Y-14470460D02*
X10547896Y-14451412D01*
X10547896Y-14451412D02*
X10547896Y-14441888D01*
X10547896Y-14441888D02*
X10538373Y-14422841D01*
X10538373Y-14422841D02*
X10519325Y-14413317D01*
X10519325Y-14413317D02*
X10490753Y-14413317D01*
X10490753Y-14413317D02*
X10471706Y-14403793D01*
X10471706Y-14403793D02*
X10462182Y-14384746D01*
X10462182Y-14384746D02*
X10462182Y-14375222D01*
X10462182Y-14375222D02*
X10471706Y-14356174D01*
X10471706Y-14356174D02*
X10490753Y-14346650D01*
X10490753Y-14346650D02*
X10519325Y-14346650D01*
X10519325Y-14346650D02*
X10538373Y-14356174D01*
X10614563Y-14556174D02*
X10624087Y-14546650D01*
X10624087Y-14546650D02*
X10643134Y-14518079D01*
X10643134Y-14518079D02*
X10652658Y-14499031D01*
X10652658Y-14499031D02*
X10662182Y-14470460D01*
X10662182Y-14470460D02*
X10671706Y-14422841D01*
X10671706Y-14422841D02*
X10671706Y-14384746D01*
X10671706Y-14384746D02*
X10662182Y-14337127D01*
X10662182Y-14337127D02*
X10652658Y-14308555D01*
X10652658Y-14308555D02*
X10643134Y-14289508D01*
X10643134Y-14289508D02*
X10624087Y-14260936D01*
X10624087Y-14260936D02*
X10614563Y-14251412D01*
M02*
