M48
; DRILL file {KiCad 8.0.4} date 2024-12-14T22:45:06+0100
; FORMAT={-:-/ absolute / inch / decimal}
; #@! TF.CreationDate,2024-12-14T22:45:06+01:00
; #@! TF.GenerationSoftware,Kicad,Pcbnew,8.0.4
; #@! TF.FileFunction,Plated,1,4,PTH
FMAT,2
INCH
; #@! TA.AperFunction,Plated,PTH,ViaDrill
T1C0.0118
; #@! TA.AperFunction,Plated,PTH,ComponentDrill
T2C0.0339
; #@! TA.AperFunction,Plated,PTH,ComponentDrill
T3C0.0394
; #@! TA.AperFunction,Plated,PTH,ComponentDrill
T4C0.1110
%
G90
G05
T1
X2.9793Y-4.259
X3.0127Y-4.259
X3.1343Y-4.261
X3.1398Y-1.8898
X3.1398Y-1.9685
X3.1398Y-1.998
X3.1677Y-4.261
X3.199Y-1.884
X3.239Y-2.134
X3.239Y-2.174
X3.239Y-2.214
X3.239Y-2.254
X3.259Y-1.994
X3.279Y-1.934
X3.299Y-1.874
X3.329Y-1.994
X3.3582Y-4.3782
X3.379Y-1.834
X3.379Y-1.934
X3.3818Y-4.4018
X3.4782Y-4.4682
X3.5018Y-4.4918
X3.6082Y-4.4182
X3.6318Y-4.4418
X3.8158Y-3.9557
X3.8158Y-4.0007
X3.816Y-2.646
X3.8162Y-3.7918
X3.8162Y-3.8368
X3.8162Y-4.12
X3.8162Y-4.165
X3.8162Y-4.2845
X3.8162Y-4.3295
X3.8163Y-4.4525
X3.8163Y-4.4975
X3.8165Y-2.8082
X3.8165Y-2.8532
X3.8166Y-2.9713
X3.8166Y-3.0163
X3.8166Y-3.1352
X3.8166Y-3.1802
X3.8166Y-3.4627
X3.8166Y-3.5077
X3.8166Y-3.6265
X3.8166Y-3.6715
X3.8169Y-2.6898
X3.817Y-3.2989
X3.817Y-3.3439
X3.874Y-3.6
X3.878Y-2.3566
X3.878Y-2.3901
X3.881Y-2.5196
X3.881Y-2.5531
X3.882Y-2.192
X3.882Y-2.2255
X3.888Y-2.0279
X3.888Y-2.0613
X3.9762Y-3.1442
X3.9998Y-3.1678
X4.0242Y-2.9582
X4.046Y-2.7481
X4.046Y-2.7815
X4.0478Y-2.9818
X4.0826Y-2.4815
X4.0826Y-2.5265
X4.083Y-1.9898
X4.083Y-2.0348
X4.083Y-2.154
X4.083Y-2.199
X4.083Y-2.3185
X4.083Y-2.3635
X4.1082Y-4.6798
X4.1318Y-4.6562
X4.152Y-3.7573
X4.152Y-3.7907
X4.1958Y-3.0854
X4.1958Y-3.1304
X4.1965Y-2.9011
X4.1965Y-2.9461
X4.1969Y-2.71
X4.1969Y-2.755
X4.2077Y-3.575
X4.2077Y-3.62
X4.2553Y-4.162
X4.27Y-2.08
X4.27Y-2.22
X4.2887Y-4.162
X4.3401Y-4.1626
X4.3735Y-4.1626
X4.4333Y-4.162
X4.4667Y-4.162
X4.5253Y-4.164
X4.5587Y-4.164
X4.7874Y-4.4134
X4.7874Y-4.4685
X4.7874Y-4.5197
T2
X3.008Y-4.7504
X3.008Y-4.9
X3.058Y-4.8252
X3.058Y-4.9748
X3.108Y-4.7504
X3.108Y-4.9
X3.158Y-4.8252
X3.158Y-4.9748
X3.208Y-4.7504
X3.208Y-4.9
X3.258Y-4.8252
X3.258Y-4.9748
X3.308Y-4.7504
X3.308Y-4.9
X3.358Y-4.8252
X3.358Y-4.9748
X3.408Y-4.7504
X3.408Y-4.9
X3.458Y-4.8252
X3.458Y-4.9748
X3.508Y-4.7504
X3.508Y-4.9
X3.558Y-4.8252
X3.558Y-4.9748
X3.608Y-4.7504
X3.608Y-4.9
X3.658Y-4.8252
X3.658Y-4.9748
X3.708Y-4.7504
X3.708Y-4.9
X3.758Y-4.8252
X3.758Y-4.9748
X3.808Y-4.7504
X3.808Y-4.9
X3.858Y-4.8252
X3.858Y-4.9748
X3.908Y-4.7504
X3.908Y-4.9
X3.958Y-4.8252
X3.958Y-4.9748
X4.008Y-4.7504
X4.008Y-4.9
X4.058Y-4.8252
X4.058Y-4.9748
X4.108Y-4.7504
X4.108Y-4.9
X4.158Y-4.8252
X4.158Y-4.9748
X4.208Y-4.7504
X4.208Y-4.9
T3
X2.73Y-1.97
X2.73Y-2.07
X2.73Y-2.17
X2.73Y-2.27
X2.73Y-2.37
X2.73Y-2.47
X2.73Y-2.57
X2.73Y-2.67
X2.73Y-2.77
X2.73Y-2.87
X2.73Y-2.97
X2.73Y-3.07
X2.73Y-3.17
X2.73Y-3.27
X2.73Y-3.37
X2.73Y-3.47
X2.73Y-3.57
X2.73Y-3.67
X2.73Y-3.77
X2.73Y-3.87
X2.83Y-1.97
X2.83Y-2.07
X2.83Y-2.17
X2.83Y-2.27
X2.83Y-2.37
X2.83Y-2.47
X2.83Y-2.57
X2.83Y-2.67
X2.83Y-2.77
X2.83Y-2.87
X2.83Y-2.97
X2.83Y-3.07
X2.83Y-3.17
X2.83Y-3.27
X2.83Y-3.37
X2.83Y-3.47
X2.83Y-3.57
X2.83Y-3.67
X2.83Y-3.77
X2.83Y-3.87
X4.365Y-1.97
X4.365Y-2.07
X4.365Y-2.17
X4.365Y-2.27
X4.365Y-2.37
X4.365Y-2.47
X4.365Y-2.57
X4.365Y-2.67
X4.365Y-2.77
X4.365Y-2.87
X4.365Y-2.97
X4.365Y-3.07
X4.365Y-3.17
X4.365Y-3.27
X4.365Y-3.37
X4.365Y-3.47
X4.365Y-3.57
X4.365Y-3.67
X4.365Y-3.77
X4.365Y-3.87
X4.465Y-1.97
X4.465Y-2.07
X4.465Y-2.17
X4.465Y-2.27
X4.465Y-2.37
X4.465Y-2.47
X4.465Y-2.57
X4.465Y-2.67
X4.465Y-2.77
X4.465Y-2.87
X4.465Y-2.97
X4.465Y-3.07
X4.465Y-3.17
X4.465Y-3.27
X4.465Y-3.37
X4.465Y-3.47
X4.465Y-3.57
X4.465Y-3.67
X4.465Y-3.77
X4.465Y-3.87
T4
X2.693Y-4.9
X4.523Y-4.9
M30
