%TF.GenerationSoftware,KiCad,Pcbnew,8.0.4*%
%TF.CreationDate,2024-12-14T22:45:06+01:00*%
%TF.ProjectId,SpicyLightFX3,53706963-794c-4696-9768-744658332e6b,rev?*%
%TF.SameCoordinates,Original*%
%TF.FileFunction,Drillmap*%
%TF.FilePolarity,Positive*%
%FSLAX45Y45*%
G04 Gerber Fmt 4.5, Leading zero omitted, Abs format (unit mm)*
G04 Created by KiCad (PCBNEW 8.0.4) date 2024-12-14 22:45:06*
%MOMM*%
%LPD*%
G01*
G04 APERTURE LIST*
%ADD10C,0.050000*%
%ADD11C,0.200000*%
%ADD12C,0.115200*%
G04 APERTURE END LIST*
D10*
X5842000Y-3048000D02*
X12446000Y-3048000D01*
X12446000Y-12954000D01*
X5842000Y-12954000D01*
X5842000Y-3048000D01*
X11387040Y-11135360D02*
G75*
G02*
X11097040Y-11135360I-145000J0D01*
G01*
X11097040Y-11135360D02*
G75*
G02*
X11387040Y-11135360I145000J0D01*
G01*
X11387040Y-3708400D02*
G75*
G02*
X11097040Y-3708400I-145000J0D01*
G01*
X11097040Y-3708400D02*
G75*
G02*
X11387040Y-3708400I145000J0D01*
G01*
X7202500Y-3707500D02*
G75*
G02*
X6912500Y-3707500I-145000J0D01*
G01*
X6912500Y-3707500D02*
G75*
G02*
X7202500Y-3707500I145000J0D01*
G01*
X7201120Y-11135360D02*
G75*
G02*
X6911120Y-11135360I-145000J0D01*
G01*
X6911120Y-11135360D02*
G75*
G02*
X7201120Y-11135360I145000J0D01*
G01*
D11*
D12*
X6142400Y-12542400D02*
X6257600Y-12657600D01*
X6257600Y-12542400D02*
X6142400Y-12657600D01*
X12042400Y-3342400D02*
X12157600Y-3457600D01*
X12157600Y-3342400D02*
X12042400Y-3457600D01*
D11*
X6100277Y-13267984D02*
X6100277Y-13067984D01*
X6100277Y-13067984D02*
X6147896Y-13067984D01*
X6147896Y-13067984D02*
X6176467Y-13077508D01*
X6176467Y-13077508D02*
X6195515Y-13096555D01*
X6195515Y-13096555D02*
X6205039Y-13115603D01*
X6205039Y-13115603D02*
X6214562Y-13153698D01*
X6214562Y-13153698D02*
X6214562Y-13182269D01*
X6214562Y-13182269D02*
X6205039Y-13220365D01*
X6205039Y-13220365D02*
X6195515Y-13239412D01*
X6195515Y-13239412D02*
X6176467Y-13258460D01*
X6176467Y-13258460D02*
X6147896Y-13267984D01*
X6147896Y-13267984D02*
X6100277Y-13267984D01*
X6300277Y-13267984D02*
X6300277Y-13134650D01*
X6300277Y-13172746D02*
X6309801Y-13153698D01*
X6309801Y-13153698D02*
X6319324Y-13144174D01*
X6319324Y-13144174D02*
X6338372Y-13134650D01*
X6338372Y-13134650D02*
X6357420Y-13134650D01*
X6424086Y-13267984D02*
X6424086Y-13134650D01*
X6424086Y-13067984D02*
X6414562Y-13077508D01*
X6414562Y-13077508D02*
X6424086Y-13087031D01*
X6424086Y-13087031D02*
X6433610Y-13077508D01*
X6433610Y-13077508D02*
X6424086Y-13067984D01*
X6424086Y-13067984D02*
X6424086Y-13087031D01*
X6547896Y-13267984D02*
X6528848Y-13258460D01*
X6528848Y-13258460D02*
X6519324Y-13239412D01*
X6519324Y-13239412D02*
X6519324Y-13067984D01*
X6652658Y-13267984D02*
X6633610Y-13258460D01*
X6633610Y-13258460D02*
X6624086Y-13239412D01*
X6624086Y-13239412D02*
X6624086Y-13067984D01*
X6881229Y-13267984D02*
X6881229Y-13067984D01*
X6881229Y-13067984D02*
X6947896Y-13210841D01*
X6947896Y-13210841D02*
X7014562Y-13067984D01*
X7014562Y-13067984D02*
X7014562Y-13267984D01*
X7195515Y-13267984D02*
X7195515Y-13163222D01*
X7195515Y-13163222D02*
X7185991Y-13144174D01*
X7185991Y-13144174D02*
X7166943Y-13134650D01*
X7166943Y-13134650D02*
X7128848Y-13134650D01*
X7128848Y-13134650D02*
X7109801Y-13144174D01*
X7195515Y-13258460D02*
X7176467Y-13267984D01*
X7176467Y-13267984D02*
X7128848Y-13267984D01*
X7128848Y-13267984D02*
X7109801Y-13258460D01*
X7109801Y-13258460D02*
X7100277Y-13239412D01*
X7100277Y-13239412D02*
X7100277Y-13220365D01*
X7100277Y-13220365D02*
X7109801Y-13201317D01*
X7109801Y-13201317D02*
X7128848Y-13191793D01*
X7128848Y-13191793D02*
X7176467Y-13191793D01*
X7176467Y-13191793D02*
X7195515Y-13182269D01*
X7290753Y-13134650D02*
X7290753Y-13334650D01*
X7290753Y-13144174D02*
X7309801Y-13134650D01*
X7309801Y-13134650D02*
X7347896Y-13134650D01*
X7347896Y-13134650D02*
X7366943Y-13144174D01*
X7366943Y-13144174D02*
X7376467Y-13153698D01*
X7376467Y-13153698D02*
X7385991Y-13172746D01*
X7385991Y-13172746D02*
X7385991Y-13229888D01*
X7385991Y-13229888D02*
X7376467Y-13248936D01*
X7376467Y-13248936D02*
X7366943Y-13258460D01*
X7366943Y-13258460D02*
X7347896Y-13267984D01*
X7347896Y-13267984D02*
X7309801Y-13267984D01*
X7309801Y-13267984D02*
X7290753Y-13258460D01*
X7471705Y-13248936D02*
X7481229Y-13258460D01*
X7481229Y-13258460D02*
X7471705Y-13267984D01*
X7471705Y-13267984D02*
X7462182Y-13258460D01*
X7462182Y-13258460D02*
X7471705Y-13248936D01*
X7471705Y-13248936D02*
X7471705Y-13267984D01*
X7471705Y-13144174D02*
X7481229Y-13153698D01*
X7481229Y-13153698D02*
X7471705Y-13163222D01*
X7471705Y-13163222D02*
X7462182Y-13153698D01*
X7462182Y-13153698D02*
X7471705Y-13144174D01*
X7471705Y-13144174D02*
X7471705Y-13163222D01*
D12*
X5724300Y-13538900D02*
X5839500Y-13654100D01*
X5839500Y-13538900D02*
X5724300Y-13654100D01*
D11*
X6205039Y-13687984D02*
X6090753Y-13687984D01*
X6147896Y-13687984D02*
X6147896Y-13487984D01*
X6147896Y-13487984D02*
X6128848Y-13516555D01*
X6128848Y-13516555D02*
X6109801Y-13535603D01*
X6109801Y-13535603D02*
X6090753Y-13545127D01*
X6290753Y-13668936D02*
X6300277Y-13678460D01*
X6300277Y-13678460D02*
X6290753Y-13687984D01*
X6290753Y-13687984D02*
X6281229Y-13678460D01*
X6281229Y-13678460D02*
X6290753Y-13668936D01*
X6290753Y-13668936D02*
X6290753Y-13687984D01*
X6490753Y-13687984D02*
X6376467Y-13687984D01*
X6433610Y-13687984D02*
X6433610Y-13487984D01*
X6433610Y-13487984D02*
X6414562Y-13516555D01*
X6414562Y-13516555D02*
X6395515Y-13535603D01*
X6395515Y-13535603D02*
X6376467Y-13545127D01*
X6671705Y-13487984D02*
X6576467Y-13487984D01*
X6576467Y-13487984D02*
X6566943Y-13583222D01*
X6566943Y-13583222D02*
X6576467Y-13573698D01*
X6576467Y-13573698D02*
X6595515Y-13564174D01*
X6595515Y-13564174D02*
X6643134Y-13564174D01*
X6643134Y-13564174D02*
X6662182Y-13573698D01*
X6662182Y-13573698D02*
X6671705Y-13583222D01*
X6671705Y-13583222D02*
X6681229Y-13602269D01*
X6681229Y-13602269D02*
X6681229Y-13649888D01*
X6681229Y-13649888D02*
X6671705Y-13668936D01*
X6671705Y-13668936D02*
X6662182Y-13678460D01*
X6662182Y-13678460D02*
X6643134Y-13687984D01*
X6643134Y-13687984D02*
X6595515Y-13687984D01*
X6595515Y-13687984D02*
X6576467Y-13678460D01*
X6576467Y-13678460D02*
X6566943Y-13668936D01*
X6757420Y-13507031D02*
X6766943Y-13497508D01*
X6766943Y-13497508D02*
X6785991Y-13487984D01*
X6785991Y-13487984D02*
X6833610Y-13487984D01*
X6833610Y-13487984D02*
X6852658Y-13497508D01*
X6852658Y-13497508D02*
X6862182Y-13507031D01*
X6862182Y-13507031D02*
X6871705Y-13526079D01*
X6871705Y-13526079D02*
X6871705Y-13545127D01*
X6871705Y-13545127D02*
X6862182Y-13573698D01*
X6862182Y-13573698D02*
X6747896Y-13687984D01*
X6747896Y-13687984D02*
X6871705Y-13687984D01*
X6957420Y-13687984D02*
X6957420Y-13554650D01*
X6957420Y-13573698D02*
X6966943Y-13564174D01*
X6966943Y-13564174D02*
X6985991Y-13554650D01*
X6985991Y-13554650D02*
X7014563Y-13554650D01*
X7014563Y-13554650D02*
X7033610Y-13564174D01*
X7033610Y-13564174D02*
X7043134Y-13583222D01*
X7043134Y-13583222D02*
X7043134Y-13687984D01*
X7043134Y-13583222D02*
X7052658Y-13564174D01*
X7052658Y-13564174D02*
X7071705Y-13554650D01*
X7071705Y-13554650D02*
X7100277Y-13554650D01*
X7100277Y-13554650D02*
X7119324Y-13564174D01*
X7119324Y-13564174D02*
X7128848Y-13583222D01*
X7128848Y-13583222D02*
X7128848Y-13687984D01*
X7224086Y-13687984D02*
X7224086Y-13554650D01*
X7224086Y-13573698D02*
X7233610Y-13564174D01*
X7233610Y-13564174D02*
X7252658Y-13554650D01*
X7252658Y-13554650D02*
X7281229Y-13554650D01*
X7281229Y-13554650D02*
X7300277Y-13564174D01*
X7300277Y-13564174D02*
X7309801Y-13583222D01*
X7309801Y-13583222D02*
X7309801Y-13687984D01*
X7309801Y-13583222D02*
X7319324Y-13564174D01*
X7319324Y-13564174D02*
X7338372Y-13554650D01*
X7338372Y-13554650D02*
X7366943Y-13554650D01*
X7366943Y-13554650D02*
X7385991Y-13564174D01*
X7385991Y-13564174D02*
X7395515Y-13583222D01*
X7395515Y-13583222D02*
X7395515Y-13687984D01*
X7785991Y-13478460D02*
X7614563Y-13735603D01*
X8043134Y-13487984D02*
X8062182Y-13487984D01*
X8062182Y-13487984D02*
X8081229Y-13497508D01*
X8081229Y-13497508D02*
X8090753Y-13507031D01*
X8090753Y-13507031D02*
X8100277Y-13526079D01*
X8100277Y-13526079D02*
X8109801Y-13564174D01*
X8109801Y-13564174D02*
X8109801Y-13611793D01*
X8109801Y-13611793D02*
X8100277Y-13649888D01*
X8100277Y-13649888D02*
X8090753Y-13668936D01*
X8090753Y-13668936D02*
X8081229Y-13678460D01*
X8081229Y-13678460D02*
X8062182Y-13687984D01*
X8062182Y-13687984D02*
X8043134Y-13687984D01*
X8043134Y-13687984D02*
X8024086Y-13678460D01*
X8024086Y-13678460D02*
X8014563Y-13668936D01*
X8014563Y-13668936D02*
X8005039Y-13649888D01*
X8005039Y-13649888D02*
X7995515Y-13611793D01*
X7995515Y-13611793D02*
X7995515Y-13564174D01*
X7995515Y-13564174D02*
X8005039Y-13526079D01*
X8005039Y-13526079D02*
X8014563Y-13507031D01*
X8014563Y-13507031D02*
X8024086Y-13497508D01*
X8024086Y-13497508D02*
X8043134Y-13487984D01*
X8195515Y-13668936D02*
X8205039Y-13678460D01*
X8205039Y-13678460D02*
X8195515Y-13687984D01*
X8195515Y-13687984D02*
X8185991Y-13678460D01*
X8185991Y-13678460D02*
X8195515Y-13668936D01*
X8195515Y-13668936D02*
X8195515Y-13687984D01*
X8328848Y-13487984D02*
X8347896Y-13487984D01*
X8347896Y-13487984D02*
X8366944Y-13497508D01*
X8366944Y-13497508D02*
X8376467Y-13507031D01*
X8376467Y-13507031D02*
X8385991Y-13526079D01*
X8385991Y-13526079D02*
X8395515Y-13564174D01*
X8395515Y-13564174D02*
X8395515Y-13611793D01*
X8395515Y-13611793D02*
X8385991Y-13649888D01*
X8385991Y-13649888D02*
X8376467Y-13668936D01*
X8376467Y-13668936D02*
X8366944Y-13678460D01*
X8366944Y-13678460D02*
X8347896Y-13687984D01*
X8347896Y-13687984D02*
X8328848Y-13687984D01*
X8328848Y-13687984D02*
X8309801Y-13678460D01*
X8309801Y-13678460D02*
X8300277Y-13668936D01*
X8300277Y-13668936D02*
X8290753Y-13649888D01*
X8290753Y-13649888D02*
X8281229Y-13611793D01*
X8281229Y-13611793D02*
X8281229Y-13564174D01*
X8281229Y-13564174D02*
X8290753Y-13526079D01*
X8290753Y-13526079D02*
X8300277Y-13507031D01*
X8300277Y-13507031D02*
X8309801Y-13497508D01*
X8309801Y-13497508D02*
X8328848Y-13487984D01*
X8566944Y-13554650D02*
X8566944Y-13687984D01*
X8519325Y-13478460D02*
X8471706Y-13621317D01*
X8471706Y-13621317D02*
X8595515Y-13621317D01*
X8766944Y-13487984D02*
X8671706Y-13487984D01*
X8671706Y-13487984D02*
X8662182Y-13583222D01*
X8662182Y-13583222D02*
X8671706Y-13573698D01*
X8671706Y-13573698D02*
X8690753Y-13564174D01*
X8690753Y-13564174D02*
X8738372Y-13564174D01*
X8738372Y-13564174D02*
X8757420Y-13573698D01*
X8757420Y-13573698D02*
X8766944Y-13583222D01*
X8766944Y-13583222D02*
X8776468Y-13602269D01*
X8776468Y-13602269D02*
X8776468Y-13649888D01*
X8776468Y-13649888D02*
X8766944Y-13668936D01*
X8766944Y-13668936D02*
X8757420Y-13678460D01*
X8757420Y-13678460D02*
X8738372Y-13687984D01*
X8738372Y-13687984D02*
X8690753Y-13687984D01*
X8690753Y-13687984D02*
X8671706Y-13678460D01*
X8671706Y-13678460D02*
X8662182Y-13668936D01*
X8947896Y-13554650D02*
X8947896Y-13687984D01*
X8900277Y-13478460D02*
X8852658Y-13621317D01*
X8852658Y-13621317D02*
X8976468Y-13621317D01*
X9043134Y-13487984D02*
X9043134Y-13526079D01*
X9119325Y-13487984D02*
X9119325Y-13526079D01*
X9414563Y-13764174D02*
X9405039Y-13754650D01*
X9405039Y-13754650D02*
X9385991Y-13726079D01*
X9385991Y-13726079D02*
X9376468Y-13707031D01*
X9376468Y-13707031D02*
X9366944Y-13678460D01*
X9366944Y-13678460D02*
X9357420Y-13630841D01*
X9357420Y-13630841D02*
X9357420Y-13592746D01*
X9357420Y-13592746D02*
X9366944Y-13545127D01*
X9366944Y-13545127D02*
X9376468Y-13516555D01*
X9376468Y-13516555D02*
X9385991Y-13497508D01*
X9385991Y-13497508D02*
X9405039Y-13468936D01*
X9405039Y-13468936D02*
X9414563Y-13459412D01*
X9481230Y-13507031D02*
X9490753Y-13497508D01*
X9490753Y-13497508D02*
X9509801Y-13487984D01*
X9509801Y-13487984D02*
X9557420Y-13487984D01*
X9557420Y-13487984D02*
X9576468Y-13497508D01*
X9576468Y-13497508D02*
X9585991Y-13507031D01*
X9585991Y-13507031D02*
X9595515Y-13526079D01*
X9595515Y-13526079D02*
X9595515Y-13545127D01*
X9595515Y-13545127D02*
X9585991Y-13573698D01*
X9585991Y-13573698D02*
X9471706Y-13687984D01*
X9471706Y-13687984D02*
X9595515Y-13687984D01*
X9833611Y-13687984D02*
X9833611Y-13487984D01*
X9919325Y-13687984D02*
X9919325Y-13583222D01*
X9919325Y-13583222D02*
X9909801Y-13564174D01*
X9909801Y-13564174D02*
X9890753Y-13554650D01*
X9890753Y-13554650D02*
X9862182Y-13554650D01*
X9862182Y-13554650D02*
X9843134Y-13564174D01*
X9843134Y-13564174D02*
X9833611Y-13573698D01*
X10043134Y-13687984D02*
X10024087Y-13678460D01*
X10024087Y-13678460D02*
X10014563Y-13668936D01*
X10014563Y-13668936D02*
X10005039Y-13649888D01*
X10005039Y-13649888D02*
X10005039Y-13592746D01*
X10005039Y-13592746D02*
X10014563Y-13573698D01*
X10014563Y-13573698D02*
X10024087Y-13564174D01*
X10024087Y-13564174D02*
X10043134Y-13554650D01*
X10043134Y-13554650D02*
X10071706Y-13554650D01*
X10071706Y-13554650D02*
X10090753Y-13564174D01*
X10090753Y-13564174D02*
X10100277Y-13573698D01*
X10100277Y-13573698D02*
X10109801Y-13592746D01*
X10109801Y-13592746D02*
X10109801Y-13649888D01*
X10109801Y-13649888D02*
X10100277Y-13668936D01*
X10100277Y-13668936D02*
X10090753Y-13678460D01*
X10090753Y-13678460D02*
X10071706Y-13687984D01*
X10071706Y-13687984D02*
X10043134Y-13687984D01*
X10224087Y-13687984D02*
X10205039Y-13678460D01*
X10205039Y-13678460D02*
X10195515Y-13659412D01*
X10195515Y-13659412D02*
X10195515Y-13487984D01*
X10376468Y-13678460D02*
X10357420Y-13687984D01*
X10357420Y-13687984D02*
X10319325Y-13687984D01*
X10319325Y-13687984D02*
X10300277Y-13678460D01*
X10300277Y-13678460D02*
X10290753Y-13659412D01*
X10290753Y-13659412D02*
X10290753Y-13583222D01*
X10290753Y-13583222D02*
X10300277Y-13564174D01*
X10300277Y-13564174D02*
X10319325Y-13554650D01*
X10319325Y-13554650D02*
X10357420Y-13554650D01*
X10357420Y-13554650D02*
X10376468Y-13564174D01*
X10376468Y-13564174D02*
X10385992Y-13583222D01*
X10385992Y-13583222D02*
X10385992Y-13602269D01*
X10385992Y-13602269D02*
X10290753Y-13621317D01*
X10462182Y-13678460D02*
X10481230Y-13687984D01*
X10481230Y-13687984D02*
X10519325Y-13687984D01*
X10519325Y-13687984D02*
X10538373Y-13678460D01*
X10538373Y-13678460D02*
X10547896Y-13659412D01*
X10547896Y-13659412D02*
X10547896Y-13649888D01*
X10547896Y-13649888D02*
X10538373Y-13630841D01*
X10538373Y-13630841D02*
X10519325Y-13621317D01*
X10519325Y-13621317D02*
X10490753Y-13621317D01*
X10490753Y-13621317D02*
X10471706Y-13611793D01*
X10471706Y-13611793D02*
X10462182Y-13592746D01*
X10462182Y-13592746D02*
X10462182Y-13583222D01*
X10462182Y-13583222D02*
X10471706Y-13564174D01*
X10471706Y-13564174D02*
X10490753Y-13554650D01*
X10490753Y-13554650D02*
X10519325Y-13554650D01*
X10519325Y-13554650D02*
X10538373Y-13564174D01*
X10614563Y-13764174D02*
X10624087Y-13754650D01*
X10624087Y-13754650D02*
X10643134Y-13726079D01*
X10643134Y-13726079D02*
X10652658Y-13707031D01*
X10652658Y-13707031D02*
X10662182Y-13678460D01*
X10662182Y-13678460D02*
X10671706Y-13630841D01*
X10671706Y-13630841D02*
X10671706Y-13592746D01*
X10671706Y-13592746D02*
X10662182Y-13545127D01*
X10662182Y-13545127D02*
X10652658Y-13516555D01*
X10652658Y-13516555D02*
X10643134Y-13497508D01*
X10643134Y-13497508D02*
X10624087Y-13468936D01*
X10624087Y-13468936D02*
X10614563Y-13459412D01*
X10976468Y-13764174D02*
X10966944Y-13754650D01*
X10966944Y-13754650D02*
X10947896Y-13726079D01*
X10947896Y-13726079D02*
X10938373Y-13707031D01*
X10938373Y-13707031D02*
X10928849Y-13678460D01*
X10928849Y-13678460D02*
X10919325Y-13630841D01*
X10919325Y-13630841D02*
X10919325Y-13592746D01*
X10919325Y-13592746D02*
X10928849Y-13545127D01*
X10928849Y-13545127D02*
X10938373Y-13516555D01*
X10938373Y-13516555D02*
X10947896Y-13497508D01*
X10947896Y-13497508D02*
X10966944Y-13468936D01*
X10966944Y-13468936D02*
X10976468Y-13459412D01*
X11052658Y-13554650D02*
X11052658Y-13687984D01*
X11052658Y-13573698D02*
X11062182Y-13564174D01*
X11062182Y-13564174D02*
X11081230Y-13554650D01*
X11081230Y-13554650D02*
X11109801Y-13554650D01*
X11109801Y-13554650D02*
X11128849Y-13564174D01*
X11128849Y-13564174D02*
X11138373Y-13583222D01*
X11138373Y-13583222D02*
X11138373Y-13687984D01*
X11262182Y-13687984D02*
X11243134Y-13678460D01*
X11243134Y-13678460D02*
X11233611Y-13668936D01*
X11233611Y-13668936D02*
X11224087Y-13649888D01*
X11224087Y-13649888D02*
X11224087Y-13592746D01*
X11224087Y-13592746D02*
X11233611Y-13573698D01*
X11233611Y-13573698D02*
X11243134Y-13564174D01*
X11243134Y-13564174D02*
X11262182Y-13554650D01*
X11262182Y-13554650D02*
X11290753Y-13554650D01*
X11290753Y-13554650D02*
X11309801Y-13564174D01*
X11309801Y-13564174D02*
X11319325Y-13573698D01*
X11319325Y-13573698D02*
X11328849Y-13592746D01*
X11328849Y-13592746D02*
X11328849Y-13649888D01*
X11328849Y-13649888D02*
X11319325Y-13668936D01*
X11319325Y-13668936D02*
X11309801Y-13678460D01*
X11309801Y-13678460D02*
X11290753Y-13687984D01*
X11290753Y-13687984D02*
X11262182Y-13687984D01*
X11385992Y-13554650D02*
X11462182Y-13554650D01*
X11414563Y-13487984D02*
X11414563Y-13659412D01*
X11414563Y-13659412D02*
X11424087Y-13678460D01*
X11424087Y-13678460D02*
X11443134Y-13687984D01*
X11443134Y-13687984D02*
X11462182Y-13687984D01*
X11681230Y-13554650D02*
X11681230Y-13754650D01*
X11681230Y-13564174D02*
X11700277Y-13554650D01*
X11700277Y-13554650D02*
X11738373Y-13554650D01*
X11738373Y-13554650D02*
X11757420Y-13564174D01*
X11757420Y-13564174D02*
X11766944Y-13573698D01*
X11766944Y-13573698D02*
X11776468Y-13592746D01*
X11776468Y-13592746D02*
X11776468Y-13649888D01*
X11776468Y-13649888D02*
X11766944Y-13668936D01*
X11766944Y-13668936D02*
X11757420Y-13678460D01*
X11757420Y-13678460D02*
X11738373Y-13687984D01*
X11738373Y-13687984D02*
X11700277Y-13687984D01*
X11700277Y-13687984D02*
X11681230Y-13678460D01*
X11890753Y-13687984D02*
X11871706Y-13678460D01*
X11871706Y-13678460D02*
X11862182Y-13659412D01*
X11862182Y-13659412D02*
X11862182Y-13487984D01*
X12052658Y-13687984D02*
X12052658Y-13583222D01*
X12052658Y-13583222D02*
X12043134Y-13564174D01*
X12043134Y-13564174D02*
X12024087Y-13554650D01*
X12024087Y-13554650D02*
X11985992Y-13554650D01*
X11985992Y-13554650D02*
X11966944Y-13564174D01*
X12052658Y-13678460D02*
X12033611Y-13687984D01*
X12033611Y-13687984D02*
X11985992Y-13687984D01*
X11985992Y-13687984D02*
X11966944Y-13678460D01*
X11966944Y-13678460D02*
X11957420Y-13659412D01*
X11957420Y-13659412D02*
X11957420Y-13640365D01*
X11957420Y-13640365D02*
X11966944Y-13621317D01*
X11966944Y-13621317D02*
X11985992Y-13611793D01*
X11985992Y-13611793D02*
X12033611Y-13611793D01*
X12033611Y-13611793D02*
X12052658Y-13602269D01*
X12119325Y-13554650D02*
X12195515Y-13554650D01*
X12147896Y-13487984D02*
X12147896Y-13659412D01*
X12147896Y-13659412D02*
X12157420Y-13678460D01*
X12157420Y-13678460D02*
X12176468Y-13687984D01*
X12176468Y-13687984D02*
X12195515Y-13687984D01*
X12338373Y-13678460D02*
X12319325Y-13687984D01*
X12319325Y-13687984D02*
X12281230Y-13687984D01*
X12281230Y-13687984D02*
X12262182Y-13678460D01*
X12262182Y-13678460D02*
X12252658Y-13659412D01*
X12252658Y-13659412D02*
X12252658Y-13583222D01*
X12252658Y-13583222D02*
X12262182Y-13564174D01*
X12262182Y-13564174D02*
X12281230Y-13554650D01*
X12281230Y-13554650D02*
X12319325Y-13554650D01*
X12319325Y-13554650D02*
X12338373Y-13564174D01*
X12338373Y-13564174D02*
X12347896Y-13583222D01*
X12347896Y-13583222D02*
X12347896Y-13602269D01*
X12347896Y-13602269D02*
X12252658Y-13621317D01*
X12519325Y-13687984D02*
X12519325Y-13487984D01*
X12519325Y-13678460D02*
X12500277Y-13687984D01*
X12500277Y-13687984D02*
X12462182Y-13687984D01*
X12462182Y-13687984D02*
X12443134Y-13678460D01*
X12443134Y-13678460D02*
X12433611Y-13668936D01*
X12433611Y-13668936D02*
X12424087Y-13649888D01*
X12424087Y-13649888D02*
X12424087Y-13592746D01*
X12424087Y-13592746D02*
X12433611Y-13573698D01*
X12433611Y-13573698D02*
X12443134Y-13564174D01*
X12443134Y-13564174D02*
X12462182Y-13554650D01*
X12462182Y-13554650D02*
X12500277Y-13554650D01*
X12500277Y-13554650D02*
X12519325Y-13564174D01*
X12595515Y-13764174D02*
X12605039Y-13754650D01*
X12605039Y-13754650D02*
X12624087Y-13726079D01*
X12624087Y-13726079D02*
X12633611Y-13707031D01*
X12633611Y-13707031D02*
X12643134Y-13678460D01*
X12643134Y-13678460D02*
X12652658Y-13630841D01*
X12652658Y-13630841D02*
X12652658Y-13592746D01*
X12652658Y-13592746D02*
X12643134Y-13545127D01*
X12643134Y-13545127D02*
X12633611Y-13516555D01*
X12633611Y-13516555D02*
X12624087Y-13497508D01*
X12624087Y-13497508D02*
X12605039Y-13468936D01*
X12605039Y-13468936D02*
X12595515Y-13459412D01*
M02*
