%TF.GenerationSoftware,KiCad,Pcbnew,8.0.4*%
%TF.CreationDate,2024-12-14T22:44:59+01:00*%
%TF.ProjectId,SpicyLightFX3,53706963-794c-4696-9768-744658332e6b,rev?*%
%TF.SameCoordinates,Original*%
%TF.FileFunction,Copper,L4,Bot*%
%TF.FilePolarity,Positive*%
%FSLAX46Y46*%
G04 Gerber Fmt 4.6, Leading zero omitted, Abs format (unit mm)*
G04 Created by KiCad (PCBNEW 8.0.4) date 2024-12-14 22:44:59*
%MOMM*%
%LPD*%
G01*
G04 APERTURE LIST*
%TA.AperFunction,ComponentPad*%
%ADD10R,1.700000X1.700000*%
%TD*%
%TA.AperFunction,ComponentPad*%
%ADD11O,1.700000X1.700000*%
%TD*%
%TA.AperFunction,ComponentPad*%
%ADD12C,1.368000*%
%TD*%
%TA.AperFunction,ComponentPad*%
%ADD13C,3.836000*%
%TD*%
%TA.AperFunction,ViaPad*%
%ADD14C,0.600000*%
%TD*%
%TA.AperFunction,Conductor*%
%ADD15C,0.200000*%
%TD*%
%TA.AperFunction,Conductor*%
%ADD16C,0.127000*%
%TD*%
G04 APERTURE END LIST*
D10*
%TO.P,J2,1,V3P3*%
%TO.N,unconnected-(J2-V3P3-Pad1)*%
X110870000Y-50038000D03*
D11*
%TO.P,J2,2,V1P2*%
%TO.N,unconnected-(J2-V1P2-Pad2)*%
X113410000Y-50038000D03*
%TO.P,J2,3,USB3_VBUS*%
%TO.N,+5V*%
X110870000Y-52578000D03*
%TO.P,J2,4,USB3_VBUS*%
X113410000Y-52578000D03*
%TO.P,J2,5,KEY*%
%TO.N,unconnected-(J2-KEY-Pad5)*%
X110870000Y-55118000D03*
%TO.P,J2,6,GND*%
%TO.N,GND*%
X113410000Y-55118000D03*
%TO.P,J2,7,CTL12*%
%TO.N,unconnected-(J2-CTL12-Pad7)*%
X110870000Y-57658000D03*
%TO.P,J2,8,DQ15*%
%TO.N,/OUT15*%
X113410000Y-57658000D03*
%TO.P,J2,9,CTL11*%
%TO.N,unconnected-(J2-CTL11-Pad9)*%
X110870000Y-60198000D03*
%TO.P,J2,10,DQ14*%
%TO.N,/OUT14*%
X113410000Y-60198000D03*
%TO.P,J2,11,CTL10*%
%TO.N,unconnected-(J2-CTL10-Pad11)*%
X110870000Y-62738000D03*
%TO.P,J2,12,DQ13*%
%TO.N,/OUT13*%
X113410000Y-62738000D03*
%TO.P,J2,13,CTL9*%
%TO.N,unconnected-(J2-CTL9-Pad13)*%
X110870000Y-65278000D03*
%TO.P,J2,14,DQ12*%
%TO.N,/OUT12*%
X113410000Y-65278000D03*
%TO.P,J2,15,CTL8*%
%TO.N,unconnected-(J2-CTL8-Pad15)*%
X110870000Y-67818000D03*
%TO.P,J2,16,DQ11*%
%TO.N,/OUT11*%
X113410000Y-67818000D03*
%TO.P,J2,17,CTL7*%
%TO.N,/DATA_VALID*%
X110870000Y-70358000D03*
%TO.P,J2,18,DQ10*%
%TO.N,/OUT10*%
X113410000Y-70358000D03*
%TO.P,J2,19,CTL6*%
%TO.N,/HSYNC*%
X110870000Y-72898000D03*
%TO.P,J2,20,DQ9*%
%TO.N,/OUT9*%
X113410000Y-72898000D03*
%TO.P,J2,21,CTL5*%
%TO.N,/VSYNC*%
X110870000Y-75438000D03*
%TO.P,J2,22,DQ8*%
%TO.N,/OUT8*%
X113410000Y-75438000D03*
%TO.P,J2,23,CTL4_SW*%
%TO.N,unconnected-(J2-CTL4_SW-Pad23)*%
X110870000Y-77978000D03*
%TO.P,J2,24,DQ7*%
%TO.N,/OUT7*%
X113410000Y-77978000D03*
%TO.P,J2,25,CTL3*%
%TO.N,unconnected-(J2-CTL3-Pad25)*%
X110870000Y-80518000D03*
%TO.P,J2,26,DQ6*%
%TO.N,/OUT6*%
X113410000Y-80518000D03*
%TO.P,J2,27,CTL2*%
%TO.N,unconnected-(J2-CTL2-Pad27)*%
X110870000Y-83058000D03*
%TO.P,J2,28,DQ5*%
%TO.N,/OUT5*%
X113410000Y-83058000D03*
%TO.P,J2,29,CTL1*%
%TO.N,unconnected-(J2-CTL1-Pad29)*%
X110870000Y-85598000D03*
%TO.P,J2,30,DQ4*%
%TO.N,/OUT4*%
X113410000Y-85598000D03*
%TO.P,J2,31,CTL0*%
%TO.N,unconnected-(J2-CTL0-Pad31)*%
X110870000Y-88138000D03*
%TO.P,J2,32,DQ3*%
%TO.N,/OUT3*%
X113410000Y-88138000D03*
%TO.P,J2,33,GND*%
%TO.N,GND*%
X110870000Y-90678000D03*
%TO.P,J2,34,DQ2*%
%TO.N,/OUT2*%
X113410000Y-90678000D03*
%TO.P,J2,35,PCLK*%
%TO.N,/PIXCLK*%
X110870000Y-93218000D03*
%TO.P,J2,36,DQ1*%
%TO.N,/OUT1*%
X113410000Y-93218000D03*
%TO.P,J2,37,GND*%
%TO.N,GND*%
X110870000Y-95758000D03*
%TO.P,J2,38,DQ0*%
%TO.N,/OUT0*%
X113410000Y-95758000D03*
%TO.P,J2,39,I2C_SDA_FX3*%
%TO.N,unconnected-(J2-I2C_SDA_FX3-Pad39)*%
X110870000Y-98298000D03*
%TO.P,J2,40,I2C_SCL_FX3*%
%TO.N,unconnected-(J2-I2C_SCL_FX3-Pad40)*%
X113410000Y-98298000D03*
%TD*%
D10*
%TO.P,J1,1,V3P3*%
%TO.N,unconnected-(J1-V3P3-Pad1)*%
X69342000Y-50038000D03*
D11*
%TO.P,J1,2,V1P2*%
%TO.N,unconnected-(J1-V1P2-Pad2)*%
X71882000Y-50038000D03*
%TO.P,J1,3,INT_N_CTL15*%
%TO.N,unconnected-(J1-INT_N_CTL15-Pad3)*%
X69342000Y-52578000D03*
%TO.P,J1,4,VIO*%
%TO.N,unconnected-(J1-VIO-Pad4)*%
X71882000Y-52578000D03*
%TO.P,J1,5,KEY*%
%TO.N,unconnected-(J1-KEY-Pad5)*%
X69342000Y-55118000D03*
%TO.P,J1,6,DQ31*%
%TO.N,unconnected-(J1-DQ31-Pad6)*%
X71882000Y-55118000D03*
%TO.P,J1,7,PMODE_2*%
%TO.N,unconnected-(J1-PMODE_2-Pad7)*%
X69342000Y-57658000D03*
%TO.P,J1,8,DQ30*%
%TO.N,unconnected-(J1-DQ30-Pad8)*%
X71882000Y-57658000D03*
%TO.P,J1,9,PMODE_1*%
%TO.N,unconnected-(J1-PMODE_1-Pad9)*%
X69342000Y-60198000D03*
%TO.P,J1,10,DQ29*%
%TO.N,unconnected-(J1-DQ29-Pad10)*%
X71882000Y-60198000D03*
%TO.P,J1,11,PMODE_0*%
%TO.N,unconnected-(J1-PMODE_0-Pad11)*%
X69342000Y-62738000D03*
%TO.P,J1,12,DQ28*%
%TO.N,unconnected-(J1-DQ28-Pad12)*%
X71882000Y-62738000D03*
%TO.P,J1,13,GND*%
%TO.N,GND*%
X69342000Y-65278000D03*
%TO.P,J1,14,GPIO45*%
%TO.N,unconnected-(J1-GPIO45-Pad14)*%
X71882000Y-65278000D03*
%TO.P,J1,15,GND*%
%TO.N,GND*%
X69342000Y-67818000D03*
%TO.P,J1,16,DQ27*%
%TO.N,unconnected-(J1-DQ27-Pad16)*%
X71882000Y-67818000D03*
%TO.P,J1,17,GND*%
%TO.N,GND*%
X69342000Y-70358000D03*
%TO.P,J1,18,DQ26*%
%TO.N,unconnected-(J1-DQ26-Pad18)*%
X71882000Y-70358000D03*
%TO.P,J1,19,SPI-MOSI_UART-RX*%
%TO.N,unconnected-(J1-SPI-MOSI_UART-RX-Pad19)*%
X69342000Y-72898000D03*
%TO.P,J1,20,DQ25*%
%TO.N,unconnected-(J1-DQ25-Pad20)*%
X71882000Y-72898000D03*
%TO.P,J1,21,SPI-MISO_UART_TX*%
%TO.N,unconnected-(J1-SPI-MISO_UART_TX-Pad21)*%
X69342000Y-75438000D03*
%TO.P,J1,22,DQ24*%
%TO.N,unconnected-(J1-DQ24-Pad22)*%
X71882000Y-75438000D03*
%TO.P,J1,23,SPI-SSN_UART-CTS*%
%TO.N,unconnected-(J1-SPI-SSN_UART-CTS-Pad23)*%
X69342000Y-77978000D03*
%TO.P,J1,24,DQ23*%
%TO.N,unconnected-(J1-DQ23-Pad24)*%
X71882000Y-77978000D03*
%TO.P,J1,25,GND*%
%TO.N,GND*%
X69342000Y-80518000D03*
%TO.P,J1,26,DQ22*%
%TO.N,unconnected-(J1-DQ22-Pad26)*%
X71882000Y-80518000D03*
%TO.P,J1,27,SPI-SCK_UART-RTS*%
%TO.N,unconnected-(J1-SPI-SCK_UART-RTS-Pad27)*%
X69342000Y-83058000D03*
%TO.P,J1,28,DQ21*%
%TO.N,unconnected-(J1-DQ21-Pad28)*%
X71882000Y-83058000D03*
%TO.P,J1,29,GND*%
%TO.N,GND*%
X69342000Y-85598000D03*
%TO.P,J1,30,DQ20*%
%TO.N,unconnected-(J1-DQ20-Pad30)*%
X71882000Y-85598000D03*
%TO.P,J1,31,I2S_WS*%
%TO.N,unconnected-(J1-I2S_WS-Pad31)*%
X69342000Y-88138000D03*
%TO.P,J1,32,DQ19*%
%TO.N,unconnected-(J1-DQ19-Pad32)*%
X71882000Y-88138000D03*
%TO.P,J1,33,I2S_SD*%
%TO.N,unconnected-(J1-I2S_SD-Pad33)*%
X69342000Y-90678000D03*
%TO.P,J1,34,DQ18*%
%TO.N,unconnected-(J1-DQ18-Pad34)*%
X71882000Y-90678000D03*
%TO.P,J1,35,GPIO57_I2S-MCLK_VIO3_SW*%
%TO.N,unconnected-(J1-GPIO57_I2S-MCLK_VIO3_SW-Pad35)*%
X69342000Y-93218000D03*
%TO.P,J1,36,DQ17*%
%TO.N,unconnected-(J1-DQ17-Pad36)*%
X71882000Y-93218000D03*
%TO.P,J1,37,I2S_CLK*%
%TO.N,unconnected-(J1-I2S_CLK-Pad37)*%
X69342000Y-95758000D03*
%TO.P,J1,38,DQ16*%
%TO.N,unconnected-(J1-DQ16-Pad38)*%
X71882000Y-95758000D03*
%TO.P,J1,39,GND*%
%TO.N,GND*%
X69342000Y-98298000D03*
%TO.P,J1,40,GND*%
X71882000Y-98298000D03*
%TD*%
D12*
%TO.P,U1,1,1*%
%TO.N,/OUT12-*%
X106883200Y-120660000D03*
%TO.P,U1,2,2*%
%TO.N,/OUT13-*%
X105613200Y-122560000D03*
%TO.P,U1,3,3*%
%TO.N,GND*%
X104343200Y-120660000D03*
%TO.P,U1,4,4*%
%TO.N,/OUT14-*%
X103073200Y-122560000D03*
%TO.P,U1,5,5*%
%TO.N,/OUT15-*%
X101803200Y-120660000D03*
%TO.P,U1,6,6*%
%TO.N,/PIXCLK+*%
X100533200Y-122560000D03*
%TO.P,U1,7,7*%
%TO.N,/HSYNC+*%
X99263200Y-120660000D03*
%TO.P,U1,8,8*%
%TO.N,GND*%
X97993200Y-122560000D03*
%TO.P,U1,9,9*%
%TO.N,/VSYNC+*%
X96723200Y-120660000D03*
%TO.P,U1,10,10*%
%TO.N,/DATA_VALID+*%
X95453200Y-122560000D03*
%TO.P,U1,11,11*%
%TO.N,unconnected-(U1-Pad11)*%
X94183200Y-120660000D03*
%TO.P,U1,12,12*%
%TO.N,unconnected-(U1-Pad12)*%
X92913200Y-122560000D03*
%TO.P,U1,13,13*%
%TO.N,/OUT0-*%
X91643200Y-120660000D03*
%TO.P,U1,14,14*%
%TO.N,/OUT1-*%
X90373200Y-122560000D03*
%TO.P,U1,15,15*%
%TO.N,/OUT2-*%
X89103200Y-120660000D03*
%TO.P,U1,16,16*%
%TO.N,/OUT3-*%
X87833200Y-122560000D03*
%TO.P,U1,17,17*%
%TO.N,/OUT4-*%
X86563200Y-120660000D03*
%TO.P,U1,18,18*%
%TO.N,/OUT5-*%
X85293200Y-122560000D03*
%TO.P,U1,19,19*%
%TO.N,GND*%
X84023200Y-120660000D03*
%TO.P,U1,20,20*%
%TO.N,/OUT6-*%
X82753200Y-122560000D03*
%TO.P,U1,21,21*%
%TO.N,/OUT7-*%
X81483200Y-120660000D03*
%TO.P,U1,22,22*%
%TO.N,/OUT8-*%
X80213200Y-122560000D03*
%TO.P,U1,23,23*%
%TO.N,/OUT9-*%
X78943200Y-120660000D03*
%TO.P,U1,24,24*%
%TO.N,/OUT10-*%
X77673200Y-122560000D03*
%TO.P,U1,25,25*%
%TO.N,/OUT11-*%
X76403200Y-120660000D03*
%TO.P,U1,26,26*%
%TO.N,/OUT12+*%
X106883200Y-124460000D03*
%TO.P,U1,27,27*%
%TO.N,/OUT13+*%
X105613200Y-126360000D03*
%TO.P,U1,28,28*%
%TO.N,GND*%
X104343200Y-124460000D03*
%TO.P,U1,29,29*%
%TO.N,/OUT14+*%
X103073200Y-126360000D03*
%TO.P,U1,30,30*%
%TO.N,/OUT15+*%
X101803200Y-124460000D03*
%TO.P,U1,31,31*%
%TO.N,/PIXCLK-*%
X100533200Y-126360000D03*
%TO.P,U1,32,32*%
%TO.N,/HSYNC-*%
X99263200Y-124460000D03*
%TO.P,U1,33,33*%
%TO.N,GND*%
X97993200Y-126360000D03*
%TO.P,U1,34,34*%
%TO.N,/VSYNC-*%
X96723200Y-124460000D03*
%TO.P,U1,35,35*%
%TO.N,/DATA_VALID-*%
X95453200Y-126360000D03*
%TO.P,U1,36,36*%
%TO.N,unconnected-(U1-Pad36)*%
X94183200Y-124460000D03*
%TO.P,U1,37,37*%
%TO.N,unconnected-(U1-Pad37)*%
X92913200Y-126360000D03*
%TO.P,U1,38,38*%
%TO.N,/OUT0+*%
X91643200Y-124460000D03*
%TO.P,U1,39,39*%
%TO.N,/OUT1+*%
X90373200Y-126360000D03*
%TO.P,U1,40,40*%
%TO.N,/OUT2+*%
X89103200Y-124460000D03*
%TO.P,U1,41,41*%
%TO.N,/OUT3+*%
X87833200Y-126360000D03*
%TO.P,U1,42,42*%
%TO.N,/OUT4+*%
X86563200Y-124460000D03*
%TO.P,U1,43,43*%
%TO.N,/OUT5+*%
X85293200Y-126360000D03*
%TO.P,U1,44,44*%
%TO.N,GND*%
X84023200Y-124460000D03*
%TO.P,U1,45,45*%
%TO.N,/OUT6+*%
X82753200Y-126360000D03*
%TO.P,U1,46,46*%
%TO.N,/OUT7+*%
X81483200Y-124460000D03*
%TO.P,U1,47,47*%
%TO.N,/OUT8+*%
X80213200Y-126360000D03*
%TO.P,U1,48,48*%
%TO.N,/OUT9+*%
X78943200Y-124460000D03*
%TO.P,U1,49,49*%
%TO.N,/OUT10+*%
X77673200Y-126360000D03*
%TO.P,U1,50,50*%
%TO.N,/OUT11+*%
X76403200Y-124460000D03*
D13*
%TO.P,U1,S1,S1*%
%TO.N,Net-(C2-Pad1)*%
X114883200Y-124460000D03*
%TO.P,U1,S2,S2*%
X68403200Y-124460000D03*
%TD*%
D14*
%TO.N,GND*%
X121600000Y-112100000D03*
X121600000Y-113500000D03*
X121600000Y-114800000D03*
%TO.N,+3V3*%
X103707400Y-54711000D03*
X106592000Y-73688500D03*
X103707400Y-50541000D03*
X82778600Y-50647200D03*
X82270600Y-55219200D03*
X96931600Y-104647200D03*
X82270600Y-57251200D03*
X106874500Y-90805000D03*
X96921400Y-100476000D03*
X85826600Y-46583200D03*
X103707400Y-58891000D03*
X96942500Y-79633000D03*
X96951400Y-83791000D03*
X96941400Y-75471000D03*
X106573400Y-78370000D03*
X96942500Y-87953000D03*
X96940300Y-71329000D03*
X82270600Y-56235200D03*
X96931400Y-96311000D03*
X96926400Y-67208400D03*
X103698100Y-63031000D03*
X96934600Y-113094400D03*
X83286600Y-49123200D03*
X82270600Y-54203200D03*
X96942500Y-92113000D03*
X96932600Y-108827200D03*
X83794600Y-47599200D03*
X106601800Y-68834000D03*
%TO.N,GND*%
X96931600Y-105790200D03*
X106592000Y-74831500D03*
X96942500Y-93256000D03*
X96934600Y-114237400D03*
X106573400Y-79513000D03*
X103707400Y-60034000D03*
X96941400Y-76614000D03*
X81254600Y-47853200D03*
X96921400Y-101619000D03*
X106874500Y-91948000D03*
X103707400Y-51684000D03*
X96942500Y-80776000D03*
X96942500Y-89096000D03*
X84556600Y-50647200D03*
X96931400Y-97454000D03*
X85826600Y-49123200D03*
X108458000Y-56388000D03*
X96951400Y-84934000D03*
X103698100Y-64174000D03*
X98400000Y-91440000D03*
X96950300Y-68322000D03*
X106601800Y-69977000D03*
X108458000Y-52832000D03*
X96932600Y-109970200D03*
X103707400Y-55854000D03*
X96940300Y-72472000D03*
%TO.N,/VSYNC-*%
X101595721Y-80462921D03*
X111087841Y-105729420D03*
%TO.N,/VSYNC+*%
X100994679Y-79861879D03*
X110237841Y-105729420D03*
%TO.N,/DATA_VALID+*%
X102767999Y-69800500D03*
X108083800Y-105714800D03*
%TO.N,/PIXCLK-*%
X105460800Y-95434600D03*
X115791800Y-105765600D03*
%TO.N,/OUT12-*%
X98577400Y-64847500D03*
%TO.N,/PIXCLK+*%
X114941800Y-105765600D03*
X105460800Y-96284600D03*
%TO.N,/OUT8+*%
X79610400Y-108229400D03*
%TO.N,/OUT5+*%
X85297479Y-111205479D03*
%TO.N,/OUT13-*%
X98501200Y-60707500D03*
X104948521Y-118266679D03*
%TO.N,/OUT12+*%
X98577400Y-63997500D03*
%TO.N,/OUT3+*%
X88345479Y-113491479D03*
%TO.N,/OUT8-*%
X80460400Y-108229400D03*
%TO.N,/OUT13+*%
X104347479Y-118867721D03*
X98501200Y-59857500D03*
%TO.N,/OUT15-*%
X98755200Y-52357500D03*
%TO.N,/OUT10+*%
X75673400Y-108178600D03*
%TO.N,/OUT1-*%
X92248521Y-112822521D03*
%TO.N,/OUT5-*%
X85898521Y-111806521D03*
%TO.N,/OUT3-*%
X88946521Y-114092521D03*
%TO.N,/HSYNC-*%
X102814921Y-75738521D03*
X113455000Y-105714800D03*
%TO.N,/OUT10-*%
X76523400Y-108178600D03*
%TO.N,/OUT1+*%
X91647479Y-112221479D03*
%TO.N,/OUT14-*%
X98602800Y-56527500D03*
%TO.N,/HSYNC+*%
X112605000Y-105714800D03*
X102213879Y-75137479D03*
%TO.N,/DATA_VALID-*%
X102767999Y-70650500D03*
X108933800Y-105714800D03*
%TO.N,/OUT15+*%
X98755200Y-51507500D03*
%TO.N,/OUT14+*%
X98602800Y-55677500D03*
%TO.N,+5V*%
X79750000Y-48000000D03*
X79750000Y-50750000D03*
X79750000Y-50000000D03*
%TD*%
D15*
%TO.N,/VSYNC-*%
X110887842Y-105529421D02*
X111087841Y-105729420D01*
X101595721Y-80462921D02*
X101312878Y-80462921D01*
X101312878Y-80462921D02*
X101266200Y-80509599D01*
X101266200Y-80509599D02*
X101266200Y-95715600D01*
X110887842Y-105337242D02*
X110887842Y-105529421D01*
X101266200Y-95715600D02*
X110887842Y-105337242D01*
%TO.N,/VSYNC+*%
X100816200Y-95902000D02*
X110437840Y-105523640D01*
X100816200Y-80323201D02*
X100816200Y-95902000D01*
X100994679Y-79861879D02*
X100994679Y-80144722D01*
X110437840Y-105523640D02*
X110437840Y-105529421D01*
X110437840Y-105529421D02*
X110237841Y-105729420D01*
X100994679Y-80144722D02*
X100816200Y-80323201D01*
%TO.N,/DATA_VALID+*%
X101029701Y-70000499D02*
X99089000Y-71941200D01*
X108083800Y-105501197D02*
X108083800Y-105714800D01*
X99089000Y-71941200D02*
X99089000Y-96506397D01*
X99089000Y-96506397D02*
X108083800Y-105501197D01*
X102767999Y-69800500D02*
X102568000Y-70000499D01*
X102568000Y-70000499D02*
X101029701Y-70000499D01*
%TO.N,/PIXCLK-*%
X106163599Y-95634599D02*
X115591801Y-105062801D01*
X115591801Y-105565601D02*
X115791800Y-105765600D01*
X115591801Y-105062801D02*
X115591801Y-105565601D01*
X105660799Y-95634599D02*
X106163599Y-95634599D01*
X105460800Y-95434600D02*
X105660799Y-95634599D01*
%TO.N,/OUT12-*%
X106883200Y-120660000D02*
X106273600Y-120050400D01*
X94509800Y-65625200D02*
X95487499Y-64647501D01*
X95487499Y-64647501D02*
X98377401Y-64647501D01*
X94509800Y-98968531D02*
X94509800Y-65625200D01*
X106273600Y-106463400D02*
X99204000Y-99393800D01*
X94935069Y-99393800D02*
X94509800Y-98968531D01*
X106273600Y-120050400D02*
X106273600Y-106463400D01*
X99204000Y-99393800D02*
X94935069Y-99393800D01*
X98377401Y-64647501D02*
X98577400Y-64847500D01*
%TO.N,/PIXCLK+*%
X115141799Y-105249199D02*
X115141799Y-105565601D01*
X105660799Y-96084601D02*
X105977201Y-96084601D01*
X105977201Y-96084601D02*
X115141799Y-105249199D01*
X115141799Y-105565601D02*
X114941800Y-105765600D01*
X105460800Y-96284600D02*
X105660799Y-96084601D01*
%TO.N,/OUT8+*%
X79229200Y-123171200D02*
X79229200Y-121765587D01*
X80213200Y-124155200D02*
X79229200Y-123171200D01*
X80213200Y-126360000D02*
X80213200Y-124155200D01*
X79927200Y-121067587D02*
X79927200Y-119551200D01*
X79927200Y-119551200D02*
X79756000Y-119380000D01*
X79229200Y-121765587D02*
X79927200Y-121067587D01*
X79810399Y-119325601D02*
X79810399Y-108429399D01*
X79810399Y-108429399D02*
X79610400Y-108229400D01*
X79756000Y-119380000D02*
X79810399Y-119325601D01*
%TO.N,/OUT5+*%
X85297479Y-111488322D02*
X85297479Y-111205479D01*
X85007200Y-119805200D02*
X84611000Y-119409000D01*
X84611000Y-112174801D02*
X85297479Y-111488322D01*
X85293200Y-126360000D02*
X85293200Y-124155200D01*
X84309200Y-123171200D02*
X84309200Y-122152413D01*
X84611000Y-119409000D02*
X84611000Y-112174801D01*
X84309200Y-122152413D02*
X85007200Y-121454413D01*
X85293200Y-124155200D02*
X84309200Y-123171200D01*
X85007200Y-121454413D02*
X85007200Y-119805200D01*
%TO.N,/OUT13-*%
X92731800Y-100643200D02*
X94733600Y-102645000D01*
X104161800Y-107069847D02*
X104161800Y-117762801D01*
X99736953Y-102645000D02*
X104161800Y-107069847D01*
X104161800Y-117762801D02*
X104665678Y-118266679D01*
X93836299Y-60507501D02*
X92731800Y-61612000D01*
X92731800Y-61612000D02*
X92731800Y-100643200D01*
X104665678Y-118266679D02*
X104948521Y-118266679D01*
X98301201Y-60507501D02*
X93836299Y-60507501D01*
X98501200Y-60707500D02*
X98301201Y-60507501D01*
X94733600Y-102645000D02*
X99736953Y-102645000D01*
%TO.N,/OUT12+*%
X95301101Y-64197499D02*
X98377401Y-64197499D01*
X105765600Y-121320813D02*
X105765600Y-106591800D01*
X106883200Y-122438413D02*
X105765600Y-121320813D01*
X94059800Y-65438800D02*
X95301101Y-64197499D01*
X94748669Y-99843800D02*
X94059800Y-99154931D01*
X106883200Y-124460000D02*
X106883200Y-122438413D01*
X99017600Y-99843800D02*
X94748669Y-99843800D01*
X98377401Y-64197499D02*
X98577400Y-63997500D01*
X105765600Y-106591800D02*
X99017600Y-99843800D01*
X94059800Y-99154931D02*
X94059800Y-65438800D01*
%TO.N,/OUT3+*%
X86849200Y-122967587D02*
X86849200Y-121765587D01*
X88345479Y-113774322D02*
X88345479Y-113491479D01*
X87376000Y-114743801D02*
X88345479Y-113774322D01*
X87630000Y-120142000D02*
X87630000Y-118872000D01*
X87630000Y-120142000D02*
X87630000Y-119888000D01*
X87833200Y-123951587D02*
X86849200Y-122967587D01*
X86849200Y-121765587D02*
X87630000Y-120984787D01*
X87630000Y-118872000D02*
X87376000Y-118618000D01*
X87833200Y-126360000D02*
X87833200Y-123951587D01*
X87376000Y-118618000D02*
X87376000Y-114743801D01*
X87630000Y-120984787D02*
X87630000Y-120142000D01*
%TO.N,/OUT8-*%
X80260401Y-108429399D02*
X80460400Y-108229400D01*
X80327200Y-119385515D02*
X80260401Y-119318716D01*
X80327200Y-122446000D02*
X80327200Y-119385515D01*
X80213200Y-122560000D02*
X80327200Y-122446000D01*
X80260401Y-119318716D02*
X80260401Y-108429399D01*
%TO.N,/OUT13+*%
X104347479Y-118584878D02*
X104347479Y-118867721D01*
X92281800Y-100829600D02*
X94547200Y-103095000D01*
X98501200Y-59857500D02*
X98301201Y-60057499D01*
X103711800Y-107256247D02*
X103711800Y-117949199D01*
X93649901Y-60057499D02*
X92281800Y-61425600D01*
X94547200Y-103095000D02*
X99550553Y-103095000D01*
X103711800Y-117949199D02*
X104347479Y-118584878D01*
X98301201Y-60057499D02*
X93649901Y-60057499D01*
X92281800Y-61425600D02*
X92281800Y-100829600D01*
X99550553Y-103095000D02*
X103711800Y-107256247D01*
%TO.N,/OUT15-*%
X100809000Y-118058601D02*
X100855678Y-118105279D01*
X92585099Y-52157501D02*
X88820200Y-55922400D01*
X98755200Y-52357500D02*
X98555201Y-52157501D01*
X93565200Y-111027000D02*
X99153200Y-111027000D01*
X101803200Y-119052801D02*
X100809000Y-118058601D01*
X101803200Y-120660000D02*
X101803200Y-119052801D01*
X88820200Y-55922400D02*
X88820200Y-106282000D01*
X98555201Y-52157501D02*
X92585099Y-52157501D01*
X88820200Y-106282000D02*
X93565200Y-111027000D01*
X99153200Y-111027000D02*
X100809000Y-112682800D01*
X100809000Y-112682800D02*
X100809000Y-118058601D01*
%TO.N,/OUT10+*%
X77387200Y-121240800D02*
X77387200Y-119805200D01*
X75873399Y-117491999D02*
X75873399Y-108378599D01*
X77244999Y-119605001D02*
X77244999Y-118863599D01*
X77673200Y-123951587D02*
X76689200Y-122967587D01*
X77673200Y-126360000D02*
X77673200Y-123951587D01*
X75873399Y-108378599D02*
X75673400Y-108178600D01*
X77216000Y-119634000D02*
X77244999Y-119605001D01*
X76689200Y-121938800D02*
X77387200Y-121240800D01*
X77244999Y-118863599D02*
X75873399Y-117491999D01*
X76689200Y-122967587D02*
X76689200Y-121938800D01*
X77387200Y-119805200D02*
X77216000Y-119634000D01*
%TO.N,/OUT1-*%
X90570000Y-116186000D02*
X91411000Y-115345000D01*
X91411000Y-113377199D02*
X91965678Y-112822521D01*
X90373200Y-122560000D02*
X90570000Y-122363200D01*
D16*
X90373200Y-122560000D02*
X90497000Y-122436200D01*
D15*
X91965678Y-112822521D02*
X92248521Y-112822521D01*
D16*
X90373200Y-122560000D02*
X90533500Y-122399700D01*
D15*
X90570000Y-122363200D02*
X90570000Y-116186000D01*
X91411000Y-115345000D02*
X91411000Y-113377199D01*
%TO.N,/OUT5-*%
X85061000Y-112361199D02*
X85615678Y-111806521D01*
X85407200Y-119189200D02*
X85061000Y-118843000D01*
X85061000Y-118843000D02*
X85061000Y-112361199D01*
X85407200Y-122446000D02*
X85407200Y-119189200D01*
X85293200Y-122560000D02*
X85407200Y-122446000D01*
X85615678Y-111806521D02*
X85898521Y-111806521D01*
%TO.N,/OUT3-*%
X88663678Y-114092521D02*
X88946521Y-114092521D01*
X88030000Y-122363200D02*
X88030000Y-118764000D01*
X88030000Y-118726000D02*
X88030000Y-114726199D01*
X88030000Y-114726199D02*
X88663678Y-114092521D01*
X87833200Y-122560000D02*
X88030000Y-122363200D01*
%TO.N,/HSYNC-*%
X102688600Y-85628994D02*
X102663880Y-85604274D01*
X113255001Y-105514801D02*
X113255001Y-105316801D01*
X113455000Y-105714800D02*
X113255001Y-105514801D01*
X113255001Y-105316801D02*
X102688600Y-94750400D01*
X102663880Y-75889562D02*
X102814921Y-75738521D01*
X102688600Y-94750400D02*
X102688600Y-85628994D01*
X102663880Y-85604274D02*
X102663880Y-75889562D01*
%TO.N,/OUT10-*%
X77787200Y-122446000D02*
X77787200Y-119639514D01*
X77673200Y-122560000D02*
X77787200Y-122446000D01*
X77695001Y-118677201D02*
X76323401Y-117305601D01*
X77787200Y-119639514D02*
X77695001Y-119547315D01*
X77695001Y-119547315D02*
X77695001Y-118677201D01*
X76323401Y-108378599D02*
X76523400Y-108178600D01*
X76323401Y-117305601D02*
X76323401Y-108378599D01*
%TO.N,/OUT1+*%
X90170000Y-120984787D02*
X90170000Y-115900523D01*
X90373200Y-126360000D02*
X90373200Y-123951587D01*
X91647479Y-112504322D02*
X91647479Y-112221479D01*
X90170000Y-115900523D02*
X90961000Y-115109523D01*
X90373200Y-123951587D02*
X89389200Y-122967587D01*
X89389200Y-122967587D02*
X89389200Y-121765587D01*
X89389200Y-121765587D02*
X90170000Y-120984787D01*
X90961000Y-113190801D02*
X91647479Y-112504322D01*
X90961000Y-115109523D02*
X90961000Y-113190801D01*
%TO.N,/OUT14-*%
X93241099Y-56327501D02*
X90903000Y-58665600D01*
X102434600Y-117915200D02*
X102434600Y-109126800D01*
X103073200Y-122560000D02*
X103359200Y-122274000D01*
X103359200Y-118839800D02*
X102434600Y-117915200D01*
X98602800Y-56527500D02*
X98402801Y-56327501D01*
X90903000Y-104300800D02*
X90903000Y-58665600D01*
X93666800Y-107064600D02*
X90903000Y-104300800D01*
X102434600Y-109126800D02*
X100372400Y-107064600D01*
X100372400Y-107064600D02*
X93666800Y-107064600D01*
X103359200Y-122274000D02*
X103359200Y-118839800D01*
X98402801Y-56327501D02*
X93241099Y-56327501D01*
%TO.N,/HSYNC+*%
X112605000Y-105714800D02*
X112804999Y-105514801D01*
X102238600Y-94936800D02*
X102238600Y-85801200D01*
X112804999Y-105503199D02*
X102238600Y-94936800D01*
X102213879Y-85776479D02*
X102213879Y-75137479D01*
X112804999Y-105514801D02*
X112804999Y-105503199D01*
X102238600Y-85801200D02*
X102213879Y-85776479D01*
%TO.N,/DATA_VALID-*%
X102767999Y-70650500D02*
X102568000Y-70450501D01*
X99539000Y-96320000D02*
X108933800Y-105714800D01*
X101216099Y-70450501D02*
X99539000Y-72127600D01*
X102568000Y-70450501D02*
X101216099Y-70450501D01*
X99539000Y-72127600D02*
X99539000Y-96320000D01*
%TO.N,/OUT15+*%
X93378800Y-111477000D02*
X98966800Y-111477000D01*
X101381806Y-121630194D02*
X101689200Y-121937588D01*
X101689200Y-124346000D02*
X101803200Y-124460000D01*
X100359000Y-118244999D02*
X100787200Y-118673199D01*
X100787200Y-121035587D02*
X101381806Y-121630194D01*
X92398701Y-51707499D02*
X88370200Y-55736000D01*
X101689200Y-121937588D02*
X101689200Y-124346000D01*
X98966800Y-111477000D02*
X100359000Y-112869200D01*
X88370200Y-55736000D02*
X88370200Y-106468400D01*
X100359000Y-112869200D02*
X100359000Y-118244999D01*
X88370200Y-106468400D02*
X93378800Y-111477000D01*
X100359000Y-118244999D02*
X100537479Y-118423478D01*
X100787200Y-118673199D02*
X100787200Y-121035587D01*
X98755200Y-51507500D02*
X98555201Y-51707499D01*
X98555201Y-51707499D02*
X92398701Y-51707499D01*
%TO.N,/OUT14+*%
X102089200Y-121938800D02*
X102787200Y-121240800D01*
X90453000Y-104487200D02*
X90453000Y-58479200D01*
X100186000Y-107514600D02*
X93480400Y-107514600D01*
X101984600Y-109313200D02*
X100186000Y-107514600D01*
X98602800Y-55677500D02*
X98402801Y-55877499D01*
X102787200Y-118904200D02*
X101984600Y-118101600D01*
X102089200Y-122967587D02*
X102089200Y-121938800D01*
X93480400Y-107514600D02*
X90453000Y-104487200D01*
X98402801Y-55877499D02*
X93054701Y-55877499D01*
X93054701Y-55877499D02*
X90453000Y-58479200D01*
X103073200Y-126360000D02*
X103073200Y-123951587D01*
X101984600Y-118101600D02*
X101984600Y-109313200D01*
X102787200Y-121240800D02*
X102787200Y-118904200D01*
X103073200Y-123951587D02*
X102089200Y-122967587D01*
%TD*%
M02*
